<svg width="157" height="141" viewBox="0 0 157 141" fill="none" xmlns="http://www.w3.org/2000/svg">
<path d="M138.619 40.2579L121.232 30.1192L138.619 19.9805V40.2579V40.2579ZM138.619 40.2579L156 30.1192L138.619 19.9805V40.2579ZM103.851 40.2579L86.4705 30.1192L103.851 19.9805V40.2579V40.2579Z" stroke="#0673BB" stroke-width="0.285645" stroke-miterlimit="10"/>
<path d="M86.5582 30.2735L104.122 20.1348L86.5582 9.98926V30.2735Z" stroke="#2191D0" stroke-width="0.285645" stroke-miterlimit="10"/>
<path d="M121.327 30.2745L103.939 20.1358L121.327 9.99707V30.2745V30.2745ZM121.327 30.2745L138.708 20.1358L121.327 9.99707V30.2745ZM86.5587 30.2745L69.178 20.1358L86.5587 9.99707V30.2745Z" stroke="#0673BB" stroke-width="0.285645" stroke-miterlimit="10"/>
<path d="M51.9727 30.2745L69.5361 20.1358L51.9727 9.99707V30.2745Z" stroke="#0673BB" stroke-width="0.285645" stroke-miterlimit="10"/>
<path d="M51.9727 9.99707L69.5361 20.1358L51.9727 30.2745V9.99707Z" stroke="#005594" stroke-width="0.285645" stroke-miterlimit="10"/>
<path d="M69.2319 59.9858L86.5855 49.9689L69.2319 39.952V59.9858ZM51.8783 110.077L69.2319 100.06L51.8783 90.0433V110.084V110.077ZM69.2319 120.094L51.8783 110.077L69.2319 100.06V120.101V120.094ZM51.8783 130.111L69.2319 120.094L51.8783 110.077V130.118V130.111ZM138.646 39.9452L156 49.9622L138.646 59.9791V39.9385V39.9452Z" stroke="#95D5F4" stroke-width="0.285645" stroke-miterlimit="10"/>
<path d="M86.5582 70.2129L104.122 60.0674L86.5582 49.9287V70.2129Z" stroke="#2191D0" stroke-width="0.285645" stroke-miterlimit="10"/>
<path d="M104.027 60.2305L86.4639 50.085L104.027 39.9463V60.2305Z" stroke="#95D5F4" stroke-width="0.285645" stroke-miterlimit="10"/>
<path d="M86.7344 70.2129L69.1709 60.0674L86.7344 49.9287V70.2129Z" stroke="#95D5F4" stroke-width="0.285645" stroke-miterlimit="10"/>
<path d="M86.5582 50.2471L104.122 40.1016L86.5582 29.9629V50.2471Z" stroke="#2191D0" stroke-width="0.285645" stroke-miterlimit="10"/>
<path d="M86.7344 50.2471L69.1709 40.1016L86.7344 29.9629V50.2471Z" stroke="#005594" stroke-width="0.285645" stroke-miterlimit="10"/>
<path d="M69.4419 39.9463L51.8785 50.085L69.4419 60.2305V39.9463Z" stroke="#28A7E0" stroke-width="0.285645" stroke-miterlimit="10"/>
<path d="M51.9727 29.9629L69.5361 40.1016L51.9727 50.2471V29.9629Z" stroke="#0673BB" stroke-width="0.285645" stroke-miterlimit="10"/>
<path d="M86.7344 110.145L69.3537 100.108L86.7344 90.0708V110.145ZM51.9662 49.9287L69.3469 59.9659L51.9662 70.0031V49.9287Z" stroke="#28A7E0" stroke-width="0.285645" stroke-miterlimit="10"/>
<path d="M69.3537 40.2579L51.8782 30.1192L69.3537 19.9805V40.2579ZM69.3537 40.2579L86.8291 30.1192L69.3537 19.9805V40.2579Z" stroke="#52C2ED" stroke-width="0.285645" stroke-miterlimit="10"/>
<path d="M69.2593 40.2579L86.8228 30.1192L69.2593 19.9805V40.2579Z" stroke="#2191D0" stroke-width="0.285645" stroke-miterlimit="10"/>
<path d="M103.94 0.00683594L121.408 10.017L103.94 20.0203V0.00683594ZM103.94 140.095L86.4642 130.084L103.94 120.081V140.095V140.095ZM103.94 140.095L121.415 130.084L103.94 120.081V140.095Z" stroke="#95D5F4" stroke-width="0.285645" stroke-miterlimit="10"/>
<path d="M104.034 0.0136719L86.4635 10.1524L104.034 20.2911V0.0136719Z" stroke="#005594" stroke-width="0.285645" stroke-miterlimit="10"/>
<path d="M69.3537 20.2911L51.8782 10.1523L69.3537 0.00683594V20.2911ZM69.3537 0.0136041L51.8782 10.1523L69.3537 20.2911V0.00683594V0.0136041ZM69.3537 0.0136041L86.8291 10.1523L69.3537 20.2911V0.00683594V0.0136041Z" stroke="#0673BB" stroke-width="0.285645" stroke-miterlimit="10"/>
<path d="M69.2657 20.2911L86.8291 10.1523L69.2657 0.00683594V20.2911Z" stroke="#CCEAFA" stroke-width="0.285645" stroke-miterlimit="10"/>
<path d="M0.0884285 40.2579L17.6519 30.1192L0.0884285 19.9805V40.2579Z" stroke="#95D5F4" stroke-width="0.285645" stroke-miterlimit="10"/>
<path d="M34.7682 40.2579L17.2928 30.1192L34.7682 19.9805V40.2579ZM34.7682 40.2579L52.2437 30.1192L34.7682 19.9805V40.2579Z" stroke="#0673BB" stroke-width="0.285645" stroke-miterlimit="10"/>
<path d="M52.1494 49.9287L34.586 60.0742L52.1494 70.2129V49.9287Z" stroke="#95D5F4" stroke-width="0.285645" stroke-miterlimit="10"/>
<path d="M52.1494 29.9629L34.586 40.1016L52.1494 50.2471V29.9629Z" stroke="#0673BB" stroke-width="0.285645" stroke-miterlimit="10"/>
<path d="M34.856 19.9805L17.2925 30.1192L34.856 40.2647V19.9805Z" stroke="#CCEAFA" stroke-width="0.285645" stroke-miterlimit="10"/>
<path d="M17.3809 29.9629L34.9443 40.1016L17.3809 50.2471V29.9629Z" stroke="#2191D0" stroke-width="0.285645" stroke-miterlimit="10"/>
<path d="M34.6734 19.9805L52.2368 30.1192L34.6734 40.2647V19.9805Z" stroke="#CCEAFA" stroke-width="0.285645" stroke-miterlimit="10"/>
<path d="M17.4757 30.2745L0.000287009 20.1358L17.4757 9.99707V30.2813V30.2745ZM17.4757 30.2745L34.9512 20.1358L17.4757 9.99707V30.2813V30.2745Z" stroke="#0673BB" stroke-width="0.285645" stroke-miterlimit="10"/>
<path d="M17.3809 9.99707L34.9443 20.1358L17.3809 30.2745V9.99707Z" stroke="#95D5F4" stroke-width="0.285645" stroke-miterlimit="10"/>
<path d="M34.856 39.9463L17.2925 50.085L34.856 60.2305V39.9463Z" stroke="#2191D0" stroke-width="0.285645" stroke-miterlimit="10"/>
<path d="M34.6734 39.9463L52.2368 50.085L34.6734 60.2305V39.9463Z" stroke="#95D5F4" stroke-width="0.285645" stroke-miterlimit="10"/>
<path d="M17.5635 50.2471L3.93115e-05 40.1016L17.5635 29.9629V50.2471Z" stroke="#005594" stroke-width="0.285645" stroke-miterlimit="10"/>
<path d="M17.5635 49.9287L3.93115e-05 60.0742L17.5635 70.2129V49.9287Z" stroke="#005594" stroke-width="0.285645" stroke-miterlimit="10"/>
<path d="M17.3809 49.9287L34.9443 60.0742L17.3809 70.2129V49.9287Z" stroke="#95D5F4" stroke-width="0.285645" stroke-miterlimit="10"/>
<path d="M52.1494 9.99707L34.586 20.1358L52.1494 30.2745V9.99707Z" stroke="#005594" stroke-width="0.285645" stroke-miterlimit="10"/>
<path d="M0.0884285 0.00683594L17.6519 10.017L0.0884285 20.0203V0.00683594ZM0.0884285 140.101L17.6519 130.091L0.0884285 120.088V140.101Z" stroke="#95D5F4" stroke-width="0.285645" stroke-miterlimit="10"/>
<path d="M34.7682 0.0136719L17.2928 10.1524L34.7682 20.2911V0.0136719ZM34.7682 0.0136719L52.2437 10.1524L34.7682 20.2911V0.0136719Z" stroke="#0673BB" stroke-width="0.285645" stroke-miterlimit="10"/>
<path d="M34.7682 20.2911L52.2437 10.1524L34.7682 0.0136719V20.2911ZM34.7682 20.2911L17.2928 10.1524L34.7682 0.0136719V20.2911Z" stroke="#CCEAFA" stroke-width="0.285645" stroke-miterlimit="10"/>
<path d="M26.2065 24.9678L17.2928 30.1184L26.2065 35.2689V24.9678Z" stroke="#2191D0" stroke-width="0.285645" stroke-miterlimit="10"/>
<path d="M17.5635 19.9805L8.64301 25.1311L17.5635 30.2749V19.9805Z" stroke="#52C2ED" stroke-width="0.285645" stroke-miterlimit="10"/>
<path d="M17.3808 19.9805L26.3013 25.1311L17.3808 30.2749V19.9805Z" stroke="#2191D0" stroke-width="0.285645" stroke-miterlimit="10"/>
<path d="M17.4756 29.9629L26.3013 35.1135L17.4756 40.2641V29.9697V29.9629ZM17.4756 29.9629L8.64985 35.1135L17.4756 40.2641V29.9697V29.9629Z" stroke="#95D5F4" stroke-width="0.285645" stroke-miterlimit="10"/>
<path d="M8.73816 24.9678L17.6519 30.1184L8.73816 35.2689V24.9678Z" stroke="#005594" stroke-width="0.285645" stroke-miterlimit="10"/>
<path d="M78.0913 4.99512L69.1709 10.1457L78.0913 15.2895V4.99512Z" stroke="#0673BB" stroke-width="0.285645" stroke-miterlimit="10"/>
<path d="M69.4419 0L60.5282 5.15059L69.4419 10.3012V0Z" stroke="#005594" stroke-width="0.285645" stroke-miterlimit="10"/>
<path d="M60.6157 4.99512L69.5361 10.1457L60.6157 15.2895V4.99512Z" stroke="#2191D0" stroke-width="0.285645" stroke-miterlimit="10"/>
<path d="M69.2592 0L78.1797 5.15059L69.2592 10.3012V0Z" stroke="#52C2ED" stroke-width="0.285645" stroke-miterlimit="10"/>
<path d="M69.4419 9.9834L60.5282 15.134L69.4419 20.2846V9.9834Z" stroke="#2191D0" stroke-width="0.285645" stroke-miterlimit="10"/>
<path d="M69.2592 9.9834L78.1797 15.134L69.2592 20.2846V9.9834Z" stroke="#95D5F4" stroke-width="0.285645" stroke-miterlimit="10"/>
<path d="M60.6157 55.2494L69.5361 50.0988L60.6157 44.9482V55.2494Z" stroke="#0673BB" stroke-width="0.285645" stroke-miterlimit="10"/>
<path d="M69.2592 60.2368L78.1797 55.093L69.2592 49.9424V60.2368Z" stroke="#005594" stroke-width="0.285645" stroke-miterlimit="10"/>
<path d="M78.0913 55.2494L69.1709 50.0988L78.0913 44.9482V55.2494Z" stroke="#2191D0" stroke-width="0.285645" stroke-miterlimit="10"/>
<path d="M69.4419 60.2368L60.5282 55.093L69.4419 49.9424V60.2368Z" stroke="#52C2ED" stroke-width="0.285645" stroke-miterlimit="10"/>
<path d="M69.2592 50.2534L78.1797 45.1096L69.2592 39.959V50.2534Z" stroke="#2191D0" stroke-width="0.285645" stroke-miterlimit="10"/>
<path d="M69.4419 50.2534L60.5214 45.1096L69.4419 39.959V50.2534Z" stroke="#95D5F4" stroke-width="0.285645" stroke-miterlimit="10"/>
</svg>
