<svg width="390" height="558" viewBox="0 0 390 558" fill="none" xmlns="http://www.w3.org/2000/svg">
<g opacity="0.6">
<path d="M176.089 72.4292L145.025 54.4929L176.089 36.5566V72.4292Z" stroke="#005593" stroke-width="0.41312" stroke-miterlimit="10"/>
<path d="M176.09 72.4292L207.155 54.4929L176.09 36.5566V72.4292Z" stroke="#005593" stroke-width="0.41312" stroke-miterlimit="10"/>
<path d="M-10.3157 72.4292L20.7491 54.4845L-10.3157 36.5566V72.4292Z" stroke="#005593" stroke-width="0.41312" stroke-miterlimit="10"/>
<path d="M51.8228 72.4292L82.8875 54.4845L51.8228 36.5566V72.4292Z" stroke="#005593" stroke-width="0.41312" stroke-miterlimit="10"/>
<path d="M51.8225 72.4292L20.7493 54.4845L51.8225 36.5566V72.4292Z" stroke="#005593" stroke-width="0.41312" stroke-miterlimit="10"/>
<path d="M238.227 180.047L207.154 197.983L238.227 215.919V180.047Z" stroke="#005593" stroke-width="0.41312" stroke-miterlimit="10"/>
<path d="M20.7491 54.4927L-10.3157 36.5564L20.7491 18.6201V54.4927Z" stroke="#005593" stroke-width="0.41312" stroke-miterlimit="10"/>
<path d="M20.7493 54.4927L51.814 36.5564L20.7493 18.6201V54.4927Z" stroke="#005593" stroke-width="0.41312" stroke-miterlimit="10"/>
<path d="M20.7493 18.6201L51.814 36.5564L20.7493 54.4927V18.6201Z" stroke="#005593" stroke-width="0.41312" stroke-miterlimit="10"/>
<path d="M20.7491 18.6201L-10.3157 36.5564L20.7491 54.4927V18.6201Z" stroke="#005593" stroke-width="0.41312" stroke-miterlimit="10"/>
<path d="M82.8785 54.4839L51.8137 36.5476L82.8785 18.6113V54.4839Z" stroke="#005593" stroke-width="0.41312" stroke-miterlimit="10"/>
<path d="M82.8784 54.4839L113.943 36.5476L82.8784 18.6113V54.4839Z" stroke="#005593" stroke-width="0.41312" stroke-miterlimit="10"/>
<path d="M82.8784 18.6113L113.943 36.5476L82.8784 54.4839V18.6113Z" stroke="#005593" stroke-width="0.41312" stroke-miterlimit="10"/>
<path d="M82.8785 18.6113L51.8137 36.5476L82.8785 54.4839V18.6113Z" stroke="#005593" stroke-width="0.41312" stroke-miterlimit="10"/>
<path d="M207.155 54.4924L176.09 36.5476L207.155 18.6113V54.4924Z" stroke="#005593" stroke-width="0.41312" stroke-miterlimit="10"/>
<path d="M207.154 54.4924L238.227 36.5476L207.154 18.6113V54.4924Z" stroke="#005593" stroke-width="0.41312" stroke-miterlimit="10"/>
<path d="M145.025 54.4924L113.952 36.5476L145.025 18.6113V54.4924Z" stroke="#005593" stroke-width="0.41312" stroke-miterlimit="10"/>
<path d="M145.025 54.4924L176.089 36.5476L145.025 18.6113V54.4924Z" stroke="#005593" stroke-width="0.41312" stroke-miterlimit="10"/>
<path d="M145.025 18.6211L176.089 36.5574L145.025 54.4937V18.6211Z" stroke="#005593" stroke-width="0.41312" stroke-miterlimit="10"/>
<path d="M145.025 18.6201L113.952 36.5564L145.025 54.4927V18.6201Z" stroke="#005593" stroke-width="0.41312" stroke-miterlimit="10"/>
<path d="M20.7491 162.111L-10.3157 144.175L20.7491 126.238V162.111Z" stroke="#005593" stroke-width="0.41312" stroke-miterlimit="10"/>
<path d="M-10.3154 180.047L20.7493 162.111L-10.3154 144.175V180.047Z" stroke="#005593" stroke-width="0.41312" stroke-miterlimit="10"/>
<path d="M-10.3154 144.175L20.7493 126.239L-10.3154 108.303V144.175Z" stroke="#005593" stroke-width="0.41312" stroke-miterlimit="10"/>
<path d="M20.7493 233.856L-10.3154 215.92L20.7493 197.983V233.856Z" stroke="#005593" stroke-width="0.41312" stroke-miterlimit="10"/>
<path d="M20.7578 90.3658L-10.3154 72.4295L20.7578 54.4932V90.3658Z" stroke="#005593" stroke-width="0.41312" stroke-miterlimit="10"/>
<path d="M-10.3157 108.302L20.7576 90.366L-10.3157 72.4297V108.302Z" stroke="#005593" stroke-width="0.41312" stroke-miterlimit="10"/>
<path d="M191.622 153.147L176.09 144.175L191.622 135.211V153.147Z" stroke="#005593" stroke-width="0.41312" stroke-miterlimit="10"/>
<path d="M176.09 162.111L160.558 153.147L176.09 144.175V162.111Z" stroke="#005593" stroke-width="0.41312" stroke-miterlimit="10"/>
<path d="M176.09 162.111L191.622 153.147L176.09 144.175V162.111Z" stroke="#005593" stroke-width="0.41312" stroke-miterlimit="10"/>
<path d="M176.09 144.175L160.558 135.211L176.09 126.238V144.175Z" stroke="#005593" stroke-width="0.41312" stroke-miterlimit="10"/>
<path d="M176.09 144.175L191.622 135.211L176.09 126.238V144.175Z" stroke="#005593" stroke-width="0.41312" stroke-miterlimit="10"/>
<path d="M160.558 153.147L176.09 144.175L160.558 135.211V153.147Z" stroke="#005593" stroke-width="0.41312" stroke-miterlimit="10"/>
<path d="M5.21695 153.138L-10.3154 144.175L5.21695 135.202V153.138Z" stroke="#005593" stroke-width="0.41312" stroke-miterlimit="10"/>
<path d="M-10.3154 162.111L5.21695 153.139L-10.3154 144.175V162.111Z" stroke="#005593" stroke-width="0.41312" stroke-miterlimit="10"/>
<path d="M300.357 108.303L269.292 126.239L300.357 144.175V108.303Z" stroke="#005593" stroke-width="0.41312" stroke-miterlimit="10"/>
<path d="M269.292 90.3652L238.228 108.302L269.292 126.238V90.3652Z" stroke="#005593" stroke-width="0.41312" stroke-miterlimit="10"/>
<path d="M238.228 108.303L269.292 126.239L238.228 144.175V108.303Z" stroke="#005593" stroke-width="0.41312" stroke-miterlimit="10"/>
<path d="M269.292 90.3652L300.357 108.302L269.292 126.238V90.3652Z" stroke="#005593" stroke-width="0.41312" stroke-miterlimit="10"/>
<path d="M269.292 126.238L238.228 144.175L269.292 162.111V126.238Z" stroke="#005593" stroke-width="0.41312" stroke-miterlimit="10"/>
<path d="M269.292 126.238L300.357 144.175L269.292 162.111V126.238Z" stroke="#005593" stroke-width="0.41312" stroke-miterlimit="10"/>
<path d="M269.292 162.111L238.228 180.048L269.292 197.984V162.111Z" stroke="#005593" stroke-width="0.41312" stroke-miterlimit="10"/>
<path d="M269.292 162.111L300.365 180.048L269.292 197.984V162.111Z" stroke="#005593" stroke-width="0.41312" stroke-miterlimit="10"/>
<path d="M207.163 197.983L176.09 215.92L207.163 233.856V197.983Z" stroke="#005593" stroke-width="0.41312" stroke-miterlimit="10"/>
<path d="M207.163 197.983L238.228 215.92L207.163 233.856V197.983Z" stroke="#005593" stroke-width="0.41312" stroke-miterlimit="10"/>
<path d="M269.292 54.4932L238.228 72.4295L269.292 90.3658V54.4932Z" stroke="#005593" stroke-width="0.41312" stroke-miterlimit="10"/>
<path d="M238.227 36.5566L207.154 54.4929L238.227 72.4292V36.5566Z" stroke="#005593" stroke-width="0.41312" stroke-miterlimit="10"/>
<path d="M207.154 54.4932L238.227 72.4295L207.154 90.3658V54.4932Z" stroke="#005593" stroke-width="0.41312" stroke-miterlimit="10"/>
<path d="M238.228 36.5566L269.292 54.4929L238.228 72.4292V36.5566Z" stroke="#005593" stroke-width="0.41312" stroke-miterlimit="10"/>
<path d="M238.227 72.4297L207.154 90.366L238.227 108.302V72.4297Z" stroke="#005593" stroke-width="0.41312" stroke-miterlimit="10"/>
<path d="M238.228 72.4297L269.292 90.366L238.228 108.302V72.4297Z" stroke="#005593" stroke-width="0.41312" stroke-miterlimit="10"/>
<path d="M51.8228 215.919L82.8875 197.983L51.8228 180.047V215.919Z" stroke="#005593" stroke-width="0.41312" stroke-miterlimit="10"/>
<path d="M82.8872 233.856L113.952 215.92L82.8872 197.983V233.856Z" stroke="#005593" stroke-width="0.41312" stroke-miterlimit="10"/>
<path d="M113.952 215.919L82.8872 197.983L113.952 180.047V215.919Z" stroke="#005593" stroke-width="0.41312" stroke-miterlimit="10"/>
<path d="M82.8875 233.856L51.8228 215.92L82.8875 197.983V233.856Z" stroke="#005593" stroke-width="0.41312" stroke-miterlimit="10"/>
<path d="M82.8875 197.984L51.8228 180.048L82.8875 162.111V197.984Z" stroke="#005593" stroke-width="0.41312" stroke-miterlimit="10"/>
<path d="M82.8872 197.984L113.952 180.048L82.8872 162.111V197.984Z" stroke="#005593" stroke-width="0.41312" stroke-miterlimit="10"/>
<path d="M82.8875 126.238L51.8228 144.175L82.8875 162.111V126.238Z" stroke="#005593" stroke-width="0.41312" stroke-miterlimit="10"/>
<path d="M51.8222 108.303L20.749 126.239L51.8222 144.175V108.303Z" stroke="#005593" stroke-width="0.41312" stroke-miterlimit="10"/>
<path d="M20.7493 126.238L51.8225 144.175L20.7493 162.111V126.238Z" stroke="#005593" stroke-width="0.41312" stroke-miterlimit="10"/>
<path d="M51.8228 108.303L82.8875 126.239L51.8228 144.175V108.303Z" stroke="#005593" stroke-width="0.41312" stroke-miterlimit="10"/>
<path d="M51.8222 144.175L20.749 162.111L51.8222 180.047V144.175Z" stroke="#005593" stroke-width="0.41312" stroke-miterlimit="10"/>
<path d="M51.8228 144.175L82.8875 162.111L51.8228 180.047V144.175Z" stroke="#005593" stroke-width="0.41312" stroke-miterlimit="10"/>
<path d="M132.591 47.3232L145.017 54.4927L132.591 61.6621V47.3232Z" stroke="#005593" stroke-width="0.41312" stroke-miterlimit="10"/>
<path d="M145.025 126.238L176.089 108.302L145.025 90.3652V126.238Z" stroke="#005593" stroke-width="0.41312" stroke-miterlimit="10"/>
<path d="M176.089 108.302L145.025 90.366L176.089 72.4297V108.302Z" stroke="#005593" stroke-width="0.41312" stroke-miterlimit="10"/>
<path d="M207.155 90.3658L176.09 72.4295L207.155 54.4932V90.3658Z" stroke="#005593" stroke-width="0.41312" stroke-miterlimit="10"/>
<path d="M145.025 90.3658L176.089 72.4295L145.025 54.4932V90.3658Z" stroke="#005593" stroke-width="0.41312" stroke-miterlimit="10"/>
<path d="M145.025 90.3658L113.952 72.4295L145.025 54.4932V90.3658Z" stroke="#005593" stroke-width="0.41312" stroke-miterlimit="10"/>
<path d="M82.8872 162.111L113.952 144.175L82.8872 126.238V162.111Z" stroke="#005593" stroke-width="0.41312" stroke-miterlimit="10"/>
<path d="M238.228 180.047L269.292 162.111L238.228 144.175V180.047Z" stroke="#005593" stroke-width="0.41312" stroke-miterlimit="10"/>
<path d="M145.025 162.111L113.952 144.175L145.025 126.238V162.111Z" stroke="#005593" stroke-width="0.41312" stroke-miterlimit="10"/>
<path d="M113.952 144.175L145.025 126.239L113.952 108.303V144.175Z" stroke="#005593" stroke-width="0.41312" stroke-miterlimit="10"/>
<path d="M113.952 144.175L82.8872 126.239L113.952 108.303V144.175Z" stroke="#005593" stroke-width="0.41312" stroke-miterlimit="10"/>
<path d="M113.952 72.4297L82.8872 90.366L113.952 108.302V72.4297Z" stroke="#005593" stroke-width="0.41312" stroke-miterlimit="10"/>
<path d="M82.8875 54.4932L51.8228 72.4295L82.8875 90.3658V54.4932Z" stroke="#005593" stroke-width="0.41312" stroke-miterlimit="10"/>
<path d="M51.8228 72.4297L82.8875 90.366L51.8228 108.302V72.4297Z" stroke="#005593" stroke-width="0.41312" stroke-miterlimit="10"/>
<path d="M82.8872 54.4932L113.952 72.4295L82.8872 90.3658V54.4932Z" stroke="#005593" stroke-width="0.41312" stroke-miterlimit="10"/>
<path d="M82.8875 90.3652L51.8228 108.302L82.8875 126.238V90.3652Z" stroke="#005593" stroke-width="0.41312" stroke-miterlimit="10"/>
<path d="M82.8872 90.3652L113.952 108.302L82.8872 126.238V90.3652Z" stroke="#005593" stroke-width="0.41312" stroke-miterlimit="10"/>
<path d="M98.4197 117.266L113.952 108.302L98.4197 99.3301V117.266Z" stroke="#005593" stroke-width="0.41312" stroke-miterlimit="10"/>
<path d="M113.952 126.239L129.493 117.267L113.952 108.303V126.239Z" stroke="#005593" stroke-width="0.41312" stroke-miterlimit="10"/>
<path d="M129.493 117.266L113.952 108.302L129.493 99.3301V117.266Z" stroke="#005593" stroke-width="0.41312" stroke-miterlimit="10"/>
<path d="M113.952 126.239L98.4197 117.267L113.952 108.303V126.239Z" stroke="#005593" stroke-width="0.41312" stroke-miterlimit="10"/>
<path d="M113.952 108.302L129.493 99.3291L113.952 90.3652V108.302Z" stroke="#005593" stroke-width="0.41312" stroke-miterlimit="10"/>
<path d="M113.952 108.302L98.4197 99.3291L113.952 90.3652V108.302Z" stroke="#005593" stroke-width="0.41312" stroke-miterlimit="10"/>
<path d="M129.484 171.084L113.952 180.048L129.484 189.02V171.084Z" stroke="#005593" stroke-width="0.41312" stroke-miterlimit="10"/>
<path d="M113.952 162.111L98.4197 171.084L113.952 180.048V162.111Z" stroke="#005593" stroke-width="0.41312" stroke-miterlimit="10"/>
<path d="M98.4197 171.084L113.952 180.048L98.4197 189.02V171.084Z" stroke="#005593" stroke-width="0.41312" stroke-miterlimit="10"/>
<path d="M113.952 162.111L129.484 171.084L113.952 180.048V162.111Z" stroke="#005593" stroke-width="0.41312" stroke-miterlimit="10"/>
<path d="M113.952 180.047L98.4197 189.019L113.952 197.983V180.047Z" stroke="#005593" stroke-width="0.41312" stroke-miterlimit="10"/>
<path d="M113.952 180.047L129.484 189.019L113.952 197.983V180.047Z" stroke="#005593" stroke-width="0.41312" stroke-miterlimit="10"/>
<path d="M67.3545 171.084L51.8137 180.048L67.3545 189.02V171.084Z" stroke="#005593" stroke-width="0.41312" stroke-miterlimit="10"/>
<path d="M51.8139 162.111L36.2815 171.084L51.8139 180.048V162.111Z" stroke="#005593" stroke-width="0.41312" stroke-miterlimit="10"/>
<path d="M36.2815 171.084L51.8139 180.048L36.2815 189.02V171.084Z" stroke="#005593" stroke-width="0.41312" stroke-miterlimit="10"/>
<path d="M51.8137 162.111L67.3545 171.084L51.8137 180.048V162.111Z" stroke="#005593" stroke-width="0.41312" stroke-miterlimit="10"/>
<path d="M51.8139 180.047L36.2815 189.019L51.8139 197.983V180.047Z" stroke="#005593" stroke-width="0.41312" stroke-miterlimit="10"/>
<path d="M51.8137 180.047L67.3545 189.019L51.8137 197.983V180.047Z" stroke="#005593" stroke-width="0.41312" stroke-miterlimit="10"/>
<path d="M20.749 233.856L51.8138 215.92L20.749 197.983V233.856Z" stroke="#005593" stroke-width="0.41312" stroke-miterlimit="10"/>
<path d="M300.357 180.047L269.292 162.111L300.357 144.175V180.047Z" stroke="#005593" stroke-width="0.41312" stroke-miterlimit="10"/>
<path d="M113.952 215.919L145.025 197.983L113.952 180.047V215.919Z" stroke="#005593" stroke-width="0.41312" stroke-miterlimit="10"/>
<path d="M145.025 233.856L176.089 215.92L145.025 197.983V233.856Z" stroke="#005593" stroke-width="0.41312" stroke-miterlimit="10"/>
<path d="M176.089 215.919L145.025 197.983L176.089 180.047V215.919Z" stroke="#005593" stroke-width="0.41312" stroke-miterlimit="10"/>
<path d="M20.7493 197.984L-10.3154 180.048L20.7493 162.111V197.984Z" stroke="#005593" stroke-width="0.41312" stroke-miterlimit="10"/>
<path d="M145.025 233.856L113.952 215.92L145.025 197.983V233.856Z" stroke="#005593" stroke-width="0.41312" stroke-miterlimit="10"/>
<path d="M51.8228 251.801L82.8875 233.856L51.8228 215.92V251.801Z" stroke="#005593" stroke-width="0.41312" stroke-miterlimit="10"/>
<path d="M51.8222 251.801L20.749 233.856L51.8222 215.92V251.801Z" stroke="#005593" stroke-width="0.41312" stroke-miterlimit="10"/>
<path d="M-10.3154 251.801L20.7493 233.856L-10.3154 215.92V251.801Z" stroke="#005593" stroke-width="0.41312" stroke-miterlimit="10"/>
<path d="M113.952 251.801L145.025 233.856L113.952 215.92V251.801Z" stroke="#005593" stroke-width="0.41312" stroke-miterlimit="10"/>
<path d="M113.952 251.801L82.8872 233.856L113.952 215.92V251.801Z" stroke="#005593" stroke-width="0.41312" stroke-miterlimit="10"/>
<path d="M-10.3157 215.919L20.7491 197.983L-10.3157 180.047V215.919Z" stroke="#005593" stroke-width="0.41312" stroke-miterlimit="10"/>
<path d="M20.749 126.238L51.8222 108.302L20.749 90.3652V126.238Z" stroke="#005593" stroke-width="0.41312" stroke-miterlimit="10"/>
<path d="M51.8225 180.047L20.7493 197.983L51.8225 215.919V180.047Z" stroke="#005593" stroke-width="0.41312" stroke-miterlimit="10"/>
<path d="M20.749 162.111L51.8138 180.048L20.749 197.984V162.111Z" stroke="#005593" stroke-width="0.41312" stroke-miterlimit="10"/>
<path d="M207.163 90.3652L176.09 108.302L207.163 126.238V90.3652Z" stroke="#005593" stroke-width="0.41312" stroke-miterlimit="10"/>
<path d="M207.163 90.3652L238.228 108.302L207.163 126.238V90.3652Z" stroke="#005593" stroke-width="0.41312" stroke-miterlimit="10"/>
<path d="M238.228 144.175L207.163 162.111L238.228 180.047V144.175Z" stroke="#005593" stroke-width="0.41312" stroke-miterlimit="10"/>
<path d="M207.163 162.111L238.228 180.048L207.163 197.984V162.111Z" stroke="#005593" stroke-width="0.41312" stroke-miterlimit="10"/>
<path d="M176.09 144.175L207.155 162.111L176.09 180.047V144.175Z" stroke="#005593" stroke-width="0.41312" stroke-miterlimit="10"/>
<path d="M207.163 126.238L176.09 144.175L207.163 162.111V126.238Z" stroke="#005593" stroke-width="0.41312" stroke-miterlimit="10"/>
<path d="M176.09 108.303L207.155 126.239L176.09 144.175V108.303Z" stroke="#005593" stroke-width="0.41312" stroke-miterlimit="10"/>
<path d="M269.292 18.6201L238.228 36.5564L269.292 54.4927V18.6201Z" stroke="#005593" stroke-width="0.41312" stroke-miterlimit="10"/>
<path d="M300.365 36.5566L269.292 54.4929L300.365 72.4292V36.5566Z" stroke="#005593" stroke-width="0.41312" stroke-miterlimit="10"/>
<path d="M300.365 0.68457L269.292 18.6209L300.365 36.5572V0.68457Z" stroke="#005593" stroke-width="0.41312" stroke-miterlimit="10"/>
<path d="M269.292 18.6211L300.365 36.5574L269.292 54.4937V18.6211Z" stroke="#005593" stroke-width="0.41312" stroke-miterlimit="10"/>
<path d="M-10.3237 0.675781L20.7495 18.6121L-10.3237 36.5484V0.675781Z" stroke="#005593" stroke-width="0.41312" stroke-miterlimit="10"/>
<path d="M-10.3237 36.5484L20.7495 18.6121L-10.3237 0.675781V36.5484Z" stroke="#005593" stroke-width="0.41312" stroke-miterlimit="10"/>
<path d="M51.805 0.68457L20.7402 18.6209L51.805 36.5572V0.68457Z" stroke="#005593" stroke-width="0.41312" stroke-miterlimit="10"/>
<path d="M51.8057 0.68457L82.8789 18.6209L51.8057 36.5572V0.68457Z" stroke="#005593" stroke-width="0.41312" stroke-miterlimit="10"/>
<path d="M51.8057 36.5572L82.8789 18.6209L51.8057 0.68457V36.5572Z" stroke="#005593" stroke-width="0.41312" stroke-miterlimit="10"/>
<path d="M51.805 36.5572L20.7402 18.6209L51.805 0.68457V36.5572Z" stroke="#005593" stroke-width="0.41312" stroke-miterlimit="10"/>
<path d="M176.09 0.675781L145.017 18.6205L176.09 36.5568V0.675781Z" stroke="#005593" stroke-width="0.41312" stroke-miterlimit="10"/>
<path d="M176.09 0.675781L207.155 18.6205L176.09 36.5568V0.675781Z" stroke="#005593" stroke-width="0.41312" stroke-miterlimit="10"/>
<path d="M113.952 0.675781L82.8872 18.6205L113.952 36.5568V0.675781Z" stroke="#005593" stroke-width="0.41312" stroke-miterlimit="10"/>
<path d="M113.952 0.675781L145.017 18.6205L113.952 36.5568V0.675781Z" stroke="#005593" stroke-width="0.41312" stroke-miterlimit="10"/>
<path d="M113.952 36.5484L145.017 18.6121L113.952 0.675781V36.5484Z" stroke="#005593" stroke-width="0.41312" stroke-miterlimit="10"/>
<path d="M113.952 36.5484L82.8872 18.6121L113.952 0.675781V36.5484Z" stroke="#005593" stroke-width="0.41312" stroke-miterlimit="10"/>
<path d="M238.227 36.5484L207.154 18.6121L238.227 0.675781V36.5484Z" stroke="#005593" stroke-width="0.41312" stroke-miterlimit="10"/>
<path d="M238.228 36.5484L269.292 18.6121L238.228 0.675781V36.5484Z" stroke="#005593" stroke-width="0.41312" stroke-miterlimit="10"/>
<path d="M238.16 251.767L207.095 233.822L238.16 215.886V251.767Z" stroke="#005593" stroke-width="0.41312" stroke-miterlimit="10"/>
<path d="M207.189 162.094L176.124 180.03L207.189 197.966V162.094Z" stroke="#005593" stroke-width="0.41312" stroke-miterlimit="10"/>
<path d="M176.124 180.03L207.189 197.967L176.124 215.903V180.03Z" stroke="#005593" stroke-width="0.41312" stroke-miterlimit="10"/>
<path d="M207.129 233.815L176.064 215.87L207.129 197.934V233.815Z" stroke="#005593" stroke-width="0.41312" stroke-miterlimit="10"/>
<path d="M238.16 251.767L269.233 233.822L238.16 215.886V251.767Z" stroke="#005593" stroke-width="0.41312" stroke-miterlimit="10"/>
<path d="M300.298 251.767L269.233 269.703L300.298 287.639V251.767Z" stroke="#005593" stroke-width="0.41312" stroke-miterlimit="10"/>
<path d="M238.168 251.767L269.233 269.703L238.168 287.639V251.767Z" stroke="#005593" stroke-width="0.41312" stroke-miterlimit="10"/>
<path d="M269.233 233.822L300.298 251.767L269.233 269.703V233.822Z" stroke="#005593" stroke-width="0.41312" stroke-miterlimit="10"/>
<path d="M238.168 287.639L207.095 269.703L238.168 251.767V287.639Z" stroke="#005593" stroke-width="0.41312" stroke-miterlimit="10"/>
<path d="M300.298 215.886L269.233 233.822L300.298 251.767V215.886Z" stroke="#005593" stroke-width="0.41312" stroke-miterlimit="10"/>
<path d="M300.332 180.03L269.267 197.975L300.332 215.903V180.03Z" stroke="#005593" stroke-width="0.41312" stroke-miterlimit="10"/>
<path d="M269.233 233.822L238.16 215.886L269.233 197.949V233.822Z" stroke="#005593" stroke-width="0.41312" stroke-miterlimit="10"/>
<path d="M269.233 233.822L300.298 215.886L269.233 197.949V233.822Z" stroke="#005593" stroke-width="0.41312" stroke-miterlimit="10"/>
<path d="M20.741 233.865L-10.3237 251.802L20.741 269.738V233.865Z" stroke="#005593" stroke-width="0.41312" stroke-miterlimit="10"/>
<path d="M20.7402 233.865L51.8135 251.802L20.7402 269.738V233.865Z" stroke="#005593" stroke-width="0.41312" stroke-miterlimit="10"/>
<path d="M20.7402 269.738L51.8135 251.802L20.7402 233.865V269.738Z" stroke="#005593" stroke-width="0.41312" stroke-miterlimit="10"/>
<path d="M20.741 269.738L-10.3237 251.802L20.741 233.865V269.738Z" stroke="#005593" stroke-width="0.41312" stroke-miterlimit="10"/>
<path d="M145.025 233.865L113.952 251.802L145.025 269.738V233.865Z" stroke="#005593" stroke-width="0.41312" stroke-miterlimit="10"/>
<path d="M145.025 233.865L176.089 251.802L145.025 269.738V233.865Z" stroke="#005593" stroke-width="0.41312" stroke-miterlimit="10"/>
<path d="M82.8875 233.865L51.8228 251.802L82.8875 269.738V233.865Z" stroke="#005593" stroke-width="0.41312" stroke-miterlimit="10"/>
<path d="M82.8872 233.865L113.952 251.802L82.8872 269.738V233.865Z" stroke="#005593" stroke-width="0.41312" stroke-miterlimit="10"/>
<path d="M82.8872 269.738L113.952 251.802L82.8872 233.865V269.738Z" stroke="#005593" stroke-width="0.41312" stroke-miterlimit="10"/>
<path d="M82.8875 269.738L51.8228 251.802L82.8875 233.865V269.738Z" stroke="#005593" stroke-width="0.41312" stroke-miterlimit="10"/>
<path d="M207.163 269.738L176.09 251.802L207.163 233.865V269.738Z" stroke="#005593" stroke-width="0.41312" stroke-miterlimit="10"/>
<path d="M207.163 269.738L238.228 251.802L207.163 233.865V269.738Z" stroke="#005593" stroke-width="0.41312" stroke-miterlimit="10"/>
<path d="M-10.3157 287.657L20.7491 269.72L-10.3157 251.784V287.657Z" stroke="#005593" stroke-width="0.41312" stroke-miterlimit="10"/>
<path d="M51.8218 251.792L20.7571 269.728L51.8218 287.665V251.792Z" stroke="#005593" stroke-width="0.41312" stroke-miterlimit="10"/>
<path d="M51.8228 287.665L82.8875 269.728L51.8228 251.792V287.665Z" stroke="#005593" stroke-width="0.41312" stroke-miterlimit="10"/>
<path d="M113.952 251.801L82.8872 269.737L113.952 287.673V251.801Z" stroke="#005593" stroke-width="0.41312" stroke-miterlimit="10"/>
<path d="M113.952 287.673L145.025 269.737L113.952 251.801V287.673Z" stroke="#005593" stroke-width="0.41312" stroke-miterlimit="10"/>
<path d="M176.089 251.809L145.025 269.745L176.089 287.681V251.809Z" stroke="#005593" stroke-width="0.41312" stroke-miterlimit="10"/>
<path d="M176.09 287.681L207.163 269.745L176.09 251.809V287.681Z" stroke="#005593" stroke-width="0.41312" stroke-miterlimit="10"/>
<path d="M51.8137 72.4292L82.8869 54.4929L51.8137 36.5566V72.4292Z" stroke="#005593" stroke-width="0.41312" stroke-miterlimit="10"/>
<path d="M51.8225 108.302L20.7493 90.366L51.8225 72.4297V108.302Z" stroke="#005593" stroke-width="0.41312" stroke-miterlimit="10"/>
<path d="M145.025 162.111L176.089 144.175L145.025 126.238V162.111Z" stroke="#005593" stroke-width="0.41312" stroke-miterlimit="10"/>
<path d="M176.089 180.047L145.025 162.111L176.089 144.175V180.047Z" stroke="#005593" stroke-width="0.41312" stroke-miterlimit="10"/>
<path d="M176.089 144.175L145.025 126.239L176.089 108.303V144.175Z" stroke="#005593" stroke-width="0.41312" stroke-miterlimit="10"/>
<path d="M300.357 108.302L269.292 90.366L300.357 72.4297V108.302Z" stroke="#005593" stroke-width="0.41312" stroke-miterlimit="10"/>
<path d="M284.825 153.146L269.292 162.11L284.825 171.083V153.146Z" stroke="#005593" stroke-width="0.41312" stroke-miterlimit="10"/>
<path d="M269.292 144.175L253.76 153.147L269.292 162.111V144.175Z" stroke="#005593" stroke-width="0.41312" stroke-miterlimit="10"/>
<path d="M253.76 153.146L269.292 162.11L253.76 171.083V153.146Z" stroke="#005593" stroke-width="0.41312" stroke-miterlimit="10"/>
<path d="M269.292 144.175L284.825 153.147L269.292 162.111V144.175Z" stroke="#005593" stroke-width="0.41312" stroke-miterlimit="10"/>
<path d="M269.292 162.111L253.76 171.084L269.292 180.048V162.111Z" stroke="#005593" stroke-width="0.41312" stroke-miterlimit="10"/>
<path d="M269.292 162.111L284.825 171.084L269.292 180.048V162.111Z" stroke="#005593" stroke-width="0.41312" stroke-miterlimit="10"/>
<path d="M253.76 99.3298L269.292 90.3659L253.76 81.3936V99.3298Z" stroke="#005593" stroke-width="0.41312" stroke-miterlimit="10"/>
<path d="M269.292 108.302L284.825 99.3291L269.292 90.3652V108.302Z" stroke="#005593" stroke-width="0.41312" stroke-miterlimit="10"/>
<path d="M284.825 99.3298L269.292 90.3659L284.825 81.3936V99.3298Z" stroke="#005593" stroke-width="0.41312" stroke-miterlimit="10"/>
<path d="M269.292 108.302L253.76 99.3291L269.292 90.3652V108.302Z" stroke="#005593" stroke-width="0.41312" stroke-miterlimit="10"/>
<path d="M269.292 90.366L284.825 81.3936L269.292 72.4297V90.366Z" stroke="#005593" stroke-width="0.41312" stroke-miterlimit="10"/>
<path d="M269.292 90.366L253.76 81.3936L269.292 72.4297V90.366Z" stroke="#005593" stroke-width="0.41312" stroke-miterlimit="10"/>
<path d="M36.2815 117.266L51.8139 108.302L36.2815 99.3301V117.266Z" stroke="#005593" stroke-width="0.41312" stroke-miterlimit="10"/>
<path d="M51.8137 126.239L67.3545 117.267L51.8137 108.303V126.239Z" stroke="#005593" stroke-width="0.41312" stroke-miterlimit="10"/>
<path d="M51.8139 126.239L36.2815 117.267L51.8139 108.303V126.239Z" stroke="#005593" stroke-width="0.41312" stroke-miterlimit="10"/>
<path d="M51.8137 108.302L67.3545 99.3291L51.8137 90.3652V108.302Z" stroke="#005593" stroke-width="0.41312" stroke-miterlimit="10"/>
<path d="M51.8139 108.302L36.2815 99.3291L51.8139 90.3652V108.302Z" stroke="#005593" stroke-width="0.41312" stroke-miterlimit="10"/>
<path d="M67.3545 117.266L51.8137 108.302L67.3545 99.3301V117.266Z" stroke="#005593" stroke-width="0.41312" stroke-miterlimit="10"/>
<path d="M207.163 162.111L238.228 144.175L207.163 126.238V162.111Z" stroke="#005593" stroke-width="0.41312" stroke-miterlimit="10"/>
<path d="M238.228 144.175L207.163 126.239L238.228 108.303V144.175Z" stroke="#005593" stroke-width="0.41312" stroke-miterlimit="10"/>
<path d="M95.3042 241.051L113.943 251.809L95.3042 262.568V241.051Z" stroke="#005593" stroke-width="0.41312" stroke-miterlimit="10"/>
<path d="M132.583 241.051L113.944 251.809L132.583 262.568V241.051Z" stroke="#005593" stroke-width="0.41312" stroke-miterlimit="10"/>
<path d="M113.944 251.809L132.583 262.567L113.944 273.334V251.809Z" stroke="#005593" stroke-width="0.41312" stroke-miterlimit="10"/>
<path d="M113.943 251.809L95.3042 262.567L113.943 273.334V251.809Z" stroke="#005593" stroke-width="0.41312" stroke-miterlimit="10"/>
<path d="M222.686 224.842L207.154 215.869L222.686 206.905V224.842Z" stroke="#005593" stroke-width="0.41312" stroke-miterlimit="10"/>
<path d="M207.155 233.805L191.622 224.842L207.155 215.869V233.805Z" stroke="#005593" stroke-width="0.41312" stroke-miterlimit="10"/>
<path d="M207.154 233.805L222.686 224.842L207.154 215.869V233.805Z" stroke="#005593" stroke-width="0.41312" stroke-miterlimit="10"/>
<path d="M207.155 215.87L191.623 206.906L207.155 197.934V215.87Z" stroke="#005593" stroke-width="0.41312" stroke-miterlimit="10"/>
<path d="M207.154 215.87L222.686 206.906L207.154 197.934V215.87Z" stroke="#005593" stroke-width="0.41312" stroke-miterlimit="10"/>
<path d="M191.623 224.842L207.155 215.869L191.623 206.905V224.842Z" stroke="#005593" stroke-width="0.41312" stroke-miterlimit="10"/>
<path d="M222.695 63.448L207.154 54.4841L222.695 45.5117V63.448Z" stroke="#005593" stroke-width="0.41312" stroke-miterlimit="10"/>
<path d="M207.155 72.4207L191.622 63.4483L207.155 54.4844V72.4207Z" stroke="#005593" stroke-width="0.41312" stroke-miterlimit="10"/>
<path d="M207.154 72.4207L222.695 63.4483L207.154 54.4844V72.4207Z" stroke="#005593" stroke-width="0.41312" stroke-miterlimit="10"/>
<path d="M207.155 54.4851L191.623 45.5127L207.155 36.5488V54.4851Z" stroke="#005593" stroke-width="0.41312" stroke-miterlimit="10"/>
<path d="M207.154 54.4851L222.695 45.5127L207.154 36.5488V54.4851Z" stroke="#005593" stroke-width="0.41312" stroke-miterlimit="10"/>
<path d="M191.622 63.448L207.155 54.4841L191.622 45.5117V63.448Z" stroke="#005593" stroke-width="0.41312" stroke-miterlimit="10"/>
<path d="M362.504 72.4292L331.43 54.4845L362.504 36.5566V72.4292Z" stroke="#005593" stroke-width="0.41312" stroke-miterlimit="10"/>
<path d="M362.504 72.4292L393.569 54.4845L362.504 36.5566V72.4292Z" stroke="#005593" stroke-width="0.41312" stroke-miterlimit="10"/>
<path d="M300.366 108.303L331.43 126.239L300.366 144.175V108.303Z" stroke="#005593" stroke-width="0.41312" stroke-miterlimit="10"/>
<path d="M331.43 90.3652L362.504 108.302L331.43 126.238V90.3652Z" stroke="#005593" stroke-width="0.41312" stroke-miterlimit="10"/>
<path d="M362.504 108.303L331.43 126.239L362.504 144.175V108.303Z" stroke="#005593" stroke-width="0.41312" stroke-miterlimit="10"/>
<path d="M331.43 90.3652L300.366 108.302L331.43 126.238V90.3652Z" stroke="#005593" stroke-width="0.41312" stroke-miterlimit="10"/>
<path d="M331.43 126.238L362.504 144.175L331.43 162.111V126.238Z" stroke="#005593" stroke-width="0.41312" stroke-miterlimit="10"/>
<path d="M331.43 126.238L300.366 144.175L331.43 162.111V126.238Z" stroke="#005593" stroke-width="0.41312" stroke-miterlimit="10"/>
<path d="M331.43 162.111L362.495 180.048L331.43 197.984V162.111Z" stroke="#005593" stroke-width="0.41312" stroke-miterlimit="10"/>
<path d="M331.43 162.111L300.366 180.048L331.43 197.984V162.111Z" stroke="#005593" stroke-width="0.41312" stroke-miterlimit="10"/>
<path d="M393.568 197.983L362.495 215.92L393.568 233.856V197.983Z" stroke="#005593" stroke-width="0.41312" stroke-miterlimit="10"/>
<path d="M362.504 180.047L393.569 197.983L362.504 215.919V180.047Z" stroke="#005593" stroke-width="0.41312" stroke-miterlimit="10"/>
<path d="M362.504 180.047L331.43 197.983L362.504 215.919V180.047Z" stroke="#005593" stroke-width="0.41312" stroke-miterlimit="10"/>
<path d="M331.43 54.4932L362.504 72.4295L331.43 90.3658V54.4932Z" stroke="#005593" stroke-width="0.41312" stroke-miterlimit="10"/>
<path d="M362.504 36.5566L393.569 54.4929L362.504 72.4292V36.5566Z" stroke="#005593" stroke-width="0.41312" stroke-miterlimit="10"/>
<path d="M393.569 54.4932L362.504 72.4295L393.569 90.3658V54.4932Z" stroke="#005593" stroke-width="0.41312" stroke-miterlimit="10"/>
<path d="M362.504 36.5566L331.43 54.4929L362.504 72.4292V36.5566Z" stroke="#005593" stroke-width="0.41312" stroke-miterlimit="10"/>
<path d="M393.569 54.4839L362.504 36.5476L393.569 18.6113V54.4839Z" stroke="#005593" stroke-width="0.41312" stroke-miterlimit="10"/>
<path d="M393.569 18.6113L362.504 36.5476L393.569 54.4924V18.6113Z" stroke="#005593" stroke-width="0.41312" stroke-miterlimit="10"/>
<path d="M362.504 72.4297L393.569 90.366L362.504 108.302V72.4297Z" stroke="#005593" stroke-width="0.41312" stroke-miterlimit="10"/>
<path d="M362.504 72.4297L331.43 90.366L362.504 108.302V72.4297Z" stroke="#005593" stroke-width="0.41312" stroke-miterlimit="10"/>
<path d="M300.366 180.047L331.43 162.111L300.366 144.175V180.047Z" stroke="#005593" stroke-width="0.41312" stroke-miterlimit="10"/>
<path d="M393.568 90.3652L362.495 108.302L393.568 126.238V90.3652Z" stroke="#005593" stroke-width="0.41312" stroke-miterlimit="10"/>
<path d="M362.504 144.175L393.569 162.111L362.504 180.047V144.175Z" stroke="#005593" stroke-width="0.41312" stroke-miterlimit="10"/>
<path d="M393.568 162.111L362.495 180.048L393.568 197.984V162.111Z" stroke="#005593" stroke-width="0.41312" stroke-miterlimit="10"/>
<path d="M331.43 18.6211L362.504 36.5574L331.43 54.4937V18.6211Z" stroke="#005593" stroke-width="0.41312" stroke-miterlimit="10"/>
<path d="M300.366 36.5566L331.43 54.4929L300.366 72.4292V36.5566Z" stroke="#005593" stroke-width="0.41312" stroke-miterlimit="10"/>
<path d="M331.43 18.6201L300.366 36.5564L331.43 54.4927V18.6201Z" stroke="#005593" stroke-width="0.41312" stroke-miterlimit="10"/>
<path d="M300.366 108.302L331.43 90.366L300.366 72.4297V108.302Z" stroke="#005593" stroke-width="0.41312" stroke-miterlimit="10"/>
<path d="M315.898 153.146L331.431 162.11L315.898 171.083V153.146Z" stroke="#005593" stroke-width="0.41312" stroke-miterlimit="10"/>
<path d="M331.43 144.175L346.963 153.147L331.43 162.111V144.175Z" stroke="#005593" stroke-width="0.41312" stroke-miterlimit="10"/>
<path d="M346.963 153.146L331.43 162.11L346.963 171.083V153.146Z" stroke="#005593" stroke-width="0.41312" stroke-miterlimit="10"/>
<path d="M331.431 144.175L315.898 153.147L331.431 162.111V144.175Z" stroke="#005593" stroke-width="0.41312" stroke-miterlimit="10"/>
<path d="M331.43 162.111L346.963 171.084L331.43 180.048V162.111Z" stroke="#005593" stroke-width="0.41312" stroke-miterlimit="10"/>
<path d="M346.963 99.3298L331.43 90.3659L346.963 81.3936V99.3298Z" stroke="#005593" stroke-width="0.41312" stroke-miterlimit="10"/>
<path d="M331.431 108.302L315.898 99.3291L331.431 90.3652V108.302Z" stroke="#005593" stroke-width="0.41312" stroke-miterlimit="10"/>
<path d="M315.898 99.3298L331.431 90.3659L315.898 81.3936V99.3298Z" stroke="#005593" stroke-width="0.41312" stroke-miterlimit="10"/>
<path d="M331.43 108.302L346.963 99.3291L331.43 90.3652V108.302Z" stroke="#005593" stroke-width="0.41312" stroke-miterlimit="10"/>
<path d="M331.431 90.366L315.898 81.3936L331.431 72.4297V90.366Z" stroke="#005593" stroke-width="0.41312" stroke-miterlimit="10"/>
<path d="M331.43 90.366L346.963 81.3936L331.43 72.4297V90.366Z" stroke="#005593" stroke-width="0.41312" stroke-miterlimit="10"/>
<path d="M393.569 162.111L362.504 144.175L393.569 126.238V162.111Z" stroke="#005593" stroke-width="0.41312" stroke-miterlimit="10"/>
<path d="M362.504 144.175L393.569 126.239L362.504 108.303V144.175Z" stroke="#005593" stroke-width="0.41312" stroke-miterlimit="10"/>
<path d="M362.495 0.68457L331.43 18.6209L362.495 36.5572V0.68457Z" stroke="#005593" stroke-width="0.41312" stroke-miterlimit="10"/>
<path d="M362.495 0.68457L393.568 18.6209L362.495 36.5572V0.68457Z" stroke="#005593" stroke-width="0.41312" stroke-miterlimit="10"/>
<path d="M362.495 36.5572L393.568 18.6209L362.495 0.68457V36.5572Z" stroke="#005593" stroke-width="0.41312" stroke-miterlimit="10"/>
<path d="M362.495 36.5572L331.43 18.6209L362.495 0.68457V36.5572Z" stroke="#005593" stroke-width="0.41312" stroke-miterlimit="10"/>
<path d="M300.366 36.5484L331.43 18.6121L300.366 0.675781V36.5484Z" stroke="#005593" stroke-width="0.41312" stroke-miterlimit="10"/>
<path d="M393.569 233.865L362.504 251.802L393.569 269.738V233.865Z" stroke="#005593" stroke-width="0.41312" stroke-miterlimit="10"/>
<path d="M362.504 251.8L393.569 233.864L362.504 215.928V251.8Z" stroke="#005593" stroke-width="0.41312" stroke-miterlimit="10"/>
<path d="M362.503 251.8L331.438 233.864L362.503 215.928V251.8Z" stroke="#005593" stroke-width="0.41312" stroke-miterlimit="10"/>
<path d="M300.366 251.801L331.43 269.737L300.366 287.673V251.801Z" stroke="#005593" stroke-width="0.41312" stroke-miterlimit="10"/>
<path d="M300.29 180.098L331.355 198.034L300.29 215.97V180.098Z" stroke="#005593" stroke-width="0.41312" stroke-miterlimit="10"/>
<path d="M362.504 251.801L331.43 269.737L362.504 287.673V251.801Z" stroke="#005593" stroke-width="0.41312" stroke-miterlimit="10"/>
<path d="M331.43 233.865L300.366 251.802L331.43 269.738V233.865Z" stroke="#005593" stroke-width="0.41312" stroke-miterlimit="10"/>
<path d="M300.366 215.928L331.43 233.864L300.366 251.8V215.928Z" stroke="#005593" stroke-width="0.41312" stroke-miterlimit="10"/>
<path d="M331.438 233.865L362.503 215.928L331.438 197.992V233.865Z" stroke="#005593" stroke-width="0.41312" stroke-miterlimit="10"/>
<path d="M331.439 233.865L300.366 215.928L331.439 197.992V233.865Z" stroke="#005593" stroke-width="0.41312" stroke-miterlimit="10"/>
<path d="M393.568 233.806L378.036 224.843L393.568 215.87V233.806Z" stroke="#005593" stroke-width="0.41312" stroke-miterlimit="10"/>
<path d="M393.568 215.87L378.036 206.906L393.568 197.934V215.87Z" stroke="#005593" stroke-width="0.41312" stroke-miterlimit="10"/>
<path d="M378.036 224.843L393.568 215.87L378.036 206.906V224.843Z" stroke="#005593" stroke-width="0.41312" stroke-miterlimit="10"/>
<path d="M393.568 72.4295L378.036 63.4571L393.568 54.4932V72.4295Z" stroke="#005593" stroke-width="0.41312" stroke-miterlimit="10"/>
<path d="M393.568 54.4929L378.036 45.5206L393.568 36.5566V54.4929Z" stroke="#005593" stroke-width="0.41312" stroke-miterlimit="10"/>
<path d="M378.036 63.4568L393.568 54.4929L378.036 45.5205V63.4568Z" stroke="#005593" stroke-width="0.41312" stroke-miterlimit="10"/>
<path d="M207.163 341.482L176.09 323.546L207.163 305.609V341.482Z" stroke="#005593" stroke-width="0.41312" stroke-miterlimit="10"/>
<path d="M207.163 341.482L238.228 323.546L207.163 305.609V341.482Z" stroke="#005593" stroke-width="0.41312" stroke-miterlimit="10"/>
<path d="M20.7493 341.482L51.8225 323.546L20.7493 305.609V341.482Z" stroke="#005593" stroke-width="0.41312" stroke-miterlimit="10"/>
<path d="M20.7491 341.482L-10.3157 323.546L20.7491 305.609V341.482Z" stroke="#005593" stroke-width="0.41312" stroke-miterlimit="10"/>
<path d="M82.8872 341.482L113.952 323.546L82.8872 305.609V341.482Z" stroke="#005593" stroke-width="0.41312" stroke-miterlimit="10"/>
<path d="M82.8875 341.482L51.8228 323.546L82.8875 305.609V341.482Z" stroke="#005593" stroke-width="0.41312" stroke-miterlimit="10"/>
<path d="M269.292 449.101L238.228 467.037L269.292 484.973V449.101Z" stroke="#005593" stroke-width="0.41312" stroke-miterlimit="10"/>
<path d="M51.8222 323.546L20.749 305.61L51.8222 287.674V323.546Z" stroke="#005593" stroke-width="0.41312" stroke-miterlimit="10"/>
<path d="M51.8228 323.546L82.8875 305.61L51.8228 287.674V323.546Z" stroke="#005593" stroke-width="0.41312" stroke-miterlimit="10"/>
<path d="M51.8228 287.674L82.8875 305.61L51.8228 323.546V287.674Z" stroke="#005593" stroke-width="0.41312" stroke-miterlimit="10"/>
<path d="M51.8222 287.674L20.749 305.61L51.8222 323.546V287.674Z" stroke="#005593" stroke-width="0.41312" stroke-miterlimit="10"/>
<path d="M113.943 323.538L82.8784 305.601L113.943 287.665V323.538Z" stroke="#005593" stroke-width="0.41312" stroke-miterlimit="10"/>
<path d="M113.944 323.538L145.017 305.601L113.944 287.665V323.538Z" stroke="#005593" stroke-width="0.41312" stroke-miterlimit="10"/>
<path d="M113.944 287.665L145.017 305.601L113.944 323.538V287.665Z" stroke="#005593" stroke-width="0.41312" stroke-miterlimit="10"/>
<path d="M113.943 287.665L82.8784 305.601L113.943 323.538V287.665Z" stroke="#005593" stroke-width="0.41312" stroke-miterlimit="10"/>
<path d="M238.228 323.546L207.163 305.61L238.228 287.674V323.546Z" stroke="#005593" stroke-width="0.41312" stroke-miterlimit="10"/>
<path d="M238.228 323.546L269.292 305.61L238.228 287.674V323.546Z" stroke="#005593" stroke-width="0.41312" stroke-miterlimit="10"/>
<path d="M176.089 323.546L145.025 305.61L176.089 287.674V323.546Z" stroke="#005593" stroke-width="0.41312" stroke-miterlimit="10"/>
<path d="M176.09 323.546L207.155 305.61L176.09 287.674V323.546Z" stroke="#005593" stroke-width="0.41312" stroke-miterlimit="10"/>
<path d="M176.09 287.674L207.155 305.61L176.09 323.546V287.674Z" stroke="#005593" stroke-width="0.41312" stroke-miterlimit="10"/>
<path d="M176.089 287.674L145.025 305.61L176.089 323.546V287.674Z" stroke="#005593" stroke-width="0.41312" stroke-miterlimit="10"/>
<path d="M51.8225 431.164L20.7493 413.227L51.8225 395.291V431.164Z" stroke="#005593" stroke-width="0.41312" stroke-miterlimit="10"/>
<path d="M20.7491 449.1L-10.3157 431.164L20.7491 413.228V449.1Z" stroke="#005593" stroke-width="0.41312" stroke-miterlimit="10"/>
<path d="M-10.3157 431.164L20.7491 413.227L-10.3157 395.291V431.164Z" stroke="#005593" stroke-width="0.41312" stroke-miterlimit="10"/>
<path d="M20.7493 449.1L51.8225 431.164L20.7493 413.228V449.1Z" stroke="#005593" stroke-width="0.41312" stroke-miterlimit="10"/>
<path d="M20.7493 413.227L-10.3154 395.291L20.7493 377.354V413.227Z" stroke="#005593" stroke-width="0.41312" stroke-miterlimit="10"/>
<path d="M20.749 413.227L51.8222 395.291L20.749 377.354V413.227Z" stroke="#005593" stroke-width="0.41312" stroke-miterlimit="10"/>
<path d="M51.8222 502.918L20.749 484.981L51.8222 467.045V502.918Z" stroke="#005593" stroke-width="0.41312" stroke-miterlimit="10"/>
<path d="M-10.3154 502.917L20.7493 484.981L-10.3154 467.036V502.917Z" stroke="#005593" stroke-width="0.41312" stroke-miterlimit="10"/>
<path d="M-10.3157 395.292L20.7576 377.355L-10.3157 359.419V395.292Z" stroke="#005593" stroke-width="0.41312" stroke-miterlimit="10"/>
<path d="M-10.3154 431.164L20.7578 449.1L-10.3154 467.037V431.164Z" stroke="#005593" stroke-width="0.41312" stroke-miterlimit="10"/>
<path d="M51.8218 359.418L20.7571 341.482L51.8218 323.546V359.418Z" stroke="#005593" stroke-width="0.41312" stroke-miterlimit="10"/>
<path d="M-10.3154 323.546L20.7578 305.61L-10.3154 287.674V323.546Z" stroke="#005593" stroke-width="0.41312" stroke-miterlimit="10"/>
<path d="M-10.3154 323.546L20.7493 341.482L-10.3154 359.418V323.546Z" stroke="#005593" stroke-width="0.41312" stroke-miterlimit="10"/>
<path d="M20.7493 341.482L-10.3154 359.419L20.7493 377.355V341.482Z" stroke="#005593" stroke-width="0.41312" stroke-miterlimit="10"/>
<path d="M20.7571 377.355L51.8218 359.419L20.7571 341.482V377.355Z" stroke="#005593" stroke-width="0.41312" stroke-miterlimit="10"/>
<path d="M222.695 422.2L207.163 413.228L222.695 404.264V422.2Z" stroke="#005593" stroke-width="0.41312" stroke-miterlimit="10"/>
<path d="M207.163 431.164L191.631 422.2L207.163 413.228V431.164Z" stroke="#005593" stroke-width="0.41312" stroke-miterlimit="10"/>
<path d="M207.163 431.164L222.695 422.2L207.163 413.228V431.164Z" stroke="#005593" stroke-width="0.41312" stroke-miterlimit="10"/>
<path d="M207.163 413.227L191.631 404.263L207.163 395.291V413.227Z" stroke="#005593" stroke-width="0.41312" stroke-miterlimit="10"/>
<path d="M207.163 413.227L222.695 404.263L207.163 395.291V413.227Z" stroke="#005593" stroke-width="0.41312" stroke-miterlimit="10"/>
<path d="M191.631 422.2L207.163 413.228L191.631 404.264V422.2Z" stroke="#005593" stroke-width="0.41312" stroke-miterlimit="10"/>
<path d="M36.2894 422.2L20.7571 413.228L36.2894 404.264V422.2Z" stroke="#005593" stroke-width="0.41312" stroke-miterlimit="10"/>
<path d="M20.7577 431.164L5.2168 422.2L20.7577 413.228V431.164Z" stroke="#005593" stroke-width="0.41312" stroke-miterlimit="10"/>
<path d="M20.7571 431.164L36.2894 422.2L20.7571 413.228V431.164Z" stroke="#005593" stroke-width="0.41312" stroke-miterlimit="10"/>
<path d="M5.2168 422.2L20.7577 413.228L5.2168 404.264V422.2Z" stroke="#005593" stroke-width="0.41312" stroke-miterlimit="10"/>
<path d="M331.43 377.354L300.366 395.291L331.43 413.227V377.354Z" stroke="#005593" stroke-width="0.41312" stroke-miterlimit="10"/>
<path d="M300.365 359.419L269.292 377.355L300.365 395.292V359.419Z" stroke="#005593" stroke-width="0.41312" stroke-miterlimit="10"/>
<path d="M269.292 377.354L300.365 395.291L269.292 413.227V377.354Z" stroke="#005593" stroke-width="0.41312" stroke-miterlimit="10"/>
<path d="M300.366 359.419L331.43 377.355L300.366 395.292V359.419Z" stroke="#005593" stroke-width="0.41312" stroke-miterlimit="10"/>
<path d="M300.365 395.291L269.292 413.227L300.365 431.164V395.291Z" stroke="#005593" stroke-width="0.41312" stroke-miterlimit="10"/>
<path d="M300.366 395.291L331.43 413.227L300.366 431.164V395.291Z" stroke="#005593" stroke-width="0.41312" stroke-miterlimit="10"/>
<path d="M300.365 431.164L269.292 449.1L300.365 467.045V431.164Z" stroke="#005593" stroke-width="0.41312" stroke-miterlimit="10"/>
<path d="M300.366 431.164L331.43 449.1L300.366 467.045V431.164Z" stroke="#005593" stroke-width="0.41312" stroke-miterlimit="10"/>
<path d="M238.228 467.045L207.163 484.981L238.228 502.918V467.045Z" stroke="#005593" stroke-width="0.41312" stroke-miterlimit="10"/>
<path d="M238.228 467.045L269.292 484.981L238.228 502.918V467.045Z" stroke="#005593" stroke-width="0.41312" stroke-miterlimit="10"/>
<path d="M300.365 323.546L269.292 341.482L300.365 359.418V323.546Z" stroke="#005593" stroke-width="0.41312" stroke-miterlimit="10"/>
<path d="M269.292 305.609L238.228 323.546L269.292 341.482V305.609Z" stroke="#005593" stroke-width="0.41312" stroke-miterlimit="10"/>
<path d="M238.228 323.546L269.292 341.482L238.228 359.418V323.546Z" stroke="#005593" stroke-width="0.41312" stroke-miterlimit="10"/>
<path d="M269.292 305.609L300.365 323.546L269.292 341.482V305.609Z" stroke="#005593" stroke-width="0.41312" stroke-miterlimit="10"/>
<path d="M269.292 341.482L238.228 359.419L269.292 377.355V341.482Z" stroke="#005593" stroke-width="0.41312" stroke-miterlimit="10"/>
<path d="M269.292 341.482L300.365 359.419L269.292 377.355V341.482Z" stroke="#005593" stroke-width="0.41312" stroke-miterlimit="10"/>
<path d="M82.8872 484.973L113.952 467.037L82.8872 449.101V484.973Z" stroke="#005593" stroke-width="0.41312" stroke-miterlimit="10"/>
<path d="M113.952 502.917L145.025 484.972L113.952 467.036V502.917Z" stroke="#005593" stroke-width="0.41312" stroke-miterlimit="10"/>
<path d="M145.025 484.973L113.952 467.037L145.025 449.101V484.973Z" stroke="#005593" stroke-width="0.41312" stroke-miterlimit="10"/>
<path d="M113.952 467.037L82.8872 449.1L113.952 431.164V467.037Z" stroke="#005593" stroke-width="0.41312" stroke-miterlimit="10"/>
<path d="M113.952 467.037L145.025 449.1L113.952 431.164V467.037Z" stroke="#005593" stroke-width="0.41312" stroke-miterlimit="10"/>
<path d="M113.952 395.291L82.8872 413.227L113.952 431.164V395.291Z" stroke="#005593" stroke-width="0.41312" stroke-miterlimit="10"/>
<path d="M82.8875 377.354L51.8228 395.291L82.8875 413.227V377.354Z" stroke="#005593" stroke-width="0.41312" stroke-miterlimit="10"/>
<path d="M51.8228 395.291L82.8875 413.227L51.8228 431.164V395.291Z" stroke="#005593" stroke-width="0.41312" stroke-miterlimit="10"/>
<path d="M82.8872 377.354L113.952 395.291L82.8872 413.227V377.354Z" stroke="#005593" stroke-width="0.41312" stroke-miterlimit="10"/>
<path d="M82.8875 413.228L51.8228 431.164L82.8875 449.1V413.228Z" stroke="#005593" stroke-width="0.41312" stroke-miterlimit="10"/>
<path d="M82.8872 413.228L113.952 431.164L82.8872 449.1V413.228Z" stroke="#005593" stroke-width="0.41312" stroke-miterlimit="10"/>
<path d="M163.664 316.377L176.089 323.546L163.664 330.724V316.377Z" stroke="#005593" stroke-width="0.41312" stroke-miterlimit="10"/>
<path d="M176.09 395.292L207.155 377.355L176.09 359.419V395.292Z" stroke="#005593" stroke-width="0.41312" stroke-miterlimit="10"/>
<path d="M207.155 377.355L176.09 359.419L207.155 341.482V377.355Z" stroke="#005593" stroke-width="0.41312" stroke-miterlimit="10"/>
<path d="M238.228 359.418L207.163 341.482L238.228 323.546V359.418Z" stroke="#005593" stroke-width="0.41312" stroke-miterlimit="10"/>
<path d="M176.09 359.418L207.155 341.482L176.09 323.546V359.418Z" stroke="#005593" stroke-width="0.41312" stroke-miterlimit="10"/>
<path d="M176.089 359.418L145.025 341.482L176.089 323.546V359.418Z" stroke="#005593" stroke-width="0.41312" stroke-miterlimit="10"/>
<path d="M113.952 431.164L145.025 413.227L113.952 395.291V431.164Z" stroke="#005593" stroke-width="0.41312" stroke-miterlimit="10"/>
<path d="M269.292 449.1L300.357 431.172L269.292 413.228V449.1Z" stroke="#005593" stroke-width="0.41312" stroke-miterlimit="10"/>
<path d="M176.089 431.164L145.025 413.227L176.089 395.291V431.164Z" stroke="#005593" stroke-width="0.41312" stroke-miterlimit="10"/>
<path d="M145.025 413.227L176.089 395.291L145.025 377.354V413.227Z" stroke="#005593" stroke-width="0.41312" stroke-miterlimit="10"/>
<path d="M145.025 413.227L113.952 395.291L145.025 377.354V413.227Z" stroke="#005593" stroke-width="0.41312" stroke-miterlimit="10"/>
<path d="M145.025 341.482L113.952 359.419L145.025 377.355V341.482Z" stroke="#005593" stroke-width="0.41312" stroke-miterlimit="10"/>
<path d="M113.952 323.546L82.8872 341.482L113.952 359.418V323.546Z" stroke="#005593" stroke-width="0.41312" stroke-miterlimit="10"/>
<path d="M82.8872 341.482L113.952 359.419L82.8872 377.355V341.482Z" stroke="#005593" stroke-width="0.41312" stroke-miterlimit="10"/>
<path d="M113.952 323.546L145.025 341.482L113.952 359.418V323.546Z" stroke="#005593" stroke-width="0.41312" stroke-miterlimit="10"/>
<path d="M113.952 359.419L82.8872 377.355L113.952 395.292V359.419Z" stroke="#005593" stroke-width="0.41312" stroke-miterlimit="10"/>
<path d="M113.952 359.419L145.025 377.355L113.952 395.292V359.419Z" stroke="#005593" stroke-width="0.41312" stroke-miterlimit="10"/>
<path d="M129.493 386.327L145.025 377.355L129.493 368.391V386.327Z" stroke="#005593" stroke-width="0.41312" stroke-miterlimit="10"/>
<path d="M145.025 395.291L160.557 386.327L145.025 377.354V395.291Z" stroke="#005593" stroke-width="0.41312" stroke-miterlimit="10"/>
<path d="M160.557 386.327L145.025 377.355L160.557 368.391V386.327Z" stroke="#005593" stroke-width="0.41312" stroke-miterlimit="10"/>
<path d="M145.025 395.291L129.492 386.327L145.025 377.354V395.291Z" stroke="#005593" stroke-width="0.41312" stroke-miterlimit="10"/>
<path d="M145.025 377.355L160.557 368.391L145.025 359.419V377.355Z" stroke="#005593" stroke-width="0.41312" stroke-miterlimit="10"/>
<path d="M145.025 377.355L129.493 368.391L145.025 359.419V377.355Z" stroke="#005593" stroke-width="0.41312" stroke-miterlimit="10"/>
<path d="M160.557 440.136L145.025 449.1L160.557 458.072V440.136Z" stroke="#005593" stroke-width="0.41312" stroke-miterlimit="10"/>
<path d="M145.025 431.164L129.492 440.136L145.025 449.1V431.164Z" stroke="#005593" stroke-width="0.41312" stroke-miterlimit="10"/>
<path d="M129.492 440.136L145.025 449.1L129.492 458.072V440.136Z" stroke="#005593" stroke-width="0.41312" stroke-miterlimit="10"/>
<path d="M145.025 431.164L160.557 440.136L145.025 449.1V431.164Z" stroke="#005593" stroke-width="0.41312" stroke-miterlimit="10"/>
<path d="M145.025 449.101L129.493 458.073L145.025 467.037V449.101Z" stroke="#005593" stroke-width="0.41312" stroke-miterlimit="10"/>
<path d="M145.025 449.101L160.557 458.073L145.025 467.037V449.101Z" stroke="#005593" stroke-width="0.41312" stroke-miterlimit="10"/>
<path d="M98.4196 440.136L82.8872 449.1L98.4196 458.072V440.136Z" stroke="#005593" stroke-width="0.41312" stroke-miterlimit="10"/>
<path d="M82.8874 431.164L67.355 440.136L82.8874 449.1V431.164Z" stroke="#005593" stroke-width="0.41312" stroke-miterlimit="10"/>
<path d="M67.355 440.136L82.8874 449.1L67.355 458.072V440.136Z" stroke="#005593" stroke-width="0.41312" stroke-miterlimit="10"/>
<path d="M82.8872 431.164L98.4196 440.136L82.8872 449.1V431.164Z" stroke="#005593" stroke-width="0.41312" stroke-miterlimit="10"/>
<path d="M82.8874 449.101L67.355 458.073L82.8874 467.037V449.101Z" stroke="#005593" stroke-width="0.41312" stroke-miterlimit="10"/>
<path d="M82.8872 449.101L98.4196 458.073L82.8872 467.037V449.101Z" stroke="#005593" stroke-width="0.41312" stroke-miterlimit="10"/>
<path d="M51.8228 502.917L82.8875 484.981L51.8228 467.036V502.917Z" stroke="#005593" stroke-width="0.41312" stroke-miterlimit="10"/>
<path d="M331.43 449.109L300.366 431.164L331.43 413.228V449.109Z" stroke="#005593" stroke-width="0.41312" stroke-miterlimit="10"/>
<path d="M145.025 484.973L176.089 467.037L145.025 449.101V484.973Z" stroke="#005593" stroke-width="0.41312" stroke-miterlimit="10"/>
<path d="M176.09 502.917L207.155 484.972L176.09 467.036V502.917Z" stroke="#005593" stroke-width="0.41312" stroke-miterlimit="10"/>
<path d="M207.155 484.973L176.09 467.037L207.155 449.101V484.973Z" stroke="#005593" stroke-width="0.41312" stroke-miterlimit="10"/>
<path d="M51.8222 467.037L20.749 449.1L51.8222 431.164V467.037Z" stroke="#005593" stroke-width="0.41312" stroke-miterlimit="10"/>
<path d="M176.089 502.917L145.025 484.972L176.089 467.036V502.917Z" stroke="#005593" stroke-width="0.41312" stroke-miterlimit="10"/>
<path d="M20.7491 520.854L-10.3157 502.918L20.7491 484.981V520.854Z" stroke="#005593" stroke-width="0.41312" stroke-miterlimit="10"/>
<path d="M82.8872 520.854L113.952 502.918L82.8872 484.981V520.854Z" stroke="#005593" stroke-width="0.41312" stroke-miterlimit="10"/>
<path d="M82.8875 520.854L51.8228 502.918L82.8875 484.981V520.854Z" stroke="#005593" stroke-width="0.41312" stroke-miterlimit="10"/>
<path d="M20.7493 520.854L51.8225 502.918L20.7493 484.981V520.854Z" stroke="#005593" stroke-width="0.41312" stroke-miterlimit="10"/>
<path d="M145.025 520.854L176.089 502.918L145.025 484.981V520.854Z" stroke="#005593" stroke-width="0.41312" stroke-miterlimit="10"/>
<path d="M145.026 520.854L113.961 502.918L145.026 484.981V520.854Z" stroke="#005593" stroke-width="0.41312" stroke-miterlimit="10"/>
<path d="M20.7571 484.973L51.8218 467.037L20.7571 449.101V484.973Z" stroke="#005593" stroke-width="0.41312" stroke-miterlimit="10"/>
<path d="M20.7576 484.973L-10.3157 467.037L20.7576 449.101V484.973Z" stroke="#005593" stroke-width="0.41312" stroke-miterlimit="10"/>
<path d="M51.8228 395.292L82.8875 377.355L51.8228 359.419V395.292Z" stroke="#005593" stroke-width="0.41312" stroke-miterlimit="10"/>
<path d="M82.8875 449.101L51.8228 467.037L82.8875 484.973V449.101Z" stroke="#005593" stroke-width="0.41312" stroke-miterlimit="10"/>
<path d="M51.8228 431.164L82.8875 449.1L51.8228 467.037V431.164Z" stroke="#005593" stroke-width="0.41312" stroke-miterlimit="10"/>
<path d="M238.228 359.419L207.163 377.355L238.228 395.292V359.419Z" stroke="#005593" stroke-width="0.41312" stroke-miterlimit="10"/>
<path d="M238.228 359.419L269.292 377.355L238.228 395.292V359.419Z" stroke="#005593" stroke-width="0.41312" stroke-miterlimit="10"/>
<path d="M269.292 413.228L238.228 431.164L269.292 449.1V413.228Z" stroke="#005593" stroke-width="0.41312" stroke-miterlimit="10"/>
<path d="M238.228 431.164L269.292 449.1L238.228 467.037V431.164Z" stroke="#005593" stroke-width="0.41312" stroke-miterlimit="10"/>
<path d="M207.163 413.236L238.228 431.173L207.163 449.109V413.236Z" stroke="#005593" stroke-width="0.41312" stroke-miterlimit="10"/>
<path d="M238.228 395.291L207.163 413.227L238.228 431.164V395.291Z" stroke="#005593" stroke-width="0.41312" stroke-miterlimit="10"/>
<path d="M207.163 377.354L238.228 395.291L207.163 413.227V377.354Z" stroke="#005593" stroke-width="0.41312" stroke-miterlimit="10"/>
<path d="M300.365 287.674L269.292 305.61L300.365 323.546V287.674Z" stroke="#005593" stroke-width="0.41312" stroke-miterlimit="10"/>
<path d="M331.43 305.609L300.366 323.546L331.43 341.482V305.609Z" stroke="#005593" stroke-width="0.41312" stroke-miterlimit="10"/>
<path d="M331.43 269.737L300.366 287.674L331.43 305.61V269.737Z" stroke="#005593" stroke-width="0.41312" stroke-miterlimit="10"/>
<path d="M300.366 287.674L331.43 305.61L300.366 323.546V287.674Z" stroke="#005593" stroke-width="0.41312" stroke-miterlimit="10"/>
<path d="M20.7491 269.729L-10.3157 287.673L20.7491 305.61V269.729Z" stroke="#005593" stroke-width="0.41312" stroke-miterlimit="10"/>
<path d="M20.7493 269.729L51.814 287.673L20.7493 305.61V269.729Z" stroke="#005593" stroke-width="0.41312" stroke-miterlimit="10"/>
<path d="M20.7493 305.61L51.814 287.665L20.7493 269.729V305.61Z" stroke="#005593" stroke-width="0.41312" stroke-miterlimit="10"/>
<path d="M20.7491 305.61L-10.3157 287.665L20.7491 269.729V305.61Z" stroke="#005593" stroke-width="0.41312" stroke-miterlimit="10"/>
<path d="M82.8789 269.737L51.8057 287.682L82.8789 305.618V269.737Z" stroke="#005593" stroke-width="0.41312" stroke-miterlimit="10"/>
<path d="M82.8784 269.737L113.943 287.682L82.8784 305.618V269.737Z" stroke="#005593" stroke-width="0.41312" stroke-miterlimit="10"/>
<path d="M82.8784 305.61L113.943 287.674L82.8784 269.737V305.61Z" stroke="#005593" stroke-width="0.41312" stroke-miterlimit="10"/>
<path d="M82.8789 305.61L51.8057 287.674L82.8789 269.737V305.61Z" stroke="#005593" stroke-width="0.41312" stroke-miterlimit="10"/>
<path d="M207.155 269.737L176.09 287.674L207.155 305.61V269.737Z" stroke="#005593" stroke-width="0.41312" stroke-miterlimit="10"/>
<path d="M207.154 269.737L238.219 287.674L207.154 305.61V269.737Z" stroke="#005593" stroke-width="0.41312" stroke-miterlimit="10"/>
<path d="M145.017 269.737L113.952 287.674L145.017 305.61V269.737Z" stroke="#005593" stroke-width="0.41312" stroke-miterlimit="10"/>
<path d="M145.017 269.737L176.09 287.674L145.017 305.61V269.737Z" stroke="#005593" stroke-width="0.41312" stroke-miterlimit="10"/>
<path d="M145.017 305.61L176.09 287.674L145.017 269.737V305.61Z" stroke="#005593" stroke-width="0.41312" stroke-miterlimit="10"/>
<path d="M145.017 305.61L113.952 287.674L145.017 269.737V305.61Z" stroke="#005593" stroke-width="0.41312" stroke-miterlimit="10"/>
<path d="M269.292 305.61L238.228 287.674L269.292 269.737V305.61Z" stroke="#005593" stroke-width="0.41312" stroke-miterlimit="10"/>
<path d="M269.292 305.61L300.357 287.674L269.292 269.737V305.61Z" stroke="#005593" stroke-width="0.41312" stroke-miterlimit="10"/>
<path d="M269.233 520.82L238.168 502.884L269.233 484.947V520.82Z" stroke="#005593" stroke-width="0.41312" stroke-miterlimit="10"/>
<path d="M238.261 431.146L207.188 449.083L238.261 467.019V431.146Z" stroke="#005593" stroke-width="0.41312" stroke-miterlimit="10"/>
<path d="M207.188 449.092L238.261 467.028L207.188 484.964V449.092Z" stroke="#005593" stroke-width="0.41312" stroke-miterlimit="10"/>
<path d="M238.194 502.867L207.129 484.93L238.194 466.994V502.867Z" stroke="#005593" stroke-width="0.41312" stroke-miterlimit="10"/>
<path d="M269.233 520.82L300.298 502.884L269.233 484.947V520.82Z" stroke="#005593" stroke-width="0.41312" stroke-miterlimit="10"/>
<path d="M331.371 520.82L300.298 538.757L331.371 556.693V520.82Z" stroke="#005593" stroke-width="0.41312" stroke-miterlimit="10"/>
<path d="M269.233 520.82L300.298 538.757L269.233 556.693V520.82Z" stroke="#005593" stroke-width="0.41312" stroke-miterlimit="10"/>
<path d="M300.298 502.884L331.371 520.82L300.298 538.756V502.884Z" stroke="#005593" stroke-width="0.41312" stroke-miterlimit="10"/>
<path d="M269.233 556.693L238.168 538.757L269.233 520.82V556.693Z" stroke="#005593" stroke-width="0.41312" stroke-miterlimit="10"/>
<path d="M331.371 484.947L300.298 502.884L331.371 520.82V484.947Z" stroke="#005593" stroke-width="0.41312" stroke-miterlimit="10"/>
<path d="M331.405 449.092L300.332 467.028L331.405 484.964V449.092Z" stroke="#005593" stroke-width="0.41312" stroke-miterlimit="10"/>
<path d="M300.298 502.884L269.233 484.948L300.298 467.012V502.884Z" stroke="#005593" stroke-width="0.41312" stroke-miterlimit="10"/>
<path d="M300.298 502.884L331.371 484.948L300.298 467.012V502.884Z" stroke="#005593" stroke-width="0.41312" stroke-miterlimit="10"/>
<path d="M-10.3154 502.918L20.7493 520.854L-10.3154 538.791V502.918Z" stroke="#005593" stroke-width="0.41312" stroke-miterlimit="10"/>
<path d="M-10.3154 538.791L20.7493 520.854L-10.3154 502.918V538.791Z" stroke="#005593" stroke-width="0.41312" stroke-miterlimit="10"/>
<path d="M51.8135 502.926L20.7402 520.862L51.8135 538.798V502.926Z" stroke="#005593" stroke-width="0.41312" stroke-miterlimit="10"/>
<path d="M51.8137 502.926L82.8785 520.862L51.8137 538.798V502.926Z" stroke="#005593" stroke-width="0.41312" stroke-miterlimit="10"/>
<path d="M51.8137 538.798L82.8785 520.862L51.8137 502.926V538.798Z" stroke="#005593" stroke-width="0.41312" stroke-miterlimit="10"/>
<path d="M51.8135 538.798L20.7402 520.862L51.8135 502.926V538.798Z" stroke="#005593" stroke-width="0.41312" stroke-miterlimit="10"/>
<path d="M176.089 502.918L145.025 520.854L176.089 538.791V502.918Z" stroke="#005593" stroke-width="0.41312" stroke-miterlimit="10"/>
<path d="M176.09 502.918L207.155 520.854L176.09 538.791V502.918Z" stroke="#005593" stroke-width="0.41312" stroke-miterlimit="10"/>
<path d="M113.952 502.918L82.8872 520.854L113.952 538.791V502.918Z" stroke="#005593" stroke-width="0.41312" stroke-miterlimit="10"/>
<path d="M113.952 502.918L145.025 520.854L113.952 538.791V502.918Z" stroke="#005593" stroke-width="0.41312" stroke-miterlimit="10"/>
<path d="M113.952 538.791L145.025 520.854L113.952 502.918V538.791Z" stroke="#005593" stroke-width="0.41312" stroke-miterlimit="10"/>
<path d="M113.952 538.791L82.8872 520.854L113.952 502.918V538.791Z" stroke="#005593" stroke-width="0.41312" stroke-miterlimit="10"/>
<path d="M238.228 538.791L207.163 520.854L238.228 502.918V538.791Z" stroke="#005593" stroke-width="0.41312" stroke-miterlimit="10"/>
<path d="M238.228 538.791L269.292 520.854L238.228 502.918V538.791Z" stroke="#005593" stroke-width="0.41312" stroke-miterlimit="10"/>
<path d="M20.7491 520.837L-10.3157 538.773L20.7491 556.71V520.837Z" stroke="#005593" stroke-width="0.41312" stroke-miterlimit="10"/>
<path d="M20.7493 556.71L51.8225 538.773L20.7493 520.837V556.71Z" stroke="#005593" stroke-width="0.41312" stroke-miterlimit="10"/>
<path d="M82.8875 520.845L51.8228 538.781L82.8875 556.717V520.845Z" stroke="#005593" stroke-width="0.41312" stroke-miterlimit="10"/>
<path d="M82.8872 556.717L113.96 538.781L82.8872 520.845V556.717Z" stroke="#005593" stroke-width="0.41312" stroke-miterlimit="10"/>
<path d="M145.025 520.854L113.952 538.79L145.025 556.735V520.854Z" stroke="#005593" stroke-width="0.41312" stroke-miterlimit="10"/>
<path d="M145.025 556.726L176.089 538.79L145.025 520.854V556.726Z" stroke="#005593" stroke-width="0.41312" stroke-miterlimit="10"/>
<path d="M207.163 520.862L176.09 538.799L207.163 556.735V520.862Z" stroke="#005593" stroke-width="0.41312" stroke-miterlimit="10"/>
<path d="M207.163 556.735L238.228 538.799L207.163 520.862V556.735Z" stroke="#005593" stroke-width="0.41312" stroke-miterlimit="10"/>
<path d="M82.8872 341.482L113.952 323.546L82.8872 305.609V341.482Z" stroke="#005593" stroke-width="0.41312" stroke-miterlimit="10"/>
<path d="M82.8875 377.355L51.8228 359.419L82.8875 341.482V377.355Z" stroke="#005593" stroke-width="0.41312" stroke-miterlimit="10"/>
<path d="M176.09 431.164L207.155 413.227L176.09 395.291V431.164Z" stroke="#005593" stroke-width="0.41312" stroke-miterlimit="10"/>
<path d="M207.163 449.1L176.09 431.164L207.163 413.228V449.1Z" stroke="#005593" stroke-width="0.41312" stroke-miterlimit="10"/>
<path d="M207.155 413.227L176.09 395.291L207.155 377.354V413.227Z" stroke="#005593" stroke-width="0.41312" stroke-miterlimit="10"/>
<path d="M331.43 377.355L300.366 359.419L331.43 341.482V377.355Z" stroke="#005593" stroke-width="0.41312" stroke-miterlimit="10"/>
<path d="M315.898 422.2L300.366 431.164L315.898 440.136V422.2Z" stroke="#005593" stroke-width="0.41312" stroke-miterlimit="10"/>
<path d="M300.366 413.228L284.825 422.2L300.366 431.164V413.228Z" stroke="#005593" stroke-width="0.41312" stroke-miterlimit="10"/>
<path d="M284.825 422.2L300.366 431.164L284.825 440.136V422.2Z" stroke="#005593" stroke-width="0.41312" stroke-miterlimit="10"/>
<path d="M300.366 413.228L315.898 422.2L300.366 431.164V413.228Z" stroke="#005593" stroke-width="0.41312" stroke-miterlimit="10"/>
<path d="M300.366 431.164L284.825 440.136L300.366 449.1V431.164Z" stroke="#005593" stroke-width="0.41312" stroke-miterlimit="10"/>
<path d="M300.366 431.164L315.898 440.136L300.366 449.1V431.164Z" stroke="#005593" stroke-width="0.41312" stroke-miterlimit="10"/>
<path d="M284.825 368.391L300.366 359.419L284.825 350.455V368.391Z" stroke="#005593" stroke-width="0.41312" stroke-miterlimit="10"/>
<path d="M300.366 377.355L315.898 368.391L300.366 359.419V377.355Z" stroke="#005593" stroke-width="0.41312" stroke-miterlimit="10"/>
<path d="M315.898 368.391L300.366 359.419L315.898 350.455V368.391Z" stroke="#005593" stroke-width="0.41312" stroke-miterlimit="10"/>
<path d="M300.366 377.355L284.825 368.391L300.366 359.419V377.355Z" stroke="#005593" stroke-width="0.41312" stroke-miterlimit="10"/>
<path d="M300.366 359.419L315.898 350.455L300.366 341.482V359.419Z" stroke="#005593" stroke-width="0.41312" stroke-miterlimit="10"/>
<path d="M300.366 359.419L284.825 350.455L300.366 341.482V359.419Z" stroke="#005593" stroke-width="0.41312" stroke-miterlimit="10"/>
<path d="M67.355 386.319L82.8874 377.355L67.355 368.383V386.319Z" stroke="#005593" stroke-width="0.41312" stroke-miterlimit="10"/>
<path d="M82.8872 395.291L98.4196 386.318L82.8872 377.354V395.291Z" stroke="#005593" stroke-width="0.41312" stroke-miterlimit="10"/>
<path d="M82.8874 395.291L67.355 386.318L82.8874 377.354V395.291Z" stroke="#005593" stroke-width="0.41312" stroke-miterlimit="10"/>
<path d="M82.8872 377.355L98.4196 368.383L82.8872 359.419V377.355Z" stroke="#005593" stroke-width="0.41312" stroke-miterlimit="10"/>
<path d="M82.8874 377.355L67.355 368.383L82.8874 359.419V377.355Z" stroke="#005593" stroke-width="0.41312" stroke-miterlimit="10"/>
<path d="M98.4196 386.319L82.8872 377.355L98.4196 368.383V386.319Z" stroke="#005593" stroke-width="0.41312" stroke-miterlimit="10"/>
<path d="M238.228 431.164L269.292 413.227L238.228 395.291V431.164Z" stroke="#005593" stroke-width="0.41312" stroke-miterlimit="10"/>
<path d="M269.292 413.227L238.228 395.291L269.292 377.354V413.227Z" stroke="#005593" stroke-width="0.41312" stroke-miterlimit="10"/>
<path d="M126.369 510.104L145.016 520.862L126.369 531.629V510.104Z" stroke="#005593" stroke-width="0.41312" stroke-miterlimit="10"/>
<path d="M163.655 510.104L145.017 520.862L163.655 531.629V510.104Z" stroke="#005593" stroke-width="0.41312" stroke-miterlimit="10"/>
<path d="M145.017 520.862L163.655 531.629L145.017 542.388V520.862Z" stroke="#005593" stroke-width="0.41312" stroke-miterlimit="10"/>
<path d="M145.016 520.862L126.369 531.629L145.016 542.388V520.862Z" stroke="#005593" stroke-width="0.41312" stroke-miterlimit="10"/>
<path d="M253.76 493.894L238.219 484.93L253.76 475.958V493.894Z" stroke="#005593" stroke-width="0.41312" stroke-miterlimit="10"/>
<path d="M238.219 502.867L253.76 493.895L238.219 484.931V502.867Z" stroke="#005593" stroke-width="0.41312" stroke-miterlimit="10"/>
<path d="M238.219 484.93L253.76 475.958L238.219 466.994V484.93Z" stroke="#005593" stroke-width="0.41312" stroke-miterlimit="10"/>
<path d="M253.76 332.51L238.228 323.537L253.76 314.573V332.51Z" stroke="#005593" stroke-width="0.41312" stroke-miterlimit="10"/>
<path d="M238.228 341.474L222.695 332.51L238.228 323.538V341.474Z" stroke="#005593" stroke-width="0.41312" stroke-miterlimit="10"/>
<path d="M238.228 341.474L253.76 332.51L238.228 323.538V341.474Z" stroke="#005593" stroke-width="0.41312" stroke-miterlimit="10"/>
<path d="M238.228 323.538L222.695 314.574L238.228 305.602V323.538Z" stroke="#005593" stroke-width="0.41312" stroke-miterlimit="10"/>
<path d="M238.228 323.538L253.76 314.574L238.228 305.602V323.538Z" stroke="#005593" stroke-width="0.41312" stroke-miterlimit="10"/>
<path d="M222.695 332.51L238.228 323.537L222.695 314.573V332.51Z" stroke="#005593" stroke-width="0.41312" stroke-miterlimit="10"/>
<path d="M393.569 341.482L362.504 323.546L393.569 305.609V341.482Z" stroke="#005593" stroke-width="0.41312" stroke-miterlimit="10"/>
<path d="M331.43 377.354L362.504 395.291L331.43 413.227V377.354Z" stroke="#005593" stroke-width="0.41312" stroke-miterlimit="10"/>
<path d="M362.504 359.419L393.569 377.355L362.504 395.292V359.419Z" stroke="#005593" stroke-width="0.41312" stroke-miterlimit="10"/>
<path d="M393.569 377.354L362.504 395.291L393.569 413.227V377.354Z" stroke="#005593" stroke-width="0.41312" stroke-miterlimit="10"/>
<path d="M362.504 359.419L331.43 377.355L362.504 395.292V359.419Z" stroke="#005593" stroke-width="0.41312" stroke-miterlimit="10"/>
<path d="M362.504 395.291L393.569 413.227L362.504 431.164V395.291Z" stroke="#005593" stroke-width="0.41312" stroke-miterlimit="10"/>
<path d="M362.504 395.291L331.43 413.227L362.504 431.164V395.291Z" stroke="#005593" stroke-width="0.41312" stroke-miterlimit="10"/>
<path d="M362.495 431.164L393.568 449.1L362.495 467.045V431.164Z" stroke="#005593" stroke-width="0.41312" stroke-miterlimit="10"/>
<path d="M362.504 431.164L331.43 449.1L362.504 467.045V431.164Z" stroke="#005593" stroke-width="0.41312" stroke-miterlimit="10"/>
<path d="M393.569 449.101L362.504 467.037L393.569 484.973V449.101Z" stroke="#005593" stroke-width="0.41312" stroke-miterlimit="10"/>
<path d="M362.504 323.546L393.569 341.482L362.504 359.418V323.546Z" stroke="#005593" stroke-width="0.41312" stroke-miterlimit="10"/>
<path d="M393.569 305.609L362.504 323.546L393.569 341.482V305.609Z" stroke="#005593" stroke-width="0.41312" stroke-miterlimit="10"/>
<path d="M393.569 341.482L362.504 359.419L393.569 377.355V341.482Z" stroke="#005593" stroke-width="0.41312" stroke-miterlimit="10"/>
<path d="M331.43 449.109L362.504 431.164L331.43 413.228V449.109Z" stroke="#005593" stroke-width="0.41312" stroke-miterlimit="10"/>
<path d="M362.504 287.674L393.569 305.61L362.504 323.546V287.674Z" stroke="#005593" stroke-width="0.41312" stroke-miterlimit="10"/>
<path d="M331.43 305.609L362.504 323.546L331.43 341.482V305.609Z" stroke="#005593" stroke-width="0.41312" stroke-miterlimit="10"/>
<path d="M362.504 287.674L331.43 305.61L362.504 323.546V287.674Z" stroke="#005593" stroke-width="0.41312" stroke-miterlimit="10"/>
<path d="M331.43 377.355L362.504 359.419L331.43 341.482V377.355Z" stroke="#005593" stroke-width="0.41312" stroke-miterlimit="10"/>
<path d="M346.972 422.2L362.504 431.164L346.972 440.136V422.2Z" stroke="#005593" stroke-width="0.41312" stroke-miterlimit="10"/>
<path d="M362.504 413.228L378.036 422.2L362.504 431.164V413.228Z" stroke="#005593" stroke-width="0.41312" stroke-miterlimit="10"/>
<path d="M378.036 422.2L362.504 431.164L378.036 440.136V422.2Z" stroke="#005593" stroke-width="0.41312" stroke-miterlimit="10"/>
<path d="M362.504 413.228L346.972 422.2L362.504 431.164V413.228Z" stroke="#005593" stroke-width="0.41312" stroke-miterlimit="10"/>
<path d="M362.504 431.164L378.036 440.136L362.504 449.1V431.164Z" stroke="#005593" stroke-width="0.41312" stroke-miterlimit="10"/>
<path d="M378.036 368.391L362.504 359.419L378.036 350.455V368.391Z" stroke="#005593" stroke-width="0.41312" stroke-miterlimit="10"/>
<path d="M362.504 377.355L346.972 368.391L362.504 359.419V377.355Z" stroke="#005593" stroke-width="0.41312" stroke-miterlimit="10"/>
<path d="M346.972 368.391L362.504 359.419L346.972 350.455V368.391Z" stroke="#005593" stroke-width="0.41312" stroke-miterlimit="10"/>
<path d="M362.504 377.355L378.036 368.391L362.504 359.419V377.355Z" stroke="#005593" stroke-width="0.41312" stroke-miterlimit="10"/>
<path d="M362.504 359.419L346.972 350.455L362.504 341.482V359.419Z" stroke="#005593" stroke-width="0.41312" stroke-miterlimit="10"/>
<path d="M362.504 359.419L378.036 350.455L362.504 341.482V359.419Z" stroke="#005593" stroke-width="0.41312" stroke-miterlimit="10"/>
<path d="M393.568 269.737L362.495 287.674L393.568 305.61V269.737Z" stroke="#005593" stroke-width="0.41312" stroke-miterlimit="10"/>
<path d="M393.568 305.61L362.495 287.674L393.568 269.737V305.61Z" stroke="#005593" stroke-width="0.41312" stroke-miterlimit="10"/>
<path d="M331.43 305.61L362.504 287.674L331.43 269.737V305.61Z" stroke="#005593" stroke-width="0.41312" stroke-miterlimit="10"/>
<path d="M393.569 520.854L362.504 502.918L393.569 484.981V520.854Z" stroke="#005593" stroke-width="0.41312" stroke-miterlimit="10"/>
<path d="M331.438 520.854L362.503 538.79L331.438 556.726V520.854Z" stroke="#005593" stroke-width="0.41312" stroke-miterlimit="10"/>
<path d="M331.363 449.151L362.428 467.088L331.363 485.024V449.151Z" stroke="#005593" stroke-width="0.41312" stroke-miterlimit="10"/>
<path d="M393.569 520.854L362.504 538.79L393.569 556.726V520.854Z" stroke="#005593" stroke-width="0.41312" stroke-miterlimit="10"/>
<path d="M362.503 502.918L331.438 520.854L362.503 538.791V502.918Z" stroke="#005593" stroke-width="0.41312" stroke-miterlimit="10"/>
<path d="M331.43 484.981L362.504 502.918L331.43 520.854V484.981Z" stroke="#005593" stroke-width="0.41312" stroke-miterlimit="10"/>
<path d="M362.504 502.918L393.577 484.981L362.504 467.045V502.918Z" stroke="#005593" stroke-width="0.41312" stroke-miterlimit="10"/>
<path d="M362.503 502.918L331.438 484.981L362.503 467.045V502.918Z" stroke="#005593" stroke-width="0.41312" stroke-miterlimit="10"/>
</g>
</svg>
