<svg width="308" height="18" viewBox="0 0 308 18" fill="none" xmlns="http://www.w3.org/2000/svg">
<path d="M188.92 9.1748L193.397 16.8701H184.455L188.92 9.1748Z" fill="#2192D0"/>
<path d="M188.921 9.1748H179.978L184.455 16.8701L188.921 9.1748Z" fill="#94D6F4"/>
<path d="M175.512 16.8701H184.455L179.978 9.1748L175.512 16.8701Z" fill="#2192D0"/>
<path d="M179.978 9.17477H188.921L184.455 1.47949L179.978 9.17477Z" fill="#045594"/>
<path d="M68.5283 9.00659L76.032 4.70496L68.5283 0.40332V9.00659Z" fill="#2192D0"/>
<path d="M68.5283 17.6215L76.032 13.3198L68.5283 9.00684V17.6215Z" fill="#2192D0"/>
<path d="M68.5287 17.6215L61.0364 13.3198L68.5287 9.00684V17.6215Z" fill="#94D6F4"/>
<path d="M68.5287 0.40332L61.0364 4.70496L68.5287 9.00659V0.40332Z" fill="#2192D0"/>
<path d="M61.0364 4.70508L68.5287 9.00671L61.0364 13.3197V4.70508Z" fill="#94D6F4"/>
<path d="M64.7825 11.163L68.5286 9.00647L64.7825 6.86133V11.163Z" fill="#045594"/>
<path d="M68.5283 13.3198L72.2859 11.1633L68.5283 9.00684V13.3198Z" fill="#045594"/>
<path d="M68.5286 13.3198L64.7825 11.1633L68.5286 9.00684V13.3198Z" fill="#045594"/>
<path d="M68.5283 9.00671L72.2859 6.86157L68.5283 4.70508V9.00671Z" fill="#94D6F4"/>
<path d="M68.5286 9.00671L64.7825 6.86157L68.5286 4.70508V9.00671Z" fill="#045594"/>
<path d="M123.534 1.47949L128.011 9.17477L132.476 1.47949H123.534Z" fill="#045594"/>
<path d="M119.068 9.1748L123.534 16.8814L128.011 9.1748H119.068Z" fill="#2192D0"/>
<path d="M119.068 9.17477L123.534 1.47949L128.011 9.17477H119.068Z" fill="#94D6F4"/>
<path d="M123.534 16.8814L128.011 9.1748L132.476 16.8814H123.534Z" fill="#CCEBFB"/>
<path d="M300.381 9.00659L307.885 4.70496L300.381 0.40332V9.00659Z" fill="#2192D0"/>
<path d="M300.381 17.6215L307.885 13.3198L300.381 9.00684V17.6215Z" fill="#2192D0"/>
<path d="M300.381 17.6215L292.877 13.3198L300.381 9.00684V17.6215Z" fill="#94D6F4"/>
<path d="M300.381 0.40332L292.877 4.70496L300.381 9.00659V0.40332Z" fill="#2192D0"/>
<path d="M292.877 4.70508L300.381 9.00671L292.877 13.3197V4.70508Z" fill="#94D6F4"/>
<path d="M296.635 11.163L300.381 9.00647L296.635 6.86133V11.163Z" fill="#045594"/>
<path d="M300.381 13.3198L304.127 11.1633L300.381 9.00684V13.3198Z" fill="#045594"/>
<path d="M300.381 13.3198L296.635 11.1633L300.381 9.00684V13.3198Z" fill="#045594"/>
<path d="M300.381 9.00671L304.127 6.86157L300.381 4.70508V9.00671Z" fill="#94D6F4"/>
<path d="M300.381 9.00671L296.635 6.86157L300.381 4.70508V9.00671Z" fill="#045594"/>
<path d="M240.899 1.47949L245.376 9.17477L249.842 1.47949H240.899Z" fill="#045594"/>
<path d="M236.433 9.1748L240.899 16.8814L245.376 9.1748H236.433Z" fill="#2192D0"/>
<path d="M236.433 9.17477L240.899 1.47949L245.376 9.17477H236.433Z" fill="#94D6F4"/>
<path d="M240.899 16.8814L245.376 9.1748L249.842 16.8814H240.899Z" fill="#CCEBFB"/>
<path d="M9.05762 1.47949L13.5347 9.17477L18.0004 1.47949H9.05762Z" fill="#2192D0"/>
<path d="M0.11499 1.47949L4.5921 9.17477L9.05779 1.47949H0.11499Z" fill="#2192D0"/>
<path d="M4.58081 9.1748L9.05792 16.8814L13.535 9.1748H4.58081Z" fill="#53C1EE"/>
<path d="M4.58081 9.17477L9.05792 1.47949L13.535 9.17477H4.58081Z" fill="#045594"/>
<path d="M9.05762 16.8814H13.5347V9.1748L9.05762 16.8814Z" fill="#CCEBFB"/>
<path d="M13.5349 9.17477H18.0006V1.47949L13.5349 9.17477Z" fill="#CCEBFB"/>
<path d="M9.05792 16.8701H4.58081V9.1748L9.05792 16.8701Z" fill="#CCEBFB"/>
<path d="M4.5921 9.17477H0.11499V1.47949L4.5921 9.17477Z" fill="#CCEBFB"/>
</svg>
