<svg width="390" height="415" viewBox="0 0 390 415" fill="none" xmlns="http://www.w3.org/2000/svg">
<g opacity="0.6">
<path d="M42.6366 80.5732L19.5028 93.9347L42.6366 107.296V80.5732Z" stroke="#C2C1C0" stroke-width="0.18" stroke-miterlimit="10"/>
<path d="M19.5027 67.2119L-3.6311 80.5733L19.5027 93.9348V67.2119Z" stroke="#C2C1C0" stroke-width="0.18" stroke-miterlimit="10"/>
<path d="M-3.6311 80.5732L19.5027 93.9347L-3.6311 107.296V80.5732Z" stroke="#C2C1C0" stroke-width="0.18" stroke-miterlimit="10"/>
<path d="M19.5028 67.2119L42.6366 80.5733L19.5028 93.9348V67.2119Z" stroke="#C2C1C0" stroke-width="0.18" stroke-miterlimit="10"/>
<path d="M19.5027 93.9346L-3.6311 107.296L19.5027 120.657V93.9346Z" stroke="#C2C1C0" stroke-width="0.18" stroke-miterlimit="10"/>
<path d="M19.5028 93.9346L42.6366 107.296L19.5028 120.657V93.9346Z" stroke="#C2C1C0" stroke-width="0.18" stroke-miterlimit="10"/>
<path d="M19.5027 120.657L-3.6311 134.019L19.5027 147.38V120.657Z" stroke="#C2C1C0" stroke-width="0.18" stroke-miterlimit="10"/>
<path d="M19.5028 120.657L42.6429 134.019L19.5028 147.38V120.657Z" stroke="#C2C1C0" stroke-width="0.18" stroke-miterlimit="10"/>
<path d="M19.5027 40.4893L-3.6311 53.8507L19.5027 67.2121V40.4893Z" stroke="#C2C1C0" stroke-width="0.18" stroke-miterlimit="10"/>
<path d="M-3.6311 27.1279L19.5027 40.4893L-3.6311 53.8508V27.1279Z" stroke="#C2C1C0" stroke-width="0.18" stroke-miterlimit="10"/>
<path d="M-3.6311 53.8506L19.5027 67.212L-3.6311 80.5734V53.8506Z" stroke="#C2C1C0" stroke-width="0.18" stroke-miterlimit="10"/>
<path d="M-3.6311 134.019L19.5027 120.657L-3.6311 107.296V134.019Z" stroke="#C2C1C0" stroke-width="0.18" stroke-miterlimit="10"/>
<path d="M42.6366 134.019L19.5028 120.657L42.6366 107.296V134.019Z" stroke="#C2C1C0" stroke-width="0.18" stroke-miterlimit="10"/>
<path d="M19.5027 13.7666L-3.6311 27.128L19.5027 40.4894V13.7666Z" stroke="#C2C1C0" stroke-width="0.18" stroke-miterlimit="10"/>
<path d="M42.6429 27.1279L19.5028 40.4893L42.6429 53.8508V27.1279Z" stroke="#C2C1C0" stroke-width="0.18" stroke-miterlimit="10"/>
<path d="M42.6429 0.404297L19.5028 13.7657L42.6429 27.1271V0.404297Z" stroke="#C2C1C0" stroke-width="0.18" stroke-miterlimit="10"/>
<path d="M19.5028 13.7666L42.6429 27.128L19.5028 40.4894V13.7666Z" stroke="#C2C1C0" stroke-width="0.18" stroke-miterlimit="10"/>
<path d="M-3.6311 27.1213L19.5027 13.7599L-3.6311 0.398438V27.1213Z" stroke="#C2C1C0" stroke-width="0.18" stroke-miterlimit="10"/>
<path d="M-3.68164 187.446L19.4585 174.078L-3.68164 160.717V187.446Z" stroke="#C2C1C0" stroke-width="0.18" stroke-miterlimit="10"/>
<path d="M42.5925 187.445L19.4587 200.807L42.5925 214.168V187.445Z" stroke="#C2C1C0" stroke-width="0.18" stroke-miterlimit="10"/>
<path d="M-3.67517 187.445L19.4586 200.807L-3.67517 214.168V187.445Z" stroke="#C2C1C0" stroke-width="0.18" stroke-miterlimit="10"/>
<path d="M19.4587 174.078L42.5925 187.446L19.4587 200.807V174.078Z" stroke="#C2C1C0" stroke-width="0.18" stroke-miterlimit="10"/>
<path d="M42.5925 160.717L19.4587 174.078L42.5925 187.446V160.717Z" stroke="#C2C1C0" stroke-width="0.18" stroke-miterlimit="10"/>
<path d="M42.6176 134.007L19.4838 147.375L42.6176 160.73V134.007Z" stroke="#C2C1C0" stroke-width="0.18" stroke-miterlimit="10"/>
<path d="M19.4585 174.078L-3.68164 160.717L19.4585 147.355V174.078Z" stroke="#C2C1C0" stroke-width="0.18" stroke-miterlimit="10"/>
<path d="M19.4587 174.078L42.5925 160.717L19.4587 147.355V174.078Z" stroke="#C2C1C0" stroke-width="0.18" stroke-miterlimit="10"/>
<path d="M42.6366 80.5734L19.5028 67.212L42.6366 53.8506V80.5734Z" stroke="#C2C1C0" stroke-width="0.18" stroke-miterlimit="10"/>
<path d="M31.0697 113.979L19.5028 120.657L31.0697 127.341V113.979Z" stroke="#C2C1C0" stroke-width="0.18" stroke-miterlimit="10"/>
<path d="M19.5027 107.296L7.93579 113.98L19.5027 120.657V107.296Z" stroke="#C2C1C0" stroke-width="0.18" stroke-miterlimit="10"/>
<path d="M7.93579 113.979L19.5027 120.657L7.93579 127.341V113.979Z" stroke="#C2C1C0" stroke-width="0.18" stroke-miterlimit="10"/>
<path d="M19.5028 107.296L31.0697 113.98L19.5028 120.657V107.296Z" stroke="#C2C1C0" stroke-width="0.18" stroke-miterlimit="10"/>
<path d="M19.5027 120.657L7.93579 127.341L19.5027 134.019V120.657Z" stroke="#C2C1C0" stroke-width="0.18" stroke-miterlimit="10"/>
<path d="M19.5028 120.657L31.0697 127.341L19.5028 134.019V120.657Z" stroke="#C2C1C0" stroke-width="0.18" stroke-miterlimit="10"/>
<path d="M7.93579 73.8897L19.5027 67.2122L7.93579 60.5283V73.8897Z" stroke="#C2C1C0" stroke-width="0.18" stroke-miterlimit="10"/>
<path d="M19.5028 80.5733L31.0697 73.8895L19.5028 67.2119V80.5733Z" stroke="#C2C1C0" stroke-width="0.18" stroke-miterlimit="10"/>
<path d="M31.0697 73.8897L19.5028 67.2122L31.0697 60.5283V73.8897Z" stroke="#C2C1C0" stroke-width="0.18" stroke-miterlimit="10"/>
<path d="M19.5027 80.5733L7.93579 73.8895L19.5027 67.2119V80.5733Z" stroke="#C2C1C0" stroke-width="0.18" stroke-miterlimit="10"/>
<path d="M19.5028 67.212L31.0697 60.5281L19.5028 53.8506V67.212Z" stroke="#C2C1C0" stroke-width="0.18" stroke-miterlimit="10"/>
<path d="M19.5027 67.212L7.93579 60.5281L19.5027 53.8506V67.212Z" stroke="#C2C1C0" stroke-width="0.18" stroke-miterlimit="10"/>
<path d="M227.732 160.741L204.592 147.38L227.732 134.019V160.741Z" stroke="#C2C1C0" stroke-width="0.18" stroke-miterlimit="10"/>
<path d="M250.866 120.657L227.732 134.019L250.866 147.38V120.657Z" stroke="#C2C1C0" stroke-width="0.18" stroke-miterlimit="10"/>
<path d="M135.184 53.8508L112.05 40.483L135.184 27.1279V53.8508Z" stroke="#C2C1C0" stroke-width="0.18" stroke-miterlimit="10"/>
<path d="M135.184 53.8508L158.324 40.483L135.184 27.1279V53.8508Z" stroke="#C2C1C0" stroke-width="0.18" stroke-miterlimit="10"/>
<path d="M412.821 53.8508L389.681 40.4893L412.821 27.1279V53.8508Z" stroke="#C2C1C0" stroke-width="0.18" stroke-miterlimit="10"/>
<path d="M227.732 53.8508L204.592 40.4893L227.732 27.1279V53.8508Z" stroke="#C2C1C0" stroke-width="0.18" stroke-miterlimit="10"/>
<path d="M88.9168 53.8508L65.7767 40.483L88.9168 27.1279V53.8508Z" stroke="#C2C1C0" stroke-width="0.18" stroke-miterlimit="10"/>
<path d="M88.9167 53.8508L112.051 40.483L88.9167 27.1279V53.8508Z" stroke="#C2C1C0" stroke-width="0.18" stroke-miterlimit="10"/>
<path d="M274 53.8508L297.14 40.483L274 27.1279V53.8508Z" stroke="#C2C1C0" stroke-width="0.18" stroke-miterlimit="10"/>
<path d="M274 53.8508L250.866 40.483L274 27.1279V53.8508Z" stroke="#C2C1C0" stroke-width="0.18" stroke-miterlimit="10"/>
<path d="M227.732 53.8508L250.866 40.4893L227.732 27.1279V53.8508Z" stroke="#C2C1C0" stroke-width="0.18" stroke-miterlimit="10"/>
<path d="M320.273 53.8508L343.414 40.483L320.273 27.1279V53.8508Z" stroke="#C2C1C0" stroke-width="0.18" stroke-miterlimit="10"/>
<path d="M320.274 53.8508L297.14 40.483L320.274 27.1279V53.8508Z" stroke="#C2C1C0" stroke-width="0.18" stroke-miterlimit="10"/>
<path d="M42.6428 80.5732L65.7766 93.9347L42.6428 107.296V80.5732Z" stroke="#C2C1C0" stroke-width="0.18" stroke-miterlimit="10"/>
<path d="M65.7767 67.2119L88.9168 80.5733L65.7767 93.9348V67.2119Z" stroke="#C2C1C0" stroke-width="0.18" stroke-miterlimit="10"/>
<path d="M88.9168 80.5732L65.7767 93.9347L88.9168 107.296V80.5732Z" stroke="#C2C1C0" stroke-width="0.18" stroke-miterlimit="10"/>
<path d="M65.7766 67.2119L42.6428 80.5733L65.7766 93.9348V67.2119Z" stroke="#C2C1C0" stroke-width="0.18" stroke-miterlimit="10"/>
<path d="M65.7767 93.9346L88.9168 107.296L65.7767 120.657V93.9346Z" stroke="#C2C1C0" stroke-width="0.18" stroke-miterlimit="10"/>
<path d="M65.7766 93.9346L42.6428 107.296L65.7766 120.657V93.9346Z" stroke="#C2C1C0" stroke-width="0.18" stroke-miterlimit="10"/>
<path d="M65.7767 120.657L88.9105 134.019L65.7767 147.38V120.657Z" stroke="#C2C1C0" stroke-width="0.18" stroke-miterlimit="10"/>
<path d="M65.7766 120.657L42.6428 134.019L65.7766 147.38V120.657Z" stroke="#C2C1C0" stroke-width="0.18" stroke-miterlimit="10"/>
<path d="M112.05 147.38L135.184 160.741L112.05 174.103V147.38Z" stroke="#C2C1C0" stroke-width="0.18" stroke-miterlimit="10"/>
<path d="M112.05 147.38L88.9103 160.741L112.05 174.103V147.38Z" stroke="#C2C1C0" stroke-width="0.18" stroke-miterlimit="10"/>
<path d="M88.9167 134.019L112.051 147.38L88.9167 160.741V134.019Z" stroke="#C2C1C0" stroke-width="0.18" stroke-miterlimit="10"/>
<path d="M88.9168 134.019L65.7767 147.38L88.9168 160.741V134.019Z" stroke="#C2C1C0" stroke-width="0.18" stroke-miterlimit="10"/>
<path d="M65.7767 40.4893L88.9168 53.8507L65.7767 67.2121V40.4893Z" stroke="#C2C1C0" stroke-width="0.18" stroke-miterlimit="10"/>
<path d="M88.9167 27.1279L112.051 40.4893L88.9167 53.8508V27.1279Z" stroke="#C2C1C0" stroke-width="0.18" stroke-miterlimit="10"/>
<path d="M112.051 40.4893L88.9167 53.8507L112.051 67.2121V40.4893Z" stroke="#C2C1C0" stroke-width="0.18" stroke-miterlimit="10"/>
<path d="M88.9168 27.1279L65.7767 40.4893L88.9168 53.8508V27.1279Z" stroke="#C2C1C0" stroke-width="0.18" stroke-miterlimit="10"/>
<path d="M158.324 40.4826L135.184 27.1212L158.324 13.7598V40.4826Z" stroke="#C2C1C0" stroke-width="0.18" stroke-miterlimit="10"/>
<path d="M158.324 40.4826L181.458 27.1212L158.324 13.7598V40.4826Z" stroke="#C2C1C0" stroke-width="0.18" stroke-miterlimit="10"/>
<path d="M112.051 40.4826L88.9167 27.1212L112.051 13.7598V40.4826Z" stroke="#C2C1C0" stroke-width="0.18" stroke-miterlimit="10"/>
<path d="M112.05 40.4826L135.184 27.1212L112.05 13.7598V40.4826Z" stroke="#C2C1C0" stroke-width="0.18" stroke-miterlimit="10"/>
<path d="M112.051 13.7598L88.9167 27.1212L112.051 40.4889V13.7598Z" stroke="#C2C1C0" stroke-width="0.18" stroke-miterlimit="10"/>
<path d="M204.598 40.4894L181.458 27.128L204.598 13.7666V40.4894Z" stroke="#C2C1C0" stroke-width="0.18" stroke-miterlimit="10"/>
<path d="M204.598 40.4894L227.732 27.128L204.598 13.7666V40.4894Z" stroke="#C2C1C0" stroke-width="0.18" stroke-miterlimit="10"/>
<path d="M204.592 13.7666L227.732 27.128L204.592 40.4894V13.7666Z" stroke="#C2C1C0" stroke-width="0.18" stroke-miterlimit="10"/>
<path d="M204.598 13.7666L181.458 27.128L204.598 40.4894V13.7666Z" stroke="#C2C1C0" stroke-width="0.18" stroke-miterlimit="10"/>
<path d="M297.14 40.4894L274 27.128L297.14 13.7666V40.4894Z" stroke="#C2C1C0" stroke-width="0.18" stroke-miterlimit="10"/>
<path d="M297.14 40.4894L320.274 27.128L297.14 13.7666V40.4894Z" stroke="#C2C1C0" stroke-width="0.18" stroke-miterlimit="10"/>
<path d="M297.14 13.7666L320.274 27.128L297.14 40.4894V13.7666Z" stroke="#C2C1C0" stroke-width="0.18" stroke-miterlimit="10"/>
<path d="M297.14 13.7666L274 27.128L297.14 40.4894V13.7666Z" stroke="#C2C1C0" stroke-width="0.18" stroke-miterlimit="10"/>
<path d="M343.407 40.4826L320.267 27.1212L343.407 13.7598V40.4826Z" stroke="#C2C1C0" stroke-width="0.18" stroke-miterlimit="10"/>
<path d="M343.407 40.4826L366.541 27.1212L343.407 13.7598V40.4826Z" stroke="#C2C1C0" stroke-width="0.18" stroke-miterlimit="10"/>
<path d="M343.401 13.7598L366.541 27.1212L343.401 40.4826V13.7598Z" stroke="#C2C1C0" stroke-width="0.18" stroke-miterlimit="10"/>
<path d="M343.407 13.7598L320.267 27.1212L343.407 40.4826V13.7598Z" stroke="#C2C1C0" stroke-width="0.18" stroke-miterlimit="10"/>
<path d="M389.681 40.4889L366.548 27.1212L389.681 13.7598V40.4889Z" stroke="#C2C1C0" stroke-width="0.18" stroke-miterlimit="10"/>
<path d="M389.681 40.4889L412.821 27.1212L389.681 13.7598V40.4889Z" stroke="#C2C1C0" stroke-width="0.18" stroke-miterlimit="10"/>
<path d="M389.681 13.7666L412.815 27.128L389.681 40.4894V13.7666Z" stroke="#C2C1C0" stroke-width="0.18" stroke-miterlimit="10"/>
<path d="M389.681 13.7666L366.548 27.128L389.681 40.4894V13.7666Z" stroke="#C2C1C0" stroke-width="0.18" stroke-miterlimit="10"/>
<path d="M88.9167 53.8506L112.051 67.212L88.9167 80.5734V53.8506Z" stroke="#C2C1C0" stroke-width="0.18" stroke-miterlimit="10"/>
<path d="M88.9168 53.8506L65.7767 67.212L88.9168 80.5734V53.8506Z" stroke="#C2C1C0" stroke-width="0.18" stroke-miterlimit="10"/>
<path d="M204.592 174.103L181.458 160.741L204.592 147.38V174.103Z" stroke="#C2C1C0" stroke-width="0.18" stroke-miterlimit="10"/>
<path d="M181.458 160.741L204.592 147.38L181.458 134.019V160.741Z" stroke="#C2C1C0" stroke-width="0.18" stroke-miterlimit="10"/>
<path d="M204.592 174.103L227.732 160.741L204.592 147.38V174.103Z" stroke="#C2C1C0" stroke-width="0.18" stroke-miterlimit="10"/>
<path d="M204.592 147.38L227.732 134.019L204.592 120.657V147.38Z" stroke="#C2C1C0" stroke-width="0.18" stroke-miterlimit="10"/>
<path d="M204.592 147.38L181.458 134.019L204.592 120.657V147.38Z" stroke="#C2C1C0" stroke-width="0.18" stroke-miterlimit="10"/>
<path d="M297.14 120.657L274 107.296L297.14 93.9346V120.657Z" stroke="#C2C1C0" stroke-width="0.18" stroke-miterlimit="10"/>
<path d="M274 134.019L250.866 120.657L274 107.296V134.019Z" stroke="#C2C1C0" stroke-width="0.18" stroke-miterlimit="10"/>
<path d="M250.866 120.657L274 107.296L250.866 93.9346V120.657Z" stroke="#C2C1C0" stroke-width="0.18" stroke-miterlimit="10"/>
<path d="M274 134.019L297.14 120.657L274 107.296V134.019Z" stroke="#C2C1C0" stroke-width="0.18" stroke-miterlimit="10"/>
<path d="M274.006 107.296L250.866 93.9347L274.006 80.5732V107.296Z" stroke="#C2C1C0" stroke-width="0.18" stroke-miterlimit="10"/>
<path d="M274 107.296L297.14 93.9347L274 80.5732V107.296Z" stroke="#C2C1C0" stroke-width="0.18" stroke-miterlimit="10"/>
<path d="M204.592 93.9346L227.732 107.296L204.592 120.657V93.9346Z" stroke="#C2C1C0" stroke-width="0.18" stroke-miterlimit="10"/>
<path d="M227.732 80.5732L250.866 93.9347L227.732 107.296V80.5732Z" stroke="#C2C1C0" stroke-width="0.18" stroke-miterlimit="10"/>
<path d="M250.866 93.9346L227.732 107.296L250.866 120.657V93.9346Z" stroke="#C2C1C0" stroke-width="0.18" stroke-miterlimit="10"/>
<path d="M227.732 80.5732L204.592 93.9347L227.732 107.296V80.5732Z" stroke="#C2C1C0" stroke-width="0.18" stroke-miterlimit="10"/>
<path d="M227.732 107.296L250.866 120.657L227.732 134.019V107.296Z" stroke="#C2C1C0" stroke-width="0.18" stroke-miterlimit="10"/>
<path d="M227.732 107.296L204.592 120.657L227.732 134.019V107.296Z" stroke="#C2C1C0" stroke-width="0.18" stroke-miterlimit="10"/>
<path d="M181.458 80.5734L158.324 67.212L181.458 53.8506V80.5734Z" stroke="#C2C1C0" stroke-width="0.18" stroke-miterlimit="10"/>
<path d="M158.324 93.9348L135.184 80.5733L158.324 67.2119V93.9348Z" stroke="#C2C1C0" stroke-width="0.18" stroke-miterlimit="10"/>
<path d="M135.184 80.5734L158.324 67.212L135.184 53.8506V80.5734Z" stroke="#C2C1C0" stroke-width="0.18" stroke-miterlimit="10"/>
<path d="M112.05 67.2121L135.184 53.8507L112.05 40.4893V67.2121Z" stroke="#C2C1C0" stroke-width="0.18" stroke-miterlimit="10"/>
<path d="M158.324 93.9348L181.458 80.5733L158.324 67.2119V93.9348Z" stroke="#C2C1C0" stroke-width="0.18" stroke-miterlimit="10"/>
<path d="M158.324 67.2121L135.191 53.8507L158.324 40.4893V67.2121Z" stroke="#C2C1C0" stroke-width="0.18" stroke-miterlimit="10"/>
<path d="M158.324 67.2121L181.458 53.8507L158.324 40.4893V67.2121Z" stroke="#C2C1C0" stroke-width="0.18" stroke-miterlimit="10"/>
<path d="M204.592 120.657L181.458 107.296L204.592 93.9346V120.657Z" stroke="#C2C1C0" stroke-width="0.18" stroke-miterlimit="10"/>
<path d="M297.14 174.103L274 160.741L297.14 147.38V174.103Z" stroke="#C2C1C0" stroke-width="0.18" stroke-miterlimit="10"/>
<path d="M158.324 120.657L181.458 107.296L158.324 93.9346V120.657Z" stroke="#C2C1C0" stroke-width="0.18" stroke-miterlimit="10"/>
<path d="M181.458 107.296L158.324 93.9347L181.458 80.5732V107.296Z" stroke="#C2C1C0" stroke-width="0.18" stroke-miterlimit="10"/>
<path d="M181.458 107.296L204.598 93.9347L181.458 80.5732V107.296Z" stroke="#C2C1C0" stroke-width="0.18" stroke-miterlimit="10"/>
<path d="M204.598 40.4893L227.732 53.8507L204.598 67.2121V40.4893Z" stroke="#C2C1C0" stroke-width="0.18" stroke-miterlimit="10"/>
<path d="M227.732 53.8506L204.598 67.212L227.732 80.5734V53.8506Z" stroke="#C2C1C0" stroke-width="0.18" stroke-miterlimit="10"/>
<path d="M204.598 40.4893L181.458 53.8507L204.598 67.2121V40.4893Z" stroke="#C2C1C0" stroke-width="0.18" stroke-miterlimit="10"/>
<path d="M204.592 67.2119L227.732 80.5733L204.592 93.9348V67.2119Z" stroke="#C2C1C0" stroke-width="0.18" stroke-miterlimit="10"/>
<path d="M193.025 87.2511L181.458 80.5735L193.025 73.8896V87.2511Z" stroke="#C2C1C0" stroke-width="0.18" stroke-miterlimit="10"/>
<path d="M181.458 93.9347L169.891 87.2508L181.458 80.5732V93.9347Z" stroke="#C2C1C0" stroke-width="0.18" stroke-miterlimit="10"/>
<path d="M169.891 87.2511L181.458 80.5735L169.891 73.8896V87.2511Z" stroke="#C2C1C0" stroke-width="0.18" stroke-miterlimit="10"/>
<path d="M181.458 93.9347L193.025 87.2508L181.458 80.5732V93.9347Z" stroke="#C2C1C0" stroke-width="0.18" stroke-miterlimit="10"/>
<path d="M181.458 80.5733L169.891 73.8895L181.458 67.2119V80.5733Z" stroke="#C2C1C0" stroke-width="0.18" stroke-miterlimit="10"/>
<path d="M181.458 80.5733L193.025 73.8895L181.458 67.2119V80.5733Z" stroke="#C2C1C0" stroke-width="0.18" stroke-miterlimit="10"/>
<path d="M169.891 127.342L181.458 134.019L169.891 140.703V127.342Z" stroke="#C2C1C0" stroke-width="0.18" stroke-miterlimit="10"/>
<path d="M181.458 120.657L193.025 127.341L181.458 134.019V120.657Z" stroke="#C2C1C0" stroke-width="0.18" stroke-miterlimit="10"/>
<path d="M193.025 127.342L181.458 134.019L193.025 140.703V127.342Z" stroke="#C2C1C0" stroke-width="0.18" stroke-miterlimit="10"/>
<path d="M181.458 120.657L169.891 127.341L181.458 134.019V120.657Z" stroke="#C2C1C0" stroke-width="0.18" stroke-miterlimit="10"/>
<path d="M181.458 134.019L193.025 140.702L181.458 147.38V134.019Z" stroke="#C2C1C0" stroke-width="0.18" stroke-miterlimit="10"/>
<path d="M181.458 134.019L169.891 140.702L181.458 147.38V134.019Z" stroke="#C2C1C0" stroke-width="0.18" stroke-miterlimit="10"/>
<path d="M216.165 127.342L227.732 134.019L216.165 140.703V127.342Z" stroke="#C2C1C0" stroke-width="0.18" stroke-miterlimit="10"/>
<path d="M239.299 127.342L227.732 134.019L239.299 140.703V127.342Z" stroke="#C2C1C0" stroke-width="0.18" stroke-miterlimit="10"/>
<path d="M250.866 174.103L227.732 160.741L250.866 147.38V174.103Z" stroke="#C2C1C0" stroke-width="0.18" stroke-miterlimit="10"/>
<path d="M250.866 174.103L274.006 160.741L250.866 147.38V174.103Z" stroke="#C2C1C0" stroke-width="0.18" stroke-miterlimit="10"/>
<path d="M42.6428 134.019L65.7766 120.657L42.6428 107.296V134.019Z" stroke="#C2C1C0" stroke-width="0.18" stroke-miterlimit="10"/>
<path d="M181.458 160.741L158.324 147.38L181.458 134.019V160.741Z" stroke="#C2C1C0" stroke-width="0.18" stroke-miterlimit="10"/>
<path d="M112.05 147.38L135.184 134.019L112.05 120.657V147.38Z" stroke="#C2C1C0" stroke-width="0.18" stroke-miterlimit="10"/>
<path d="M135.19 160.741L112.05 147.38L135.19 134.019V160.741Z" stroke="#C2C1C0" stroke-width="0.18" stroke-miterlimit="10"/>
<path d="M158.324 174.103L135.184 160.741L158.324 147.38V174.103Z" stroke="#C2C1C0" stroke-width="0.18" stroke-miterlimit="10"/>
<path d="M135.184 160.741L158.324 147.38L135.184 134.019V160.741Z" stroke="#C2C1C0" stroke-width="0.18" stroke-miterlimit="10"/>
<path d="M158.324 174.103L181.458 160.741L158.324 147.38V174.103Z" stroke="#C2C1C0" stroke-width="0.18" stroke-miterlimit="10"/>
<path d="M250.866 93.9348L227.732 80.5733L250.866 67.2119V93.9348Z" stroke="#C2C1C0" stroke-width="0.18" stroke-miterlimit="10"/>
<path d="M250.866 93.9348L274.006 80.5733L250.866 67.2119V93.9348Z" stroke="#C2C1C0" stroke-width="0.18" stroke-miterlimit="10"/>
<path d="M250.866 120.657L274.006 134.019L250.866 147.38V120.657Z" stroke="#C2C1C0" stroke-width="0.18" stroke-miterlimit="10"/>
<path d="M227.732 134.019L250.866 147.38L227.732 160.741V134.019Z" stroke="#C2C1C0" stroke-width="0.18" stroke-miterlimit="10"/>
<path d="M112.05 67.2119L135.184 80.5733L112.05 93.9348V67.2119Z" stroke="#C2C1C0" stroke-width="0.18" stroke-miterlimit="10"/>
<path d="M112.05 67.2119L88.9103 80.5733L112.05 93.9348V67.2119Z" stroke="#C2C1C0" stroke-width="0.18" stroke-miterlimit="10"/>
<path d="M88.9167 107.296L112.051 120.657L88.9167 134.019V107.296Z" stroke="#C2C1C0" stroke-width="0.18" stroke-miterlimit="10"/>
<path d="M112.05 120.657L88.9103 134.019L112.05 147.38V120.657Z" stroke="#C2C1C0" stroke-width="0.18" stroke-miterlimit="10"/>
<path d="M135.184 107.296L112.05 120.657L135.184 134.019V107.296Z" stroke="#C2C1C0" stroke-width="0.18" stroke-miterlimit="10"/>
<path d="M112.05 93.9346L135.184 107.296L112.05 120.657V93.9346Z" stroke="#C2C1C0" stroke-width="0.18" stroke-miterlimit="10"/>
<path d="M135.184 80.5732L112.05 93.9347L135.184 107.296V80.5732Z" stroke="#C2C1C0" stroke-width="0.18" stroke-miterlimit="10"/>
<path d="M65.7767 13.7666L88.9168 27.128L65.7767 40.4894V13.7666Z" stroke="#C2C1C0" stroke-width="0.18" stroke-miterlimit="10"/>
<path d="M42.6428 27.1279L65.7766 40.4893L42.6428 53.8508V27.1279Z" stroke="#C2C1C0" stroke-width="0.18" stroke-miterlimit="10"/>
<path d="M65.7766 13.7666L42.6428 27.128L65.7766 40.4894V13.7666Z" stroke="#C2C1C0" stroke-width="0.18" stroke-miterlimit="10"/>
<path d="M227.732 53.8502L204.598 40.4888L227.732 27.1211V53.8502Z" stroke="#C2C1C0" stroke-width="0.18" stroke-miterlimit="10"/>
<path d="M227.732 80.5734L250.866 67.212L227.732 53.8506V80.5734Z" stroke="#C2C1C0" stroke-width="0.18" stroke-miterlimit="10"/>
<path d="M158.324 120.657L135.184 107.296L158.324 93.9346V120.657Z" stroke="#C2C1C0" stroke-width="0.18" stroke-miterlimit="10"/>
<path d="M135.184 134.019L158.324 120.657L135.184 107.296V134.019Z" stroke="#C2C1C0" stroke-width="0.18" stroke-miterlimit="10"/>
<path d="M135.184 107.296L158.324 93.9347L135.184 80.5732V107.296Z" stroke="#C2C1C0" stroke-width="0.18" stroke-miterlimit="10"/>
<path d="M250.866 13.7666L227.732 27.128L250.866 40.4894V13.7666Z" stroke="#C2C1C0" stroke-width="0.18" stroke-miterlimit="10"/>
<path d="M297.14 67.2121L274.006 53.8507L297.14 40.4893V67.2121Z" stroke="#C2C1C0" stroke-width="0.18" stroke-miterlimit="10"/>
<path d="M250.866 40.4894L274.006 27.128L250.866 13.7666V40.4894Z" stroke="#C2C1C0" stroke-width="0.18" stroke-miterlimit="10"/>
<path d="M250.866 40.4893L274.006 53.8507L250.866 67.2121V40.4893Z" stroke="#C2C1C0" stroke-width="0.18" stroke-miterlimit="10"/>
<path d="M250.866 40.4893L227.732 53.8507L250.866 67.2121V40.4893Z" stroke="#C2C1C0" stroke-width="0.18" stroke-miterlimit="10"/>
<path d="M274.006 53.8506L250.866 67.212L274.006 80.5734V53.8506Z" stroke="#C2C1C0" stroke-width="0.18" stroke-miterlimit="10"/>
<path d="M274.006 80.5734L297.14 67.212L274.006 53.8506V80.5734Z" stroke="#C2C1C0" stroke-width="0.18" stroke-miterlimit="10"/>
<path d="M42.6428 80.5734L65.7766 67.212L42.6428 53.8506V80.5734Z" stroke="#C2C1C0" stroke-width="0.18" stroke-miterlimit="10"/>
<path d="M54.2097 113.979L65.7766 120.657L54.2097 127.341V113.979Z" stroke="#C2C1C0" stroke-width="0.18" stroke-miterlimit="10"/>
<path d="M65.7767 107.296L77.3436 113.98L65.7767 120.657V107.296Z" stroke="#C2C1C0" stroke-width="0.18" stroke-miterlimit="10"/>
<path d="M77.3436 113.979L65.7767 120.657L77.3436 127.341V113.979Z" stroke="#C2C1C0" stroke-width="0.18" stroke-miterlimit="10"/>
<path d="M65.7766 107.296L54.2097 113.98L65.7766 120.657V107.296Z" stroke="#C2C1C0" stroke-width="0.18" stroke-miterlimit="10"/>
<path d="M65.7767 120.657L77.3436 127.341L65.7767 134.019V120.657Z" stroke="#C2C1C0" stroke-width="0.18" stroke-miterlimit="10"/>
<path d="M77.3436 73.8897L65.7767 67.2122L77.3436 60.5283V73.8897Z" stroke="#C2C1C0" stroke-width="0.18" stroke-miterlimit="10"/>
<path d="M65.7766 80.5733L54.2097 73.8895L65.7766 67.2119V80.5733Z" stroke="#C2C1C0" stroke-width="0.18" stroke-miterlimit="10"/>
<path d="M54.2097 73.8897L65.7766 67.2122L54.2097 60.5283V73.8897Z" stroke="#C2C1C0" stroke-width="0.18" stroke-miterlimit="10"/>
<path d="M65.7767 80.5733L77.3436 73.8895L65.7767 67.2119V80.5733Z" stroke="#C2C1C0" stroke-width="0.18" stroke-miterlimit="10"/>
<path d="M65.7766 67.212L54.2097 60.5281L65.7766 53.8506V67.212Z" stroke="#C2C1C0" stroke-width="0.18" stroke-miterlimit="10"/>
<path d="M65.7767 67.212L77.3436 60.5281L65.7767 53.8506V67.212Z" stroke="#C2C1C0" stroke-width="0.18" stroke-miterlimit="10"/>
<path d="M239.299 87.2511L227.732 80.5735L239.299 73.8896V87.2511Z" stroke="#C2C1C0" stroke-width="0.18" stroke-miterlimit="10"/>
<path d="M227.732 93.9347L216.165 87.2508L227.732 80.5732V93.9347Z" stroke="#C2C1C0" stroke-width="0.18" stroke-miterlimit="10"/>
<path d="M227.732 93.9347L239.299 87.2508L227.732 80.5732V93.9347Z" stroke="#C2C1C0" stroke-width="0.18" stroke-miterlimit="10"/>
<path d="M227.732 80.5733L216.165 73.8895L227.732 67.2119V80.5733Z" stroke="#C2C1C0" stroke-width="0.18" stroke-miterlimit="10"/>
<path d="M227.732 80.5733L239.299 73.8895L227.732 67.2119V80.5733Z" stroke="#C2C1C0" stroke-width="0.18" stroke-miterlimit="10"/>
<path d="M216.165 87.2511L227.732 80.5735L216.165 73.8896V87.2511Z" stroke="#C2C1C0" stroke-width="0.18" stroke-miterlimit="10"/>
<path d="M146.75 113.98L135.183 107.296L146.75 100.618V113.98Z" stroke="#C2C1C0" stroke-width="0.18" stroke-miterlimit="10"/>
<path d="M135.183 120.657L123.616 113.98L135.183 107.296V120.657Z" stroke="#C2C1C0" stroke-width="0.18" stroke-miterlimit="10"/>
<path d="M135.183 120.657L146.75 113.98L135.183 107.296V120.657Z" stroke="#C2C1C0" stroke-width="0.18" stroke-miterlimit="10"/>
<path d="M135.183 107.296L123.617 100.618L135.183 93.9346V107.296Z" stroke="#C2C1C0" stroke-width="0.18" stroke-miterlimit="10"/>
<path d="M135.183 107.296L146.75 100.618L135.183 93.9346V107.296Z" stroke="#C2C1C0" stroke-width="0.18" stroke-miterlimit="10"/>
<path d="M123.616 113.98L135.183 107.296L123.616 100.618V113.98Z" stroke="#C2C1C0" stroke-width="0.18" stroke-miterlimit="10"/>
<path d="M285.573 113.974L274.006 107.296L285.573 100.612V113.974Z" stroke="#C2C1C0" stroke-width="0.18" stroke-miterlimit="10"/>
<path d="M274.006 120.657L262.439 113.973L274.006 107.296V120.657Z" stroke="#C2C1C0" stroke-width="0.18" stroke-miterlimit="10"/>
<path d="M274.006 120.657L285.573 113.973L274.006 107.296V120.657Z" stroke="#C2C1C0" stroke-width="0.18" stroke-miterlimit="10"/>
<path d="M262.439 113.974L274.006 107.296L262.439 100.612V113.974Z" stroke="#C2C1C0" stroke-width="0.18" stroke-miterlimit="10"/>
<path d="M112.051 120.657L88.9167 107.296L112.051 93.9346V120.657Z" stroke="#C2C1C0" stroke-width="0.18" stroke-miterlimit="10"/>
<path d="M88.9167 107.296L112.051 93.9347L88.9167 80.5732V107.296Z" stroke="#C2C1C0" stroke-width="0.18" stroke-miterlimit="10"/>
<path d="M320.273 160.741L343.414 147.38L320.273 134.019V160.741Z" stroke="#C2C1C0" stroke-width="0.18" stroke-miterlimit="10"/>
<path d="M343.414 174.103L366.547 160.741L343.414 147.38V174.103Z" stroke="#C2C1C0" stroke-width="0.18" stroke-miterlimit="10"/>
<path d="M366.547 160.741L343.414 147.38L366.547 134.019V160.741Z" stroke="#C2C1C0" stroke-width="0.18" stroke-miterlimit="10"/>
<path d="M343.414 174.103L320.273 160.741L343.414 147.38V174.103Z" stroke="#C2C1C0" stroke-width="0.18" stroke-miterlimit="10"/>
<path d="M343.414 147.38L320.273 134.019L343.414 120.657V147.38Z" stroke="#C2C1C0" stroke-width="0.18" stroke-miterlimit="10"/>
<path d="M343.414 147.38L366.547 134.019L343.414 120.657V147.38Z" stroke="#C2C1C0" stroke-width="0.18" stroke-miterlimit="10"/>
<path d="M343.414 93.9346L320.273 107.296L343.414 120.657V93.9346Z" stroke="#C2C1C0" stroke-width="0.18" stroke-miterlimit="10"/>
<path d="M320.274 80.5732L297.14 93.9347L320.274 107.296V80.5732Z" stroke="#C2C1C0" stroke-width="0.18" stroke-miterlimit="10"/>
<path d="M297.14 93.9346L320.274 107.296L297.14 120.657V93.9346Z" stroke="#C2C1C0" stroke-width="0.18" stroke-miterlimit="10"/>
<path d="M320.273 80.5732L343.414 93.9347L320.273 107.296V80.5732Z" stroke="#C2C1C0" stroke-width="0.18" stroke-miterlimit="10"/>
<path d="M320.274 107.296L297.14 120.657L320.274 134.019V107.296Z" stroke="#C2C1C0" stroke-width="0.18" stroke-miterlimit="10"/>
<path d="M320.273 107.296L343.414 120.657L320.273 134.019V107.296Z" stroke="#C2C1C0" stroke-width="0.18" stroke-miterlimit="10"/>
<path d="M389.681 93.9348L412.821 80.5733L389.681 67.2119V93.9348Z" stroke="#C2C1C0" stroke-width="0.18" stroke-miterlimit="10"/>
<path d="M412.821 80.5734L389.681 67.212L412.821 53.8506V80.5734Z" stroke="#C2C1C0" stroke-width="0.18" stroke-miterlimit="10"/>
<path d="M389.681 67.2121L412.815 53.8507L389.681 40.4893V67.2121Z" stroke="#C2C1C0" stroke-width="0.18" stroke-miterlimit="10"/>
<path d="M389.681 67.2121L366.548 53.8507L389.681 40.4893V67.2121Z" stroke="#C2C1C0" stroke-width="0.18" stroke-miterlimit="10"/>
<path d="M343.414 120.657L366.547 107.296L343.414 93.9346V120.657Z" stroke="#C2C1C0" stroke-width="0.18" stroke-miterlimit="10"/>
<path d="M389.681 120.657L366.548 107.296L389.681 93.9346V120.657Z" stroke="#C2C1C0" stroke-width="0.18" stroke-miterlimit="10"/>
<path d="M366.548 107.296L389.681 93.9347L366.548 80.5732V107.296Z" stroke="#C2C1C0" stroke-width="0.18" stroke-miterlimit="10"/>
<path d="M366.547 107.296L343.407 93.9347L366.547 80.5732V107.296Z" stroke="#C2C1C0" stroke-width="0.18" stroke-miterlimit="10"/>
<path d="M366.547 53.8506L343.407 67.212L366.547 80.5734V53.8506Z" stroke="#C2C1C0" stroke-width="0.18" stroke-miterlimit="10"/>
<path d="M343.407 40.4893L320.273 53.8507L343.407 67.2121V40.4893Z" stroke="#C2C1C0" stroke-width="0.18" stroke-miterlimit="10"/>
<path d="M320.273 53.8506L343.407 67.212L320.273 80.5734V53.8506Z" stroke="#C2C1C0" stroke-width="0.18" stroke-miterlimit="10"/>
<path d="M343.407 40.4893L366.547 53.8507L343.407 67.2121V40.4893Z" stroke="#C2C1C0" stroke-width="0.18" stroke-miterlimit="10"/>
<path d="M343.414 67.2119L320.273 80.5733L343.414 93.9348V67.2119Z" stroke="#C2C1C0" stroke-width="0.18" stroke-miterlimit="10"/>
<path d="M343.407 67.2119L366.547 80.5733L343.407 93.9348V67.2119Z" stroke="#C2C1C0" stroke-width="0.18" stroke-miterlimit="10"/>
<path d="M354.98 87.2511L366.547 80.5735L354.98 73.8896V87.2511Z" stroke="#C2C1C0" stroke-width="0.18" stroke-miterlimit="10"/>
<path d="M366.548 93.9347L378.115 87.2508L366.548 80.5732V93.9347Z" stroke="#C2C1C0" stroke-width="0.18" stroke-miterlimit="10"/>
<path d="M378.115 87.2511L366.548 80.5735L378.115 73.8896V87.2511Z" stroke="#C2C1C0" stroke-width="0.18" stroke-miterlimit="10"/>
<path d="M366.547 93.9347L354.98 87.2508L366.547 80.5732V93.9347Z" stroke="#C2C1C0" stroke-width="0.18" stroke-miterlimit="10"/>
<path d="M366.548 80.5733L378.115 73.8895L366.548 67.2119V80.5733Z" stroke="#C2C1C0" stroke-width="0.18" stroke-miterlimit="10"/>
<path d="M366.547 80.5733L354.98 73.8895L366.547 67.2119V80.5733Z" stroke="#C2C1C0" stroke-width="0.18" stroke-miterlimit="10"/>
<path d="M378.115 127.342L366.548 134.019L378.115 140.703V127.342Z" stroke="#C2C1C0" stroke-width="0.18" stroke-miterlimit="10"/>
<path d="M366.547 120.657L354.98 127.341L366.547 134.019V120.657Z" stroke="#C2C1C0" stroke-width="0.18" stroke-miterlimit="10"/>
<path d="M354.98 127.342L366.547 134.019L354.98 140.703V127.342Z" stroke="#C2C1C0" stroke-width="0.18" stroke-miterlimit="10"/>
<path d="M366.548 120.657L378.115 127.341L366.548 134.019V120.657Z" stroke="#C2C1C0" stroke-width="0.18" stroke-miterlimit="10"/>
<path d="M366.547 134.019L354.98 140.702L366.547 147.38V134.019Z" stroke="#C2C1C0" stroke-width="0.18" stroke-miterlimit="10"/>
<path d="M366.548 134.019L378.115 140.702L366.548 147.38V134.019Z" stroke="#C2C1C0" stroke-width="0.18" stroke-miterlimit="10"/>
<path d="M331.84 127.342L320.273 134.019L331.84 140.703V127.342Z" stroke="#C2C1C0" stroke-width="0.18" stroke-miterlimit="10"/>
<path d="M320.273 120.657L308.707 127.341L320.273 134.019V120.657Z" stroke="#C2C1C0" stroke-width="0.18" stroke-miterlimit="10"/>
<path d="M308.707 127.342L320.273 134.019L308.707 140.703V127.342Z" stroke="#C2C1C0" stroke-width="0.18" stroke-miterlimit="10"/>
<path d="M320.273 120.657L331.84 127.341L320.273 134.019V120.657Z" stroke="#C2C1C0" stroke-width="0.18" stroke-miterlimit="10"/>
<path d="M320.273 134.019L308.707 140.702L320.273 147.38V134.019Z" stroke="#C2C1C0" stroke-width="0.18" stroke-miterlimit="10"/>
<path d="M320.273 134.019L331.84 140.702L320.273 147.38V134.019Z" stroke="#C2C1C0" stroke-width="0.18" stroke-miterlimit="10"/>
<path d="M297.14 174.103L320.274 160.741L297.14 147.38V174.103Z" stroke="#C2C1C0" stroke-width="0.18" stroke-miterlimit="10"/>
<path d="M366.548 160.741L389.681 147.38L366.548 134.019V160.741Z" stroke="#C2C1C0" stroke-width="0.18" stroke-miterlimit="10"/>
<path d="M389.681 174.103L412.821 160.741L389.681 147.38V174.103Z" stroke="#C2C1C0" stroke-width="0.18" stroke-miterlimit="10"/>
<path d="M412.821 160.741L389.681 147.38L412.821 134.019V160.741Z" stroke="#C2C1C0" stroke-width="0.18" stroke-miterlimit="10"/>
<path d="M297.14 147.38L274 134.019L297.14 120.657V147.38Z" stroke="#C2C1C0" stroke-width="0.18" stroke-miterlimit="10"/>
<path d="M389.681 174.103L366.548 160.741L389.681 147.38V174.103Z" stroke="#C2C1C0" stroke-width="0.18" stroke-miterlimit="10"/>
<path d="M181.458 187.471L158.324 174.104L181.458 160.742V187.471Z" stroke="#C2C1C0" stroke-width="0.18" stroke-miterlimit="10"/>
<path d="M181.458 187.471L204.592 174.104L181.458 160.742V187.471Z" stroke="#C2C1C0" stroke-width="0.18" stroke-miterlimit="10"/>
<path d="M274.006 187.471L250.866 174.11L274.006 160.742V187.471Z" stroke="#C2C1C0" stroke-width="0.18" stroke-miterlimit="10"/>
<path d="M227.732 187.471L204.598 174.104L227.732 160.742V187.471Z" stroke="#C2C1C0" stroke-width="0.18" stroke-miterlimit="10"/>
<path d="M227.732 187.471L250.866 174.104L227.732 160.742V187.471Z" stroke="#C2C1C0" stroke-width="0.18" stroke-miterlimit="10"/>
<path d="M135.184 187.471L112.05 174.104L135.184 160.742V187.471Z" stroke="#C2C1C0" stroke-width="0.18" stroke-miterlimit="10"/>
<path d="M135.184 187.471L158.324 174.104L135.184 160.742V187.471Z" stroke="#C2C1C0" stroke-width="0.18" stroke-miterlimit="10"/>
<path d="M320.273 187.471L343.414 174.104L320.273 160.742V187.471Z" stroke="#C2C1C0" stroke-width="0.18" stroke-miterlimit="10"/>
<path d="M320.274 187.471L297.14 174.104L320.274 160.742V187.471Z" stroke="#C2C1C0" stroke-width="0.18" stroke-miterlimit="10"/>
<path d="M274 187.471L297.14 174.104L274 160.742V187.471Z" stroke="#C2C1C0" stroke-width="0.18" stroke-miterlimit="10"/>
<path d="M366.548 187.471L389.681 174.104L366.548 160.742V187.471Z" stroke="#C2C1C0" stroke-width="0.18" stroke-miterlimit="10"/>
<path d="M366.547 187.471L343.414 174.104L366.547 160.742V187.471Z" stroke="#C2C1C0" stroke-width="0.18" stroke-miterlimit="10"/>
<path d="M274.006 160.741L297.14 147.38L274.006 134.019V160.741Z" stroke="#C2C1C0" stroke-width="0.18" stroke-miterlimit="10"/>
<path d="M274.006 160.741L250.866 147.38L274.006 134.019V160.741Z" stroke="#C2C1C0" stroke-width="0.18" stroke-miterlimit="10"/>
<path d="M297.14 93.9348L320.274 80.5733L297.14 67.2119V93.9348Z" stroke="#C2C1C0" stroke-width="0.18" stroke-miterlimit="10"/>
<path d="M320.274 134.019L297.14 147.38L320.274 160.741V134.019Z" stroke="#C2C1C0" stroke-width="0.18" stroke-miterlimit="10"/>
<path d="M297.14 120.657L320.274 134.019L297.14 147.38V120.657Z" stroke="#C2C1C0" stroke-width="0.18" stroke-miterlimit="10"/>
<path d="M135.184 0.404297L112.05 13.7657L135.184 27.1271V0.404297Z" stroke="#C2C1C0" stroke-width="0.18" stroke-miterlimit="10"/>
<path d="M135.184 0.404297L158.318 13.7657L135.184 27.1271V0.404297Z" stroke="#C2C1C0" stroke-width="0.18" stroke-miterlimit="10"/>
<path d="M88.9105 0.404297L65.7767 13.7657L88.9105 27.1271V0.404297Z" stroke="#C2C1C0" stroke-width="0.18" stroke-miterlimit="10"/>
<path d="M88.9103 0.404297L112.05 13.7657L88.9103 27.1271V0.404297Z" stroke="#C2C1C0" stroke-width="0.18" stroke-miterlimit="10"/>
<path d="M88.9103 27.1271L112.05 13.7657L88.9103 0.404297V27.1271Z" stroke="#C2C1C0" stroke-width="0.18" stroke-miterlimit="10"/>
<path d="M88.9105 27.1271L65.7767 13.7657L88.9105 0.404297V27.1271Z" stroke="#C2C1C0" stroke-width="0.18" stroke-miterlimit="10"/>
<path d="M181.458 0.398438L158.324 13.7599L181.458 27.1213V0.398438Z" stroke="#C2C1C0" stroke-width="0.18" stroke-miterlimit="10"/>
<path d="M181.458 0.398438L204.592 13.7599L181.458 27.1213V0.398438Z" stroke="#C2C1C0" stroke-width="0.18" stroke-miterlimit="10"/>
<path d="M181.458 27.1213L204.592 13.7599L181.458 0.398438V27.1213Z" stroke="#C2C1C0" stroke-width="0.18" stroke-miterlimit="10"/>
<path d="M181.458 27.1213L158.324 13.7599L181.458 0.398438V27.1213Z" stroke="#C2C1C0" stroke-width="0.18" stroke-miterlimit="10"/>
<path d="M274 0.398438L250.866 13.7599L274 27.1213V0.398438Z" stroke="#C2C1C0" stroke-width="0.18" stroke-miterlimit="10"/>
<path d="M274 0.398438L297.134 13.7599L274 27.1213V0.398438Z" stroke="#C2C1C0" stroke-width="0.18" stroke-miterlimit="10"/>
<path d="M274 27.1213L297.134 13.7599L274 0.398438V27.1213Z" stroke="#C2C1C0" stroke-width="0.18" stroke-miterlimit="10"/>
<path d="M274 27.1213L250.866 13.7599L274 0.398438V27.1213Z" stroke="#C2C1C0" stroke-width="0.18" stroke-miterlimit="10"/>
<path d="M320.267 0.404297L297.133 13.7657L320.267 27.1271V0.404297Z" stroke="#C2C1C0" stroke-width="0.18" stroke-miterlimit="10"/>
<path d="M320.267 0.404297L343.401 13.7657L320.267 27.1271V0.404297Z" stroke="#C2C1C0" stroke-width="0.18" stroke-miterlimit="10"/>
<path d="M320.267 27.1271L343.401 13.7657L320.267 0.404297V27.1271Z" stroke="#C2C1C0" stroke-width="0.18" stroke-miterlimit="10"/>
<path d="M320.267 27.1271L297.133 13.7657L320.267 0.404297V27.1271Z" stroke="#C2C1C0" stroke-width="0.18" stroke-miterlimit="10"/>
<path d="M412.815 0.398438L389.681 13.7662L412.815 27.1276V0.398438Z" stroke="#C2C1C0" stroke-width="0.18" stroke-miterlimit="10"/>
<path d="M366.547 0.398438L343.407 13.7662L366.547 27.1276V0.398438Z" stroke="#C2C1C0" stroke-width="0.18" stroke-miterlimit="10"/>
<path d="M366.548 0.398438L389.681 13.7662L366.548 27.1276V0.398438Z" stroke="#C2C1C0" stroke-width="0.18" stroke-miterlimit="10"/>
<path d="M366.548 27.1213L389.681 13.7599L366.548 0.398438V27.1213Z" stroke="#C2C1C0" stroke-width="0.18" stroke-miterlimit="10"/>
<path d="M366.547 27.1213L343.407 13.7599L366.547 0.398438V27.1213Z" stroke="#C2C1C0" stroke-width="0.18" stroke-miterlimit="10"/>
<path d="M42.6428 27.1213L65.7766 13.7599L42.6428 0.398438V27.1213Z" stroke="#C2C1C0" stroke-width="0.18" stroke-miterlimit="10"/>
<path d="M227.732 27.1213L204.592 13.7599L227.732 0.398438V27.1213Z" stroke="#C2C1C0" stroke-width="0.18" stroke-miterlimit="10"/>
<path d="M227.732 0.398438L250.866 13.7599L227.732 27.1213V0.398438Z" stroke="#C2C1C0" stroke-width="0.18" stroke-miterlimit="10"/>
<path d="M112.051 174.109L88.9167 187.471L112.051 200.832V174.109Z" stroke="#C2C1C0" stroke-width="0.18" stroke-miterlimit="10"/>
<path d="M112.05 174.109L135.184 187.471L112.05 200.832V174.109Z" stroke="#C2C1C0" stroke-width="0.18" stroke-miterlimit="10"/>
<path d="M158.324 174.104L135.191 187.471L158.324 200.833V174.104Z" stroke="#C2C1C0" stroke-width="0.18" stroke-miterlimit="10"/>
<path d="M158.324 174.104L181.458 187.471L158.324 200.833V174.104Z" stroke="#C2C1C0" stroke-width="0.18" stroke-miterlimit="10"/>
<path d="M158.324 200.826L181.458 187.465L158.324 174.104V200.826Z" stroke="#C2C1C0" stroke-width="0.18" stroke-miterlimit="10"/>
<path d="M158.324 200.826L135.191 187.465L158.324 174.104V200.826Z" stroke="#C2C1C0" stroke-width="0.18" stroke-miterlimit="10"/>
<path d="M250.866 174.104L227.732 187.471L250.866 200.833V174.104Z" stroke="#C2C1C0" stroke-width="0.18" stroke-miterlimit="10"/>
<path d="M250.866 174.104L274 187.471L250.866 200.833V174.104Z" stroke="#C2C1C0" stroke-width="0.18" stroke-miterlimit="10"/>
<path d="M250.866 200.826L274 187.465L250.866 174.104V200.826Z" stroke="#C2C1C0" stroke-width="0.18" stroke-miterlimit="10"/>
<path d="M250.866 200.826L227.732 187.465L250.866 174.104V200.826Z" stroke="#C2C1C0" stroke-width="0.18" stroke-miterlimit="10"/>
<path d="M297.134 174.109L274 187.471L297.134 200.832V174.109Z" stroke="#C2C1C0" stroke-width="0.18" stroke-miterlimit="10"/>
<path d="M297.133 174.109L320.267 187.471L297.133 200.832V174.109Z" stroke="#C2C1C0" stroke-width="0.18" stroke-miterlimit="10"/>
<path d="M297.133 200.832L320.267 187.471L297.133 174.109V200.832Z" stroke="#C2C1C0" stroke-width="0.18" stroke-miterlimit="10"/>
<path d="M297.134 200.832L274 187.471L297.134 174.109V200.832Z" stroke="#C2C1C0" stroke-width="0.18" stroke-miterlimit="10"/>
<path d="M389.681 174.109L366.548 187.471L389.681 200.832V174.109Z" stroke="#C2C1C0" stroke-width="0.18" stroke-miterlimit="10"/>
<path d="M389.681 174.109L412.821 187.471L389.681 200.832V174.109Z" stroke="#C2C1C0" stroke-width="0.18" stroke-miterlimit="10"/>
<path d="M343.414 174.109L320.273 187.471L343.414 200.832V174.109Z" stroke="#C2C1C0" stroke-width="0.18" stroke-miterlimit="10"/>
<path d="M343.414 174.109L366.547 187.471L343.414 200.832V174.109Z" stroke="#C2C1C0" stroke-width="0.18" stroke-miterlimit="10"/>
<path d="M343.407 200.832L366.547 187.471L343.407 174.109V200.832Z" stroke="#C2C1C0" stroke-width="0.18" stroke-miterlimit="10"/>
<path d="M343.414 200.832L320.273 187.471L343.414 174.109V200.832Z" stroke="#C2C1C0" stroke-width="0.18" stroke-miterlimit="10"/>
<path d="M204.598 200.832L181.458 187.471L204.598 174.109V200.832Z" stroke="#C2C1C0" stroke-width="0.18" stroke-miterlimit="10"/>
<path d="M204.598 174.109L227.732 187.471L204.598 200.832V174.109Z" stroke="#C2C1C0" stroke-width="0.18" stroke-miterlimit="10"/>
<path d="M88.9167 187.471L112.051 174.109L88.9167 160.748V187.471Z" stroke="#C2C1C0" stroke-width="0.18" stroke-miterlimit="10"/>
<path d="M88.9166 187.471L65.7828 174.109L88.9166 160.748V187.471Z" stroke="#C2C1C0" stroke-width="0.18" stroke-miterlimit="10"/>
<path d="M42.6428 187.471L65.7766 200.832L42.6428 214.194V187.471Z" stroke="#C2C1C0" stroke-width="0.18" stroke-miterlimit="10"/>
<path d="M42.5863 134.057L65.7201 147.418L42.5863 160.779V134.057Z" stroke="#C2C1C0" stroke-width="0.18" stroke-miterlimit="10"/>
<path d="M88.9168 187.471L65.7767 200.832L88.9168 214.194V187.471Z" stroke="#C2C1C0" stroke-width="0.18" stroke-miterlimit="10"/>
<path d="M65.7766 174.109L42.6428 187.471L65.7766 200.832V174.109Z" stroke="#C2C1C0" stroke-width="0.18" stroke-miterlimit="10"/>
<path d="M135.184 187.458L112.05 200.819L135.184 214.181V187.458Z" stroke="#C2C1C0" stroke-width="0.18" stroke-miterlimit="10"/>
<path d="M135.184 214.181L158.318 200.819L135.184 187.458V214.181Z" stroke="#C2C1C0" stroke-width="0.18" stroke-miterlimit="10"/>
<path d="M181.458 187.465L158.324 200.826L181.458 214.188V187.465Z" stroke="#C2C1C0" stroke-width="0.18" stroke-miterlimit="10"/>
<path d="M181.458 214.188L204.592 200.826L181.458 187.465V214.188Z" stroke="#C2C1C0" stroke-width="0.18" stroke-miterlimit="10"/>
<path d="M227.732 187.471L204.598 200.832L227.732 214.194V187.471Z" stroke="#C2C1C0" stroke-width="0.18" stroke-miterlimit="10"/>
<path d="M227.732 214.194L250.866 200.832L227.732 187.471V214.194Z" stroke="#C2C1C0" stroke-width="0.18" stroke-miterlimit="10"/>
<path d="M274 187.458L250.866 200.819L274 214.181V187.458Z" stroke="#C2C1C0" stroke-width="0.18" stroke-miterlimit="10"/>
<path d="M274 214.181L297.14 200.819L274 187.458V214.181Z" stroke="#C2C1C0" stroke-width="0.18" stroke-miterlimit="10"/>
<path d="M320.28 187.465L297.14 200.826L320.28 214.188V187.465Z" stroke="#C2C1C0" stroke-width="0.18" stroke-miterlimit="10"/>
<path d="M320.28 214.188L343.414 200.826L320.28 187.465V214.188Z" stroke="#C2C1C0" stroke-width="0.18" stroke-miterlimit="10"/>
<path d="M366.547 187.471L343.407 200.832L366.547 214.194V187.471Z" stroke="#C2C1C0" stroke-width="0.18" stroke-miterlimit="10"/>
<path d="M366.548 214.194L389.681 200.832L366.548 187.471V214.194Z" stroke="#C2C1C0" stroke-width="0.18" stroke-miterlimit="10"/>
<path d="M412.821 187.478L389.688 200.839L412.821 214.2V187.478Z" stroke="#C2C1C0" stroke-width="0.18" stroke-miterlimit="10"/>
<path d="M42.6428 160.748L65.7766 174.109L42.6428 187.471V160.748Z" stroke="#C2C1C0" stroke-width="0.18" stroke-miterlimit="10"/>
<path d="M65.7828 174.11L88.9166 160.748L65.7828 147.387V174.11Z" stroke="#C2C1C0" stroke-width="0.18" stroke-miterlimit="10"/>
<path d="M65.7829 174.11L42.6428 160.748L65.7829 147.387V174.11Z" stroke="#C2C1C0" stroke-width="0.18" stroke-miterlimit="10"/>
<path d="M320.273 53.8508L343.407 40.4893L320.273 27.1279V53.8508Z" stroke="#C2C1C0" stroke-width="0.18" stroke-miterlimit="10"/>
<path d="M320.274 80.5734L297.14 67.212L320.274 53.8506V80.5734Z" stroke="#C2C1C0" stroke-width="0.18" stroke-miterlimit="10"/>
<path d="M389.681 120.657L412.821 107.296L389.681 93.9346V120.657Z" stroke="#C2C1C0" stroke-width="0.18" stroke-miterlimit="10"/>
<path d="M412.821 134.019L389.681 120.657L412.821 107.296V134.019Z" stroke="#C2C1C0" stroke-width="0.18" stroke-miterlimit="10"/>
<path d="M412.821 107.296L389.681 93.9347L412.821 80.5732V107.296Z" stroke="#C2C1C0" stroke-width="0.18" stroke-miterlimit="10"/>
<path d="M308.707 87.2511L320.273 80.5735L308.707 73.8896V87.2511Z" stroke="#C2C1C0" stroke-width="0.18" stroke-miterlimit="10"/>
<path d="M320.273 93.9347L331.84 87.2508L320.273 80.5732V93.9347Z" stroke="#C2C1C0" stroke-width="0.18" stroke-miterlimit="10"/>
<path d="M320.273 93.9347L308.707 87.2508L320.273 80.5732V93.9347Z" stroke="#C2C1C0" stroke-width="0.18" stroke-miterlimit="10"/>
<path d="M320.273 80.5733L331.84 73.8895L320.273 67.2119V80.5733Z" stroke="#C2C1C0" stroke-width="0.18" stroke-miterlimit="10"/>
<path d="M320.273 80.5733L308.707 73.8895L320.273 67.2119V80.5733Z" stroke="#C2C1C0" stroke-width="0.18" stroke-miterlimit="10"/>
<path d="M331.84 87.2511L320.273 80.5735L331.84 73.8896V87.2511Z" stroke="#C2C1C0" stroke-width="0.18" stroke-miterlimit="10"/>
<path d="M352.661 179.463L366.541 187.477L352.661 195.492V179.463Z" stroke="#C2C1C0" stroke-width="0.18" stroke-miterlimit="10"/>
<path d="M380.421 179.463L366.541 187.477L380.421 195.492V179.463Z" stroke="#C2C1C0" stroke-width="0.18" stroke-miterlimit="10"/>
<path d="M366.541 187.478L380.421 195.492L366.541 203.512V187.478Z" stroke="#C2C1C0" stroke-width="0.18" stroke-miterlimit="10"/>
<path d="M366.541 187.478L352.661 195.492L366.541 203.512V187.478Z" stroke="#C2C1C0" stroke-width="0.18" stroke-miterlimit="10"/>
<path d="M227.732 134.019L239.299 140.702L227.732 147.38V134.019Z" stroke="#C2C1C0" stroke-width="0.18" stroke-miterlimit="10"/>
<path d="M227.732 134.019L216.165 140.702L227.732 147.38V134.019Z" stroke="#C2C1C0" stroke-width="0.18" stroke-miterlimit="10"/>
<path d="M167.578 179.463L181.458 187.477L167.578 195.492V179.463Z" stroke="#C2C1C0" stroke-width="0.18" stroke-miterlimit="10"/>
<path d="M195.339 179.463L181.458 187.477L195.339 195.492V179.463Z" stroke="#C2C1C0" stroke-width="0.18" stroke-miterlimit="10"/>
<path d="M181.458 187.478L195.339 195.492L181.458 203.512V187.478Z" stroke="#C2C1C0" stroke-width="0.18" stroke-miterlimit="10"/>
<path d="M181.458 187.478L167.578 195.492L181.458 203.512V187.478Z" stroke="#C2C1C0" stroke-width="0.18" stroke-miterlimit="10"/>
<path d="M123.617 167.388L112.051 160.704L123.617 154.026V167.388Z" stroke="#C2C1C0" stroke-width="0.18" stroke-miterlimit="10"/>
<path d="M112.05 174.066L100.484 167.388L112.05 160.704V174.066Z" stroke="#C2C1C0" stroke-width="0.18" stroke-miterlimit="10"/>
<path d="M112.051 174.066L123.617 167.388L112.051 160.704V174.066Z" stroke="#C2C1C0" stroke-width="0.18" stroke-miterlimit="10"/>
<path d="M112.05 160.704L100.484 154.027L112.05 147.343V160.704Z" stroke="#C2C1C0" stroke-width="0.18" stroke-miterlimit="10"/>
<path d="M112.051 160.704L123.617 154.027L112.051 147.343V160.704Z" stroke="#C2C1C0" stroke-width="0.18" stroke-miterlimit="10"/>
<path d="M100.484 167.388L112.05 160.704L100.484 154.026V167.388Z" stroke="#C2C1C0" stroke-width="0.18" stroke-miterlimit="10"/>
<path d="M123.617 47.1671L112.051 40.4895L123.617 33.8057V47.1671Z" stroke="#C2C1C0" stroke-width="0.18" stroke-miterlimit="10"/>
<path d="M112.05 53.8507L100.484 47.1668L112.05 40.4893V53.8507Z" stroke="#C2C1C0" stroke-width="0.18" stroke-miterlimit="10"/>
<path d="M112.051 53.8507L123.617 47.1668L112.051 40.4893V53.8507Z" stroke="#C2C1C0" stroke-width="0.18" stroke-miterlimit="10"/>
<path d="M112.05 40.4893L100.484 33.8055L112.05 27.1279V40.4893Z" stroke="#C2C1C0" stroke-width="0.18" stroke-miterlimit="10"/>
<path d="M112.051 40.4893L123.617 33.8055L112.051 27.1279V40.4893Z" stroke="#C2C1C0" stroke-width="0.18" stroke-miterlimit="10"/>
<path d="M100.484 47.1671L112.05 40.4895L100.484 33.8057V47.1671Z" stroke="#C2C1C0" stroke-width="0.18" stroke-miterlimit="10"/>
<path d="M19.5027 334.446L-3.6311 347.808L19.5027 361.169V334.446Z" stroke="#C2C1C0" stroke-width="0.18" stroke-miterlimit="10"/>
<path d="M-3.6311 240.916L19.5027 227.555L-3.6311 214.193V240.916Z" stroke="#C2C1C0" stroke-width="0.18" stroke-miterlimit="10"/>
<path d="M65.7766 281.001L42.6428 294.362L65.7766 307.724V281.001Z" stroke="#C2C1C0" stroke-width="0.18" stroke-miterlimit="10"/>
<path d="M42.6429 267.64L19.5028 281.001L42.6429 294.362V267.64Z" stroke="#C2C1C0" stroke-width="0.18" stroke-miterlimit="10"/>
<path d="M19.5028 281.001L42.6429 294.362L19.5028 307.724V281.001Z" stroke="#C2C1C0" stroke-width="0.18" stroke-miterlimit="10"/>
<path d="M42.6428 267.64L65.7766 281.001L42.6428 294.362V267.64Z" stroke="#C2C1C0" stroke-width="0.18" stroke-miterlimit="10"/>
<path d="M42.6429 294.362L19.5028 307.724L42.6429 321.085V294.362Z" stroke="#C2C1C0" stroke-width="0.18" stroke-miterlimit="10"/>
<path d="M42.6428 294.362L65.7766 307.724L42.6428 321.085V294.362Z" stroke="#C2C1C0" stroke-width="0.18" stroke-miterlimit="10"/>
<path d="M42.6429 321.085L19.5028 334.446L42.6429 347.814V321.085Z" stroke="#C2C1C0" stroke-width="0.18" stroke-miterlimit="10"/>
<path d="M42.6428 321.085L65.7766 334.446L42.6428 347.814V321.085Z" stroke="#C2C1C0" stroke-width="0.18" stroke-miterlimit="10"/>
<path d="M-3.6311 347.814L19.5027 361.176L-3.6311 374.537V347.814Z" stroke="#C2C1C0" stroke-width="0.18" stroke-miterlimit="10"/>
<path d="M42.6429 240.917L19.5028 254.278L42.6429 267.64V240.917Z" stroke="#C2C1C0" stroke-width="0.18" stroke-miterlimit="10"/>
<path d="M19.5027 227.555L-3.6311 240.916L19.5027 254.278V227.555Z" stroke="#C2C1C0" stroke-width="0.18" stroke-miterlimit="10"/>
<path d="M-3.6311 240.917L19.5027 254.278L-3.6311 267.64V240.917Z" stroke="#C2C1C0" stroke-width="0.18" stroke-miterlimit="10"/>
<path d="M19.5028 227.555L42.6429 240.916L19.5028 254.278V227.555Z" stroke="#C2C1C0" stroke-width="0.18" stroke-miterlimit="10"/>
<path d="M19.5027 254.278L-3.6311 267.64L19.5027 281.001V254.278Z" stroke="#C2C1C0" stroke-width="0.18" stroke-miterlimit="10"/>
<path d="M19.5028 254.278L42.6429 267.64L19.5028 281.001V254.278Z" stroke="#C2C1C0" stroke-width="0.18" stroke-miterlimit="10"/>
<path d="M19.5028 334.446L42.6366 321.091L19.5028 307.724V334.446Z" stroke="#C2C1C0" stroke-width="0.18" stroke-miterlimit="10"/>
<path d="M65.7766 334.453L42.6428 321.085L65.7766 307.724V334.453Z" stroke="#C2C1C0" stroke-width="0.18" stroke-miterlimit="10"/>
<path d="M-3.6311 267.64L19.5027 281.001L-3.6311 294.362V267.64Z" stroke="#C2C1C0" stroke-width="0.18" stroke-miterlimit="10"/>
<path d="M19.5027 307.724L-3.6311 321.085L19.5027 334.446V307.724Z" stroke="#C2C1C0" stroke-width="0.18" stroke-miterlimit="10"/>
<path d="M-3.6311 321.085L19.5027 334.446L-3.6311 347.808V321.085Z" stroke="#C2C1C0" stroke-width="0.18" stroke-miterlimit="10"/>
<path d="M42.6429 214.193L19.5028 227.555L42.6429 240.916V214.193Z" stroke="#C2C1C0" stroke-width="0.18" stroke-miterlimit="10"/>
<path d="M65.7766 227.555L42.6428 240.916L65.7766 254.278V227.555Z" stroke="#C2C1C0" stroke-width="0.18" stroke-miterlimit="10"/>
<path d="M65.7766 200.832L42.6428 214.193L65.7766 227.555V200.832Z" stroke="#C2C1C0" stroke-width="0.18" stroke-miterlimit="10"/>
<path d="M42.6428 214.193L65.7766 227.555L42.6428 240.916V214.193Z" stroke="#C2C1C0" stroke-width="0.18" stroke-miterlimit="10"/>
<path d="M19.5027 227.555L-3.6311 214.193L19.5027 200.832V227.555Z" stroke="#C2C1C0" stroke-width="0.18" stroke-miterlimit="10"/>
<path d="M19.5028 227.555L42.6366 214.193L19.5028 200.832V227.555Z" stroke="#C2C1C0" stroke-width="0.18" stroke-miterlimit="10"/>
<path d="M19.4586 387.873L-3.67517 374.512L19.4586 361.15V387.873Z" stroke="#C2C1C0" stroke-width="0.18" stroke-miterlimit="10"/>
<path d="M19.4587 387.873L42.5925 374.512L19.4587 361.15V387.873Z" stroke="#C2C1C0" stroke-width="0.18" stroke-miterlimit="10"/>
<path d="M65.7325 387.873L42.5924 401.234L65.7325 414.596V387.873Z" stroke="#C2C1C0" stroke-width="0.18" stroke-miterlimit="10"/>
<path d="M19.4587 387.873L42.5925 401.234L19.4587 414.596V387.873Z" stroke="#C2C1C0" stroke-width="0.18" stroke-miterlimit="10"/>
<path d="M42.5924 374.512L65.7325 387.873L42.5924 401.235V374.512Z" stroke="#C2C1C0" stroke-width="0.18" stroke-miterlimit="10"/>
<path d="M19.4586 414.596L-3.67517 401.234L19.4586 387.873V414.596Z" stroke="#C2C1C0" stroke-width="0.18" stroke-miterlimit="10"/>
<path d="M65.7325 361.15L42.5924 374.512L65.7325 387.873V361.15Z" stroke="#C2C1C0" stroke-width="0.18" stroke-miterlimit="10"/>
<path d="M65.7578 334.44L42.6177 347.802L65.7578 361.163V334.44Z" stroke="#C2C1C0" stroke-width="0.18" stroke-miterlimit="10"/>
<path d="M42.5925 374.512L19.4587 361.15L42.5925 347.789V374.512Z" stroke="#C2C1C0" stroke-width="0.18" stroke-miterlimit="10"/>
<path d="M42.5924 374.512L65.7325 361.15L42.5924 347.789V374.512Z" stroke="#C2C1C0" stroke-width="0.18" stroke-miterlimit="10"/>
<path d="M-3.6311 401.26L19.5027 387.899L-3.6311 374.537V401.26Z" stroke="#C2C1C0" stroke-width="0.18" stroke-miterlimit="10"/>
<path d="M65.7766 281.001L42.6428 267.64L65.7766 254.278V281.001Z" stroke="#C2C1C0" stroke-width="0.18" stroke-miterlimit="10"/>
<path d="M54.2097 314.407L42.6428 321.085L54.2097 327.769V314.407Z" stroke="#C2C1C0" stroke-width="0.18" stroke-miterlimit="10"/>
<path d="M42.6429 307.724L31.0697 314.407L42.6429 321.085V307.724Z" stroke="#C2C1C0" stroke-width="0.18" stroke-miterlimit="10"/>
<path d="M31.0697 314.407L42.6429 321.085L31.0697 327.769V314.407Z" stroke="#C2C1C0" stroke-width="0.18" stroke-miterlimit="10"/>
<path d="M42.6428 307.724L54.2097 314.407L42.6428 321.085V307.724Z" stroke="#C2C1C0" stroke-width="0.18" stroke-miterlimit="10"/>
<path d="M42.6429 321.085L31.0697 327.769L42.6429 334.446V321.085Z" stroke="#C2C1C0" stroke-width="0.18" stroke-miterlimit="10"/>
<path d="M42.6428 321.085L54.2097 327.769L42.6428 334.446V321.085Z" stroke="#C2C1C0" stroke-width="0.18" stroke-miterlimit="10"/>
<path d="M31.0697 274.323L42.6429 267.639L31.0697 260.962V274.323Z" stroke="#C2C1C0" stroke-width="0.18" stroke-miterlimit="10"/>
<path d="M42.6428 281.001L54.2097 274.324L42.6428 267.64V281.001Z" stroke="#C2C1C0" stroke-width="0.18" stroke-miterlimit="10"/>
<path d="M54.2097 274.323L42.6428 267.639L54.2097 260.962V274.323Z" stroke="#C2C1C0" stroke-width="0.18" stroke-miterlimit="10"/>
<path d="M42.6429 281.001L31.0697 274.324L42.6429 267.64V281.001Z" stroke="#C2C1C0" stroke-width="0.18" stroke-miterlimit="10"/>
<path d="M42.6428 267.64L54.2097 260.962L42.6428 254.278V267.64Z" stroke="#C2C1C0" stroke-width="0.18" stroke-miterlimit="10"/>
<path d="M42.6429 267.64L31.0697 260.962L42.6429 254.278V267.64Z" stroke="#C2C1C0" stroke-width="0.18" stroke-miterlimit="10"/>
<path d="M-3.6311 321.085L19.5027 307.724L-3.6311 294.362V321.085Z" stroke="#C2C1C0" stroke-width="0.18" stroke-miterlimit="10"/>
<path d="M19.5027 307.724L-3.6311 294.362L19.5027 281.001V307.724Z" stroke="#C2C1C0" stroke-width="0.18" stroke-miterlimit="10"/>
<path d="M7.9359 367.816L-3.63733 361.138L7.9359 354.454V367.816Z" stroke="#C2C1C0" stroke-width="0.18" stroke-miterlimit="10"/>
<path d="M-3.63733 374.499L7.9359 367.815L-3.63733 361.138V374.499Z" stroke="#C2C1C0" stroke-width="0.18" stroke-miterlimit="10"/>
<path d="M-3.63733 361.138L7.9359 354.454L-3.63733 347.776V361.138Z" stroke="#C2C1C0" stroke-width="0.18" stroke-miterlimit="10"/>
<path d="M7.93581 247.594L-3.6311 240.91L7.93581 234.232V247.594Z" stroke="#C2C1C0" stroke-width="0.18" stroke-miterlimit="10"/>
<path d="M-3.6311 254.272L7.93581 247.594L-3.6311 240.91V254.272Z" stroke="#C2C1C0" stroke-width="0.18" stroke-miterlimit="10"/>
<path d="M-3.6311 240.91L7.93581 234.233L-3.6311 227.549V240.91Z" stroke="#C2C1C0" stroke-width="0.18" stroke-miterlimit="10"/>
<path d="M250.866 361.169L227.732 347.808L250.866 334.446V361.169Z" stroke="#C2C1C0" stroke-width="0.18" stroke-miterlimit="10"/>
<path d="M274.006 321.085L250.866 334.446L274.006 347.808V321.085Z" stroke="#C2C1C0" stroke-width="0.18" stroke-miterlimit="10"/>
<path d="M158.324 254.278L135.191 240.916L158.324 227.555V254.278Z" stroke="#C2C1C0" stroke-width="0.18" stroke-miterlimit="10"/>
<path d="M158.324 254.278L181.458 240.916L158.324 227.555V254.278Z" stroke="#C2C1C0" stroke-width="0.18" stroke-miterlimit="10"/>
<path d="M250.866 254.278L227.732 240.916L250.866 227.555V254.278Z" stroke="#C2C1C0" stroke-width="0.18" stroke-miterlimit="10"/>
<path d="M112.051 254.278L88.9167 240.916L112.051 227.555V254.278Z" stroke="#C2C1C0" stroke-width="0.18" stroke-miterlimit="10"/>
<path d="M112.05 254.278L135.184 240.916L112.05 227.555V254.278Z" stroke="#C2C1C0" stroke-width="0.18" stroke-miterlimit="10"/>
<path d="M297.14 254.278L320.274 240.916L297.14 227.555V254.278Z" stroke="#C2C1C0" stroke-width="0.18" stroke-miterlimit="10"/>
<path d="M297.14 254.278L274.006 240.916L297.14 227.555V254.278Z" stroke="#C2C1C0" stroke-width="0.18" stroke-miterlimit="10"/>
<path d="M250.866 254.278L274.006 240.916L250.866 227.555V254.278Z" stroke="#C2C1C0" stroke-width="0.18" stroke-miterlimit="10"/>
<path d="M343.414 254.278L366.547 240.916L343.414 227.555V254.278Z" stroke="#C2C1C0" stroke-width="0.18" stroke-miterlimit="10"/>
<path d="M343.414 254.278L320.273 240.916L343.414 227.555V254.278Z" stroke="#C2C1C0" stroke-width="0.18" stroke-miterlimit="10"/>
<path d="M65.7767 281.001L88.9168 294.362L65.7767 307.724V281.001Z" stroke="#C2C1C0" stroke-width="0.18" stroke-miterlimit="10"/>
<path d="M88.9167 267.64L112.051 281.001L88.9167 294.362V267.64Z" stroke="#C2C1C0" stroke-width="0.18" stroke-miterlimit="10"/>
<path d="M112.051 281.001L88.9167 294.362L112.051 307.724V281.001Z" stroke="#C2C1C0" stroke-width="0.18" stroke-miterlimit="10"/>
<path d="M88.9168 267.64L65.7767 281.001L88.9168 294.362V267.64Z" stroke="#C2C1C0" stroke-width="0.18" stroke-miterlimit="10"/>
<path d="M88.9167 294.362L112.051 307.724L88.9167 321.085V294.362Z" stroke="#C2C1C0" stroke-width="0.18" stroke-miterlimit="10"/>
<path d="M88.9168 294.362L65.7767 307.724L88.9168 321.085V294.362Z" stroke="#C2C1C0" stroke-width="0.18" stroke-miterlimit="10"/>
<path d="M88.9103 321.085L112.05 334.446L88.9103 347.814V321.085Z" stroke="#C2C1C0" stroke-width="0.18" stroke-miterlimit="10"/>
<path d="M88.9168 321.085L65.7767 334.446L88.9168 347.814V321.085Z" stroke="#C2C1C0" stroke-width="0.18" stroke-miterlimit="10"/>
<path d="M135.184 347.814L158.324 361.176L135.184 374.537V347.814Z" stroke="#C2C1C0" stroke-width="0.18" stroke-miterlimit="10"/>
<path d="M135.184 347.814L112.05 361.176L135.184 374.537V347.814Z" stroke="#C2C1C0" stroke-width="0.18" stroke-miterlimit="10"/>
<path d="M112.05 334.446L135.184 347.808L112.05 361.169V334.446Z" stroke="#C2C1C0" stroke-width="0.18" stroke-miterlimit="10"/>
<path d="M112.051 334.446L88.9167 347.808L112.051 361.169V334.446Z" stroke="#C2C1C0" stroke-width="0.18" stroke-miterlimit="10"/>
<path d="M88.9167 240.917L112.051 254.278L88.9167 267.64V240.917Z" stroke="#C2C1C0" stroke-width="0.18" stroke-miterlimit="10"/>
<path d="M112.05 227.555L135.184 240.916L112.05 254.278V227.555Z" stroke="#C2C1C0" stroke-width="0.18" stroke-miterlimit="10"/>
<path d="M135.184 240.917L112.05 254.278L135.184 267.64V240.917Z" stroke="#C2C1C0" stroke-width="0.18" stroke-miterlimit="10"/>
<path d="M112.051 227.555L88.9167 240.916L112.051 254.278V227.555Z" stroke="#C2C1C0" stroke-width="0.18" stroke-miterlimit="10"/>
<path d="M181.458 240.916L158.324 227.555L181.458 214.193V240.916Z" stroke="#C2C1C0" stroke-width="0.18" stroke-miterlimit="10"/>
<path d="M181.458 240.916L204.592 227.555L181.458 214.193V240.916Z" stroke="#C2C1C0" stroke-width="0.18" stroke-miterlimit="10"/>
<path d="M135.184 240.916L112.05 227.555L135.184 214.193V240.916Z" stroke="#C2C1C0" stroke-width="0.18" stroke-miterlimit="10"/>
<path d="M135.184 240.916L158.324 227.555L135.184 214.193V240.916Z" stroke="#C2C1C0" stroke-width="0.18" stroke-miterlimit="10"/>
<path d="M135.184 214.193L112.05 227.555L135.184 240.916V214.193Z" stroke="#C2C1C0" stroke-width="0.18" stroke-miterlimit="10"/>
<path d="M227.732 240.916L204.598 227.555L227.732 214.193V240.916Z" stroke="#C2C1C0" stroke-width="0.18" stroke-miterlimit="10"/>
<path d="M227.732 240.916L250.866 227.555L227.732 214.193V240.916Z" stroke="#C2C1C0" stroke-width="0.18" stroke-miterlimit="10"/>
<path d="M227.732 214.193L250.866 227.555L227.732 240.916V214.193Z" stroke="#C2C1C0" stroke-width="0.18" stroke-miterlimit="10"/>
<path d="M227.732 214.193L204.598 227.555L227.732 240.916V214.193Z" stroke="#C2C1C0" stroke-width="0.18" stroke-miterlimit="10"/>
<path d="M320.274 240.916L297.14 227.555L320.274 214.193V240.916Z" stroke="#C2C1C0" stroke-width="0.18" stroke-miterlimit="10"/>
<path d="M320.273 240.916L343.414 227.555L320.273 214.193V240.916Z" stroke="#C2C1C0" stroke-width="0.18" stroke-miterlimit="10"/>
<path d="M320.273 214.193L343.407 227.555L320.273 240.916V214.193Z" stroke="#C2C1C0" stroke-width="0.18" stroke-miterlimit="10"/>
<path d="M320.274 214.193L297.14 227.555L320.274 240.916V214.193Z" stroke="#C2C1C0" stroke-width="0.18" stroke-miterlimit="10"/>
<path d="M366.541 240.91L343.407 227.549L366.541 214.188V240.91Z" stroke="#C2C1C0" stroke-width="0.18" stroke-miterlimit="10"/>
<path d="M366.541 240.91L389.675 227.549L366.541 214.188V240.91Z" stroke="#C2C1C0" stroke-width="0.18" stroke-miterlimit="10"/>
<path d="M366.541 214.188L389.675 227.549L366.541 240.91V214.188Z" stroke="#C2C1C0" stroke-width="0.18" stroke-miterlimit="10"/>
<path d="M366.541 214.188L343.407 227.549L366.541 240.91V214.188Z" stroke="#C2C1C0" stroke-width="0.18" stroke-miterlimit="10"/>
<path d="M412.821 240.916L389.681 227.555L412.821 214.193V240.916Z" stroke="#C2C1C0" stroke-width="0.18" stroke-miterlimit="10"/>
<path d="M412.821 214.193L389.681 227.555L412.821 240.916V214.193Z" stroke="#C2C1C0" stroke-width="0.18" stroke-miterlimit="10"/>
<path d="M112.05 254.278L135.184 267.64L112.05 281.001V254.278Z" stroke="#C2C1C0" stroke-width="0.18" stroke-miterlimit="10"/>
<path d="M112.051 254.278L88.9167 267.64L112.051 281.001V254.278Z" stroke="#C2C1C0" stroke-width="0.18" stroke-miterlimit="10"/>
<path d="M227.732 374.537L204.598 361.169L227.732 347.808V374.537Z" stroke="#C2C1C0" stroke-width="0.18" stroke-miterlimit="10"/>
<path d="M204.598 361.169L227.732 347.808L204.598 334.446V361.169Z" stroke="#C2C1C0" stroke-width="0.18" stroke-miterlimit="10"/>
<path d="M227.732 374.537L250.866 361.169L227.732 347.808V374.537Z" stroke="#C2C1C0" stroke-width="0.18" stroke-miterlimit="10"/>
<path d="M227.732 347.808L250.866 334.446L227.732 321.085V347.808Z" stroke="#C2C1C0" stroke-width="0.18" stroke-miterlimit="10"/>
<path d="M227.732 347.808L204.598 334.446L227.732 321.085V347.808Z" stroke="#C2C1C0" stroke-width="0.18" stroke-miterlimit="10"/>
<path d="M320.274 321.085L297.14 307.724L320.274 294.362V321.085Z" stroke="#C2C1C0" stroke-width="0.18" stroke-miterlimit="10"/>
<path d="M297.14 334.446L274.006 321.085L297.14 307.724V334.446Z" stroke="#C2C1C0" stroke-width="0.18" stroke-miterlimit="10"/>
<path d="M274.006 321.085L297.14 307.724L274.006 294.362V321.085Z" stroke="#C2C1C0" stroke-width="0.18" stroke-miterlimit="10"/>
<path d="M297.14 334.446L320.274 321.085L297.14 307.724V334.446Z" stroke="#C2C1C0" stroke-width="0.18" stroke-miterlimit="10"/>
<path d="M297.14 307.724L274.006 294.362L297.14 281.001V307.724Z" stroke="#C2C1C0" stroke-width="0.18" stroke-miterlimit="10"/>
<path d="M297.14 307.724L320.274 294.362L297.14 281.001V307.724Z" stroke="#C2C1C0" stroke-width="0.18" stroke-miterlimit="10"/>
<path d="M227.732 294.362L250.866 307.724L227.732 321.085V294.362Z" stroke="#C2C1C0" stroke-width="0.18" stroke-miterlimit="10"/>
<path d="M250.866 281.001L274.006 294.362L250.866 307.724V281.001Z" stroke="#C2C1C0" stroke-width="0.18" stroke-miterlimit="10"/>
<path d="M274.006 294.362L250.866 307.724L274.006 321.085V294.362Z" stroke="#C2C1C0" stroke-width="0.18" stroke-miterlimit="10"/>
<path d="M250.866 281.001L227.732 294.362L250.866 307.724V281.001Z" stroke="#C2C1C0" stroke-width="0.18" stroke-miterlimit="10"/>
<path d="M250.866 307.724L274.006 321.085L250.866 334.446V307.724Z" stroke="#C2C1C0" stroke-width="0.18" stroke-miterlimit="10"/>
<path d="M250.866 307.724L227.732 321.085L250.866 334.446V307.724Z" stroke="#C2C1C0" stroke-width="0.18" stroke-miterlimit="10"/>
<path d="M190.712 235.576L181.464 240.917L190.712 246.264V235.576Z" stroke="#C2C1C0" stroke-width="0.18" stroke-miterlimit="10"/>
<path d="M204.598 281.001L181.458 267.64L204.598 254.278V281.001Z" stroke="#C2C1C0" stroke-width="0.18" stroke-miterlimit="10"/>
<path d="M181.458 294.362L158.324 281.001L181.458 267.64V294.362Z" stroke="#C2C1C0" stroke-width="0.18" stroke-miterlimit="10"/>
<path d="M158.324 281.001L181.458 267.64L158.324 254.278V281.001Z" stroke="#C2C1C0" stroke-width="0.18" stroke-miterlimit="10"/>
<path d="M135.184 267.64L158.324 254.278L135.184 240.917V267.64Z" stroke="#C2C1C0" stroke-width="0.18" stroke-miterlimit="10"/>
<path d="M181.458 294.362L204.598 281.001L181.458 267.64V294.362Z" stroke="#C2C1C0" stroke-width="0.18" stroke-miterlimit="10"/>
<path d="M181.458 267.64L158.324 254.278L181.458 240.917V267.64Z" stroke="#C2C1C0" stroke-width="0.18" stroke-miterlimit="10"/>
<path d="M181.458 267.64L204.598 254.278L181.458 240.917V267.64Z" stroke="#C2C1C0" stroke-width="0.18" stroke-miterlimit="10"/>
<path d="M227.732 321.085L204.598 307.724L227.732 294.362V321.085Z" stroke="#C2C1C0" stroke-width="0.18" stroke-miterlimit="10"/>
<path d="M320.274 374.537L297.14 361.176L320.274 347.814V374.537Z" stroke="#C2C1C0" stroke-width="0.18" stroke-miterlimit="10"/>
<path d="M181.458 321.085L204.598 307.724L181.458 294.362V321.085Z" stroke="#C2C1C0" stroke-width="0.18" stroke-miterlimit="10"/>
<path d="M204.598 307.724L181.458 294.362L204.598 281.001V307.724Z" stroke="#C2C1C0" stroke-width="0.18" stroke-miterlimit="10"/>
<path d="M204.598 307.724L227.732 294.362L204.598 281.001V307.724Z" stroke="#C2C1C0" stroke-width="0.18" stroke-miterlimit="10"/>
<path d="M227.732 240.917L250.866 254.278L227.732 267.64V240.917Z" stroke="#C2C1C0" stroke-width="0.18" stroke-miterlimit="10"/>
<path d="M250.866 254.278L227.732 267.64L250.866 281.001V254.278Z" stroke="#C2C1C0" stroke-width="0.18" stroke-miterlimit="10"/>
<path d="M227.732 240.917L204.598 254.278L227.732 267.64V240.917Z" stroke="#C2C1C0" stroke-width="0.18" stroke-miterlimit="10"/>
<path d="M227.732 267.64L250.866 281.001L227.732 294.362V267.64Z" stroke="#C2C1C0" stroke-width="0.18" stroke-miterlimit="10"/>
<path d="M216.165 287.685L204.592 281.001L216.165 274.323V287.685Z" stroke="#C2C1C0" stroke-width="0.18" stroke-miterlimit="10"/>
<path d="M204.592 294.362L193.025 287.685L204.592 281.001V294.362Z" stroke="#C2C1C0" stroke-width="0.18" stroke-miterlimit="10"/>
<path d="M193.025 287.685L204.592 281.001L193.025 274.323V287.685Z" stroke="#C2C1C0" stroke-width="0.18" stroke-miterlimit="10"/>
<path d="M204.592 294.362L216.165 287.685L204.592 281.001V294.362Z" stroke="#C2C1C0" stroke-width="0.18" stroke-miterlimit="10"/>
<path d="M204.592 281.001L193.025 274.324L204.592 267.64V281.001Z" stroke="#C2C1C0" stroke-width="0.18" stroke-miterlimit="10"/>
<path d="M204.592 281.001L216.165 274.324L204.592 267.64V281.001Z" stroke="#C2C1C0" stroke-width="0.18" stroke-miterlimit="10"/>
<path d="M193.031 327.769L204.598 334.446L193.031 341.13V327.769Z" stroke="#C2C1C0" stroke-width="0.18" stroke-miterlimit="10"/>
<path d="M204.598 321.085L216.165 327.769L204.598 334.446V321.085Z" stroke="#C2C1C0" stroke-width="0.18" stroke-miterlimit="10"/>
<path d="M216.165 327.769L204.598 334.446L216.165 341.13V327.769Z" stroke="#C2C1C0" stroke-width="0.18" stroke-miterlimit="10"/>
<path d="M204.598 321.085L193.031 327.769L204.598 334.446V321.085Z" stroke="#C2C1C0" stroke-width="0.18" stroke-miterlimit="10"/>
<path d="M204.598 334.446L216.165 341.13L204.598 347.808V334.446Z" stroke="#C2C1C0" stroke-width="0.18" stroke-miterlimit="10"/>
<path d="M204.598 334.446L193.025 341.13L204.598 347.808V334.446Z" stroke="#C2C1C0" stroke-width="0.18" stroke-miterlimit="10"/>
<path d="M239.299 327.769L250.872 334.446L239.299 341.13V327.769Z" stroke="#C2C1C0" stroke-width="0.18" stroke-miterlimit="10"/>
<path d="M262.439 327.769L250.872 334.446L262.439 341.13V327.769Z" stroke="#C2C1C0" stroke-width="0.18" stroke-miterlimit="10"/>
<path d="M274.006 374.537L250.866 361.175L274.006 347.808V374.537Z" stroke="#C2C1C0" stroke-width="0.18" stroke-miterlimit="10"/>
<path d="M274.006 374.537L297.14 361.175L274.006 347.808V374.537Z" stroke="#C2C1C0" stroke-width="0.18" stroke-miterlimit="10"/>
<path d="M65.7767 334.453L88.9168 321.085L65.7767 307.724V334.453Z" stroke="#C2C1C0" stroke-width="0.18" stroke-miterlimit="10"/>
<path d="M204.592 361.169L181.458 347.808L204.592 334.446V361.169Z" stroke="#C2C1C0" stroke-width="0.18" stroke-miterlimit="10"/>
<path d="M135.191 347.814L158.324 334.453L135.191 321.085V347.814Z" stroke="#C2C1C0" stroke-width="0.18" stroke-miterlimit="10"/>
<path d="M158.324 361.175L135.191 347.814L158.324 334.446V361.175Z" stroke="#C2C1C0" stroke-width="0.18" stroke-miterlimit="10"/>
<path d="M181.458 374.537L158.324 361.169L181.458 347.808V374.537Z" stroke="#C2C1C0" stroke-width="0.18" stroke-miterlimit="10"/>
<path d="M158.324 361.169L181.458 347.808L158.324 334.446V361.169Z" stroke="#C2C1C0" stroke-width="0.18" stroke-miterlimit="10"/>
<path d="M181.458 374.537L204.592 361.169L181.458 347.808V374.537Z" stroke="#C2C1C0" stroke-width="0.18" stroke-miterlimit="10"/>
<path d="M274.006 294.362L250.866 281.001L274.006 267.64V294.362Z" stroke="#C2C1C0" stroke-width="0.18" stroke-miterlimit="10"/>
<path d="M274.006 294.362L297.14 281.001L274.006 267.64V294.362Z" stroke="#C2C1C0" stroke-width="0.18" stroke-miterlimit="10"/>
<path d="M274.006 321.085L297.14 334.446L274.006 347.808V321.085Z" stroke="#C2C1C0" stroke-width="0.18" stroke-miterlimit="10"/>
<path d="M250.866 334.446L274.006 347.808L250.866 361.169V334.446Z" stroke="#C2C1C0" stroke-width="0.18" stroke-miterlimit="10"/>
<path d="M135.184 267.64L158.324 281.001L135.184 294.362V267.64Z" stroke="#C2C1C0" stroke-width="0.18" stroke-miterlimit="10"/>
<path d="M135.184 267.64L112.05 281.001L135.184 294.362V267.64Z" stroke="#C2C1C0" stroke-width="0.18" stroke-miterlimit="10"/>
<path d="M112.05 307.724L135.184 321.085L112.05 334.446V307.724Z" stroke="#C2C1C0" stroke-width="0.18" stroke-miterlimit="10"/>
<path d="M135.184 321.085L112.05 334.446L135.184 347.808V321.085Z" stroke="#C2C1C0" stroke-width="0.18" stroke-miterlimit="10"/>
<path d="M158.324 307.724L135.191 321.085L158.324 334.446V307.724Z" stroke="#C2C1C0" stroke-width="0.18" stroke-miterlimit="10"/>
<path d="M135.184 294.362L158.324 307.724L135.184 321.085V294.362Z" stroke="#C2C1C0" stroke-width="0.18" stroke-miterlimit="10"/>
<path d="M158.324 281.001L135.184 294.362L158.324 307.724V281.001Z" stroke="#C2C1C0" stroke-width="0.18" stroke-miterlimit="10"/>
<path d="M88.9167 214.193L112.051 227.555L88.9167 240.916V214.193Z" stroke="#C2C1C0" stroke-width="0.18" stroke-miterlimit="10"/>
<path d="M65.7767 227.555L88.9168 240.916L65.7767 254.278V227.555Z" stroke="#C2C1C0" stroke-width="0.18" stroke-miterlimit="10"/>
<path d="M88.9168 214.193L65.7767 227.555L88.9168 240.916V214.193Z" stroke="#C2C1C0" stroke-width="0.18" stroke-miterlimit="10"/>
<path d="M250.872 254.278L227.732 240.916L250.872 227.555V254.278Z" stroke="#C2C1C0" stroke-width="0.18" stroke-miterlimit="10"/>
<path d="M250.866 281.001L274.006 267.64L250.866 254.278V281.001Z" stroke="#C2C1C0" stroke-width="0.18" stroke-miterlimit="10"/>
<path d="M181.458 321.085L158.324 307.724L181.458 294.362V321.085Z" stroke="#C2C1C0" stroke-width="0.18" stroke-miterlimit="10"/>
<path d="M158.324 334.446L181.458 321.085L158.324 307.724V334.446Z" stroke="#C2C1C0" stroke-width="0.18" stroke-miterlimit="10"/>
<path d="M158.324 307.724L181.458 294.362L158.324 281.001V307.724Z" stroke="#C2C1C0" stroke-width="0.18" stroke-miterlimit="10"/>
<path d="M274.006 214.193L250.866 227.555L274.006 240.916V214.193Z" stroke="#C2C1C0" stroke-width="0.18" stroke-miterlimit="10"/>
<path d="M320.28 267.64L297.14 254.278L320.28 240.917V267.64Z" stroke="#C2C1C0" stroke-width="0.18" stroke-miterlimit="10"/>
<path d="M274.006 240.916L297.14 227.555L274.006 214.193V240.916Z" stroke="#C2C1C0" stroke-width="0.18" stroke-miterlimit="10"/>
<path d="M274.006 240.917L297.14 254.278L274.006 267.64V240.917Z" stroke="#C2C1C0" stroke-width="0.18" stroke-miterlimit="10"/>
<path d="M274.006 240.917L250.866 254.278L274.006 267.64V240.917Z" stroke="#C2C1C0" stroke-width="0.18" stroke-miterlimit="10"/>
<path d="M297.14 254.278L274.006 267.64L297.14 281.001V254.278Z" stroke="#C2C1C0" stroke-width="0.18" stroke-miterlimit="10"/>
<path d="M297.14 281.001L320.28 267.64L297.14 254.278V281.001Z" stroke="#C2C1C0" stroke-width="0.18" stroke-miterlimit="10"/>
<path d="M65.7767 281.001L88.9168 267.64L65.7767 254.278V281.001Z" stroke="#C2C1C0" stroke-width="0.18" stroke-miterlimit="10"/>
<path d="M77.35 314.407L88.9169 321.085L77.35 327.769V314.407Z" stroke="#C2C1C0" stroke-width="0.18" stroke-miterlimit="10"/>
<path d="M88.9167 307.724L100.484 314.407L88.9167 321.085V307.724Z" stroke="#C2C1C0" stroke-width="0.18" stroke-miterlimit="10"/>
<path d="M100.484 314.407L88.9167 321.085L100.484 327.769V314.407Z" stroke="#C2C1C0" stroke-width="0.18" stroke-miterlimit="10"/>
<path d="M88.9169 307.724L77.35 314.407L88.9169 321.085V307.724Z" stroke="#C2C1C0" stroke-width="0.18" stroke-miterlimit="10"/>
<path d="M88.9167 321.085L100.484 327.769L88.9167 334.446V321.085Z" stroke="#C2C1C0" stroke-width="0.18" stroke-miterlimit="10"/>
<path d="M100.484 274.323L88.9167 267.639L100.484 260.962V274.323Z" stroke="#C2C1C0" stroke-width="0.18" stroke-miterlimit="10"/>
<path d="M88.9169 281.001L77.35 274.324L88.9169 267.64V281.001Z" stroke="#C2C1C0" stroke-width="0.18" stroke-miterlimit="10"/>
<path d="M77.35 274.323L88.9169 267.639L77.35 260.962V274.323Z" stroke="#C2C1C0" stroke-width="0.18" stroke-miterlimit="10"/>
<path d="M88.9167 281.001L100.484 274.324L88.9167 267.64V281.001Z" stroke="#C2C1C0" stroke-width="0.18" stroke-miterlimit="10"/>
<path d="M88.9169 267.64L77.35 260.962L88.9169 254.278V267.64Z" stroke="#C2C1C0" stroke-width="0.18" stroke-miterlimit="10"/>
<path d="M88.9167 267.64L100.484 260.962L88.9167 254.278V267.64Z" stroke="#C2C1C0" stroke-width="0.18" stroke-miterlimit="10"/>
<path d="M262.439 287.679L250.866 281.001L262.439 274.317V287.679Z" stroke="#C2C1C0" stroke-width="0.18" stroke-miterlimit="10"/>
<path d="M250.866 294.362L239.299 287.679L250.866 281.001V294.362Z" stroke="#C2C1C0" stroke-width="0.18" stroke-miterlimit="10"/>
<path d="M250.866 294.362L262.439 287.679L250.866 281.001V294.362Z" stroke="#C2C1C0" stroke-width="0.18" stroke-miterlimit="10"/>
<path d="M250.866 281.001L239.299 274.317L250.866 267.64V281.001Z" stroke="#C2C1C0" stroke-width="0.18" stroke-miterlimit="10"/>
<path d="M250.866 281.001L262.439 274.317L250.866 267.64V281.001Z" stroke="#C2C1C0" stroke-width="0.18" stroke-miterlimit="10"/>
<path d="M239.299 287.679L250.866 281.001L239.299 274.317V287.679Z" stroke="#C2C1C0" stroke-width="0.18" stroke-miterlimit="10"/>
<path d="M169.891 314.407L158.324 307.723L169.891 301.046V314.407Z" stroke="#C2C1C0" stroke-width="0.18" stroke-miterlimit="10"/>
<path d="M158.325 321.085L146.751 314.407L158.325 307.724V321.085Z" stroke="#C2C1C0" stroke-width="0.18" stroke-miterlimit="10"/>
<path d="M158.324 321.085L169.891 314.407L158.324 307.724V321.085Z" stroke="#C2C1C0" stroke-width="0.18" stroke-miterlimit="10"/>
<path d="M158.325 307.724L146.751 301.046L158.325 294.362V307.724Z" stroke="#C2C1C0" stroke-width="0.18" stroke-miterlimit="10"/>
<path d="M158.324 307.724L169.891 301.046L158.324 294.362V307.724Z" stroke="#C2C1C0" stroke-width="0.18" stroke-miterlimit="10"/>
<path d="M146.751 314.407L158.325 307.723L146.751 301.046V314.407Z" stroke="#C2C1C0" stroke-width="0.18" stroke-miterlimit="10"/>
<path d="M308.707 314.407L297.14 307.723L308.707 301.046V314.407Z" stroke="#C2C1C0" stroke-width="0.18" stroke-miterlimit="10"/>
<path d="M297.14 321.085L285.573 314.407L297.14 307.724V321.085Z" stroke="#C2C1C0" stroke-width="0.18" stroke-miterlimit="10"/>
<path d="M297.14 321.085L308.707 314.407L297.14 307.724V321.085Z" stroke="#C2C1C0" stroke-width="0.18" stroke-miterlimit="10"/>
<path d="M285.573 314.407L297.14 307.723L285.573 301.046V314.407Z" stroke="#C2C1C0" stroke-width="0.18" stroke-miterlimit="10"/>
<path d="M135.184 321.085L112.05 307.724L135.184 294.362V321.085Z" stroke="#C2C1C0" stroke-width="0.18" stroke-miterlimit="10"/>
<path d="M112.05 307.724L135.184 294.362L112.05 281.001V307.724Z" stroke="#C2C1C0" stroke-width="0.18" stroke-miterlimit="10"/>
<path d="M343.414 361.169L366.547 347.808L343.414 334.446V361.169Z" stroke="#C2C1C0" stroke-width="0.18" stroke-miterlimit="10"/>
<path d="M366.548 374.537L389.681 361.169L366.548 347.808V374.537Z" stroke="#C2C1C0" stroke-width="0.18" stroke-miterlimit="10"/>
<path d="M389.681 361.169L366.548 347.808L389.681 334.446V361.169Z" stroke="#C2C1C0" stroke-width="0.18" stroke-miterlimit="10"/>
<path d="M366.547 374.537L343.414 361.169L366.547 347.808V374.537Z" stroke="#C2C1C0" stroke-width="0.18" stroke-miterlimit="10"/>
<path d="M366.547 347.808L343.414 334.446L366.547 321.085V347.808Z" stroke="#C2C1C0" stroke-width="0.18" stroke-miterlimit="10"/>
<path d="M366.548 347.808L389.681 334.446L366.548 321.085V347.808Z" stroke="#C2C1C0" stroke-width="0.18" stroke-miterlimit="10"/>
<path d="M366.547 294.362L343.414 307.724L366.547 321.085V294.362Z" stroke="#C2C1C0" stroke-width="0.18" stroke-miterlimit="10"/>
<path d="M343.414 281.001L320.273 294.362L343.414 307.724V281.001Z" stroke="#C2C1C0" stroke-width="0.18" stroke-miterlimit="10"/>
<path d="M320.273 294.362L343.414 307.724L320.273 321.085V294.362Z" stroke="#C2C1C0" stroke-width="0.18" stroke-miterlimit="10"/>
<path d="M343.414 281.001L366.547 294.362L343.414 307.724V281.001Z" stroke="#C2C1C0" stroke-width="0.18" stroke-miterlimit="10"/>
<path d="M343.414 307.724L320.273 321.085L343.414 334.446V307.724Z" stroke="#C2C1C0" stroke-width="0.18" stroke-miterlimit="10"/>
<path d="M343.414 307.724L366.547 321.085L343.414 334.446V307.724Z" stroke="#C2C1C0" stroke-width="0.18" stroke-miterlimit="10"/>
<path d="M412.821 267.64L389.681 254.278L412.821 240.917V267.64Z" stroke="#C2C1C0" stroke-width="0.18" stroke-miterlimit="10"/>
<path d="M366.548 321.085L389.681 307.724L366.548 294.362V321.085Z" stroke="#C2C1C0" stroke-width="0.18" stroke-miterlimit="10"/>
<path d="M412.821 321.085L389.681 307.724L412.821 294.362V321.085Z" stroke="#C2C1C0" stroke-width="0.18" stroke-miterlimit="10"/>
<path d="M389.681 307.724L412.821 294.362L389.681 281.001V307.724Z" stroke="#C2C1C0" stroke-width="0.18" stroke-miterlimit="10"/>
<path d="M389.681 307.724L366.548 294.362L389.681 281.001V307.724Z" stroke="#C2C1C0" stroke-width="0.18" stroke-miterlimit="10"/>
<path d="M389.681 254.278L366.548 267.64L389.681 281.001V254.278Z" stroke="#C2C1C0" stroke-width="0.18" stroke-miterlimit="10"/>
<path d="M366.547 240.917L343.414 254.278L366.547 267.64V240.917Z" stroke="#C2C1C0" stroke-width="0.18" stroke-miterlimit="10"/>
<path d="M343.414 254.278L366.547 267.64L343.414 281.001V254.278Z" stroke="#C2C1C0" stroke-width="0.18" stroke-miterlimit="10"/>
<path d="M366.548 240.917L389.681 254.278L366.548 267.64V240.917Z" stroke="#C2C1C0" stroke-width="0.18" stroke-miterlimit="10"/>
<path d="M366.547 267.64L343.414 281.001L366.547 294.362V267.64Z" stroke="#C2C1C0" stroke-width="0.18" stroke-miterlimit="10"/>
<path d="M366.548 267.64L389.681 281.001L366.548 294.362V267.64Z" stroke="#C2C1C0" stroke-width="0.18" stroke-miterlimit="10"/>
<path d="M378.115 287.685L389.688 281.001L378.115 274.323V287.685Z" stroke="#C2C1C0" stroke-width="0.18" stroke-miterlimit="10"/>
<path d="M389.688 294.362L401.254 287.685L389.688 281.001V294.362Z" stroke="#C2C1C0" stroke-width="0.18" stroke-miterlimit="10"/>
<path d="M401.254 287.685L389.688 281.001L401.254 274.323V287.685Z" stroke="#C2C1C0" stroke-width="0.18" stroke-miterlimit="10"/>
<path d="M389.688 294.362L378.115 287.685L389.688 281.001V294.362Z" stroke="#C2C1C0" stroke-width="0.18" stroke-miterlimit="10"/>
<path d="M389.681 281.001L401.254 274.324L389.681 267.64V281.001Z" stroke="#C2C1C0" stroke-width="0.18" stroke-miterlimit="10"/>
<path d="M389.688 281.001L378.115 274.324L389.688 267.64V281.001Z" stroke="#C2C1C0" stroke-width="0.18" stroke-miterlimit="10"/>
<path d="M401.248 327.769L389.681 334.446L401.248 341.13V327.769Z" stroke="#C2C1C0" stroke-width="0.18" stroke-miterlimit="10"/>
<path d="M389.681 321.085L378.115 327.769L389.681 334.446V321.085Z" stroke="#C2C1C0" stroke-width="0.18" stroke-miterlimit="10"/>
<path d="M378.115 327.769L389.681 334.446L378.115 341.13V327.769Z" stroke="#C2C1C0" stroke-width="0.18" stroke-miterlimit="10"/>
<path d="M389.681 321.085L401.248 327.769L389.681 334.446V321.085Z" stroke="#C2C1C0" stroke-width="0.18" stroke-miterlimit="10"/>
<path d="M389.681 334.446L378.115 341.13L389.681 347.808V334.446Z" stroke="#C2C1C0" stroke-width="0.18" stroke-miterlimit="10"/>
<path d="M389.681 334.446L401.248 341.13L389.681 347.808V334.446Z" stroke="#C2C1C0" stroke-width="0.18" stroke-miterlimit="10"/>
<path d="M354.981 327.769L343.407 334.446L354.981 341.13V327.769Z" stroke="#C2C1C0" stroke-width="0.18" stroke-miterlimit="10"/>
<path d="M343.407 321.085L331.84 327.769L343.407 334.446V321.085Z" stroke="#C2C1C0" stroke-width="0.18" stroke-miterlimit="10"/>
<path d="M331.84 327.769L343.407 334.446L331.84 341.13V327.769Z" stroke="#C2C1C0" stroke-width="0.18" stroke-miterlimit="10"/>
<path d="M343.407 321.085L354.981 327.769L343.407 334.446V321.085Z" stroke="#C2C1C0" stroke-width="0.18" stroke-miterlimit="10"/>
<path d="M343.414 334.446L331.84 341.13L343.414 347.808V334.446Z" stroke="#C2C1C0" stroke-width="0.18" stroke-miterlimit="10"/>
<path d="M343.407 334.446L354.981 341.13L343.407 347.808V334.446Z" stroke="#C2C1C0" stroke-width="0.18" stroke-miterlimit="10"/>
<path d="M320.273 374.537L343.414 361.175L320.273 347.808V374.537Z" stroke="#C2C1C0" stroke-width="0.18" stroke-miterlimit="10"/>
<path d="M389.681 361.169L412.821 347.808L389.681 334.446V361.169Z" stroke="#C2C1C0" stroke-width="0.18" stroke-miterlimit="10"/>
<path d="M320.274 347.808L297.14 334.446L320.274 321.085V347.808Z" stroke="#C2C1C0" stroke-width="0.18" stroke-miterlimit="10"/>
<path d="M412.821 374.537L389.681 361.169L412.821 347.808V374.537Z" stroke="#C2C1C0" stroke-width="0.18" stroke-miterlimit="10"/>
<path d="M204.598 387.899L181.458 374.537L204.598 361.176V387.899Z" stroke="#C2C1C0" stroke-width="0.18" stroke-miterlimit="10"/>
<path d="M204.598 387.899L227.732 374.537L204.598 361.176V387.899Z" stroke="#C2C1C0" stroke-width="0.18" stroke-miterlimit="10"/>
<path d="M297.14 387.899L274.006 374.537L297.14 361.176V387.899Z" stroke="#C2C1C0" stroke-width="0.18" stroke-miterlimit="10"/>
<path d="M250.866 387.899L227.732 374.537L250.866 361.176V387.899Z" stroke="#C2C1C0" stroke-width="0.18" stroke-miterlimit="10"/>
<path d="M250.866 387.899L274.006 374.537L250.866 361.176V387.899Z" stroke="#C2C1C0" stroke-width="0.18" stroke-miterlimit="10"/>
<path d="M158.324 387.899L135.191 374.537L158.324 361.176V387.899Z" stroke="#C2C1C0" stroke-width="0.18" stroke-miterlimit="10"/>
<path d="M158.324 387.899L181.458 374.537L158.324 361.176V387.899Z" stroke="#C2C1C0" stroke-width="0.18" stroke-miterlimit="10"/>
<path d="M343.414 387.899L366.547 374.537L343.414 361.176V387.899Z" stroke="#C2C1C0" stroke-width="0.18" stroke-miterlimit="10"/>
<path d="M343.414 387.899L320.273 374.537L343.414 361.176V387.899Z" stroke="#C2C1C0" stroke-width="0.18" stroke-miterlimit="10"/>
<path d="M297.14 387.899L320.274 374.537L297.14 361.176V387.899Z" stroke="#C2C1C0" stroke-width="0.18" stroke-miterlimit="10"/>
<path d="M389.681 387.899L412.821 374.537L389.681 361.176V387.899Z" stroke="#C2C1C0" stroke-width="0.18" stroke-miterlimit="10"/>
<path d="M389.681 387.899L366.548 374.537L389.681 361.176V387.899Z" stroke="#C2C1C0" stroke-width="0.18" stroke-miterlimit="10"/>
<path d="M297.14 361.169L320.28 347.808L297.14 334.446V361.169Z" stroke="#C2C1C0" stroke-width="0.18" stroke-miterlimit="10"/>
<path d="M297.14 361.169L274.006 347.808L297.14 334.446V361.169Z" stroke="#C2C1C0" stroke-width="0.18" stroke-miterlimit="10"/>
<path d="M320.273 294.362L343.414 281.001L320.273 267.64V294.362Z" stroke="#C2C1C0" stroke-width="0.18" stroke-miterlimit="10"/>
<path d="M343.414 334.446L320.273 347.808L343.414 361.169V334.446Z" stroke="#C2C1C0" stroke-width="0.18" stroke-miterlimit="10"/>
<path d="M320.273 321.085L343.414 334.446L320.273 347.808V321.085Z" stroke="#C2C1C0" stroke-width="0.18" stroke-miterlimit="10"/>
<path d="M158.324 200.832L135.184 214.193L158.324 227.555V200.832Z" stroke="#C2C1C0" stroke-width="0.18" stroke-miterlimit="10"/>
<path d="M158.324 200.832L181.458 214.193L158.324 227.555V200.832Z" stroke="#C2C1C0" stroke-width="0.18" stroke-miterlimit="10"/>
<path d="M112.05 200.832L88.9103 214.193L112.05 227.555V200.832Z" stroke="#C2C1C0" stroke-width="0.18" stroke-miterlimit="10"/>
<path d="M112.05 200.832L135.184 214.193L112.05 227.555V200.832Z" stroke="#C2C1C0" stroke-width="0.18" stroke-miterlimit="10"/>
<path d="M112.05 227.555L135.184 214.193L112.05 200.832V227.555Z" stroke="#C2C1C0" stroke-width="0.18" stroke-miterlimit="10"/>
<path d="M112.05 227.555L88.9103 214.193L112.05 200.832V227.555Z" stroke="#C2C1C0" stroke-width="0.18" stroke-miterlimit="10"/>
<path d="M204.592 200.826L181.458 214.194L204.592 227.555V200.826Z" stroke="#C2C1C0" stroke-width="0.18" stroke-miterlimit="10"/>
<path d="M204.592 200.826L227.732 214.194L204.592 227.555V200.826Z" stroke="#C2C1C0" stroke-width="0.18" stroke-miterlimit="10"/>
<path d="M204.592 227.555L227.732 214.188L204.592 200.826V227.555Z" stroke="#C2C1C0" stroke-width="0.18" stroke-miterlimit="10"/>
<path d="M204.592 227.555L181.458 214.188L204.592 200.826V227.555Z" stroke="#C2C1C0" stroke-width="0.18" stroke-miterlimit="10"/>
<path d="M297.14 200.826L274 214.194L297.14 227.555V200.826Z" stroke="#C2C1C0" stroke-width="0.18" stroke-miterlimit="10"/>
<path d="M297.14 200.826L320.274 214.194L297.14 227.555V200.826Z" stroke="#C2C1C0" stroke-width="0.18" stroke-miterlimit="10"/>
<path d="M297.14 227.555L320.274 214.188L297.14 200.826V227.555Z" stroke="#C2C1C0" stroke-width="0.18" stroke-miterlimit="10"/>
<path d="M297.14 227.555L274 214.188L297.14 200.826V227.555Z" stroke="#C2C1C0" stroke-width="0.18" stroke-miterlimit="10"/>
<path d="M343.401 200.832L320.267 214.2L343.401 227.561V200.832Z" stroke="#C2C1C0" stroke-width="0.18" stroke-miterlimit="10"/>
<path d="M343.401 200.832L366.541 214.2L343.401 227.561V200.832Z" stroke="#C2C1C0" stroke-width="0.18" stroke-miterlimit="10"/>
<path d="M343.401 227.555L366.541 214.193L343.401 200.832V227.555Z" stroke="#C2C1C0" stroke-width="0.18" stroke-miterlimit="10"/>
<path d="M343.401 227.555L320.267 214.193L343.401 200.832V227.555Z" stroke="#C2C1C0" stroke-width="0.18" stroke-miterlimit="10"/>
<path d="M389.681 200.832L366.548 214.193L389.681 227.555V200.832Z" stroke="#C2C1C0" stroke-width="0.18" stroke-miterlimit="10"/>
<path d="M389.681 200.832L412.815 214.193L389.681 227.555V200.832Z" stroke="#C2C1C0" stroke-width="0.18" stroke-miterlimit="10"/>
<path d="M389.681 227.555L412.815 214.193L389.681 200.832V227.555Z" stroke="#C2C1C0" stroke-width="0.18" stroke-miterlimit="10"/>
<path d="M389.681 227.555L366.548 214.193L389.681 200.832V227.555Z" stroke="#C2C1C0" stroke-width="0.18" stroke-miterlimit="10"/>
<path d="M65.7767 227.555L88.9168 214.193L65.7767 200.832V227.555Z" stroke="#C2C1C0" stroke-width="0.18" stroke-miterlimit="10"/>
<path d="M250.866 227.555L227.732 214.193L250.866 200.832V227.555Z" stroke="#C2C1C0" stroke-width="0.18" stroke-miterlimit="10"/>
<path d="M250.866 200.832L274.006 214.193L250.866 227.555V200.832Z" stroke="#C2C1C0" stroke-width="0.18" stroke-miterlimit="10"/>
<path d="M135.19 374.537L112.05 387.899L135.19 401.26V374.537Z" stroke="#C2C1C0" stroke-width="0.18" stroke-miterlimit="10"/>
<path d="M135.191 374.537L158.324 387.899L135.191 401.26V374.537Z" stroke="#C2C1C0" stroke-width="0.18" stroke-miterlimit="10"/>
<path d="M181.458 374.537L158.324 387.899L181.458 401.26V374.537Z" stroke="#C2C1C0" stroke-width="0.18" stroke-miterlimit="10"/>
<path d="M181.458 374.537L204.598 387.899L181.458 401.26V374.537Z" stroke="#C2C1C0" stroke-width="0.18" stroke-miterlimit="10"/>
<path d="M181.458 401.26L204.598 387.899L181.458 374.537V401.26Z" stroke="#C2C1C0" stroke-width="0.18" stroke-miterlimit="10"/>
<path d="M181.458 401.26L158.324 387.899L181.458 374.537V401.26Z" stroke="#C2C1C0" stroke-width="0.18" stroke-miterlimit="10"/>
<path d="M274.006 374.537L250.866 387.899L274.006 401.26V374.537Z" stroke="#C2C1C0" stroke-width="0.18" stroke-miterlimit="10"/>
<path d="M274.006 374.537L297.14 387.899L274.006 401.26V374.537Z" stroke="#C2C1C0" stroke-width="0.18" stroke-miterlimit="10"/>
<path d="M274.006 401.26L297.14 387.899L274.006 374.537V401.26Z" stroke="#C2C1C0" stroke-width="0.18" stroke-miterlimit="10"/>
<path d="M274.006 401.26L250.866 387.899L274.006 374.537V401.26Z" stroke="#C2C1C0" stroke-width="0.18" stroke-miterlimit="10"/>
<path d="M320.267 374.543L297.133 387.904L320.267 401.266V374.543Z" stroke="#C2C1C0" stroke-width="0.18" stroke-miterlimit="10"/>
<path d="M320.267 374.543L343.407 387.904L320.267 401.266V374.543Z" stroke="#C2C1C0" stroke-width="0.18" stroke-miterlimit="10"/>
<path d="M320.267 401.266L343.407 387.904L320.267 374.543V401.266Z" stroke="#C2C1C0" stroke-width="0.18" stroke-miterlimit="10"/>
<path d="M320.267 401.266L297.133 387.904L320.267 374.543V401.266Z" stroke="#C2C1C0" stroke-width="0.18" stroke-miterlimit="10"/>
<path d="M412.821 374.537L389.681 387.899L412.821 401.26V374.537Z" stroke="#C2C1C0" stroke-width="0.18" stroke-miterlimit="10"/>
<path d="M366.547 374.537L343.414 387.899L366.547 401.26V374.537Z" stroke="#C2C1C0" stroke-width="0.18" stroke-miterlimit="10"/>
<path d="M366.548 374.537L389.681 387.899L366.548 401.26V374.537Z" stroke="#C2C1C0" stroke-width="0.18" stroke-miterlimit="10"/>
<path d="M366.548 401.26L389.681 387.899L366.548 374.537V401.26Z" stroke="#C2C1C0" stroke-width="0.18" stroke-miterlimit="10"/>
<path d="M366.547 401.26L343.414 387.899L366.547 374.537V401.26Z" stroke="#C2C1C0" stroke-width="0.18" stroke-miterlimit="10"/>
<path d="M227.732 401.26L204.598 387.899L227.732 374.537V401.26Z" stroke="#C2C1C0" stroke-width="0.18" stroke-miterlimit="10"/>
<path d="M227.732 374.537L250.866 387.899L227.732 401.26V374.537Z" stroke="#C2C1C0" stroke-width="0.18" stroke-miterlimit="10"/>
<path d="M112.05 387.899L135.19 374.537L112.05 361.176V387.899Z" stroke="#C2C1C0" stroke-width="0.18" stroke-miterlimit="10"/>
<path d="M112.051 387.899L88.9167 374.537L112.051 361.176V387.899Z" stroke="#C2C1C0" stroke-width="0.18" stroke-miterlimit="10"/>
<path d="M65.7828 387.898L88.9166 401.26L65.7828 414.621V387.898Z" stroke="#C2C1C0" stroke-width="0.18" stroke-miterlimit="10"/>
<path d="M65.7263 334.484L88.8601 347.846L65.7263 361.207V334.484Z" stroke="#C2C1C0" stroke-width="0.18" stroke-miterlimit="10"/>
<path d="M112.051 387.898L88.9167 401.26L112.051 414.621V387.898Z" stroke="#C2C1C0" stroke-width="0.18" stroke-miterlimit="10"/>
<path d="M88.9166 374.537L65.7828 387.899L88.9166 401.26V374.537Z" stroke="#C2C1C0" stroke-width="0.18" stroke-miterlimit="10"/>
<path d="M158.324 387.893L135.184 401.254L158.324 414.615V387.893Z" stroke="#C2C1C0" stroke-width="0.18" stroke-miterlimit="10"/>
<path d="M158.324 414.615L181.458 401.254L158.324 387.893V414.615Z" stroke="#C2C1C0" stroke-width="0.18" stroke-miterlimit="10"/>
<path d="M204.598 387.898L181.458 401.26L204.598 414.621V387.898Z" stroke="#C2C1C0" stroke-width="0.18" stroke-miterlimit="10"/>
<path d="M204.598 414.621L227.732 401.26L204.598 387.898V414.621Z" stroke="#C2C1C0" stroke-width="0.18" stroke-miterlimit="10"/>
<path d="M250.872 387.898L227.732 401.26L250.872 414.621V387.898Z" stroke="#C2C1C0" stroke-width="0.18" stroke-miterlimit="10"/>
<path d="M250.872 414.621L274.006 401.26L250.872 387.898V414.621Z" stroke="#C2C1C0" stroke-width="0.18" stroke-miterlimit="10"/>
<path d="M297.14 387.886L274.006 401.247L297.14 414.609V387.886Z" stroke="#C2C1C0" stroke-width="0.18" stroke-miterlimit="10"/>
<path d="M297.14 414.609L320.274 401.247L297.14 387.886V414.609Z" stroke="#C2C1C0" stroke-width="0.18" stroke-miterlimit="10"/>
<path d="M343.414 387.893L320.28 401.254L343.414 414.615V387.893Z" stroke="#C2C1C0" stroke-width="0.18" stroke-miterlimit="10"/>
<path d="M343.414 414.615L366.547 401.254L343.414 387.893V414.615Z" stroke="#C2C1C0" stroke-width="0.18" stroke-miterlimit="10"/>
<path d="M389.681 387.898L366.548 401.26L389.681 414.628V387.898Z" stroke="#C2C1C0" stroke-width="0.18" stroke-miterlimit="10"/>
<path d="M389.681 414.621L412.821 401.26L389.681 387.898V414.621Z" stroke="#C2C1C0" stroke-width="0.18" stroke-miterlimit="10"/>
<path d="M65.7767 361.176L88.9168 374.537L65.7767 387.899V361.176Z" stroke="#C2C1C0" stroke-width="0.18" stroke-miterlimit="10"/>
<path d="M88.9167 374.537L112.057 361.176L88.9167 347.814V374.537Z" stroke="#C2C1C0" stroke-width="0.18" stroke-miterlimit="10"/>
<path d="M88.9166 374.537L65.7828 361.176L88.9166 347.814V374.537Z" stroke="#C2C1C0" stroke-width="0.18" stroke-miterlimit="10"/>
<path d="M343.414 254.278L366.547 240.916L343.414 227.555V254.278Z" stroke="#C2C1C0" stroke-width="0.18" stroke-miterlimit="10"/>
<path d="M343.414 281.001L320.273 267.64L343.414 254.278V281.001Z" stroke="#C2C1C0" stroke-width="0.18" stroke-miterlimit="10"/>
<path d="M331.84 287.679L343.414 281.001L331.84 274.317V287.679Z" stroke="#C2C1C0" stroke-width="0.18" stroke-miterlimit="10"/>
<path d="M343.414 294.362L354.98 287.679L343.414 281.001V294.362Z" stroke="#C2C1C0" stroke-width="0.18" stroke-miterlimit="10"/>
<path d="M343.414 294.362L331.84 287.679L343.414 281.001V294.362Z" stroke="#C2C1C0" stroke-width="0.18" stroke-miterlimit="10"/>
<path d="M343.414 281.001L354.98 274.317L343.414 267.64V281.001Z" stroke="#C2C1C0" stroke-width="0.18" stroke-miterlimit="10"/>
<path d="M343.414 281.001L331.84 274.317L343.414 267.64V281.001Z" stroke="#C2C1C0" stroke-width="0.18" stroke-miterlimit="10"/>
<path d="M354.98 287.679L343.414 281.001L354.98 274.317V287.679Z" stroke="#C2C1C0" stroke-width="0.18" stroke-miterlimit="10"/>
<path d="M375.795 379.891L389.675 387.905L375.795 395.926V379.891Z" stroke="#C2C1C0" stroke-width="0.18" stroke-miterlimit="10"/>
<path d="M403.562 379.891L389.675 387.905L403.562 395.926V379.891Z" stroke="#C2C1C0" stroke-width="0.18" stroke-miterlimit="10"/>
<path d="M389.675 387.905L403.555 395.926L389.675 403.94V387.905Z" stroke="#C2C1C0" stroke-width="0.18" stroke-miterlimit="10"/>
<path d="M389.675 387.905L375.795 395.926L389.675 403.94V387.905Z" stroke="#C2C1C0" stroke-width="0.18" stroke-miterlimit="10"/>
<path d="M250.866 334.446L262.439 341.13L250.866 347.808V334.446Z" stroke="#C2C1C0" stroke-width="0.18" stroke-miterlimit="10"/>
<path d="M250.872 334.446L239.299 341.13L250.872 347.808V334.446Z" stroke="#C2C1C0" stroke-width="0.18" stroke-miterlimit="10"/>
<path d="M190.712 379.891L204.592 387.905L190.712 395.926V379.891Z" stroke="#C2C1C0" stroke-width="0.18" stroke-miterlimit="10"/>
<path d="M218.478 379.891L204.592 387.905L218.478 395.926V379.891Z" stroke="#C2C1C0" stroke-width="0.18" stroke-miterlimit="10"/>
<path d="M204.592 387.905L218.478 395.926L204.592 403.94V387.905Z" stroke="#C2C1C0" stroke-width="0.18" stroke-miterlimit="10"/>
<path d="M204.592 387.905L190.712 395.926L204.592 403.94V387.905Z" stroke="#C2C1C0" stroke-width="0.18" stroke-miterlimit="10"/>
<path d="M146.758 367.816L135.184 361.138L146.758 354.454V367.816Z" stroke="#C2C1C0" stroke-width="0.18" stroke-miterlimit="10"/>
<path d="M135.184 374.499L123.617 367.815L135.184 361.138V374.499Z" stroke="#C2C1C0" stroke-width="0.18" stroke-miterlimit="10"/>
<path d="M135.184 374.499L146.758 367.815L135.184 361.138V374.499Z" stroke="#C2C1C0" stroke-width="0.18" stroke-miterlimit="10"/>
<path d="M135.184 361.138L123.617 354.454L135.184 347.776V361.138Z" stroke="#C2C1C0" stroke-width="0.18" stroke-miterlimit="10"/>
<path d="M135.184 361.138L146.758 354.454L135.184 347.776V361.138Z" stroke="#C2C1C0" stroke-width="0.18" stroke-miterlimit="10"/>
<path d="M123.617 367.816L135.184 361.138L123.617 354.454V367.816Z" stroke="#C2C1C0" stroke-width="0.18" stroke-miterlimit="10"/>
<path d="M146.758 247.601L135.184 240.917L146.758 234.239V247.601Z" stroke="#C2C1C0" stroke-width="0.18" stroke-miterlimit="10"/>
<path d="M135.184 254.278L123.617 247.601L135.184 240.917V254.278Z" stroke="#C2C1C0" stroke-width="0.18" stroke-miterlimit="10"/>
<path d="M135.184 254.278L146.758 247.601L135.184 240.917V254.278Z" stroke="#C2C1C0" stroke-width="0.18" stroke-miterlimit="10"/>
<path d="M135.184 240.916L123.617 234.239L135.184 227.555V240.916Z" stroke="#C2C1C0" stroke-width="0.18" stroke-miterlimit="10"/>
<path d="M135.184 240.916L146.758 234.239L135.184 227.555V240.916Z" stroke="#C2C1C0" stroke-width="0.18" stroke-miterlimit="10"/>
<path d="M123.617 247.601L135.184 240.917L123.617 234.239V247.601Z" stroke="#C2C1C0" stroke-width="0.18" stroke-miterlimit="10"/>
</g>
</svg>
