<svg width="40" height="46" viewBox="0 0 40 46" fill="none" xmlns="http://www.w3.org/2000/svg">
<g clip-path="url(#clip0_813_145905)">
<path d="M19.875 22.9074L39.5865 11.7931L19.875 0.678711V22.9074Z" fill="#CCEBFB"/>
<path d="M39.5865 34.0226L19.875 22.9083L39.5865 11.7939V34.0226Z" fill="#CCEBFB"/>
<path d="M19.875 45.1379L39.5865 34.0235L19.875 22.9092V45.1379Z" fill="#2192D0"/>
<path d="M19.8749 45.1379L0.131836 34.0235L19.8749 22.9092V45.1379Z" fill="#94D6F4"/>
<path d="M19.8749 0.678711L0.131836 11.7931L19.8749 22.9074V0.678711Z" fill="#94D6F4"/>
<path d="M0.131836 11.7939L19.8749 22.9083L0.131836 34.0226V11.7939Z" fill="#94D6F4"/>
<path d="M10.0034 28.4639L19.8749 22.9087L10.0034 17.3535V28.4679V28.4639Z" fill="#045594"/>
<path d="M19.875 34.0215L29.7465 28.4663L19.875 22.9111V34.0255V34.0215Z" fill="#0E73BA"/>
<path d="M29.7465 28.4639L19.875 22.9087L29.7465 17.3535V28.4679V28.4639Z" fill="#2192D0"/>
<path d="M19.8749 34.0215L10.0034 28.4663L19.8749 22.9111V34.0255V34.0215Z" fill="#0E73BA"/>
<path d="M19.875 22.9082L29.7465 17.3531L19.875 11.7979V22.9122V22.9082Z" fill="#2192D0"/>
<path d="M19.8749 22.9082L10.0034 17.3531L19.8749 11.7979V22.9122V22.9082Z" fill="#045594"/>
</g>
<defs>
<clipPath id="clip0_813_145905">
<rect width="39.4545" height="44.4574" fill="white" transform="translate(0.131836 0.678711)"/>
</clipPath>
</defs>
</svg>
