<svg width="102" height="129" viewBox="0 0 102 129" fill="none" xmlns="http://www.w3.org/2000/svg">
<g clip-path="url(#clip0_813_145837)">
<path d="M76.2691 19.2129L51 64.6042L101.455 64.6912L76.2691 19.2129Z" fill="#2192D0"/>
<path d="M25.8145 19.2129L0.54541 64.6042H51L25.8145 19.2129Z" fill="#53C1EE"/>
<path d="M25.8145 19.2129H76.269L50.9999 64.6042L25.8145 19.2129Z" fill="#2192D0"/>
<path d="M51.0001 64.6045L25.731 109.996L76.1855 110.083L51.0001 64.6045Z" fill="#94D6F4"/>
<path d="M51 64.6045L101.455 64.6915L76.1854 110.083L51 64.6045Z" fill="#94D6F4"/>
<path d="M0.54541 64.6045H51L25.7309 109.996L0.54541 64.6045Z" fill="#045594"/>
<path d="M22.4675 0.517578V12.8654L12.1758 6.69149L22.4675 0.517578Z" fill="#53C1EE"/>
<path d="M79.7834 128.518V116.17L90.0752 122.344L79.7834 128.518Z" fill="#94D6F4"/>
</g>
<defs>
<clipPath id="clip0_813_145837">
<rect width="100.909" height="128" fill="white" transform="translate(0.54541 0.517578)"/>
</clipPath>
</defs>
</svg>
