<svg width="124" height="117" viewBox="0 0 124 117" fill="none" xmlns="http://www.w3.org/2000/svg">
<g clip-path="url(#clip0_813_145827)">
<path d="M56.5712 68.6836L28.2856 84.5533L56.5712 100.369V68.6836Z" fill="#CCEBFB"/>
<path d="M28.2856 52.8682L0 68.6839L28.2856 84.5536V52.8682Z" fill="#2192D0"/>
<path d="M28.2856 52.8682L56.5712 68.6839L28.2856 84.5536V52.8682Z" fill="#53C1EE"/>
<path d="M28.2856 84.5537L0 100.369L28.2856 116.185V84.5537Z" fill="#53C1EE"/>
<path d="M28.2856 84.5537L56.5712 100.369L28.2856 116.185V84.5537Z" fill="#2192D0"/>
<path d="M0 68.6836L28.2856 84.5533L0 100.369V68.6836Z" fill="#045594"/>
<path d="M62.1394 31.7081L90.3136 15.9463L62.1394 0.18457V31.7081Z" fill="#CCEBFB"/>
<path d="M90.3136 47.4698L62.1394 31.708L90.3136 15.9463V47.4698Z" fill="#CCEBFB"/>
<path d="M62.1394 63.2315L90.3136 47.4698L62.1394 31.708V63.2315Z" fill="#2192D0"/>
<path d="M62.1393 63.2315L33.9651 47.4698L62.1393 31.708V63.2315Z" fill="#94D6F4"/>
<path d="M62.1393 0.18457L33.9651 15.9463L62.1393 31.7081V0.18457Z" fill="#94D6F4"/>
<path d="M33.9651 15.9463L62.1393 31.708L33.9651 47.4698V15.9463Z" fill="#94D6F4"/>
<path d="M48.0522 39.5889L62.1394 31.708L48.0522 23.8271V39.5889Z" fill="#045594"/>
<path d="M62.1394 47.4698L76.2265 39.5889L62.1394 31.708V47.4698Z" fill="#0E73BA"/>
<path d="M76.2265 39.5889L62.1394 31.708L76.2265 23.8271V39.5889Z" fill="#2192D0"/>
<path d="M62.1394 47.4698L48.0522 39.5889L62.1394 31.708V47.4698Z" fill="#0E73BA"/>
<path d="M62.1394 31.708L76.2265 23.8272L62.1394 15.9463V31.708Z" fill="#2192D0"/>
<path d="M62.1394 31.708L48.0522 23.8272L62.1394 15.9463V31.708Z" fill="#045594"/>
<path d="M67.7073 68.6836L95.8815 84.4453L67.7073 100.207V68.6836Z" fill="#94D6F4"/>
<path d="M95.8816 52.9219L124 68.6836L95.8816 84.4454V52.9219Z" fill="#CCEBFB"/>
<path d="M124 68.6836L95.8816 84.4453L124 100.207V68.6836Z" fill="#045594"/>
<path d="M95.8815 52.9219L67.7073 68.6836L95.8815 84.4454V52.9219Z" fill="#CCEBFB"/>
<path d="M95.8816 84.4453L124 100.207L95.8816 115.969V84.4453Z" fill="#045594"/>
<path d="M95.8815 84.4453L67.7073 100.207L95.8815 115.969V84.4453Z" fill="#53C1EE"/>
</g>
<defs>
<clipPath id="clip0_813_145827">
<rect width="124" height="116" fill="white" transform="translate(0 0.18457)"/>
</clipPath>
</defs>
</svg>
