<svg width="140" height="122" viewBox="0 0 140 122" fill="none" xmlns="http://www.w3.org/2000/svg">
<g clip-path="url(#clip0_813_145832)">
<path d="M140 77.2295L100.794 99.4103L140 121.518V77.2295Z" fill="#CCEBFB"/>
<path d="M100.794 55.123L140 77.2304L100.794 99.4112V55.123Z" fill="#94D6F4"/>
<path d="M61.5129 77.2295L100.794 99.4103L61.5129 121.518V77.2295Z" fill="#045594"/>
<path d="M100.794 55.123L61.5129 77.2304L100.794 99.4112V55.123Z" fill="#2192D0"/>
<path d="M39.206 35.9531L0 58.0605L39.206 80.2412V35.9531Z" fill="#53C1EE"/>
<path d="M39.2061 35.9531L78.4121 58.0605L39.2061 80.2412V35.9531Z" fill="#94D6F4"/>
<path d="M0 58.0605L39.206 80.2413L0 102.349V58.0605Z" fill="#045594"/>
<path d="M68.7983 9.21847L74.131 0.18457L79.4636 9.21847H68.7983Z" fill="#CCEBFB"/>
<path d="M33.8735 31.3991L39.2062 22.3652L44.5388 31.3991H33.8735Z" fill="#CCEBFB"/>
<path d="M95.4614 49.32L100.794 40.2861L106.127 49.32H95.4614Z" fill="#CCEBFB"/>
<path d="M33.8735 96.2526L39.2062 87.2188L44.5388 96.2526H33.8735Z" fill="#CCEBFB"/>
</g>
<defs>
<clipPath id="clip0_813_145832">
<rect width="140" height="121.333" fill="white" transform="translate(0 0.18457)"/>
</clipPath>
</defs>
</svg>
