<svg width="142" height="81" viewBox="0 0 142 81" fill="none" xmlns="http://www.w3.org/2000/svg">
<path d="M106.528 40.7509L142 20.6342L106.528 0.517578V40.7509Z" fill="#0E73BA"/>
<path d="M142 60.8691L106.528 40.7524L142 20.6357V60.8691Z" fill="#0E73BA"/>
<path d="M106.528 80.9804L141.999 60.8637L106.528 40.7471V80.9804Z" fill="#045594"/>
<path d="M106.528 80.9804L71 60.8637L106.528 40.7471V80.9804Z" fill="#045594"/>
<path d="M106.528 0.517578L71 20.6342L106.528 40.7509V0.517578Z" fill="#2192D0"/>
<path d="M71 20.6357L106.528 40.7524L71 60.8691V20.6357Z" fill="#2192D0"/>
<path d="M35.5283 40.7509L70.9999 20.6342L35.5283 0.517578V40.7509Z" fill="#94D6F4"/>
<path d="M70.9999 60.8691L35.5283 40.7524L70.9999 20.6357V60.8691Z" fill="#94D6F4"/>
<path d="M35.5276 80.9804L70.9992 60.8637L35.5276 40.7471V80.9804Z" fill="#0E73BA"/>
<path d="M35.5284 80.9804L0 60.8637L35.5284 40.7471V80.9804Z" fill="#0E73BA"/>
<path d="M35.5284 0.517578L0 20.6342L35.5284 40.7509V0.517578Z" fill="#CCEBFB"/>
<path d="M0 20.6357L35.5284 40.7524L0 60.8691V20.6357Z" fill="#CCEBFB"/>
</svg>
