<svg width="41" height="39" viewBox="0 0 41 39" fill="none" xmlns="http://www.w3.org/2000/svg">
<g clip-path="url(#clip0_813_145921)">
<path d="M0.664062 26.3025L7.84084 13.6494L15.0176 26.3064H0.664062V26.3025Z" fill="#94D6F4"/>
<path d="M0.664062 0.992188L7.84084 13.6492L15.0216 0.992188H0.664062Z" fill="#045594"/>
<path d="M7.84082 13.6492L15.0215 0.992188L22.1983 13.6492H7.84082Z" fill="#94D6F4"/>
<path d="M7.84082 13.6494L15.0176 26.3064L22.1944 13.6494H7.84082Z" fill="#53C1EE"/>
<path d="M40.1182 13.6494L32.9414 26.3064L25.7883 13.6494H40.1182Z" fill="#53C1EE"/>
<path d="M40.1182 38.9873L32.9414 26.3066L25.7883 38.9873H40.1182Z" fill="#045594"/>
<path d="M32.9419 26.3027L25.7888 38.9834L18.6121 26.3027H32.9419Z" fill="#045594"/>
<path d="M32.9419 26.3016L25.7888 13.6445L18.6121 26.3016H32.9419Z" fill="#94D6F4"/>
</g>
<defs>
<clipPath id="clip0_813_145921">
<rect width="39.4545" height="37.9947" fill="white" transform="translate(0.664062 0.992188)"/>
</clipPath>
</defs>
</svg>
