<svg width="135" height="25" viewBox="0 0 135 25" fill="none" xmlns="http://www.w3.org/2000/svg">
<path d="M13.7417 6.19423C13.6428 6.17482 13.1383 6.09396 12.5445 6.09396C11.9506 6.09396 11.4494 6.17482 11.3472 6.19423C11.2866 6.20393 11.2674 6.14248 11.3057 6.11337C11.3472 6.08426 12.5413 5.15597 12.5413 5.15597C12.5413 5.15597 13.7385 6.08426 13.7769 6.11337C13.8184 6.14248 13.796 6.20393 13.7354 6.19423H13.7417ZM11.6633 12.1813C11.6633 12.1813 11.6026 12.2007 11.5835 12.2622C11.8357 12.4562 12.0049 12.9026 12.5285 12.9026C13.0521 12.9026 13.2213 12.453 13.4736 12.2622C13.4544 12.2007 13.3938 12.1813 13.3938 12.1813C13.3938 12.1813 13.0617 12.2622 12.5285 12.2622C11.9954 12.2622 11.6633 12.1813 11.6633 12.1813ZM12.5285 11.4374C12.3881 11.4374 12.3465 11.3856 12.2571 11.3856C12.1677 11.3856 11.9762 11.4665 11.9347 11.5279C11.9347 11.557 11.9538 11.5894 11.9762 11.6185C12.1869 11.6476 12.2891 11.7705 12.5285 11.7705C12.768 11.7705 12.8702 11.6476 13.0809 11.6185C13.1096 11.5894 13.1224 11.557 13.1224 11.5279C13.0809 11.4568 12.9021 11.3856 12.7999 11.3856C12.7105 11.3759 12.6786 11.4374 12.5285 11.4374ZM24.4501 13.7177C24.4309 14.0023 24.4086 14.2967 24.3798 14.5716C23.0325 14.7948 22.5504 13.5851 21.1616 13.6336C21.2414 13.9279 21.3116 14.2352 21.3627 14.5392C22.5089 14.5392 22.9623 15.6196 24.2393 15.4546C24.1691 15.7813 24.0893 16.108 23.9967 16.4314C22.991 16.5317 22.6398 15.5258 21.4745 15.5452C21.484 15.7198 21.484 15.8816 21.484 16.053C21.484 16.1436 21.484 16.2471 21.4745 16.3376C22.4706 16.3279 22.7899 17.253 23.7349 17.2142C23.6136 17.5409 23.4827 17.8546 23.3422 18.1716C22.659 18.1295 22.4259 17.2562 21.401 17.3274C21.3723 17.5506 21.3308 17.777 21.2797 18.0002C22.1737 17.9387 22.3652 18.7732 23.0102 18.8347C22.8505 19.1387 22.6685 19.4363 22.4866 19.7209C22.1034 19.5171 21.7714 18.8961 21.0594 18.8541C21.1297 18.6212 21.1999 18.3851 21.251 18.1522C20.6061 18.1522 19.8845 17.8967 19.2715 17.3371C19.4727 16.1856 17.7135 15.0244 17.7135 14.1802C17.7135 13.2746 18.1668 12.7635 18.1668 11.5312C18.1668 10.6158 17.7231 9.62605 17.0717 8.95327C16.9408 8.82065 16.8099 8.72037 16.6599 8.61687C17.2633 9.38021 17.7358 10.2762 17.7358 11.3274C17.7358 12.4886 17.2026 13.0999 17.2026 14.1673C17.2026 15.2347 18.7511 16.163 18.7511 17.2627C18.7511 17.6994 18.6106 18.1166 18.1668 18.9543C18.8596 19.6562 19.7664 20.0347 20.3475 20.0347C20.539 20.0347 20.638 19.9732 20.7082 19.8309C20.7689 19.6983 20.82 19.5657 20.8679 19.433C21.4904 19.4524 21.7842 20.0347 22.1258 20.2675C21.9342 20.5231 21.7331 20.7754 21.5224 21.0212C21.2925 20.756 20.9796 20.3193 20.5166 20.1964C20.4368 20.3581 20.3443 20.5134 20.2549 20.6751C20.6476 20.7883 20.9189 21.1829 21.1297 21.4481C20.9094 21.681 20.6667 21.9074 20.4273 22.1306C20.2772 21.8977 20.0346 21.5905 19.7728 21.419L19.4727 21.8169C19.7025 21.9689 19.8941 22.2535 20.025 22.48C19.744 22.7128 19.4535 22.9295 19.1502 23.1333C19.0001 21.901 17.3495 21.0665 17.7933 19.6401C17.6432 19.8956 17.4708 20.2093 17.4708 20.5878C17.4708 21.6163 18.5564 22.4411 18.6362 23.46C18.4159 23.5926 18.1828 23.7252 17.9433 23.8481C17.9018 22.7161 16.7557 21.4869 16.7557 20.5684C16.7557 19.5398 18.0934 18.5015 18.0934 17.2789C18.0934 16.0562 16.5545 15.212 16.5545 14.1414C16.5545 13.0708 17.209 12.4595 17.209 11.0848C17.209 10.0756 16.7365 9.0697 16.0118 8.41633C15.8808 8.30312 15.7596 8.21256 15.5999 8.13169C16.2832 8.96619 16.6854 9.71984 16.6854 10.8713C16.6854 12.1651 15.9319 12.8767 15.9319 14.1414C15.9319 15.4061 17.4389 16.108 17.4389 17.2789C17.4389 18.4498 16.0309 19.4492 16.0309 20.6589C16.0309 21.7587 17.2665 22.8584 17.2888 24.1619C17.0175 24.2848 16.7461 24.3948 16.4651 24.4886C16.6248 23.1754 15.2296 21.8104 15.2296 20.7301C15.2296 19.5592 16.6886 18.5403 16.6886 17.2789C16.6886 16.0174 15.2104 15.4255 15.2104 14.122C15.2104 12.8185 16.1267 12.094 16.1267 10.6578C16.1267 9.5387 15.5839 8.52954 14.7794 7.90851C14.7602 7.89881 14.7506 7.8794 14.7283 7.86646C14.658 7.80501 14.5878 7.87616 14.6485 7.94732C15.2104 8.65891 15.5137 9.38344 15.5137 10.4541C15.5137 11.7673 14.4697 12.8379 14.4697 14.1091C14.4697 15.6163 15.8777 16.0433 15.8777 17.2756C15.8777 18.508 14.3707 19.4945 14.3707 20.8109C14.3707 22.0239 15.7979 23.3759 15.5456 24.7732C15.2647 24.8444 14.9741 24.9155 14.6804 24.9673C14.9518 23.2271 13.5534 21.9624 13.5534 20.8207C13.5534 19.5883 15.1114 18.4789 15.1114 17.2756C15.1114 16.0724 13.994 15.7684 13.8439 14.5975C13.8248 14.4358 13.6939 14.3225 13.5215 14.3517C13.2916 14.3937 12.9979 14.5457 12.5477 14.5457C12.0975 14.5457 11.8038 14.3937 11.5739 14.3517C11.4015 14.3225 11.2738 14.4422 11.2515 14.5975C11.1014 15.7684 9.98393 16.1339 9.98393 17.2756C9.98393 18.4886 11.542 19.5883 11.542 20.8207C11.542 21.9624 10.1436 23.2142 10.415 24.9673C10.1244 24.9155 9.83069 24.8444 9.54973 24.7732C9.30709 23.3662 10.7247 22.0239 10.7247 20.8109C10.7247 19.4977 9.21772 18.508 9.21772 17.2756C9.21772 16.0433 10.6257 15.6163 10.6257 14.1091C10.6257 12.8347 9.58165 11.7673 9.58165 10.4541C9.58165 9.38344 9.88179 8.66215 10.4469 7.94732C10.498 7.87616 10.4373 7.81471 10.3671 7.86646C10.3479 7.87616 10.3383 7.89557 10.316 7.90851C9.52101 8.52954 8.96868 9.5387 8.96868 10.6578C8.96868 12.094 9.88498 12.8185 9.88498 14.122C9.88498 15.4255 8.40676 16.0174 8.40676 17.2789C8.40676 18.5403 9.86581 19.5592 9.86581 20.7301C9.86581 21.8104 8.46741 23.1657 8.63023 24.4886C8.34928 24.3883 8.07791 24.2848 7.80653 24.1619C7.82569 22.8584 9.06444 21.7587 9.06444 20.6589C9.06444 19.446 7.65648 18.4595 7.65648 17.2789C7.65648 16.0983 9.16343 15.4061 9.16343 14.1414C9.16343 12.8767 8.40996 12.1651 8.40996 10.8713C8.40996 9.71984 8.81224 8.96619 9.49548 8.13169C9.34542 8.21256 9.21451 8.30636 9.08361 8.41633C8.35887 9.0697 7.88635 10.0853 7.88635 11.0848C7.88635 12.4595 8.54087 13.0708 8.54087 14.1414C8.54087 15.212 7.00196 16.0562 7.00196 17.2789C7.00196 18.5015 8.33973 19.5301 8.33973 20.5684C8.33973 21.4967 7.19352 22.729 7.15201 23.8481C6.92214 23.7252 6.6891 23.6023 6.45922 23.46C6.54862 22.4314 7.63411 21.6163 7.63411 20.5878C7.63411 20.2093 7.4617 19.8956 7.31165 19.6401C7.75543 21.0665 6.10481 21.9107 5.95475 23.1333C5.65464 22.9295 5.36091 22.7161 5.07995 22.48C5.21085 22.2568 5.41199 21.9721 5.63228 21.8169C5.53331 21.6842 5.42159 21.5613 5.33219 21.419C5.06081 21.5808 4.83092 21.888 4.67767 22.1306C4.43503 21.9171 4.19559 21.681 3.97529 21.4481C4.18601 21.1829 4.45739 20.7754 4.85009 20.6751C4.76069 20.5231 4.66812 20.3581 4.5883 20.1964C4.12536 20.3193 3.81566 20.756 3.5826 21.0212C3.37188 20.7754 3.17073 20.5328 2.97917 20.2675C3.33037 20.0347 3.61132 19.4622 4.24666 19.433C4.29775 19.5657 4.35841 19.6983 4.4063 19.8309C4.47654 19.9829 4.57871 20.0347 4.76708 20.0347C5.35134 20.0347 6.25486 19.6465 6.94767 18.9543C6.49431 18.1198 6.36342 17.7026 6.36342 17.2627C6.36342 16.163 7.91188 15.2347 7.91188 14.1673C7.91188 13.0999 7.37872 12.4853 7.37872 11.3274C7.37872 10.2794 7.84166 9.38344 8.45466 8.61687C8.3046 8.70743 8.17369 8.82065 8.04279 8.95327C7.37871 9.62605 6.94767 10.6223 6.94767 11.5312C6.94767 12.7635 7.40105 13.2616 7.40105 14.1802C7.40105 15.0244 5.64187 16.1856 5.84301 17.3371C5.23002 17.9064 4.4957 18.1522 3.85397 18.1522C3.91463 18.3851 3.97528 18.6212 4.04552 18.8541C3.32078 18.8961 2.98875 19.5171 2.6184 19.7209C2.42683 19.4363 2.25762 19.1419 2.09479 18.8347C2.73971 18.7635 2.9281 17.929 3.82525 18.0002C3.77416 17.777 3.73585 17.5506 3.70392 17.3274C2.66949 17.2562 2.43639 18.1425 1.76274 18.1716C1.62226 17.8546 1.49136 17.5409 1.37004 17.2142C2.31508 17.2562 2.63756 16.3279 3.62091 16.3376V16.053C3.62091 15.8783 3.6305 15.7166 3.6305 15.5452C2.46516 15.5161 2.11396 16.5317 1.10826 16.4314C1.01886 16.1145 0.935847 15.791 0.865607 15.4546C2.13311 15.6163 2.59605 14.5263 3.74223 14.5392C3.79331 14.2352 3.86356 13.9279 3.94337 13.6336C2.55455 13.5721 2.07243 14.7948 0.725108 14.5716C0.683603 14.287 0.664447 14.0023 0.645291 13.7177C2.21291 13.8923 2.80674 12.5856 4.23388 12.7506C4.36478 12.4045 4.52445 12.0681 4.70643 11.7414C2.91852 11.4244 2.30233 12.9446 0.635742 12.7085C0.776221 6.191 6.05375 0.967285 12.5285 0.967285C19.0033 0.967285 24.2809 6.19099 24.4597 12.7214C22.7899 12.9543 22.1769 11.4374 20.389 11.7543C20.571 12.081 20.721 12.4174 20.8615 12.7635C22.2886 12.5888 22.8729 13.9053 24.4501 13.7209V13.7177ZM7.40105 8.64922C6.52625 8.28373 5.45991 8.37429 4.5468 8.9662C4.40632 8.11229 3.94336 7.34572 3.28885 6.88966C3.19946 6.8282 3.10689 6.88965 3.10689 6.98992C3.24737 8.80124 2.20336 10.37 0.916701 11.7576C2.24486 12.1651 3.36867 10.4347 5.07995 11.0331C5.71211 10.1047 6.49752 9.29289 7.40105 8.64922ZM12.5285 7.5592C11.4239 7.5592 10.4884 8.18993 10.2458 9.01472C10.2266 9.07618 10.2553 9.11499 10.3256 9.08587C10.5267 8.99531 10.747 8.95327 10.9992 8.95327C11.4526 8.95327 11.8549 9.12793 12.0848 9.41256C12.1837 9.75865 12.1965 10.2665 12.0752 10.5544C11.8932 10.5123 11.823 10.37 11.6442 10.37C11.4654 10.37 11.3217 10.5026 11.012 10.5026C10.7023 10.5026 10.6704 10.3506 10.4692 10.3506C10.2266 10.3506 10.1883 10.5964 10.1883 10.881C10.1883 12.1328 11.3249 13.8535 12.5317 13.8535C13.7386 13.8535 14.8752 12.1328 14.8752 10.881C14.8752 10.5964 14.8145 10.3603 14.575 10.3312C14.4537 10.4217 14.3324 10.5058 14.0514 10.5058C13.7385 10.5058 13.6588 10.3732 13.48 10.3732C13.2597 10.3732 13.2788 10.8422 13.017 10.8713C12.8446 10.4541 12.835 9.9042 12.9755 9.42549C13.2054 9.13115 13.6077 8.9662 14.061 8.9662C14.3037 8.9662 14.5335 9.00826 14.7347 9.09883C14.8049 9.12794 14.8336 9.08911 14.8145 9.02766C14.5718 8.19315 13.6396 7.56244 12.5317 7.56244L12.5285 7.5592ZM14.3005 9.35434C14.0291 9.35434 13.729 9.43521 13.5279 9.65839C13.5087 9.71984 13.5087 9.81041 13.5374 9.86216C14.0195 9.70044 14.4409 9.6875 14.6549 9.92362C14.7666 9.82335 14.7954 9.72954 14.7954 9.62927C14.7954 9.46754 14.6229 9.35434 14.3037 9.35434H14.3005ZM10.4245 9.92362C10.6544 9.69073 11.1493 9.70044 11.6506 9.88157C11.6697 9.62604 11.2195 9.34141 10.7662 9.34141C10.4341 9.34141 10.2745 9.45461 10.2745 9.61634C10.2841 9.72954 10.316 9.82011 10.4245 9.92038V9.92362ZM18.0647 5.68317C17.1899 5.74463 16.4268 6.04868 15.8138 6.55973C16.0756 5.80609 16.4077 5.15273 16.8291 4.522C15.7117 4.64491 14.789 5.05245 14.1057 5.76404L13.5725 4.34734L14.7475 3.28965L13.1703 3.17643L12.5381 1.68857L11.9059 3.17643L10.3288 3.28965L11.5037 4.34734L10.9705 5.76404C10.2873 5.06215 9.36138 4.64491 8.24712 4.522C8.66856 5.15273 9.00058 5.81579 9.26238 6.55973C8.64938 6.05191 7.88635 5.74463 7.01155 5.68317C7.53515 6.36565 7.99808 7.0999 8.34927 7.88265C8.39078 7.97322 8.47061 8.00555 8.56 7.9538C9.75727 7.35218 11.1046 7.00609 12.5413 7.00609C13.978 7.00609 15.3158 7.34248 16.5226 7.9538C16.612 8.00555 16.695 7.97322 16.7333 7.88265C17.0749 7.0999 17.5475 6.36565 18.0711 5.68317H18.0647ZM19.9803 11.0298C21.698 10.4282 22.825 12.1489 24.1531 11.7543C22.8665 10.37 21.8225 8.80124 21.9629 6.98669C21.9725 6.88642 21.8736 6.82496 21.7906 6.88642C21.1361 7.34572 20.6731 8.10905 20.5326 8.96296C19.6291 8.37105 18.5627 8.29019 17.6784 8.64599C18.5819 9.28642 19.3577 10.1015 19.9803 11.0298Z" fill="black"/>
<path d="M99.7129 14.3906C99.7034 17.7966 97.9091 19.6208 94.5568 19.6208C91.2044 19.6208 89.4165 17.7448 89.4229 14.4262L89.442 8.39062H93.136L93.1264 14.2321C93.12 15.8526 93.5351 16.5674 94.5312 16.5642C95.5273 16.5642 96.0063 15.9205 96.0126 14.0672L96.0286 8.39062H99.7289L99.7129 14.3939V14.3906Z" fill="black"/>
<path d="M46.6888 11.1757L46.6664 19.3913H42.9246L42.9501 11.1757H39.8213L39.8308 8.38428L49.8208 8.38752L49.8145 11.1789L46.6888 11.1757Z" fill="black"/>
<path d="M56.1129 10.8943L55.1838 14.6657H57.0452L56.1129 10.8943ZM58.4947 19.3881L57.8721 17.3697H54.3633L53.6992 19.3881H49.9766L53.7854 8.38428H58.5106L62.2205 19.3881H58.4979H58.4947Z" fill="black"/>
<path d="M111.694 18.5402L110.58 15.6842C109.919 16.2082 109.252 16.6836 108.166 16.6804C106.701 16.6804 105.724 15.4028 105.73 13.847C105.73 12.2653 106.596 10.9456 108.125 10.9424C109.086 10.9392 109.926 11.4502 110.596 12.0163L111.704 9.22487C110.471 8.56504 109.239 8.17042 107.541 8.17042C104.396 8.16395 102.008 10.4475 101.998 13.8146C101.985 17.3693 104.297 19.6173 107.611 19.6173C109.434 19.6173 110.717 19.171 111.694 18.5402Z" fill="black"/>
<path d="M120.09 19.3915L117.763 15.3839L117.75 19.3979L114.12 19.3915L114.152 8.3877H117.782L117.769 12.4211L119.972 8.39093H124.024L120.601 13.8152L124.436 19.3947L120.09 19.3915Z" fill="black"/>
<path d="M33.5617 19.6143C35.9179 19.6143 38.3571 18.7248 38.3635 15.9108C38.3763 13.3717 36.3361 12.6796 34.7526 12.3108C33.5585 12.0424 32.9774 11.9097 32.9838 11.3987C32.9838 10.7291 33.7947 10.6742 34.2226 10.6742C35.2985 10.6774 36.301 11.1432 37.1662 11.6963L38.14 9.18952C36.8725 8.61378 35.3432 8.15771 33.9065 8.15771C31.4641 8.15771 29.5485 9.40624 29.5453 11.9227C29.5357 13.9863 31.0075 14.7787 32.639 15.2089C33.7628 15.5033 34.4844 15.5971 34.4812 16.1825C34.4812 16.7744 33.9288 16.9491 33.3893 16.9491C32.1984 16.9491 31.0714 16.4057 30.3754 15.7653L29.1973 18.1976C30.4584 19.0677 32.0005 19.6143 33.5585 19.6143" fill="black"/>
<path d="M129.928 19.6169C132.285 19.6169 134.727 18.7307 134.733 15.9167C134.74 13.3743 132.706 12.6822 131.119 12.3199C129.922 12.0482 129.347 11.9188 129.35 11.4078C129.354 10.7318 130.158 10.6832 130.589 10.68C131.665 10.68 132.668 11.149 133.53 11.7118L134.51 9.20184C133.239 8.6261 131.703 8.16681 130.276 8.16357C127.831 8.17004 125.918 9.4121 125.912 11.9285C125.905 13.9954 127.38 14.7911 129.006 15.218C130.129 15.5124 130.854 15.5964 130.851 16.1948C130.851 16.7835 130.299 16.9582 129.762 16.9582C128.575 16.9582 127.448 16.4115 126.745 15.7711L125.57 18.2035C126.828 19.0703 128.377 19.6169 129.928 19.6169Z" fill="black"/>
<path d="M72.0805 15.2801C73.3512 14.7885 74.044 13.4267 74.0472 12.1621C74.0568 9.56798 72.3838 8.3874 70.0053 8.39063H64.3989L64.3701 19.3912H67.9651L67.9747 16.1276H68.8846L70.7427 19.3912H74.6283L72.0773 15.2801H72.0805ZM70.4044 12.1782C70.4012 12.8995 69.9701 13.32 69.2614 13.32H67.9811L67.9875 11.0203H69.2805C69.9638 11.0203 70.4044 11.3922 70.4012 12.1459V12.1815L70.4044 12.1782Z" fill="black"/>
<path d="M84.6922 13.7731C86.0427 13.4658 86.7068 12.6605 86.7131 11.3182C86.7227 9.44214 85.3978 8.3877 83.0639 8.3877H77.1446L77.1191 19.3979H82.8021C85.5446 19.3882 86.9175 18.3661 86.9207 16.2896C86.9207 14.8567 86.0715 13.8896 84.6922 13.7731ZM80.7013 10.7748H82.0039C82.6903 10.7683 83.1405 11.0853 83.1405 11.7322V11.7613C83.1405 12.3726 82.7032 12.7316 81.9848 12.7316H80.6981L80.7045 10.7748H80.7013ZM83.1789 15.9855C83.1789 16.6292 82.7318 17.0076 82.0007 17.0044H80.6854L80.6918 14.944H82.0231C82.7255 14.944 83.1821 15.2772 83.1853 15.9532L83.1789 15.9823V15.9855Z" fill="black"/>
</svg>
