<svg width="80" height="16" viewBox="0 0 80 16" fill="none" xmlns="http://www.w3.org/2000/svg">
<path d="M70.6044 7.33699H70.2015V4.89781H70.6477C71.6454 4.89781 72.5151 5.02749 72.5151 6.13552C72.5151 7.24354 71.5607 7.33699 70.6044 7.33699ZM76.0804 10.6725C75.7623 10.2529 75.2239 9.89441 75.1034 9.81622C74.9848 9.73421 75.1034 9.69989 75.1034 9.69989C77.2682 9.05338 78.2038 8.13798 78.2038 5.96198C78.2038 2.3404 75.1467 0.967285 71.5381 0.967285H64.5128V15.3449H70.2015V10.7297C70.2015 10.7297 70.2392 10.5676 70.3446 10.7297L72.8539 15.3449H79.563L76.0804 10.6725ZM57.0695 10.005H61.5498V6.26902H57.0695V4.8959H61.9752V0.967285H51.2114V15.3449H62.1427V11.4163H57.0695V10.005ZM41.8876 7.50672C41.6541 8.21426 41.4847 9.76282 41.4847 9.76282C41.4603 9.87725 41.3191 9.88488 41.2795 9.76282C41.2795 9.76282 41.1101 8.21426 40.8767 7.50672L38.7533 0.967285H32.6824L38.8813 15.3449H43.8058L50.0028 0.967285H43.9319L41.8876 7.50672ZM25.3126 10.1385L26.0731 7.22257C26.2369 6.62946 26.3479 5.78271 26.3479 5.78271C26.3724 5.65303 26.5512 5.65302 26.5814 5.79033C26.6171 5.98867 26.7056 6.60085 26.875 7.20922L27.6487 10.1404H25.3126V10.1385ZM23.2118 0.967285L17.6491 15.3449H23.8085L24.2716 13.5522H28.669L29.198 15.3449H35.3536L29.6441 0.967285H23.2118ZM10.9853 5.27732C10.9853 7.19777 11.2394 7.73557 11.4747 8.93705C11.4747 8.93705 11.4559 9.14683 11.3053 8.93705C11.1547 8.72917 6.08335 0.967285 6.08335 0.967285H0.5V15.3449H6.05888V10.6744C6.05888 8.95421 5.88946 8.78639 5.69933 7.7947C5.69933 7.7947 5.72192 7.59064 5.86875 7.7947C6.01747 7.99685 10.9853 15.3449 10.9853 15.3449H16.546V0.967285H10.9853V5.27732Z" fill="black"/>
</svg>
