<svg width="77" height="25" viewBox="0 0 77 25" fill="none" xmlns="http://www.w3.org/2000/svg">
<path d="M4.60217 23.8712C5.3696 24.1388 6.17479 24.279 6.99255 24.2663C10.5907 24.2663 13.0943 21.6279 13.0943 16.6062V1.63006L14.4656 0.967285V16.8611C14.4656 21.9848 11.8614 24.9673 8.16257 24.9673C6.87932 24.9673 5.64638 24.5849 4.60217 23.8712ZM3.02956 22.3417C3.85989 22.6221 4.69024 22.8005 5.41994 22.8005C8.43935 22.8005 10.4523 20.8759 10.4523 16.5424V2.77716L11.7984 2.12714V16.6572C11.7984 21.1946 9.52131 23.527 6.3635 23.527C5.20606 23.527 4.02345 23.0937 3.02956 22.3417ZM2.08599 20.9907C2.72761 21.2073 3.40698 21.322 4.08635 21.3475C6.43898 21.3475 7.88579 20.0475 7.88579 16.6189V3.92428L9.20678 3.27425V16.4022C9.20678 20.2514 7.47063 21.9848 4.97961 21.9848C3.92282 21.9976 2.90375 21.6407 2.08599 20.9907ZM6.6277 16.9885V4.45959L0.802734 7.12342V17.2944C0.802734 19.2318 2.01052 20.5318 3.78442 20.5318C5.55833 20.5318 6.6277 19.2063 6.6277 16.9885ZM21.9512 4.4341V9.099C21.9512 10.8197 22.9577 12.1707 24.8826 12.1707C26.5307 12.1707 27.7762 10.9344 27.7762 9.06076V4.54881C27.7636 4.05173 28.141 3.63112 28.6317 3.61837H28.6443L28.8204 3.60564V3.15954H25.9268V3.60564L26.1155 3.61837C26.6062 3.63112 26.9962 4.03899 26.9836 4.53607V8.92056C26.9836 10.3481 26.2539 11.2148 25.109 11.2148C23.9642 11.2148 23.2722 10.2971 23.2722 8.90781V4.42135C23.2722 3.93702 23.5364 3.64386 24.0774 3.61837L24.2535 3.60564V3.15954H20.9573V3.60564L21.1461 3.61837C21.687 3.66936 21.9512 3.93702 21.9512 4.4341ZM25.8639 14.4012L26.0526 14.4139C26.5181 14.4394 26.8578 14.6306 26.8578 15.1532V17.8935H23.5993V15.1532C23.5993 14.6178 23.9516 14.4522 24.4045 14.4139L24.5806 14.4012V13.9551H21.2845V14.4012L21.4732 14.4139C21.9386 14.4394 22.2783 14.6306 22.2783 15.1532V21.577C22.2783 22.1123 21.9261 22.2907 21.4732 22.3162L21.2845 22.3289V22.775H24.5806V22.3289L24.4045 22.3162C23.939 22.278 23.5993 22.0995 23.5993 21.577V18.5817H26.8452V21.577C26.8452 22.1123 26.4929 22.2907 26.04 22.3162L25.8513 22.3289V22.775H29.1475V22.3289L28.9714 22.3162C28.5185 22.278 28.1662 22.0995 28.1662 21.577V15.1532C28.1662 14.6178 28.5185 14.4522 28.9714 14.4139L29.1475 14.4012V13.9551H25.8639V14.4012ZM28.8204 5.75964V6.18024L29.072 6.19299C29.4494 6.21848 29.6885 6.40967 29.6885 6.93224V10.8069C29.6885 11.3295 29.4243 11.5207 29.0091 11.5462L28.8204 11.5589V11.9923H31.7643V11.5589L31.5882 11.5462C31.1604 11.5207 30.9088 11.3295 30.9088 10.8069V8.74212C30.934 7.22539 31.5756 6.32045 32.3431 6.32045C32.9218 6.32045 33.3118 6.72831 33.3118 7.50579V10.7942C33.3118 11.3167 33.0476 11.5079 32.6324 11.5334L32.4437 11.5462V11.9795H35.3876V11.5462L35.2115 11.5334C34.7838 11.5079 34.5321 11.3167 34.5321 10.7942V7.35284C34.5321 6.37143 33.9408 5.55571 32.7582 5.55571C31.9279 5.55571 31.1982 6.06554 30.9214 6.95773V5.5812L28.8204 5.75964ZM45.8172 12.1197C47.0753 12.1197 47.7798 11.253 48.0692 10.2716L47.5282 10.1186C47.2766 10.7942 46.8488 11.3295 45.9807 11.3295C44.9743 11.3295 44.2949 10.3608 44.2949 8.81859H48.1572V8.44897C48.1572 6.83027 47.2137 5.51748 45.6914 5.51748C44.0684 5.51748 42.9865 7.09793 42.9865 8.81859C42.9865 10.5392 44.0307 12.1197 45.8172 12.1197ZM45.6788 6.23123C46.3582 6.23123 46.7985 6.88125 46.8488 8.19405H44.3075C44.4333 6.98322 44.9365 6.23123 45.6788 6.23123ZM39.7029 10.5775C39.7029 11.5589 40.2816 12.1197 41.2252 12.1197C42.0932 12.1197 42.672 11.4697 42.9236 10.552L42.4707 10.4245C42.2946 10.9599 42.0052 11.2785 41.6152 11.2785C41.0868 11.2785 40.9232 10.8961 40.9232 10.4373V6.35869H42.6216V5.70866H40.9232V3.77133H40.3068C40.0677 5.23707 39.338 5.75965 38.5706 5.92534V6.37144H39.7155L39.7029 10.5775ZM37.0986 4.57429C37.5515 4.56155 37.9038 4.16644 37.8912 3.7076C37.8787 3.27425 37.5264 2.93011 37.0986 2.90462C36.6583 2.90462 36.306 3.27424 36.306 3.72034C36.2809 4.19193 36.6331 4.56155 37.0986 4.57429C37.0902 4.57429 37.0902 4.57429 37.0986 4.57429ZM36.5199 6.93224V10.8069C36.5199 11.3295 36.2557 11.5207 35.8405 11.5462L35.6518 11.5589V11.9923H38.5958V11.5589L38.4196 11.5462C37.9919 11.5207 37.7403 11.3295 37.7403 10.8069V5.59395L35.5889 5.75964V6.18024L35.9034 6.19299C36.2809 6.19299 36.5199 6.39692 36.5199 6.93224ZM51.3276 12.1197C52.1454 12.1197 52.787 11.6864 53.0512 10.9599V11.9923H55.1271V11.5716L54.9509 11.5589C54.5232 11.5334 54.2715 11.3422 54.2715 10.8197V3.00659L52.158 3.19777V3.61837L52.4347 3.63112C52.8122 3.64387 53.0512 3.8478 53.0512 4.37037V6.63909C52.7744 5.93808 52.1454 5.51748 51.3276 5.51748C49.7047 5.51748 48.7737 7.09793 48.7737 8.81859C48.7737 10.5392 49.6921 12.1197 51.3276 12.1197ZM51.5289 6.23123C52.4473 6.23123 53.0512 7.23814 53.0512 8.80585C53.0512 10.3736 52.4599 11.3805 51.5289 11.3805C50.6609 11.3805 50.0821 10.3863 50.0821 8.80585C50.0821 7.22539 50.6609 6.23123 51.5289 6.23123ZM69.8215 16.3258C69.1044 16.3258 68.4754 16.8101 68.2112 17.664V16.3767L66.1228 16.5424V16.963L66.3744 16.9758C66.7518 17.0013 66.9908 17.1925 66.9908 17.715V21.5897C66.9908 22.125 66.7392 22.3035 66.3115 22.3289L66.1228 22.3417V22.775H69.0667V22.3417L68.8906 22.3289C68.4628 22.3035 68.2112 22.1123 68.2112 21.5897V19.4739C68.2364 17.9062 68.9031 16.9121 69.7335 16.9121C69.8844 16.8993 70.0354 16.963 70.1487 17.0778C69.9348 17.1925 69.7964 17.4219 69.7964 17.664C69.7964 18.0337 70.0857 18.3268 70.4506 18.3268C70.8154 18.3268 71.1048 18.0209 71.1048 17.6003C71.1048 16.8228 70.5135 16.3258 69.8215 16.3258ZM73.8223 16.3003C72.1993 16.3003 71.1174 17.868 71.1174 19.6014C71.1174 21.3348 72.1616 22.9025 73.9481 22.9025C75.2062 22.9025 75.9107 22.0358 76.2001 21.0544L75.6591 20.9014C75.4075 21.577 74.9797 22.1123 74.1116 22.1123C73.1052 22.1123 72.4258 21.1436 72.4258 19.6014H76.2881V19.2318C76.2881 17.6131 75.3446 16.3003 73.8223 16.3003ZM72.4384 18.9769C72.5642 17.7533 73.0548 17.014 73.8097 17.014C74.4891 17.014 74.9294 17.6641 74.9797 18.9769H72.4384ZM65.066 21.7299V18.4415C65.066 17.0905 64.2356 16.3003 62.8266 16.3003C61.6188 16.3003 60.5494 17.1032 60.5494 18.0209C60.5368 18.3906 60.8262 18.6964 61.191 18.6964C61.5559 18.6964 61.8578 18.416 61.8578 18.0464C61.8578 17.8043 61.732 17.5748 61.5182 17.4601C61.7446 17.1415 62.1346 16.9503 62.6253 16.9503C63.3927 16.9503 63.8456 17.5238 63.8456 18.4925V18.7857L62.0088 19.5631C60.7759 20.073 60.3607 20.5318 60.3607 21.3475C60.3607 22.2907 61.0275 22.8898 62.0843 22.8898C62.8643 22.8898 63.5563 22.3927 63.833 21.6534V21.8446C63.833 22.4946 64.286 22.877 65.0282 22.877C65.2924 22.877 65.5566 22.8388 65.8082 22.7623V22.3417C65.2924 22.4054 65.066 22.2015 65.066 21.7299ZM63.8456 20.3024C63.7827 21.4113 63.2417 22.1505 62.4743 22.1505C61.9333 22.1505 61.5811 21.7681 61.5811 21.1946C61.5811 20.6848 61.8578 20.2769 62.3737 20.0475L63.8456 19.3847V20.3024ZM47.6163 21.2073C47.4401 21.7299 47.1634 22.0613 46.7608 22.0613C46.2324 22.0613 46.0688 21.6789 46.0688 21.2201V17.1415H47.7672V16.4915H46.0688V14.5541H45.4524C45.2133 16.0199 44.4836 16.5424 43.7162 16.7081V17.1542H44.861V21.3603C44.861 22.3417 45.4398 22.9025 46.3833 22.9025C47.2514 22.9025 47.8301 22.2525 48.0818 21.3348L47.6163 21.2073ZM39.728 21.7299V18.4415C39.728 17.0905 38.8977 16.3003 37.4886 16.3003C36.2809 16.3003 35.2115 17.1032 35.2115 18.0209C35.1989 18.3906 35.4883 18.6964 35.8531 18.6964C36.218 18.6964 36.5199 18.416 36.5199 18.0464C36.5199 17.8043 36.3941 17.5748 36.1802 17.4601C36.4067 17.1415 36.7967 16.9503 37.2873 16.9503C38.0548 16.9503 38.5077 17.5238 38.5077 18.4925V18.7857L36.6709 19.5631C35.438 20.073 35.0228 20.5318 35.0228 21.3475C35.0228 22.2907 35.6896 22.8898 36.7464 22.8898C37.5264 22.8898 38.2183 22.3927 38.4951 21.6534V21.8446C38.4951 22.4946 38.948 22.877 39.6903 22.877C39.9545 22.877 40.2187 22.8388 40.4703 22.7623V22.3417C39.9671 22.4054 39.728 22.2015 39.728 21.7299ZM38.5203 20.3024C38.4574 21.4113 37.9164 22.1505 37.149 22.1505C36.608 22.1505 36.2557 21.7681 36.2557 21.1946C36.2557 20.6848 36.5325 20.2769 37.0483 20.0475L38.5203 19.3847V20.3024ZM57.8949 22.0995C56.8884 22.0995 56.209 21.1309 56.209 19.5886C56.209 18.0464 56.8758 17.0268 57.8823 17.0268C58.3352 17.0268 58.6749 17.1797 58.8887 17.4601C58.7 17.5876 58.5742 17.8043 58.5742 18.0337C58.5742 18.4033 58.8636 18.6964 59.2284 18.6964C59.5933 18.6964 59.8826 18.3905 59.8826 17.9699C59.8826 17.218 59.1404 16.2875 57.8068 16.2875C55.9574 16.2875 54.888 17.8552 54.888 19.5886C54.888 21.322 55.9322 22.8898 57.7187 22.8898C58.9517 22.8898 59.6436 22.0613 59.9204 21.1181L59.3794 20.9524C59.1529 21.6024 58.7378 22.0995 57.8949 22.0995ZM42.8733 21.5897V13.8021L40.7597 13.9806V14.4012L41.0365 14.4139C41.4139 14.4267 41.6529 14.6306 41.6529 15.1532V21.5897C41.6529 22.125 41.3887 22.3035 40.9735 22.3289L40.7848 22.3417V22.775H43.7288V22.3544L43.5526 22.3417C43.1375 22.3035 42.8733 22.1123 42.8733 21.5897ZM53.7683 21.5897V18.1484C53.7683 17.167 53.177 16.3513 51.9944 16.3513C51.1641 16.3513 50.4344 16.8483 50.1576 17.7533V13.8021L48.044 13.9806V14.4012L48.3208 14.4139C48.6982 14.4267 48.9373 14.6306 48.9373 15.1532V21.5897C48.9373 22.125 48.6731 22.3035 48.2579 22.3289L48.0692 22.3417V22.775H51.0005V22.3544L50.8244 22.3417C50.3966 22.3162 50.145 22.125 50.145 21.6024V19.5377C50.1702 18.0337 50.8118 17.116 51.5792 17.116C52.158 17.116 52.548 17.5238 52.548 18.3013V21.6024C52.548 22.1378 52.2838 22.3162 51.8686 22.3417L51.6799 22.3544V22.7878H54.6238V22.3544L54.4477 22.3417C54.02 22.3035 53.7683 22.1123 53.7683 21.5897ZM32.104 16.3003C30.4811 16.3003 29.3991 17.8807 29.3991 19.6014C29.3991 21.322 30.4433 22.9025 32.2298 22.9025C33.4879 22.9025 34.1924 22.0358 34.4818 21.0544L33.9408 20.9014C33.6892 21.577 33.2615 22.1123 32.3934 22.1123C31.3869 22.1123 30.7075 21.1436 30.7075 19.6014H34.5699V19.2318C34.5699 17.6131 33.6137 16.3003 32.104 16.3003ZM30.7201 18.9769C30.8459 17.7533 31.3366 17.014 32.0914 17.014C32.7708 17.014 33.2111 17.6641 33.2615 18.9769H30.7201Z" fill="black"/>
</svg>
