<svg width="112" height="24" viewBox="0 0 112 24" fill="none" xmlns="http://www.w3.org/2000/svg">
<path d="M0.496094 0H11.7653C11.7653 3.80469 11.7653 7.60938 11.7653 11.4167H0.498737V0H0.496094Z" fill="black"/>
<path d="M12.9131 0H24.1823C24.1823 3.80469 24.1823 7.60938 24.1823 11.4167C20.4268 11.4167 16.6712 11.4167 12.9157 11.4167C12.9157 7.61206 12.9157 3.80737 12.9157 0H12.9131Z" fill="black"/>
<path d="M102.11 4.35034C103.148 3.66539 104.492 3.60118 105.662 3.9276C105.673 4.63128 105.662 5.33763 105.668 6.04399C105.11 5.79516 104.458 5.63462 103.872 5.8781C103.407 6.06539 103.132 6.547 103.058 7.03128C102.971 7.64399 103.027 8.26473 103.013 8.88012C104.202 8.88279 105.39 8.88012 106.579 8.88012C106.587 8.09884 106.568 7.3149 106.589 6.53362C107.398 6.30085 108.198 6.03864 109.001 5.79516C109.009 6.82526 108.99 7.85537 109.009 8.88547C109.811 8.87477 110.617 8.88279 111.42 8.88012V10.8841C110.614 10.8494 109.806 10.8761 108.998 10.8734C109.001 12.0266 108.998 13.1798 108.998 14.333C109.011 14.9724 108.964 15.6119 109.038 16.2487C109.083 16.6233 109.217 17.038 109.563 17.2333C110.144 17.5624 110.881 17.4179 111.417 17.0567V19.0821C110.72 19.3898 109.943 19.4808 109.188 19.4273C108.472 19.3738 107.733 19.1116 107.266 18.5336C106.727 17.8835 106.587 17.0032 106.576 16.1791C106.571 14.4106 106.576 12.642 106.574 10.8708C105.385 10.8708 104.197 10.8708 103.008 10.8708C103.008 13.648 103.008 16.4226 103.008 19.1999H100.571C100.571 16.4253 100.568 13.6507 100.571 10.8734C100.005 10.8627 99.4402 10.8761 98.875 10.8654C98.875 10.2072 98.8803 9.54634 98.875 8.88814C99.4375 8.87477 100 8.88012 100.565 8.88547C100.607 8.01055 100.475 7.10888 100.734 6.25269C100.953 5.48212 101.439 4.78646 102.108 4.35302L102.11 4.35034Z" fill="black"/>
<path d="M49.9308 4.49491C50.422 4.41999 50.9529 4.58855 51.2804 4.97919C51.6633 5.40461 51.7319 6.08421 51.4494 6.58187C51.1377 7.14374 50.4379 7.40595 49.8278 7.26949C49.194 7.15444 48.6684 6.55779 48.6974 5.89424C48.679 5.19591 49.2573 4.5725 49.9334 4.49223L49.9308 4.49491Z" fill="black"/>
<path d="M31.2568 4.7998H34.8011C35.905 7.63861 37.0142 10.4721 38.1208 13.3109C38.4034 14.0199 38.6675 14.7396 38.9633 15.4433C40.3815 11.8981 41.8208 8.36102 43.2311 4.81051C44.3668 4.79178 45.5051 4.80516 46.6407 4.80248C46.6381 9.60249 46.6407 14.3998 46.6407 19.1998C45.8194 19.1998 45.0006 19.2079 44.1819 19.1945C44.1899 15.652 44.1819 12.1122 44.1872 8.56971C44.1872 8.41185 44.1819 8.25132 44.1714 8.09346C44.1238 8.16837 44.0816 8.24329 44.0446 8.32356C42.6369 11.949 41.2002 15.5637 39.8005 19.1918C39.2168 19.2132 38.6332 19.1918 38.0495 19.2025C36.597 15.5771 35.1629 11.9436 33.7156 8.31553C33.6786 8.24061 33.6364 8.1657 33.5941 8.09613C33.5651 9.64798 33.5888 11.1998 33.5809 12.7517C33.5809 14.9002 33.5809 17.0487 33.5809 19.1972C32.8071 19.1972 32.0333 19.1972 31.2621 19.1972C31.2621 14.3972 31.2621 9.59714 31.2621 4.7998H31.2568Z" fill="black"/>
<path d="M56.6391 8.86967C57.8143 8.52987 59.0847 8.54325 60.26 8.88037C60.5029 8.94994 60.738 9.04358 60.9545 9.17469C60.9413 9.96131 60.9545 10.7479 60.9466 11.5346C60.1596 10.9272 59.1639 10.5419 58.1656 10.6677C57.3733 10.7399 56.6154 11.1573 56.1426 11.8075C55.5325 12.6128 55.3926 13.6804 55.4982 14.665C55.5774 15.4356 55.8917 16.2061 56.4833 16.7172C57.0987 17.271 57.9596 17.4663 58.7625 17.4048C59.5574 17.3112 60.3075 16.9714 60.9492 16.4951C60.9572 17.2416 60.9466 17.9854 60.9545 18.7319C59.9589 19.3312 58.7651 19.4864 57.6242 19.4302C56.4569 19.3687 55.2949 18.9192 54.4497 18.0898C53.5333 17.1934 53.0341 15.9145 52.976 14.6356C52.9153 13.3058 53.1847 11.9172 53.94 10.8041C54.5738 9.85696 55.5642 9.18539 56.6444 8.86967H56.6391Z" fill="black"/>
<path d="M83.2598 8.71156C84.3875 8.51089 85.5654 8.65805 86.6324 9.06741C86.6324 9.82461 86.6324 10.5818 86.6324 11.3363C85.8876 10.8172 84.9765 10.539 84.0733 10.5711C83.619 10.5898 83.1172 10.7851 82.9086 11.2239C82.7422 11.6574 82.8584 12.2273 83.2625 12.4868C83.9544 12.955 84.7784 13.153 85.4941 13.5731C86.0566 13.8942 86.606 14.3142 86.8912 14.9189C87.4273 16.0507 87.2002 17.549 86.2574 18.3918C85.3568 19.2454 84.06 19.4808 82.8663 19.4353C82.0185 19.3791 81.1682 19.2106 80.3891 18.8601C80.3917 18.0627 80.3838 17.2681 80.3944 16.4734C81.0493 16.9551 81.8046 17.3002 82.6049 17.4393C83.1621 17.5303 83.7669 17.5357 84.2872 17.2842C84.7837 17.0326 84.8735 16.3183 84.5777 15.8821C84.3004 15.545 83.8963 15.3577 83.5133 15.1758C82.795 14.8494 82.0397 14.5765 81.4111 14.0841C80.9674 13.7336 80.632 13.2413 80.5 12.6821C80.3045 11.8607 80.3653 10.9377 80.838 10.2206C81.3768 9.38581 82.3117 8.8828 83.2625 8.71156H83.2598Z" fill="black"/>
<path d="M66.4056 9.03807C67.079 8.6287 67.932 8.59392 68.6662 8.84542C68.6636 9.66951 68.6662 10.4936 68.6662 11.315C68.1856 10.9993 67.5861 10.8655 67.0183 10.9217C66.3263 11.0019 65.7796 11.5397 65.4944 12.1578C65.1854 12.8106 65.1273 13.5491 65.1485 14.2635C65.1485 15.909 65.1485 17.5545 65.1485 19.1973H62.7451C62.7451 15.7592 62.7478 12.321 62.7451 8.88288C63.548 8.87218 64.3482 8.87753 65.1511 8.88288C65.1485 9.47419 65.1511 10.0628 65.1511 10.6541C65.4126 10.012 65.7981 9.38857 66.4108 9.03807H66.4056Z" fill="black"/>
<path d="M48.916 8.8828C49.7242 8.88012 50.5324 8.8721 51.3405 8.88815C51.3299 12.3263 51.3405 15.7617 51.3352 19.1999H48.916C48.916 15.7617 48.916 12.3236 48.916 8.8828Z" fill="black"/>
<path d="M78.7676 11.2881C78.3451 10.3356 77.5818 9.53827 76.639 9.1075C75.5535 8.60717 74.3202 8.54028 73.1502 8.69011C71.9221 8.84797 70.7258 9.43393 69.9467 10.4239C69.2336 11.3095 68.8876 12.4466 68.8216 13.5784C68.7239 14.9082 68.9431 16.3209 69.7142 17.4313C70.3719 18.3891 71.4098 19.0473 72.5296 19.2908C73.4672 19.4915 74.447 19.4915 75.3819 19.2935C76.4779 19.0661 77.5 18.4507 78.1787 17.5436C78.8416 16.6901 79.1744 15.6145 79.251 14.539C79.3276 13.4393 79.2166 12.2995 78.7676 11.2854V11.2881ZM76.4145 16.0239C76.1821 16.5537 75.7543 17.0032 75.2181 17.2145C74.5896 17.458 73.8818 17.4741 73.2321 17.3028C72.5718 17.1263 72.0093 16.642 71.7056 16.0266C71.3121 15.2319 71.254 14.3142 71.3359 13.4446C71.4098 12.6527 71.6818 11.8393 72.2761 11.2908C72.7066 10.8814 73.2955 10.6834 73.8791 10.6486C74.6107 10.6005 75.3898 10.8092 75.918 11.3497C76.4805 11.9115 76.6998 12.7249 76.7605 13.5008C76.8028 14.349 76.7684 15.2346 76.4172 16.0239H76.4145Z" fill="black"/>
<path d="M98.2853 11.5851C97.9103 10.5603 97.1602 9.67468 96.1909 9.18505C95.0817 8.61782 93.7903 8.53488 92.5728 8.68739C91.593 8.81582 90.629 9.19307 89.8789 9.85662C88.9652 10.6539 88.429 11.8259 88.2705 13.0245C88.12 14.2232 88.1702 15.4861 88.6535 16.6098C89.1157 17.7122 90.0295 18.6058 91.1281 19.0419C92.2136 19.4754 93.4179 19.5235 94.5615 19.3362C95.7288 19.1409 96.8354 18.5202 97.5564 17.5623C98.3276 16.5724 98.6603 15.2934 98.6577 14.0466C98.6735 13.2118 98.5705 12.3663 98.2774 11.5824L98.2853 11.5851ZM96.088 15.082C95.9955 15.6252 95.808 16.1657 95.4567 16.5964C95.1028 17.0272 94.5773 17.2921 94.0333 17.3724C93.4496 17.4606 92.8342 17.4178 92.2902 17.1797C91.7012 16.9282 91.2444 16.4118 91.004 15.8178C90.7162 15.1115 90.658 14.3275 90.7161 13.5703C90.7716 12.8372 90.9776 12.0854 91.4556 11.5155C91.8914 10.983 92.5596 10.6887 93.233 10.6513C93.9223 10.6031 94.6566 10.7636 95.1848 11.2345C95.6734 11.6439 95.9427 12.2593 96.0668 12.8774C96.2068 13.6024 96.2042 14.3543 96.088 15.082Z" fill="black"/>
<path d="M0.496094 12.5803C4.25161 12.5803 8.00714 12.5803 11.7653 12.5803C11.7653 16.385 11.7653 20.1897 11.7653 23.9944H0.496094V12.5776V12.5803Z" fill="black"/>
<path d="M12.9157 12.583C16.6712 12.583 20.4268 12.583 24.1823 12.583V23.9998H12.9131C12.9131 20.1951 12.9131 16.3904 12.9131 12.5857L12.9157 12.583Z" fill="black"/>
</svg>
