<svg width="83" height="25" viewBox="0 0 83 25" fill="none" xmlns="http://www.w3.org/2000/svg">
<path d="M12.1769 0.15625C5.63529 0.15625 0.332031 5.52894 0.332031 12.1562C0.332031 18.7836 5.63529 24.1562 12.1769 24.1562C18.7186 24.1562 24.0219 18.7836 24.0219 12.1562C24.0219 5.52894 18.7186 0.15625 12.1769 0.15625ZM17.6091 17.4656C17.3962 17.8179 16.9411 17.9307 16.5934 17.713C13.8119 15.9913 10.3115 15.6015 6.18809 16.5573C5.79157 16.6483 5.39504 16.397 5.30324 15.9953C5.21143 15.5936 5.46145 15.1919 5.85797 15.0989C10.3701 14.054 14.2397 14.5032 17.363 16.4366C17.7107 16.6523 17.8201 17.1134 17.6091 17.4656ZM19.0585 14.1985C18.7909 14.6378 18.2225 14.7763 17.7888 14.5072C14.6049 12.5243 9.75094 11.9504 5.98494 13.1101C5.49661 13.2585 4.98093 12.9795 4.83248 12.4867C4.68403 11.992 4.9614 11.4696 5.44778 11.3192C9.74898 9.99728 15.0972 10.6365 18.7538 12.9142C19.1874 13.1853 19.3241 13.7611 19.0565 14.2004L19.0585 14.1985ZM19.1815 10.7987C15.3628 8.50124 9.06532 8.2895 5.42043 9.41153C4.83639 9.59161 4.21524 9.25718 4.03945 8.66351C3.86169 8.06984 4.19179 7.44451 4.77778 7.26245C8.96178 5.97617 15.9176 6.22353 20.3125 8.86733C20.8399 9.18396 21.0118 9.87261 20.6993 10.4049C20.3867 10.9392 19.707 11.1134 19.1815 10.7968" fill="black"/>
<path d="M27.417 16.4645L28.589 14.828C29.3898 15.7086 30.6868 16.5021 32.3393 16.5021C33.9918 16.5021 34.7029 15.6551 34.7029 14.8458C34.7029 12.3266 27.8096 13.892 27.8096 9.481C27.8096 7.48232 29.5149 5.95264 32.1265 5.95264C33.9567 5.95264 35.4666 6.56412 36.5507 7.64459L35.3787 9.20989C34.4372 8.25606 33.1754 7.82467 31.9311 7.82467C30.6869 7.82467 29.9407 8.43615 29.9407 9.31873C29.9407 11.5687 36.8339 10.1835 36.8339 14.6479C36.8339 16.6466 35.4314 18.3741 32.2495 18.3741C30.0657 18.3741 28.4835 17.5806 27.417 16.4645Z" fill="black"/>
<path d="M40.548 16.9509V21.4687H38.6826V9.4628H40.548V10.6501C41.1887 9.78733 42.183 9.24512 43.3022 9.24512C45.5232 9.24512 47.1053 10.9371 47.1053 13.7985C47.1053 16.66 45.5232 18.3698 43.3022 18.3698C42.2181 18.3698 41.2591 17.8652 40.548 16.947V16.9509ZM45.1852 13.7966C45.1852 12.1046 44.2261 10.9173 42.7514 10.9173C41.8802 10.9173 40.9739 11.4219 40.548 12.069V15.5063C40.9563 16.1534 41.8802 16.6937 42.7514 16.6937C44.2261 16.6937 45.1852 15.4885 45.1852 13.7946" fill="black"/>
<path d="M48.4531 13.8005C48.4531 11.2992 50.1232 9.24707 52.8598 9.24707C55.5964 9.24707 57.2665 11.2992 57.2665 13.8005C57.2665 16.3018 55.5964 18.3717 52.8598 18.3717C50.1232 18.3717 48.4531 16.284 48.4531 13.8005ZM55.3288 13.8005C55.3288 12.2708 54.4576 10.9212 52.8598 10.9212C51.262 10.9212 50.3889 12.2708 50.3889 13.8005C50.3889 15.3302 51.2776 16.6996 52.8598 16.6996C54.442 16.6996 55.3288 15.35 55.3288 13.8005Z" fill="black"/>
<path d="M59.5568 16.1221V11.0996H58.1348V9.46112H59.5568V7.08447H61.4222V9.46112H63.1646V11.0996H61.4222V15.6531C61.4222 16.2467 61.7074 16.6979 62.2387 16.6979C62.5942 16.6979 62.9145 16.5357 63.0552 16.3734L63.4986 17.812C63.1606 18.1188 62.6098 18.3701 61.7582 18.3701C60.301 18.3701 59.5548 17.5785 59.5548 16.1201" fill="black"/>
<path d="M64.6211 7.23107C64.6211 6.58199 65.1368 6.05957 65.7755 6.05957C66.4143 6.05957 66.9299 6.58199 66.9299 7.23107C66.9299 7.88015 66.4143 8.4006 65.7755 8.4006C65.1368 8.4006 64.6211 7.88015 64.6211 7.23107ZM64.834 9.46327H66.6994V18.1565H64.834V9.46327Z" fill="black"/>
<path d="M69.5792 18.1562V11.0995H68.1572V9.46296H69.5792V8.97615C69.5792 7.08631 70.6633 5.97021 72.2807 5.97021C73.062 5.97021 73.8257 6.16811 74.3414 6.72615L73.6128 7.89568C73.3648 7.66217 73.0444 7.51771 72.6362 7.51771C71.89 7.51771 71.4466 8.00452 71.4466 8.97615V9.46296H73.187V11.0995H71.4466V18.1562H69.5812H69.5792Z" fill="black"/>
<path d="M74.5197 19.866C74.715 19.957 75.0177 20.0104 75.2307 20.0104C75.8362 20.0104 76.2268 19.8303 76.4749 19.2545L76.9008 18.263L73.3652 9.46094H75.3713L77.8774 15.9774L80.3815 9.46094H82.372L78.2329 19.7215C77.6469 21.1977 76.6332 21.6648 75.301 21.6826C75.0354 21.6826 74.5021 21.6291 74.254 21.5559L74.5197 19.864V19.866Z" fill="black"/>
</svg>
