<svg width="95" height="21" viewBox="0 0 95 21" fill="none" xmlns="http://www.w3.org/2000/svg">
<path fill-rule="evenodd" clip-rule="evenodd" d="M43.0145 9.705H40.2391V6.25603H42.6474C43.724 6.25603 45.0424 6.53947 45.0021 7.89548C44.964 9.11543 44.2321 9.705 43.0145 9.705ZM50.5038 17.451L47.4664 12.9953C48.0573 12.6801 48.2655 12.5916 48.8161 12.1336C49.9777 11.1699 50.5798 10.1245 50.835 8.6075C51.211 6.35807 50.5194 4.29458 48.7892 2.84787C47.5089 1.77984 45.3557 1.26963 43.592 1.26963H34.3748V19.0973H40.2413V14.0043C41.7141 14.0043 41.4074 13.866 41.8752 14.578L44.6686 18.8569C44.7648 19.0202 44.7671 19.0973 45.0066 19.0973H55.2198L59.1994 11.4578L63.0739 19.0973H68.6337L59.1972 0.15625L50.5038 17.4533V17.451ZM9.7628 12.8297C10.4052 12.959 12.066 13.2855 11.6183 14.188C11.0968 15.2401 7.32086 14.3807 6.21515 13.8796C4.78714 13.1812 4.79161 13.1812 4.05074 12.6234L0.908203 16.4442C4.0082 18.5463 5.96222 19.3989 9.92171 19.3807C13.7514 19.3626 17.3908 17.9204 17.6437 13.9794C17.9929 8.5236 13.1403 8.42382 9.36438 7.37847C8.76901 7.21294 7.69912 7.02247 7.88713 6.18346C8.03262 5.53947 9.46736 5.64831 10.0247 5.70727C11.4908 5.8592 13.2321 6.54628 14.3691 7.37394L17.2498 3.39434C14.6265 1.55988 12.348 0.838793 9.15624 0.924961C5.52801 1.02247 2.12359 2.49639 1.86843 6.67779C1.59312 11.1789 6.3584 12.1449 9.76504 12.8343L9.7628 12.8297ZM17.2991 6.30818H22.4829V19.095H28.4009V6.30818H33.5847V1.26737H17.2968V6.30818H17.2991ZM72.2888 20.1562L81.7679 1.26737H76.1118L72.3403 8.85466L68.5173 1.26737H62.8612L72.2888 20.1562ZM90.5665 3.81385H90.9336L91.0388 1.90455L91.6677 3.7617H91.9811L92.61 1.90455L92.7152 3.81385H93.0823L92.9256 1.42609H92.4019L91.8266 3.22882L91.2514 1.42609H90.7276L90.571 3.81385H90.5665ZM88.6819 1.74355H89.416V3.81385H89.7831V1.74355H90.5173V1.42609H88.6841V1.74355H88.6819ZM85.4341 0.178927L94.9132 19.0678H89.2571L85.4856 11.4805L81.6627 19.0678H76.0066L85.4341 0.178927Z" fill="black"/>
</svg>
