<svg width="116" height="24" viewBox="0 0 116 24" fill="none" xmlns="http://www.w3.org/2000/svg">
<path fill-rule="evenodd" clip-rule="evenodd" d="M12.26 0C5.71783 0 0.415039 5.37222 0.415039 12C0.415039 18.6278 5.71783 24 12.26 24C18.8021 24 24.1049 18.6278 24.1049 12C24.1049 5.37222 18.8021 0 12.26 0ZM12.26 23.3611C9.55372 23.3611 7.02023 22.4472 5.13382 20.7694C3.29676 19.1361 1.87097 16.5389 1.52001 13.7806C2.35354 19.0278 6.84749 23.0361 12.26 23.0361C18.2702 23.0361 23.1397 18.1 23.1397 12.0139C23.1397 9.48889 22.2075 7.01389 20.7982 5.15556C22.2267 6.27222 23.4605 9.45278 23.4605 12.0139C23.4605 18.2806 18.4456 23.3611 12.26 23.3611ZM11.2318 11.1472L12.1887 1.19722H12.2819L12.3751 11.6667L14.023 10.6694L12.3641 1.2C18.2043 1.25833 22.9231 6.07222 22.9231 12.0028C22.9231 13.9083 22.4351 15.6972 21.5823 17.2528L14.1793 10.9778L13.4774 11.3806L21.5302 17.3417L21.4699 17.45L12.4135 12.1722V14.0333L21.4096 17.5556C19.5451 20.7028 16.1452 22.8083 12.2572 22.8083C8.36923 22.8083 4.97752 20.7056 3.11304 17.5639L12.1037 14.0139V12.1528L3.03627 17.4306L2.97594 17.325L11.0014 11.3778L10.2995 10.975L2.91563 17.2167C2.04371 15.6194 1.58856 13.825 1.5913 12C1.5913 6.11667 6.2333 1.33056 12.0104 1.19722L10.5655 10.7417L11.229 11.1444L11.2318 11.1472ZM12.26 0.647222C6.07428 0.647222 1.05937 5.72778 1.05937 11.9944C1.05937 14.5389 1.96968 16.9472 3.36256 19.0278C3.83416 19.9222 4.34415 20.475 5.02414 21.2056C2.35629 19.0472 0.631641 15.7222 0.631641 11.9944C0.631641 5.48611 5.83848 0.211111 12.2627 0.211111C18.6869 0.211111 23.9924 5.71667 23.8005 11.9944C23.6387 5.86945 18.3469 0.647222 12.2627 0.647222H12.26ZM64.2898 12.7972C64.2898 10.6917 63.3713 8.98611 61.356 8.98611C59.4833 8.98611 58.4195 10.6917 58.4195 12.7972C58.4195 14.9028 59.3078 16.6083 61.356 16.6083C63.4042 16.6083 63.9279 15.6111 64.2323 14.0139H63.5468C63.4892 14.6028 63.1081 15.9361 61.6467 15.9667C59.9796 16 59.8644 13.8333 59.8919 12.7972L59.922 12.2056C59.922 11.5556 59.8644 9.63056 61.4136 9.63056C62.642 9.63056 62.8174 11.2306 62.8174 12.2056H59.9248L59.8946 12.7972H64.2926H64.2898ZM29.712 6.36389L29.6818 6.83889H30.1205C30.4413 6.83889 30.8526 6.86945 30.8526 7.28333L30.7073 15.3083C30.7073 15.6056 30.562 15.9306 29.9752 15.9306H29.5365L29.5064 16.4056H32.4594V15.9306H31.9631C31.582 15.9306 31.3188 15.8111 31.3188 15.3083L31.4641 7.60833L34.62 15.9H34.9408L38.1268 7.51944L38.2722 15.3083C38.2722 15.575 38.0089 15.9306 37.6004 15.9306H36.9862V16.4056H40.6987V15.9306H40.26C39.9392 15.9306 39.5581 15.7528 39.5581 15.3389L39.4128 7.40278C39.4128 7.13611 39.7062 6.84167 39.9968 6.84167H40.5507V6.36667H37.891L35.1437 13.6528L32.3963 6.36667H29.7093L29.712 6.36389ZM50.2761 16.4083V16.0222H49.9827C49.7195 16.0222 49.2534 15.9333 49.2534 15.4V11.5194C49.2534 10.3056 49.8675 9.86111 50.4817 9.86111C50.7148 9.86111 50.8629 9.98056 50.8025 10.4222C50.745 10.8667 51.1233 11.1611 51.4469 11.1333C51.7704 11.1056 52.179 11.0444 52.1186 10.2167C52.0583 9.38889 51.5922 9.00278 50.7751 9.00278C50.1308 9.00278 49.6043 9.41667 49.459 9.625C49.289 9.86667 49.0779 9.77222 49.0505 9.50556C49.0203 9.23889 48.9051 8.97222 48.6118 9.06111C48.0524 9.24167 47.4739 9.35278 46.8871 9.38611V9.68333C48.1155 9.625 47.9976 10.2444 47.9976 10.5417V15.3972C47.9976 15.9306 47.5287 16.0194 47.2655 16.0194H46.857V16.4056H50.2788L50.2761 16.4083ZM56.7881 9.45556C56.3576 9.13611 55.8147 8.95556 55.1566 8.95556C53.2867 8.95556 52.2201 10.6611 52.2201 12.7667C52.2201 14.8722 53.1084 16.5667 55.1566 16.5778C56.969 16.5861 57.4077 15.55 57.7121 13.9556H57.0266C56.969 14.5444 56.7634 15.9056 55.4473 15.9361C53.783 15.975 53.6651 13.8028 53.6925 12.7667C53.6925 12.1139 53.7802 9.50833 55.1841 9.50833C56.3823 9.50833 57.1143 10.3667 57.1143 11.3444H57.4955V8.85556H57.1747L56.7881 9.45556ZM99.076 15.9639C97.409 15.9972 97.2938 13.8306 97.3212 12.7944H101.719C101.719 10.6889 100.803 8.98333 98.7854 8.98333C96.9155 8.98333 95.8516 10.6889 95.8516 12.7944C95.8516 14.9 96.74 16.6056 98.7854 16.6056C100.831 16.6056 101.357 15.6083 101.662 14.0111H100.979C100.919 14.6 100.54 15.9333 99.0788 15.9611L99.076 15.9639ZM98.843 9.62778C100.071 9.62778 100.247 11.2278 100.247 12.2028H97.3541C97.3541 11.5528 97.2966 9.62778 98.8457 9.62778H98.843ZM75.0462 15.9639C73.3792 15.9972 73.264 13.8306 73.2914 12.7944H77.6894C77.6894 10.6889 76.7709 8.98333 74.7556 8.98333C72.8856 8.98333 71.819 10.6889 71.819 12.7944C71.819 14.9 72.7074 16.6056 74.7556 16.6056C76.8038 16.6056 77.3275 15.6083 77.6318 14.0111H76.9463C76.8888 14.6 76.5076 15.9333 75.0462 15.9611V15.9639ZM74.8104 9.62778C76.0388 9.62778 76.2143 11.2278 76.2143 12.2028H73.3216C73.3216 11.5528 73.264 9.62778 74.8132 9.62778H74.8104ZM44.0219 15.9639C42.3575 15.9972 42.2397 13.8306 42.2671 12.7944H46.665C46.665 10.6889 45.7465 8.98333 43.7312 8.98333C41.8613 8.98333 40.7947 10.6889 40.7947 12.7944C40.7947 14.9 41.683 16.6056 43.7312 16.6056C45.7794 16.6056 46.3031 15.6083 46.6075 14.0111H45.922C45.8644 14.6 45.4833 15.9333 44.0219 15.9611V15.9639ZM43.7888 9.62778C45.0172 9.62778 45.1927 11.2278 45.1927 12.2028H42.3C42.3 11.5528 42.2424 9.62778 43.7916 9.62778H43.7888ZM70.6592 14.8611V6.59722C70.6592 6.25556 70.4837 5.975 70.1904 6.06389C69.631 6.24445 69.0525 6.35556 68.4657 6.38889V6.68611C69.313 6.62778 69.4007 6.89444 69.4007 7.18889V9.73611C69.0196 9.38056 68.5809 9.025 67.794 9.025C66.7987 9.025 64.9588 9.825 64.9588 12.6389C64.9588 16.3417 67.092 16.5778 67.7364 16.5778C68.3807 16.5778 69.228 16.0444 69.4034 15.7639C69.4171 15.7056 69.5049 15.6306 69.535 15.7639C69.5652 16.0306 69.7544 16.4306 70.0478 16.3417C70.6071 16.1611 71.1857 16.05 71.7724 16.0167V15.7194C70.5441 15.7806 70.662 15.1583 70.662 14.8611H70.6592ZM69.4034 13.9722C69.3733 15.6 68.526 16.1056 67.8241 16.1056C66.2448 16.075 66.3627 13.6472 66.3627 12.6111C66.3627 11.575 66.423 9.53056 67.8543 9.70833C69.2883 9.88611 69.4034 11.425 69.4034 12.3444V13.975V13.9722ZM87.8179 12.1694V11.4889H83.9601V12.1694H87.8179ZM78.6463 13.8917V16.4083H78.9671L79.2605 15.7556C79.5539 16.0222 80.1681 16.4667 80.955 16.4667C81.7419 16.4667 82.8551 16.0222 83.2938 15.1944C83.7325 14.3639 83.5269 13.0028 82.5343 12.5889C81.6651 12.225 80.9001 11.7917 80.3134 11.4944C79.9377 11.3139 79.7239 10.9028 79.7869 10.4861C79.8747 10.0111 80.2832 9.50833 81.2182 9.47778C82.1532 9.44722 82.622 10.2472 82.7399 11.1667H83.0607V8.79722H82.7673L82.4466 9.35833C81.8324 8.94445 81.5692 8.88333 81.0153 8.88333C80.4614 8.88333 79.5237 9.18056 78.9973 10.0083C78.4708 10.8389 78.6161 12.1389 79.8747 12.6722C81.1304 13.2056 81.7172 13.5306 82.0654 13.7083C82.4164 13.8861 82.6193 14.5972 82.3862 15.0111C82.1504 15.425 81.7145 15.9 81.0126 15.9C80.3106 15.9 79.2002 15.3972 78.937 13.8861H78.6436L78.6463 13.8917ZM93.3126 10.9833C94.0145 10.8056 94.7165 9.53333 94.7165 8.67222C94.7165 7.81111 94.3957 6.36111 92.3475 6.36111H87.9632V6.74722C88.4019 6.74722 89.1614 6.83611 89.1614 7.57778V14.8917C89.1614 15.3056 89.1312 15.9861 87.9632 15.9861V16.4H91.5606C92.6409 16.4 95.1277 16.3111 95.1853 13.4083C95.1853 12.4306 94.7165 11.275 93.3126 10.9806V10.9833ZM90.4199 6.83889H91.8813C92.9644 6.83889 93.4004 7.63889 93.4004 8.675C93.4004 9.94722 93.0192 10.925 91.8813 10.925H90.4199V6.83889ZM91.9115 15.9306H90.4199V11.4H92.087C93.0521 11.4 93.8994 12.0806 93.8994 13.5611C93.8994 15.0417 93.022 15.9306 91.9115 15.9306ZM107.123 11.0222V15.4056C107.123 15.9389 106.655 16.0278 106.391 16.0278H106.216V16.4139H109.402V16.0278H109.109C108.845 16.0278 108.376 15.9389 108.376 15.4056V11.0528C108.346 9.06944 106.594 9.00833 105.98 9.00833C105.366 9.00833 104.634 9.42222 104.489 9.63056C104.319 9.87222 104.107 9.77778 104.077 9.51111C104.047 9.24445 103.932 8.97778 103.639 9.06667C103.079 9.24722 102.501 9.35833 101.914 9.39167V9.68889C103.142 9.63056 103.024 10.25 103.024 10.5472V15.4028C103.024 15.9361 102.555 16.025 102.292 16.025H101.884V16.4111H105.303V16.025H105.009C104.746 16.025 104.277 15.9361 104.277 15.4028V11.5222C104.277 10.8722 104.513 9.83333 105.711 9.74445C106.912 9.65556 107.115 10.4556 107.115 11.0167L107.123 11.0222ZM110.079 11.1694L110.606 9.15556H115.577L111.308 15.9972H113.586C114.112 15.9972 114.521 15.7889 115.078 14.4278H115.313L114.845 16.4111H109.758L113.997 9.57222H112.097C111.628 9.57222 111.105 9.57222 110.373 11.1722H110.079V11.1694Z" fill="black"/>
</svg>
