<svg width="68" height="25" viewBox="0 0 68 25" fill="none" xmlns="http://www.w3.org/2000/svg">
<path d="M20.3548 3.67054C18.1178 1.40425 15.143 0.15625 11.9787 0.15625C5.44708 0.15625 0.133789 5.53911 0.133789 12.1562C0.133789 15.362 1.36566 18.3757 3.60266 20.642C5.83965 22.9083 8.81442 24.1562 11.9787 24.1562C15.143 24.1562 18.1178 22.9083 20.3548 20.642C22.5917 18.3757 23.8236 15.362 23.8236 12.1562C23.8236 8.95054 22.5917 5.93682 20.3548 3.67054ZM11.9787 23.7397C8.92441 23.7397 6.05287 22.5345 3.89371 20.3471C1.73455 18.1597 0.544976 15.2505 0.544976 12.1562C0.544976 9.06196 1.73455 6.15282 3.89371 3.96539C6.05287 1.77796 8.92441 0.57282 11.9787 0.57282C15.033 0.57282 17.9046 1.77796 20.0637 3.96539C22.2229 6.15282 23.4124 9.06196 23.4124 12.1562C23.4124 18.5437 18.2819 23.7414 11.977 23.7414L11.9787 23.7397Z" fill="black"/>
<path d="M11.9775 18.7959C15.597 18.7959 18.5295 15.8233 18.5295 12.1582H11.9775V18.7959Z" fill="black"/>
<path d="M5.42578 12.1565H11.9777V5.51709C8.35824 5.51709 5.42578 8.48966 5.42578 12.1565Z" fill="black"/>
<path d="M6.30114 6.37749C6.4179 6.23692 6.40098 6.01577 6.23008 5.87006C6.07948 5.74149 5.85611 5.77749 5.75458 5.89749L4.86621 6.97063L5.41954 7.44035L6.30114 6.37578V6.37749Z" fill="black"/>
<path d="M5.27481 5.19259C5.13267 5.07088 4.91101 5.06745 4.81286 5.18573L3.9668 6.20745L4.48966 6.65145L5.32557 5.64173C5.43048 5.51488 5.43048 5.32631 5.27312 5.19259H5.27481Z" fill="black"/>
<path d="M11.977 1.04932C5.92254 1.04932 1.01367 6.02246 1.01367 12.1562C1.01367 18.2899 5.92254 23.263 11.977 23.263C18.0314 23.263 22.9403 18.2899 22.9403 12.1562C22.9403 6.02246 18.0314 1.04932 11.977 1.04932ZM10.3745 1.65618H11.2426L12.0277 3.73903L12.8129 1.65618H13.681V4.57903H13.1039V2.53732L12.3442 4.57903H11.713L10.9532 2.53732V4.57903H10.3762V1.65618H10.3745ZM3.09668 6.46646L4.50454 4.76589C4.79558 4.41446 5.20339 4.13332 5.59088 4.46246C5.71102 4.5636 5.76179 4.59789 5.90562 4.86532C5.93946 4.9596 5.96654 5.13274 5.90224 5.30246C6.23897 5.0916 6.5977 5.16017 6.82952 5.38817C7.18656 5.7396 7.1341 6.14589 6.79399 6.5556L5.3083 8.34875L3.09499 6.46646H3.09668ZM11.977 19.2533C8.10877 19.2533 4.97325 16.0767 4.97325 12.1579C4.97325 8.23903 8.10877 5.06246 11.977 5.06246C15.8452 5.06246 18.9807 8.23903 18.9807 12.1579C18.9807 16.0767 15.8452 19.2533 11.977 19.2533ZM18.5018 8.40875L17.9773 7.74875L19.0213 6.20246L19.0146 6.19389L17.3038 6.90703L16.7742 6.25046L18.5848 3.89161L19.0315 4.45046L17.8977 5.95217L19.6305 5.19789L20.1094 5.79789L19.0213 7.35789L20.7084 6.54703L21.1551 7.10589L18.5001 8.40875H18.5018Z" fill="black"/>
<path d="M34.152 13.8122C33.5361 13.0888 32.5817 12.7271 31.2957 12.7271C30.0097 12.7271 28.9521 13.1471 28.2059 13.9836C27.4732 14.8048 27.1094 15.9362 27.1094 17.3831C27.1094 18.9876 27.551 20.1842 28.4343 20.9676C29.0959 21.5659 29.9589 21.8693 31.0182 21.8693C32.1671 21.8693 33.0301 21.5076 33.6088 20.7773L33.8034 21.6585H34.9913V17.0419H31.7983V18.4099H33.1807V18.8111C33.1807 19.2585 32.9929 19.6271 32.6156 19.9099C32.2585 20.1722 31.805 20.3042 31.2517 20.3042C30.5309 20.3042 29.9792 20.0539 29.5968 19.5619C29.2008 19.0613 29.0062 18.3396 29.0062 17.3916C29.0062 16.4436 29.1941 15.6619 29.5714 15.1288C29.9606 14.5699 30.5122 14.2939 31.2331 14.2939C32.2331 14.2939 32.8948 14.8202 33.2264 15.8779L34.9727 15.4511C34.7849 14.7739 34.5124 14.2288 34.1554 13.8139L34.152 13.8122ZM37.758 21.6585V18.2591H39.6074L41.171 21.6585H43.254L41.4113 17.9505C42.4232 17.4773 42.9308 16.6939 42.9308 15.6088C42.9308 14.8459 42.7362 14.2476 42.3538 13.8002C41.8597 13.2208 41.0881 12.9396 40.0372 12.9396H35.9085V21.6585H37.758ZM37.758 14.4191H39.5499C40.044 14.4191 40.4129 14.5048 40.6532 14.6813C40.9002 14.8596 41.0238 15.1613 41.0238 15.5762C41.0238 16.3853 40.5297 16.7933 39.5499 16.7933H37.758V14.4191ZM44.4825 13.9528C43.7498 14.7551 43.3792 15.8796 43.3792 17.3128C43.3792 18.8779 43.8209 20.0608 44.7041 20.8631C45.4368 21.5333 46.3912 21.8693 47.5723 21.8693C48.8905 21.8693 49.9159 21.4614 50.6621 20.6471C51.4016 19.8379 51.7722 18.7271 51.7722 17.3059C51.7722 15.8848 51.4016 14.7619 50.6621 13.9459C49.9227 13.1299 48.9023 12.7236 47.6045 12.7236C46.2677 12.7305 45.2287 13.1385 44.4825 13.9528ZM49.2729 15.1236C49.6756 15.6568 49.877 16.3853 49.877 17.3076C49.877 18.3139 49.6367 19.0905 49.1494 19.6288C48.7466 20.0831 48.2204 20.3059 47.5723 20.3059C46.8447 20.3059 46.2744 20.0299 45.8649 19.4848C45.469 18.9516 45.2744 18.2282 45.2744 17.3076C45.2744 16.3871 45.469 15.6568 45.8649 15.1236C46.2795 14.5716 46.8379 14.2956 47.5452 14.2956C48.2779 14.2888 48.8566 14.5716 49.2712 15.1236H49.2729ZM52.4524 18.2608C52.4524 19.3596 52.7384 20.2271 53.3086 20.8511C53.9246 21.5282 54.8468 21.8711 56.0668 21.8711C57.2868 21.8711 58.1566 21.5556 58.7674 20.9299C59.3901 20.2922 59.7015 19.4042 59.7015 18.2608V12.9413H57.8452V18.3859C57.8452 19.6682 57.2614 20.3059 56.0854 20.3059C54.9094 20.3059 54.3138 19.6682 54.3138 18.3859V12.9413H52.4507V18.2608H52.4524ZM62.4681 21.6602V18.5162H64.4412C65.382 18.5162 66.135 18.2659 66.7069 17.7739C67.3042 17.2614 67.597 16.5705 67.597 15.7031C67.597 14.8356 67.3381 14.1705 66.8254 13.6785C66.3059 13.1916 65.5918 12.9413 64.6696 12.9413H60.6254V21.6602H62.4681ZM62.4681 14.4208H64.2719C64.7136 14.4208 65.0571 14.5322 65.3109 14.7568C65.5647 14.9813 65.6866 15.2968 65.6866 15.7031C65.6866 16.1093 65.5495 16.4402 65.2771 16.6888C65.0114 16.9185 64.673 17.0368 64.2516 17.0368H62.4664V14.4191L62.4681 14.4208Z" fill="black"/>
<path d="M31.1511 11.0575C33.5201 11.0575 34.7012 10.1832 34.7012 8.43979C34.7012 7.46608 34.2409 6.79579 33.3187 6.42037C34.0581 6.05865 34.4287 5.43465 34.4287 4.55351C34.4287 3.77694 34.1241 3.19922 33.5201 2.81008C33.0395 2.49465 32.3779 2.3438 31.5538 2.3438H27.4199V11.0626H31.1528V11.0558L31.1511 11.0575ZM29.2423 7.23636H31.1832C31.6959 7.23636 32.0784 7.30151 32.3322 7.43351C32.6638 7.60494 32.8263 7.92722 32.8263 8.40036C32.8263 8.79465 32.7231 9.07751 32.5149 9.25579C32.2611 9.47351 31.8212 9.57808 31.1849 9.57808H29.244V7.23636H29.2423ZM29.2423 3.81637H31.2018C31.5843 3.81637 31.877 3.86265 32.0784 3.95522C32.41 4.09922 32.5725 4.38208 32.5725 4.79008C32.5725 5.12608 32.4625 5.37465 32.2476 5.53236C32.0394 5.69008 31.6892 5.76893 31.2018 5.76893H29.2423V3.81637ZM37.3629 11.0558V4.84151L39.4002 11.0558H40.9197L42.952 4.84151V11.0558H44.7118V2.33694H42.2785L40.2074 8.81351L38.104 2.33694H35.6115V11.0558H37.3646H37.3629ZM49.6376 11.0489L51.235 4.89465L52.7545 11.0489H54.7732L56.863 2.33008H54.9678L53.6699 8.62322L52.1961 2.33008H50.3584L48.8389 8.62322L47.5732 2.33008H45.6323L47.6053 11.0489H49.6376Z" fill="black"/>
</svg>
