<svg width="80" height="38" viewBox="0 0 80 38" fill="none" xmlns="http://www.w3.org/2000/svg">
<path d="M76.2592 7.26171C76.2898 7.21252 76.3051 7.15813 76.3051 7.10116C76.3051 7.01572 76.2745 6.9484 76.2132 6.89144C76.1518 6.83706 76.0572 6.80859 75.9269 6.80859H75.3672V7.39893H75.8681C75.9755 7.39893 76.0572 7.38857 76.1186 7.36527C76.1799 7.34197 76.2259 7.30831 76.2566 7.25912L76.2592 7.26171Z" fill="black"/>
<path d="M25.7256 24.9203H28.2251L26.8782 16.8315L25.7256 24.9203Z" fill="black"/>
<path d="M38.4219 10.8892V18.7838C41.5961 18.5896 41.3074 14.5944 41.3074 14.5944C40.8269 10.6976 38.4219 10.8918 38.4219 10.8918V10.8892Z" fill="black"/>
<path d="M75.7898 5.98242C74.949 5.98242 74.2666 6.67374 74.2666 7.5256C74.2666 8.37746 74.949 9.06879 75.7898 9.06879C76.6307 9.06879 77.3131 8.37746 77.3131 7.5256C77.3131 6.67374 76.6307 5.98242 75.7898 5.98242ZM76.3956 8.40335L76.163 8.0305C76.094 7.92434 76.0378 7.84149 75.9943 7.78452C75.9509 7.72756 75.91 7.68873 75.8768 7.66543C75.841 7.64212 75.8052 7.62657 75.7694 7.61881C75.7439 7.61363 75.7004 7.61105 75.6391 7.61105H75.3682V8.40595H75.133V6.61677H75.9151C76.0735 6.61677 76.1911 6.63231 76.2729 6.66597C76.3547 6.69704 76.4186 6.75401 76.4697 6.83687C76.5183 6.91713 76.5438 7.00775 76.5438 7.10614C76.5438 7.23302 76.5029 7.33917 76.4211 7.42721C76.3393 7.51524 76.2141 7.56962 76.0454 7.59292C76.1068 7.62399 76.1553 7.65248 76.186 7.68096C76.255 7.7431 76.3189 7.82337 76.3802 7.91917L76.6869 8.40595H76.3956V8.40335Z" fill="black"/>
<path d="M0.637695 0.967285V37.2166H79.7006V0.967285H0.637695ZM67.1825 11.1818H63.2389V16.64H66.9908V22.1939H63.336V27.261H67.1825V32.6207H58.6206V7.08825L54.1966 32.6207H48.9061L46.1178 15.6638C46.1178 15.6638 45.6373 20.3426 43.0406 22.4865L46.4066 32.6207H41.7882L38.5169 23.7526V32.6207H29.1858L28.7052 30.0859H25.1451L24.3758 32.6207H15.5251V22.8748L13.2173 32.6207H10.8123L8.69606 22.9732V32.5224L3.88614 32.6207V6.11469H9.84872L11.9649 17.2251L14.3699 6.11469H20.1408V29.9901L23.8927 6.11469H29.7608L33.4155 29.9901V6.21309H41.2081C41.2081 6.21309 43.9019 6.69986 45.2488 10.5009L44.6712 6.11469H49.3841L51.5973 19.8558L53.9052 6.21309H67.1799V11.1818H67.1825ZM77.0912 32.7191H68.9153V6.11469H73.3394V27.3594H77.0912V32.7191ZM75.7929 9.39527C74.7757 9.39527 73.9502 8.55635 73.9502 7.52842C73.9502 6.5005 74.7782 5.66158 75.7929 5.66158C76.8075 5.66158 77.6356 6.5005 77.6356 7.52842C77.6356 8.55635 76.8075 9.39527 75.7929 9.39527Z" fill="black"/>
</svg>
