<svg width="80" height="42" viewBox="0 0 80 42" fill="none" xmlns="http://www.w3.org/2000/svg">
<path fill-rule="evenodd" clip-rule="evenodd" d="M10.792 13.8439C10.9487 13.8822 11.1054 13.9233 11.2592 13.9615C7.78853 21.7611 8.0236 29.4842 18.1019 29.4842C29.4734 26.5482 39.0255 23.9875 46.7581 21.8022C44.6136 21.764 42.4691 21.7228 40.3449 21.6846C40.0141 19.4121 39.6833 17.1425 39.3699 14.87C38.5515 17.0808 37.7332 19.2945 36.9149 21.5053C35.2579 21.5641 33.6009 21.6229 31.9439 21.6846C34.3409 14.4966 36.7379 7.32621 39.1377 0.158754C40.8527 0.179333 42.5678 0.196973 44.2828 0.238131C43.3464 3.0957 42.9305 4.60289 43.035 4.75968C44.3205 3.2574 45.6264 1.75805 46.9322 0.25577C51.8625 0.155814 56.7957 0.079377 61.7261 0C61.3546 1.28473 61.0035 2.56652 60.6553 3.85126C58.8822 3.95121 57.1063 4.04823 55.3535 4.14818C54.6261 6.3335 54.243 7.67017 54.2043 8.15819C55.7627 8.25815 57.3239 8.35517 58.9025 8.47276C58.4353 9.79571 57.9681 11.1187 57.498 12.4416C55.783 12.6004 54.068 12.7562 52.3704 12.9149C51.8828 14.3966 51.3953 15.8783 50.9281 17.3777C52.5474 17.4365 54.1637 17.4953 55.783 17.5541C55.6089 18.1274 55.4318 18.7183 55.2577 19.3121C55.5885 19.3121 55.9194 19.3121 56.2705 19.3327C64.1259 17.2189 72.0017 15.1257 79.8774 13.0325C59.9356 21.7993 39.9938 30.569 20.052 39.3563C-3.57528 47.2235 -3.92642 27.5732 10.792 13.841V13.8439ZM11.9237 21.6846C14.3613 14.4554 16.796 7.22919 19.2336 0H24.634C24.6717 2.62532 24.7124 5.25358 24.7501 7.8789C25.6671 5.2918 26.5812 2.72528 27.4982 0.158754C29.0565 0.0999563 30.638 0.0411585 32.2167 0C29.8574 7.22919 27.5185 14.4554 25.1796 21.6846H19.7618C19.7037 19.1357 19.6457 16.5898 19.605 14.0615C18.1618 18.0499 17.3106 20.591 17.0514 21.6846H11.9237ZM25.9979 21.6846C28.3949 14.5172 30.8122 7.34679 33.2294 0.199913H38.3745C35.8789 7.29093 33.4036 14.379 30.9283 21.47C29.2713 21.5288 27.6346 21.6082 25.9979 21.6876V21.6846ZM45.2172 19.4915C44.5807 14.0017 44.2624 10.6179 44.2624 9.34003C48.8358 3.94239 51.2792 1.1838 51.5926 1.06424C49.4684 7.20567 47.3443 13.3471 45.2172 19.4885V19.4915Z" fill="black"/>
</svg>
