<svg width="80" height="28" viewBox="0 0 80 28" fill="none" xmlns="http://www.w3.org/2000/svg">
<path d="M5.18416 20.0162C5.51745 20.914 5.98015 21.6827 6.57224 22.3202C7.16432 22.9578 7.86422 23.4464 8.67392 23.7841C9.48362 24.1217 10.3639 24.2925 11.3148 24.2925C12.2656 24.2925 13.1067 24.1177 13.9164 23.7662C14.7261 23.4146 15.4319 22.9201 16.0357 22.2825C16.6396 21.6449 17.1081 20.8822 17.4434 19.9984C17.7767 19.1125 17.9453 18.1234 17.9453 17.031V0.160156H21.9938V27.4983H17.9845V24.9599C17.0846 25.9232 16.024 26.666 14.8045 27.1864C13.5831 27.7068 12.2676 27.967 10.8541 27.967C9.44051 27.967 8.07205 27.7128 6.82515 27.2063C5.57825 26.6978 4.49995 25.9768 3.58635 25.0393C2.6747 24.1018 1.95518 22.9757 1.4278 21.6608C0.900413 20.3459 0.637695 18.8821 0.637695 17.2673V0.162138H4.68623V17.033C4.68623 18.1273 4.85284 19.1224 5.18809 20.0202L5.18416 20.0162Z" fill="black"/>
<path d="M28.9688 0.15625V10.1151C29.8687 9.20341 30.9097 8.48043 32.0919 7.94813C33.2741 7.41384 34.5583 7.14769 35.9463 7.14769C37.3344 7.14769 38.7342 7.42179 39.9948 7.96799C41.2535 8.5142 42.3455 9.25704 43.2709 10.1945C44.1962 11.132 44.9295 12.2383 45.4687 13.5135C46.0078 14.7886 46.2784 16.1432 46.2784 17.5753C46.2784 19.0073 46.0078 20.354 45.4687 21.6172C44.9295 22.8804 44.1962 23.9808 43.2709 24.9163C42.3455 25.8538 41.2535 26.5966 39.9948 27.1428C38.7362 27.689 37.3854 27.9631 35.9463 27.9631C34.5073 27.9631 33.2663 27.6969 32.0723 27.1627C30.8764 26.6284 29.8295 25.9074 28.9296 24.9957V27.4944H25.0752V0.15625H28.9688ZM29.4119 20.2685C29.7589 21.1027 30.2412 21.8317 30.8568 22.4554C31.4744 23.081 32.1939 23.5756 33.0154 23.9391C33.8388 24.3045 34.7249 24.4853 35.6758 24.4853C36.6266 24.4853 37.4756 24.3025 38.297 23.9391C39.1185 23.5736 39.8321 23.079 40.436 22.4554C41.0398 21.8297 41.5221 21.1008 41.8809 20.2685C42.2416 19.4363 42.42 18.5366 42.42 17.5733C42.42 16.61 42.2397 15.7043 41.8809 14.8581C41.5201 14.012 41.0398 13.2771 40.436 12.6515C39.8321 12.0258 39.1185 11.5392 38.297 11.1876C37.4756 10.8361 36.6011 10.6613 35.6758 10.6613C34.7504 10.6613 33.876 10.8361 33.0546 11.1876C32.2331 11.5392 31.5116 12.0278 30.896 12.6515C30.2784 13.2771 29.7903 14.012 29.4315 14.8581C29.0708 15.7043 28.8923 16.61 28.8923 17.5733C28.8923 18.5366 29.0649 19.4343 29.4119 20.2685Z" fill="black"/>
<path d="M48.4756 13.5533C48.9892 12.304 49.697 11.2036 50.5949 10.2542C51.4948 9.30479 52.5613 8.55599 53.7945 8.0078C55.0277 7.4616 56.3648 7.1875 57.8038 7.1875C59.2428 7.1875 60.529 7.4477 61.7366 7.96808C62.9443 8.48847 63.9854 9.21145 64.8598 10.135C65.7342 11.0586 66.4144 12.153 66.9026 13.4162C67.3908 14.6795 67.6359 16.0519 67.6359 17.5356V18.8247H51.6379C51.7673 19.6311 52.0241 20.3799 52.4084 21.0711C52.7946 21.7603 53.275 22.3601 53.8533 22.8666C54.4317 23.3751 55.0865 23.7723 55.8197 24.0583C56.553 24.3443 57.3294 24.4873 58.1528 24.4873C60.4917 24.4873 62.3797 23.5101 63.8187 21.5577L66.6321 23.667C65.6557 24.9958 64.4481 26.0366 63.009 26.7913C61.57 27.5461 59.9506 27.9235 58.1508 27.9235C56.6863 27.9235 55.3179 27.6633 54.0455 27.1429C52.7731 26.6225 51.6673 25.8936 50.7302 24.9561C49.793 24.0186 49.0539 22.9182 48.5128 21.657C47.9737 20.3938 47.7031 19.0213 47.7031 17.5376C47.7031 16.1314 47.9599 14.8046 48.4736 13.5533H48.4756ZM53.8925 12.01C52.8005 12.9336 52.0751 14.165 51.7144 15.7004H63.7031C63.3698 14.165 62.6561 12.9336 61.5641 12.01C60.4721 11.0864 59.1938 10.6236 57.7293 10.6236C56.2648 10.6236 54.9865 11.0864 53.8945 12.01H53.8925Z" fill="black"/>
<path d="M74.9217 12.4589C74.1003 13.3706 73.6886 14.606 73.6886 16.1691V27.4944H69.7949V7.5768H73.6494V10.0377C74.1375 9.2313 74.7747 8.59174 75.557 8.12499C76.3412 7.65624 77.2724 7.42188 78.3527 7.42188H79.7015V11.0924H78.0821C76.798 11.0924 75.7432 11.5472 74.9217 12.4589Z" fill="black"/>
</svg>
