<svg width="124" height="24" viewBox="0 0 124 24" fill="none" xmlns="http://www.w3.org/2000/svg">
<path fill-rule="evenodd" clip-rule="evenodd" d="M122.319 5.53027C121.501 5.53027 120.914 6.12226 120.914 6.83561C120.914 7.66736 121.498 8.25935 122.319 8.25935C123.023 8.25935 123.608 7.66736 123.608 6.83561C123.608 6.12522 123.023 5.53027 122.319 5.53027ZM122.319 8.02255C121.735 8.02255 121.148 7.43056 121.148 6.83561C121.148 6.24066 121.732 5.76707 122.319 5.76707C122.907 5.76707 123.374 6.24066 123.374 6.83561C123.374 7.43056 122.907 8.02255 122.319 8.02255Z" fill="black"/>
<path fill-rule="evenodd" clip-rule="evenodd" d="M122.085 6.71745V6.36225H122.435C122.669 6.36225 122.669 6.48065 122.669 6.48065C122.591 6.63852 122.474 6.71745 122.318 6.71745H122.085ZM121.617 7.54919H121.851L121.968 6.9572H122.318C122.552 6.9572 122.435 7.0756 122.435 7.194V7.54919H122.786V7.4308C122.708 7.4308 122.708 7.35186 122.786 7.194C122.786 6.9572 122.786 6.83881 122.669 6.83881C122.786 6.83881 122.903 6.60201 122.903 6.48361C122.903 6.36521 122.903 6.12842 122.552 6.12842H121.851L121.617 7.55215V7.54919Z" fill="black"/>
<path fill-rule="evenodd" clip-rule="evenodd" d="M33.6789 17.036C34.0295 14.1885 34.9673 12.1728 34.9673 10.6307C34.9673 8.37517 32.9777 7.54639 30.6345 7.54639C29.1123 7.54639 28.0575 7.78318 27.0057 8.01998L26.6551 10.3939C27.8267 9.80187 28.6447 9.68051 29.9332 9.68051C30.9879 9.68051 31.6892 10.1541 31.6892 10.8675V11.2226C31.2217 11.2226 30.5176 11.1042 29.8164 11.1042C26.8888 11.1042 24.4316 12.2912 24.4316 14.5437C24.4316 16.3226 25.6033 17.1544 27.7098 17.1544C28.9983 17.1544 30.2868 16.7992 30.988 15.7306L30.8711 17.036H33.6818H33.6789ZM28.7616 15.0203C28.0604 15.0203 27.59 14.5467 27.59 14.1885C27.59 13.3597 28.7616 12.7648 30.4007 12.8832H31.3386C31.1048 14.0701 30.2838 15.0173 28.7616 15.0173V15.0203Z" fill="black"/>
<path fill-rule="evenodd" clip-rule="evenodd" d="M43.0503 7.78275L39.6553 13.5961L38.7174 7.78275H35.3224L37.429 16.9172C37.0784 17.8673 36.491 18.4593 35.5561 18.4593C34.8549 18.4593 34.3845 18.3409 33.9171 18.2225L33.2158 20.475C33.917 20.7118 34.738 20.9486 35.9096 20.9486C38.0162 20.9486 39.1878 19.8801 40.1257 18.2195L46.6819 7.77979H43.0532L43.0503 7.78275Z" fill="black"/>
<path fill-rule="evenodd" clip-rule="evenodd" d="M48.201 3.75146L45.2734 17.0357H48.6685L51.596 3.75146H48.201Z" fill="black"/>
<path fill-rule="evenodd" clip-rule="evenodd" d="M56.9818 7.54593C53.1193 7.54593 50.6592 9.79845 50.6592 13.0011C50.6592 15.2536 52.0645 17.1539 55.6933 17.1539C59.322 17.1539 62.1327 15.4934 62.1327 11.6958C62.1327 9.32486 60.2599 7.54297 56.9818 7.54297V7.54593ZM56.0439 15.0198C54.8723 15.0198 54.1711 14.1881 54.1711 12.8857C54.1711 11.4619 55.1089 9.80141 56.748 9.80141C58.1534 9.80141 58.6208 10.6332 58.6208 11.5803C58.6208 13.7145 57.5661 15.0198 56.0439 15.0198Z" fill="black"/>
<path fill-rule="evenodd" clip-rule="evenodd" d="M69.7461 7.54596C68.3407 7.54596 67.1692 8.6145 66.7017 9.68008H66.5848L67.0523 7.78275H63.891C63.7741 8.61154 63.6573 9.32489 63.4236 10.1537L61.9014 17.0326H65.2963L66.2342 12.7614C66.5848 11.3377 67.4058 10.1507 68.8112 10.1507C69.3955 10.1507 69.9827 10.2691 70.3333 10.6243L71.1544 7.77683C70.6869 7.54004 70.2165 7.54004 69.749 7.54004L69.7461 7.54596Z" fill="black"/>
<path fill-rule="evenodd" clip-rule="evenodd" d="M83.2092 4.58008L78.9931 12.8857L78.7595 4.58008H73.255L70.4443 17.0355H73.6056L75.8319 6.83556H75.9488L76.4163 17.0355H79.6944L84.9652 6.83556L82.505 17.0355H86.0198L88.8276 4.58008H83.2092Z" fill="black"/>
<path fill-rule="evenodd" clip-rule="evenodd" d="M93.7516 7.54639C92.2294 7.54639 91.1747 7.78318 90.2398 8.01998L89.8891 10.3939C90.9438 9.80187 91.8788 9.68051 93.0504 9.68051C94.222 9.68051 94.8063 10.1541 94.8063 10.8675V11.2226C94.3389 11.2226 93.6347 11.1042 93.0504 11.1042C90.006 11.1042 87.5459 12.2912 87.5459 14.5437C87.5459 16.3226 88.7176 17.1544 90.8241 17.1544C92.2294 17.1544 93.401 16.7992 94.2191 15.7306L94.1022 17.036H96.796C97.1466 14.1885 98.0845 12.1728 98.0845 10.6307C98.0845 8.37517 96.0948 7.54639 93.7516 7.54639ZM91.8788 15.0203C91.1747 15.0203 90.8241 14.5467 90.8241 14.1885C90.8241 13.3597 91.9957 12.7648 93.6347 12.8832H94.4558C94.222 14.0701 93.401 15.0173 91.8788 15.0173V15.0203Z" fill="black"/>
<path fill-rule="evenodd" clip-rule="evenodd" d="M108.383 3.75146L107.211 9.20961C106.627 8.25947 105.455 7.54908 103.699 7.54908C100.421 7.54908 98.7822 10.3966 98.7822 13.3624C98.7822 15.4965 100.304 17.1571 102.411 17.1571C104.284 17.1571 105.105 16.5651 106.04 15.4965L105.806 17.0387H108.85C108.967 16.5651 108.967 16.2069 109.084 15.6149L111.778 3.75146H108.383ZM103.933 14.7832C102.762 14.7832 102.294 13.9544 102.294 12.8859C102.294 11.4621 103.232 10.0384 104.871 10.0384C105.926 10.0384 106.51 10.9885 106.51 11.8173C106.51 13.1227 105.455 14.7832 103.933 14.7832Z" fill="black"/>
<path fill-rule="evenodd" clip-rule="evenodd" d="M121.146 11.5808C121.146 8.73333 119.157 7.54639 116.58 7.54639C112.247 7.54639 110.725 10.8674 110.725 13.0016C110.725 15.2541 112.481 17.1544 115.759 17.1544C116.697 17.1544 117.982 17.036 119.154 16.6808L119.621 14.4253C118.683 14.8989 117.515 15.0173 116.577 15.0173C114.47 15.0173 114 14.3069 113.883 13.2384H120.91C121.027 12.7648 121.143 11.933 121.143 11.5778L121.146 11.5808ZM114.12 11.4624C114.353 10.6336 115.174 9.68347 116.58 9.68347C117.868 9.68347 118.336 10.5152 118.336 11.4624H114.12Z" fill="black"/>
<path fill-rule="evenodd" clip-rule="evenodd" d="M24.5463 2.44616C15.413 -2.18024 6.39667 0.31204 2.18066 5.29364C11.7814 3.27791 19.6261 3.9883 25.4812 4.93844V4.22509C25.5981 3.51471 25.1306 2.80136 24.5433 2.44616H24.5463Z" fill="black"/>
<path fill-rule="evenodd" clip-rule="evenodd" d="M22.2075 9.44336C19.8643 9.68016 18.9293 11.3407 17.6409 13.3594C16.703 15.0199 13.4249 20.8332 12.0195 23.3226C13.6586 24.1543 15.1809 24.1543 16.8199 23.6778C17.9915 23.2042 18.5758 22.9644 19.28 22.4908C19.5137 22.3724 19.6306 22.1356 19.8643 21.8988C19.8643 21.8199 19.9032 21.7804 19.9812 21.7804C22.0877 18.4594 23.6099 13.3594 24.3141 10.6303C24.3141 10.2751 24.4309 9.91695 24.5478 9.56176C23.6099 9.44336 22.9087 9.44336 22.2046 9.44336H22.2075Z" fill="black"/>
<path fill-rule="evenodd" clip-rule="evenodd" d="M9.79498 9.44369C5.69584 10.0357 2.53458 10.9858 0.895508 11.6962C1.01238 12.0514 1.01235 12.2882 1.01235 12.2882L1.12926 12.4066C1.7136 14.6591 4.05675 17.3882 7.80237 20.4725C8.0361 20.5909 8.153 20.7093 8.26987 20.8277C10.4933 17.3882 11.6648 14.8959 12.6027 12.1668C13.3068 9.79296 12.1353 9.08258 9.79206 9.43777L9.79498 9.44369Z" fill="black"/>
</svg>
