<svg width="80" height="26" viewBox="0 0 80 26" fill="none" xmlns="http://www.w3.org/2000/svg">
<path d="M3.94756 16.4678L11.1937 25.4453L13.3295 23.7816L7.18877 16.3201L12.4985 9.58364L10.3368 8.01224L3.94497 16.4678H3.94756ZM2.95862 0.967285L0.204102 1.57107V25.0156H2.95862V0.967285Z" fill="black"/>
<path d="M15.7656 20.5622C15.7656 18.8853 16.3196 17.6092 17.4251 16.7233C18.5331 15.8374 20.1537 15.4076 22.261 15.4076H25.4375V14.3477C25.4375 11.785 24.3165 10.4957 22.0772 10.4957C21.3653 10.4957 20.6016 10.6038 19.812 10.8042C19.0224 11.0045 18.2975 11.2603 17.6374 11.5556L16.8348 9.58342C17.6529 9.11411 18.5357 8.76608 19.4832 8.51033C20.4307 8.25458 21.3549 8.1333 22.2507 8.1333C26.1236 8.1333 28.0626 10.2267 28.0626 14.4136V25.0285H26.02L25.6912 23.204C24.8731 23.8737 24.0033 24.3852 23.0687 24.7464C22.1471 25.1076 21.2514 25.2975 20.4204 25.2975C18.9577 25.2975 17.8237 24.8809 16.9953 24.0372C16.1928 23.1908 15.7708 22.0386 15.7708 20.5622H15.7656ZM20.9485 23.0458C21.3316 23.0458 21.7122 22.9931 22.1212 22.8982C22.5303 22.8033 22.9393 22.6688 23.3457 22.508C23.7548 22.3471 24.1353 22.1467 24.4926 21.9174C24.8473 21.688 25.1657 21.4349 25.4556 21.1791V17.3007H22.595C21.1452 17.3007 20.0916 17.5565 19.4185 18.0653C18.7609 18.5742 18.4166 19.3678 18.4166 20.4672C18.4036 22.1863 19.2476 23.0432 20.9459 23.0432" fill="black"/>
<path d="M35.7438 25.0185H32.9893V1.57399L35.7438 0.970215V25.0185ZM43.109 8.00198L45.2707 9.57339L39.9739 16.3099L46.1146 23.7714L43.9944 25.4351L36.7482 16.4575L43.1116 8.00198H43.109Z" fill="black"/>
<path d="M48.5508 20.5626C48.5508 18.8858 49.1048 17.6097 50.2102 16.7238C51.3183 15.8379 52.9389 15.4081 55.0462 15.4081H58.2227V14.3482C58.2227 11.7855 57.1017 10.4962 54.8624 10.4962C54.1375 10.4962 53.3867 10.6043 52.5971 10.8046C51.8075 11.005 51.0827 11.2608 50.4225 11.5561L49.62 9.58391C50.438 9.1146 51.3208 8.76657 52.2683 8.51082C53.2159 8.25507 54.1401 8.13379 55.0358 8.13379C58.9087 8.13379 60.8477 10.2272 60.8477 14.4141V25.029H58.8051L58.4764 23.2045C57.6583 23.8742 56.7885 24.3857 55.8539 24.7469C54.9323 25.1081 54.0365 25.298 53.2055 25.298C51.7428 25.298 50.6089 24.8814 49.7805 24.0377C48.9624 23.1913 48.556 22.0391 48.556 20.5626H48.5508ZM53.7336 23.0463C54.1168 23.0463 54.4973 22.9936 54.9064 22.8987C55.3154 22.8037 55.7244 22.6693 56.1309 22.5084C56.5399 22.3476 56.9205 22.1472 57.2777 21.9179C57.6324 21.6885 57.9508 21.4354 58.2252 21.1796V17.3012H55.3646C53.9148 17.3012 52.8482 17.5569 52.1881 18.0658C51.515 18.5747 51.1862 19.3683 51.1862 20.4677C51.1862 22.1868 52.0302 23.0437 53.7284 23.0437" fill="black"/>
<path d="M71.9531 8.1626C74.2339 8.1626 76.0253 8.91402 77.3172 10.4037C78.6219 11.9065 79.2666 14.0395 79.2666 16.8317C79.2666 19.6238 78.6219 21.6909 77.3301 23.1647C76.0383 24.6412 74.2468 25.3795 71.9531 25.3795C69.6594 25.3795 67.8809 24.6412 66.589 23.1647C65.2843 21.6883 64.6396 19.5816 64.6396 16.8317C64.6396 14.0817 65.2972 11.8934 66.602 10.4037C67.9067 8.91402 69.6982 8.1626 71.9531 8.1626ZM71.9531 10.4037C70.5163 10.4037 69.4109 10.9547 68.6446 12.041C67.8809 13.1273 67.4848 14.725 67.4848 16.8317C67.4848 18.9383 67.8679 20.4807 68.6446 21.5433C69.4083 22.6032 70.5163 23.141 71.9531 23.141C73.3899 23.141 74.5238 22.6032 75.3005 21.5433C76.0642 20.4834 76.4473 18.9119 76.4473 16.8317C76.4473 14.7514 76.0642 13.1273 75.3005 12.041C74.5238 10.9547 73.4158 10.4037 71.9531 10.4037Z" fill="black"/>
</svg>
