<svg width="80" height="27" viewBox="0 0 80 27" fill="none" xmlns="http://www.w3.org/2000/svg">
<path d="M79.5121 6.33153C78.4372 0.0782782 59.8898 -1.87455 38.0839 1.97199C28.926 3.58727 20.6565 5.9711 14.2187 8.65242C15.207 8.67531 15.9411 8.90416 16.3872 9.35422C16.7355 9.70703 16.9124 10.1933 16.9124 10.7979V11.4177H14.774V10.8703C14.774 10.4145 14.5029 10.1304 14.0248 10.1304C13.6238 10.1304 13.3754 10.3135 13.2963 10.6758C13.2737 10.7769 13.2681 10.9504 13.3057 11.1087C13.5354 12.0565 16.7091 12.6439 17.0555 14.3946C17.1007 14.6196 17.1628 15.1002 17.0649 15.7906C16.8672 17.1999 15.6437 17.7453 14.0869 17.7453C11.9146 17.7453 11.0318 16.7021 11.0318 15.2642V14.5834H13.3264V15.4301C13.3264 15.9069 13.669 16.1701 14.134 16.1701C14.5745 16.1701 14.8324 15.9908 14.9208 15.6227C14.9622 15.453 14.9811 15.2051 14.9058 15.0144C14.4822 13.9369 11.5174 13.4334 11.1522 11.6904C11.0713 11.2975 11.0638 10.9657 11.1315 10.5442C11.1692 10.3154 11.2369 10.1209 11.3217 9.9416C4.17413 13.3228 -0.00294329 17.0473 0.548604 20.2626C1.62534 26.5159 20.1728 28.4668 41.9768 24.6202C51.562 22.9306 60.1797 20.3999 66.738 17.5641C66.642 17.5679 66.5517 17.5794 66.4519 17.5794C64.9592 17.5794 63.6264 17.013 63.489 15.4683C63.4645 15.1879 63.4589 15.0697 63.4589 14.9095V11.3566C63.4589 11.2041 63.4777 10.9352 63.4946 10.796C63.6716 9.30273 64.8368 8.68675 66.4519 8.68675C67.7018 8.68675 69.236 9.051 69.4035 10.7979C69.4261 11.0172 69.4242 11.2517 69.4224 11.328V11.6637H67.2632V11.164C67.2632 11.1507 67.2613 10.9638 67.2369 10.8474C67.2011 10.6682 67.0524 10.2563 66.4369 10.2563C65.8213 10.2563 65.6707 10.6701 65.6331 10.8494C65.6105 10.9466 65.5992 11.0877 65.5992 11.2422V15.104C65.5973 15.2375 65.6029 15.3424 65.618 15.4206C65.6293 15.4816 65.7385 16.0137 66.4444 16.0137C67.1503 16.0137 67.2557 15.4816 67.2651 15.4206C67.2839 15.3157 67.2858 15.1917 67.2858 15.104V13.9083H66.4369V12.6191H69.4412V14.9114C69.4412 15.0678 69.4374 15.1822 69.4111 15.4702C69.3753 15.8745 69.2492 16.2177 69.0515 16.5114C76.0089 13.1664 80.0599 9.50297 79.514 6.33344L79.5121 6.33153ZM22.97 17.4154L21.8764 9.88438H21.8368L20.7149 17.4154H18.4089L19.9601 8.91178H23.7211L25.2628 17.4154H22.97ZM34.0593 17.4154L34.0085 10.0312H33.9727L32.6155 17.4154H30.4526L29.1029 10.0312H29.0653L29.0163 17.4154H26.8723L27.0586 8.91178H30.5072L31.5105 15.2299H31.5595L32.5666 8.91178H36.0133L36.1978 17.4154H34.0612H34.0593ZM44.1566 15.7677C43.9251 17.4154 42.3325 17.7014 41.2069 17.7014C39.3376 17.7014 38.1818 16.8928 38.1818 15.2451V14.5738H40.4482V15.411C40.4482 15.8649 40.7664 16.1434 41.2539 16.1434C41.6888 16.1434 41.9448 15.966 42.0332 15.6018C42.0747 15.432 42.0916 15.1841 42.0182 14.9991C41.6022 13.9407 38.66 13.4239 38.3023 11.7075C38.2195 11.3185 38.2138 10.9886 38.2816 10.5709C38.5301 9.01476 40.004 8.69247 41.1899 8.69247C42.2516 8.69247 43.0234 8.92704 43.4865 9.39618C43.8309 9.74708 44.006 10.2277 44.006 10.8246V11.4386H41.8883V10.897C41.8883 10.4336 41.604 10.1647 41.1485 10.1647C40.7438 10.1647 40.4991 10.3478 40.4181 10.7063C40.4012 10.7826 40.3861 10.9581 40.4275 11.1335C40.6534 12.0756 43.8008 12.6534 44.1453 14.385C44.1886 14.6063 44.2507 15.0811 44.1547 15.7677H44.1566ZM52.0006 14.9953C52.0044 15.1555 51.9874 15.474 51.9799 15.5541C51.85 16.9558 50.8618 17.6671 49.0471 17.6671C47.2325 17.6671 46.2367 16.9558 46.1068 15.5541C46.0974 15.4721 46.0823 15.1536 46.0861 14.9953V8.90797H48.2527V15.186C48.2508 15.3271 48.2565 15.4301 48.2716 15.5026C48.2979 15.6418 48.4353 16.0957 49.0471 16.0957C49.6589 16.0957 49.7944 15.6418 49.8227 15.5045C49.8358 15.4301 49.8415 15.3214 49.8415 15.186V8.90797H52.0006C52.0006 8.90797 52.0006 14.9953 52.0006 14.9934V14.9953ZM61.3355 17.3295H58.3199L56.2963 10.5938H56.2624L56.3753 17.3295H54.2746V8.90988H57.4163L59.2874 15.3805H59.3307L59.2197 8.90988H61.3355V17.3276V17.3295Z" fill="black"/>
</svg>
