<svg width="80" height="25" viewBox="0 0 80 25" fill="none" xmlns="http://www.w3.org/2000/svg">
<path fill-rule="evenodd" clip-rule="evenodd" d="M49.2654 18.9251C44.6989 22.3398 38.0774 24.1562 32.3767 24.1562C24.3853 24.1562 17.1911 21.1643 11.7449 16.1815C11.3182 15.7909 11.6982 15.2562 12.2128 15.5596C18.0876 19.0236 25.3529 21.1093 32.8558 21.1093C37.9183 21.1093 43.4824 20.0456 48.601 17.8443C49.374 17.5125 50.0215 18.36 49.2654 18.9251Z" fill="black"/>
<path fill-rule="evenodd" clip-rule="evenodd" d="M51.1676 16.7277C50.5837 15.9693 47.3067 16.3694 45.8338 16.5476C45.3883 16.6026 45.3191 16.2082 45.7215 15.9219C48.336 14.0619 52.6199 14.5985 53.1178 15.2223C53.6193 15.8499 52.9868 20.2013 50.5369 22.2774C50.1607 22.596 49.8014 22.4272 49.968 22.0044C50.5182 20.6089 51.7534 17.4861 51.1695 16.7296L51.1676 16.7277Z" fill="black"/>
<path fill-rule="evenodd" clip-rule="evenodd" d="M45.9334 2.77846V0.971538C45.9334 0.696613 46.1392 0.512695 46.3863 0.512695H54.3833C54.6397 0.512695 54.8437 0.700402 54.8456 0.967743V2.5187C54.8437 2.77846 54.6266 3.11785 54.243 3.65633L50.1013 9.64779C51.6397 9.61177 53.266 9.84498 54.6622 10.6394C54.9766 10.8195 55.0608 11.085 55.087 11.3447V13.273C55.087 13.5385 54.8007 13.8456 54.4994 13.6864C52.0383 12.38 48.7725 12.2378 46.0494 13.7015C45.7706 13.8513 45.4805 13.5479 45.4805 13.2825V11.449C45.4805 11.1551 45.4861 10.6546 45.778 10.2071L50.5766 3.23161H46.3975C46.143 3.23161 45.9371 3.0458 45.9353 2.77656L45.9334 2.77846Z" fill="black"/>
<path fill-rule="evenodd" clip-rule="evenodd" d="M16.7665 14.0692H14.3335C14.1015 14.0541 13.9162 13.8777 13.8975 13.6521V1.00175C13.8975 0.749574 14.1089 0.546694 14.3691 0.546694H16.6355C16.8732 0.55807 17.0622 0.740093 17.0772 0.97141V2.62285H17.1221C17.7116 1.02639 18.8252 0.28125 20.3243 0.28125C21.8234 0.28125 22.8003 1.02639 23.4816 2.62285C24.0711 1.02639 25.4111 0.28125 26.8428 0.28125C27.8647 0.28125 28.9783 0.707861 29.6595 1.66536C30.4324 2.73093 30.2734 4.2743 30.2734 5.63186V13.6142C30.2715 13.8663 30.0619 14.0692 29.8017 14.0692H27.3725C27.1292 14.0541 26.9364 13.8569 26.9364 13.6142V6.9079C26.9364 6.37511 26.9813 5.04409 26.8672 4.53785C26.6856 3.68653 26.141 3.44573 25.4373 3.44573C24.8478 3.44573 24.2339 3.8458 23.9831 4.48476C23.7342 5.12373 23.7567 6.1874 23.7567 6.9079V13.6123C23.7567 13.8644 23.5471 14.0673 23.2869 14.0673H20.8577C20.6144 14.0522 20.4216 13.855 20.4216 13.6123V6.906C20.4197 5.49535 20.6462 3.41919 18.9207 3.41919C17.1951 3.41919 17.24 5.44226 17.24 6.906V13.6104C17.24 13.8626 17.0285 14.0654 16.7703 14.0654L16.7665 14.0692Z" fill="black"/>
<path fill-rule="evenodd" clip-rule="evenodd" d="M61.7292 0.279785C65.3394 0.279785 67.2933 3.42152 67.2933 7.41457C67.2933 11.4076 65.1354 14.3351 61.7292 14.3351C58.323 14.3351 56.2568 11.1934 56.2568 7.28185C56.2568 3.37033 58.2107 0.281683 61.7292 0.281683V0.279785ZM61.7516 2.86219C59.9569 2.86219 59.8446 5.33841 59.8446 6.88178C59.8446 8.42515 59.8221 11.7262 61.7292 11.7262C63.6363 11.7262 63.7055 9.06412 63.7055 7.44111C63.7055 6.37554 63.6606 5.09951 63.3425 4.08703C63.0692 3.20916 62.5246 2.86219 61.7535 2.86219H61.7516Z" fill="black"/>
<path fill-rule="evenodd" clip-rule="evenodd" d="M71.9758 14.0697H69.5521C69.3088 14.0545 69.1161 13.8573 69.1161 13.6146L69.1123 0.960467C69.1329 0.729151 69.335 0.547127 69.5802 0.547127H71.8373C72.0487 0.556607 72.2247 0.704503 72.2696 0.90169V2.83564H72.3145C72.9957 1.10456 73.9483 0.279785 75.629 0.279785C76.7182 0.279785 77.7869 0.679852 78.4681 1.77007C79.1044 2.78256 79.1044 4.48519 79.1044 5.71003V13.6696C79.0763 13.8933 78.878 14.0678 78.6384 14.0678H76.1998C75.9752 14.0526 75.7937 13.8857 75.7656 13.6696V6.80215C75.7656 5.41805 75.9247 3.39498 74.244 3.39498C73.6526 3.39498 73.108 3.79504 72.8367 4.40746C72.496 5.17914 72.4511 5.95083 72.4511 6.80404V13.6146C72.4474 13.8668 72.2359 14.0697 71.9776 14.0697H71.9758Z" fill="black"/>
<path fill-rule="evenodd" clip-rule="evenodd" d="M39.5614 8.0267C39.5614 8.98799 39.5839 9.78811 39.1067 10.6413C38.7192 11.3353 38.1054 11.7619 37.4223 11.7619C36.4884 11.7619 35.9438 11.0414 35.9438 9.97392C35.9438 7.87501 37.8022 7.49391 39.5633 7.49391V8.0267H39.5614ZM42.0131 14.0352C41.8522 14.1812 41.6201 14.1907 41.4386 14.0921C40.6301 13.4114 40.486 13.0967 40.0443 12.4501C38.708 13.8286 37.7629 14.2419 36.0336 14.2419C33.9861 14.2419 32.3916 12.9621 32.3916 10.4005C32.3916 8.40021 33.4621 7.03886 34.9855 6.37145C36.305 5.78368 38.1484 5.67751 39.5596 5.51824V5.19781C39.5596 4.61004 39.6045 3.91799 39.2639 3.40985C38.9682 2.9567 38.3992 2.76899 37.8976 2.76899C36.9694 2.76899 36.144 3.25058 35.9419 4.24979C35.9007 4.47163 35.7398 4.69157 35.5189 4.70295L33.1608 4.44508C32.9624 4.39958 32.7397 4.23841 32.7977 3.92936C33.3405 1.03032 35.9232 0.15625 38.2383 0.15625C39.4211 0.15625 40.9688 0.47668 41.9027 1.38299C43.0855 2.50354 42.9732 3.99762 42.9732 5.62442V9.46389C42.9732 10.6186 43.4467 11.1248 43.8922 11.7486C44.0475 11.9723 44.0831 12.2397 43.8847 12.4027C43.3868 12.8256 42.5054 13.601 42.0188 14.039L42.0131 14.0333V14.0352Z" fill="black"/>
<path fill-rule="evenodd" clip-rule="evenodd" d="M7.66796 8.0267C7.66796 8.98799 7.69042 9.78811 7.21318 10.6413C6.82578 11.3353 6.21191 11.7619 5.5288 11.7619C4.59491 11.7619 4.05029 11.0414 4.05029 9.97392C4.05029 7.87501 5.90872 7.49391 7.66796 7.49391V8.0267ZM10.1215 14.0352C9.96059 14.1812 9.72852 14.1907 9.54698 14.0921C8.73848 13.4114 8.59437 13.0967 8.15269 12.4501C6.81829 13.8286 5.87129 14.2419 4.142 14.2419C2.09267 14.2419 0.5 12.9621 0.5 10.4005C0.5 8.40021 1.57052 7.03886 3.09394 6.37145C4.41337 5.78368 6.25683 5.67751 7.66796 5.51824V5.19781C7.66796 4.61004 7.71288 3.91799 7.37226 3.40985C7.07656 2.9567 6.50762 2.76899 6.00604 2.76899C5.07776 2.76899 4.25242 3.25058 4.05029 4.24979C4.00725 4.47163 3.84817 4.69157 3.62733 4.70295L1.2692 4.44508C1.07082 4.39958 0.848105 4.23841 0.906122 3.92936C1.44699 1.03032 4.03158 0.15625 6.34666 0.15625C7.52947 0.15625 9.07723 0.47668 10.0111 1.38299C11.1939 2.50354 11.0816 3.99762 11.0816 5.62442V9.46389C11.0816 10.6186 11.5551 11.1248 12.0006 11.7486C12.1559 11.9723 12.1915 12.2397 11.9931 12.4027C11.4952 12.8256 10.6138 13.601 10.1272 14.039L10.1215 14.0333V14.0352Z" fill="black"/>
</svg>
