<?xml version="1.0" standalone="no"?>
<svg id="Group491" width="890" height="786" viewBox="0 0 890 786" fill="none" xmlns="http://www.w3.org/2000/svg" style="max-width: 100%; max-height: 100%;">
<g clip-path="url(#clip0_570_1856)">
<path d="M445.002 499.005V250.525" stroke="#54C0EE" stroke-miterlimit="10" stroke-dasharray="0,0,0,248.48001098632812"><animate attributeType="XML" attributeName="stroke-dasharray" repeatCount="1" dur="6.25s" values="0,0,0,248.48001098632812; 
          0,74.54400329589845,173.93600769042968,0; 
          248.48001098632812,0,0,0" keyTimes="0; 0.30000000000000004; 1" fill="freeze"></animate></path>
<path d="M445.002 374.765L606.957 468.265L445.002 561.759V374.765Z" fill="#005593" stroke-dasharray="0,0,0,561.005126953125"><animate attributeType="XML" attributeName="stroke-dasharray" repeatCount="1" dur="6.25s" values="0,0,0,561.005126953125; 
          0,168.30153808593752,392.7035888671875,0; 
          561.005126953125,0,0,0" keyTimes="0; 0.30000000000000004; 1" fill="freeze"></animate></path>
<path d="M445.003 374.765L283.043 468.265L445.003 561.764V374.765Z" fill="#005593" stroke-dasharray="0,0,0,561.0213623046875"><animate attributeType="XML" attributeName="stroke-dasharray" repeatCount="1" dur="6.25s" values="0,0,0,561.0213623046875; 
          0,168.30640869140626,392.71495361328124,0; 
          561.0213623046875,0,0,0" keyTimes="0; 0.30000000000000004; 1" fill="freeze"></animate></path>
<path d="M283.048 281.271L445.003 374.765L283.048 468.265V281.271Z" fill="#CBEBFB" stroke-dasharray="0,0,0,561.0052490234375"><animate attributeType="XML" attributeName="stroke-dasharray" repeatCount="1" dur="6.25s" values="0,0,0,561.0052490234375; 
          0,168.30157470703128,392.70367431640625,0; 
          561.0052490234375,0,0,0" keyTimes="0; 0.30000000000000004; 1" fill="freeze"></animate></path>
<path d="M445.002 187.771L606.957 281.27L445.002 374.765V187.771Z" fill="#54C0EE" stroke-dasharray="0,0,0,561.0052490234375"><animate attributeType="XML" attributeName="stroke-dasharray" repeatCount="1" dur="6.25s" values="0,0,0,561.0052490234375; 
          0,168.30157470703128,392.70367431640625,0; 
          561.0052490234375,0,0,0" keyTimes="0; 0.30000000000000004; 1" fill="freeze"></animate></path>
<path d="M606.957 281.271L445.002 374.765L606.957 468.265V281.271Z" fill="#54C0EE" stroke-dasharray="0,0,0,561.0052490234375"><animate attributeType="XML" attributeName="stroke-dasharray" repeatCount="1" dur="6.25s" values="0,0,0,561.0052490234375; 
          0,168.30157470703128,392.70367431640625,0; 
          561.0052490234375,0,0,0" keyTimes="0; 0.30000000000000004; 1" fill="freeze"></animate></path>
<path d="M445.003 187.771L283.048 281.27L445.003 374.765V187.771Z" fill="#CBEBFB" stroke-dasharray="0,0,0,561.0052490234375"><animate attributeType="XML" attributeName="stroke-dasharray" repeatCount="1" dur="6.25s" values="0,0,0,561.0052490234375; 
          0,168.30157470703128,392.70367431640625,0; 
          561.0052490234375,0,0,0" keyTimes="0; 0.30000000000000004; 1" fill="freeze"></animate></path>
<path d="M445.002 374.765L660.215 499.005L445.002 623.245V374.765Z" stroke="#54C0EE" stroke-miterlimit="10" stroke-dasharray="0,0,0,745.4798583984375"><animate attributeType="XML" attributeName="stroke-dasharray" repeatCount="1" dur="6.25s" values="0,0,0,745.4798583984375; 
          0,223.64395751953128,521.8359008789063,0; 
          745.4798583984375,0,0,0" keyTimes="0; 0.30000000000000004; 1" fill="freeze"></animate></path>
<path d="M445.003 374.765L229.786 499.005L445.003 623.25V374.765Z" stroke="#005593" stroke-miterlimit="10" stroke-dasharray="0,0,0,745.4942626953125"><animate attributeType="XML" attributeName="stroke-dasharray" repeatCount="1" dur="6.25s" values="0,0,0,745.4942626953125; 
          0,223.64827880859377,521.8459838867187,0; 
          745.4942626953125,0,0,0" keyTimes="0; 0.30000000000000004; 1" fill="freeze"></animate></path>
<path d="M229.791 250.53L445.003 374.765L229.791 499.005V250.53Z" stroke="#54C0EE" stroke-miterlimit="10" stroke-dasharray="0,0,0,745.4705810546875"><animate attributeType="XML" attributeName="stroke-dasharray" repeatCount="1" dur="6.25s" values="0,0,0,745.4705810546875; 
          0,223.64117431640628,521.8294067382812,0; 
          745.4705810546875,0,0,0" keyTimes="0; 0.30000000000000004; 1" fill="freeze"></animate></path>
<path d="M445.002 126.28L660.21 250.53L445.002 374.765V126.28Z" stroke="#2191D0" stroke-miterlimit="10" stroke-dasharray="0,0,0,745.478759765625"><animate attributeType="XML" attributeName="stroke-dasharray" repeatCount="1" dur="6.25s" values="0,0,0,745.478759765625; 
          0,223.64362792968754,521.8351318359374,0; 
          745.478759765625,0,0,0" keyTimes="0; 0.30000000000000004; 1" fill="freeze"></animate></path>
<path d="M660.21 250.53L445.002 374.765L660.21 499.005V250.53Z" stroke="#94D4F3" stroke-miterlimit="10" stroke-dasharray="0,0,0,745.4637451171875"><animate attributeType="XML" attributeName="stroke-dasharray" repeatCount="1" dur="6.25s" values="0,0,0,745.4637451171875; 
          0,223.63912353515627,521.8246215820312,0; 
          745.4637451171875,0,0,0" keyTimes="0; 0.30000000000000004; 1" fill="freeze"></animate></path>
<path d="M445.003 126.28L229.791 250.53L445.003 374.765V126.28Z" stroke="#2191D0" stroke-miterlimit="10" stroke-dasharray="0,0,0,745.485595703125"><animate attributeType="XML" attributeName="stroke-dasharray" repeatCount="1" dur="6.25s" values="0,0,0,745.485595703125; 
          0,223.64567871093755,521.8399169921875,0; 
          745.485595703125,0,0,0" keyTimes="0; 0.30000000000000004; 1" fill="freeze"></animate></path>
<path d="M660.21 250.53L444.993 126.285" stroke="#005593" stroke-miterlimit="10" stroke-dasharray="0,0,0,248.50588989257812"><animate attributeType="XML" attributeName="stroke-dasharray" repeatCount="1" dur="6.25s" values="0,0,0,248.50588989257812; 
          0,74.55176696777345,173.95412292480466,0; 
          248.50588989257812,0,0,0" keyTimes="0; 0.30000000000000004; 1" fill="freeze"></animate></path>
<path d="M444.998 0L445.007 749.53" stroke="#2191D0" stroke-miterlimit="10" stroke-dasharray="0,0,0,749.530029296875"><animate attributeType="XML" attributeName="stroke-dasharray" repeatCount="1" dur="6.25s" values="0,0,0,749.530029296875; 
          0,224.85900878906253,524.6710205078125,0; 
          749.530029296875,0,0,0" keyTimes="0; 0.30000000000000004; 1" fill="freeze"></animate></path>
<path d="M45.1196 605.616L844.881 143.914" stroke="#2191D0" stroke-miterlimit="10" stroke-dasharray="0,0,0,923.4646606445312"><animate attributeType="XML" attributeName="stroke-dasharray" repeatCount="1" dur="6.25s" values="0,0,0,923.4646606445312; 
          0,277.03939819335943,646.4252624511719,0; 
          923.4646606445312,0,0,0" keyTimes="0; 0.30000000000000004; 1" fill="freeze"></animate></path>
<path d="M844.881 605.616L45.1196 143.914" stroke="#2191D0" stroke-miterlimit="10" stroke-dasharray="0,0,0,923.4646606445312"><animate attributeType="XML" attributeName="stroke-dasharray" repeatCount="1" dur="6.25s" values="0,0,0,923.4646606445312; 
          0,277.03939819335943,646.4252624511719,0; 
          923.4646606445312,0,0,0" keyTimes="0; 0.30000000000000004; 1" fill="freeze"></animate></path>
<path d="M433.627 413L445.004 393L456.373 413L433.627 413Z" fill="#54C0EE" stroke-dasharray="0,0,0,68.7609634399414"><animate attributeType="XML" attributeName="stroke-dasharray" repeatCount="1" dur="6.25s" values="0,0,0,68.7609634399414; 
          0,20.628289031982426,48.13267440795898,0; 
          68.7609634399414,0,0,0" keyTimes="0; 0.30000000000000004; 1" fill="freeze"></animate></path>
<path d="M485.693 364.331L462.684 364.479L474.32 344.633L485.693 364.331Z" fill="#005593" stroke-dasharray="0,0,0,68.76061248779297"><animate attributeType="XML" attributeName="stroke-dasharray" repeatCount="1" dur="6.25s" values="0,0,0,68.76061248779297; 
          0,20.628183746337893,48.13242874145507,0; 
          68.76061248779297,0,0,0" keyTimes="0; 0.30000000000000004; 1" fill="freeze"></animate></path>
<path d="M415.035 344.248L426.667 364.1L403.662 363.946L415.035 344.248Z" fill="#54C0EE" stroke-dasharray="0,0,0,68.75984191894531"><animate attributeType="XML" attributeName="stroke-dasharray" repeatCount="1" dur="6.25s" values="0,0,0,68.75984191894531; 
          0,20.627952575683597,48.13188934326172,0; 
          68.75984191894531,0,0,0" keyTimes="0; 0.30000000000000004; 1" fill="freeze"></animate></path>
<path d="M416 674L445.01 623L474 674L416 674Z" fill="#54C0EE" stroke-dasharray="0,0,0,175.33712768554688"><animate attributeType="XML" attributeName="stroke-dasharray" repeatCount="1" dur="6.25s" values="0,0,0,175.33712768554688; 
          0,52.60113830566407,122.73598937988281,0; 
          175.33712768554688,0,0,0" keyTimes="0; 0.30000000000000004; 1" fill="freeze"></animate></path>
<path d="M718.133 250.229L659.461 250.606L689.133 200L718.133 250.229Z" fill="#005593" stroke-dasharray="0,0,0,175.33619689941406"><animate attributeType="XML" attributeName="stroke-dasharray" repeatCount="1" dur="6.25s" values="0,0,0,175.33619689941406; 
          0,52.600859069824224,122.73533782958984,0; 
          175.33619689941406,0,0,0" keyTimes="0; 0.30000000000000004; 1" fill="freeze"></animate></path>
<path d="M200 200L229.662 250.623L171 250.229L200 200Z" fill="#54C0EE" stroke-dasharray="0,0,0,175.3359375"><animate attributeType="XML" attributeName="stroke-dasharray" repeatCount="1" dur="6.25s" values="0,0,0,175.3359375; 
          0,52.600781250000004,122.73515624999999,0; 
          175.3359375,0,0,0" keyTimes="0; 0.30000000000000004; 1" fill="freeze"></animate></path>
</g>
<path d="M20.3498 257.688C17.1178 257.688 14.6538 260.056 14.6538 263.4C14.6538 266.744 17.1178 269.096 20.3658 269.096C23.3418 269.096 25.3738 267.016 25.8218 264.744V262.792H19.7738V264.504H23.6138C23.2778 266.088 22.1737 267.08 20.4458 267.08C18.3658 267.08 16.9578 265.672 16.9578 263.4C16.9578 261.176 18.3498 259.752 20.3498 259.752C21.5338 259.752 22.4618 260.248 22.9738 261.192H25.5498C24.8298 258.952 22.8458 257.688 20.3498 257.688ZM27.479 257.832V269H33.399V267.224H29.719V257.832H27.479ZM45.7188 263.384C45.7188 260.04 43.1908 257.672 40.0068 257.672C36.8548 257.672 34.2788 260.04 34.2788 263.384C34.2788 266.744 36.8548 269.112 40.0068 269.112C43.1748 269.112 45.7188 266.744 45.7188 263.384ZM36.5828 263.384C36.5828 261.112 37.9748 259.688 40.0068 259.688C42.0228 259.688 43.4148 261.112 43.4148 263.384C43.4148 265.656 42.0228 267.112 40.0068 267.112C37.9748 267.112 36.5828 265.656 36.5828 263.384ZM53.6093 265.704C53.6093 266.648 52.9693 267.176 51.8813 267.176H49.6253V264.168H51.8333C52.9213 264.168 53.6093 264.744 53.6093 265.704ZM53.3373 261.048C53.3373 261.96 52.7293 262.44 51.6733 262.44H49.6253V259.64H51.6733C52.7293 259.64 53.3373 260.152 53.3373 261.048ZM55.8813 265.976C55.8813 264.664 54.9853 263.496 53.7213 263.272C54.8093 262.92 55.6253 262.072 55.6253 260.712C55.6253 259.048 54.3293 257.832 51.9933 257.832H47.3853V269H52.2013C54.5213 269 55.8813 267.752 55.8813 265.976ZM65.2505 269H67.6185L63.6025 257.816H60.9945L56.9785 269H59.3305L60.0665 266.872H64.5145L65.2505 269ZM63.9065 265.08H60.6745L62.2905 260.408L63.9065 265.08ZM69.1196 257.832V269H75.0396V267.224H71.3596V257.832H69.1196ZM76.4634 269H78.7034V257.832H76.4634V269ZM88.2285 257.832H80.6125V259.72H85.6045L80.6125 267.272V269H88.2285V267.112H83.2045L88.2285 259.56V257.832ZM97.7193 269H100.087L96.0713 257.816H93.4633L89.4473 269H91.7993L92.5353 266.872H96.9833L97.7193 269ZM96.3753 265.08H93.1432L94.7593 260.408L96.3753 265.08ZM100.996 259.64H103.972V269H106.212V259.64H109.188V257.832H100.996V259.64ZM110.823 269H113.063V257.832H110.823V269ZM126.172 263.384C126.172 260.04 123.644 257.672 120.46 257.672C117.308 257.672 114.732 260.04 114.732 263.384C114.732 266.744 117.308 269.112 120.46 269.112C123.628 269.112 126.172 266.744 126.172 263.384ZM117.036 263.384C117.036 261.112 118.428 259.688 120.46 259.688C122.476 259.688 123.868 261.112 123.868 263.384C123.868 265.656 122.476 267.112 120.46 267.112C118.428 267.112 117.036 265.656 117.036 263.384ZM135.15 257.816V265.496L130.078 257.816H127.838V269H130.078V261.336L135.15 269H137.39V257.816H135.15ZM9.35763 284.424C9.43763 282.888 8.34963 281.592 6.25363 281.592C4.20563 281.592 2.97363 282.776 2.97363 284.296C2.97363 285.032 3.19763 285.64 3.78963 286.36C2.14163 287.096 1.32563 288.328 1.32563 289.768C1.32563 291.848 2.95763 293.192 5.45363 293.192C6.97363 293.192 8.20563 292.728 9.24563 291.8L10.4616 293H13.2136L10.5096 290.328C10.7496 289.96 10.9736 289.576 11.1976 289.144L12.3176 287.176H9.98163L9.06963 288.696C9.03763 288.744 9.02163 288.792 8.98962 288.824L6.17363 286.04C5.46962 285.304 5.14963 284.824 5.14963 284.28C5.14963 283.736 5.58163 283.336 6.18963 283.336C6.78163 283.336 7.21363 283.704 7.18163 284.424H9.35763ZM5.51763 291.336C4.30163 291.336 3.53363 290.584 3.53363 289.64C3.53363 288.824 4.02963 288.152 5.08563 287.688L7.83763 290.408C7.18163 291.016 6.42963 291.336 5.51763 291.336ZM18.1353 281.832V293H24.0553V291.224H20.3753V281.832H18.1353ZM36.375 287.384C36.375 284.04 33.847 281.672 30.663 281.672C27.511 281.672 24.935 284.04 24.935 287.384C24.935 290.744 27.511 293.112 30.663 293.112C33.831 293.112 36.375 290.744 36.375 287.384ZM27.239 287.384C27.239 285.112 28.631 283.688 30.663 283.688C32.679 283.688 34.071 285.112 34.071 287.384C34.071 289.656 32.679 291.112 30.663 291.112C28.631 291.112 27.239 289.656 27.239 287.384ZM37.4975 287.4C37.4975 290.744 39.9455 293.096 43.1615 293.096C45.6415 293.096 47.6575 291.784 48.4095 289.48H45.8335C45.3055 290.568 44.3455 291.096 43.1455 291.096C41.1935 291.096 39.8015 289.656 39.8015 287.4C39.8015 285.128 41.1935 283.704 43.1455 283.704C44.3455 283.704 45.3055 284.232 45.8335 285.304H48.4095C47.6575 283.016 45.6415 281.688 43.1615 281.688C39.9455 281.688 37.4975 284.056 37.4975 287.4ZM57.9068 293H60.2748L56.2588 281.816H53.6508L49.6348 293H51.9868L52.7228 290.872H57.1708L57.9068 293ZM56.5628 289.08H53.3307L54.9468 284.408L56.5628 289.08ZM61.7759 281.832V293H67.6959V291.224H64.0159V281.832H61.7759ZM69.1196 281.832V293H75.0396V291.224H71.3596V281.832H69.1196ZM76.4634 293H78.7034V281.832H76.4634V293ZM88.2285 281.832H80.6125V283.72H85.6045L80.6125 291.272V293H88.2285V291.112H83.2045L88.2285 283.56V281.832ZM97.7193 293H100.087L96.0713 281.816H93.4633L89.4473 293H91.7993L92.5353 290.872H96.9833L97.7193 293ZM96.3753 289.08H93.1432L94.7593 284.408L96.3753 289.08ZM100.996 283.64H103.972V293H106.212V283.64H109.188V281.832H100.996V283.64ZM110.823 293H113.063V281.832H110.823V293ZM126.172 287.384C126.172 284.04 123.644 281.672 120.46 281.672C117.308 281.672 114.732 284.04 114.732 287.384C114.732 290.744 117.308 293.112 120.46 293.112C123.628 293.112 126.172 290.744 126.172 287.384ZM117.036 287.384C117.036 285.112 118.428 283.688 120.46 283.688C122.476 283.688 123.868 285.112 123.868 287.384C123.868 289.656 122.476 291.112 120.46 291.112C118.428 291.112 117.036 289.656 117.036 287.384ZM135.15 281.816V289.496L130.078 281.816H127.838V293H130.078V285.336L135.15 293H137.39V281.816H135.15Z" fill="black" stroke-dasharray="0,0,0,1286.01416015625"><animate attributeType="XML" attributeName="stroke-dasharray" repeatCount="1" dur="6.25s" values="0,0,0,1286.01416015625; 
          0,385.80424804687505,900.209912109375,0; 
          1286.01416015625,0,0,0" keyTimes="0; 0.30000000000000004; 1" fill="freeze"></animate></path>
<path d="M738.604 269H740.844V261.736L743.852 269H745.548L748.54 261.736V269H750.78V257.832H748.252L744.7 266.136L741.148 257.832H738.604V269ZM752.963 264.728C752.963 267.672 754.979 269.112 757.427 269.112C759.875 269.112 761.987 267.672 761.987 264.728V257.832H759.731V264.744C759.731 266.28 758.899 267.08 757.459 267.08C756.035 267.08 755.203 266.28 755.203 264.744V257.832H752.963V264.728ZM764.151 257.832V269H770.071V267.224H766.391V257.832H764.151ZM770.903 259.64H773.879V269H776.119V259.64H779.095V257.832H770.903V259.64ZM780.729 269H782.969V257.832H780.729V269ZM785.214 264.232H791.998V262.344H785.214V264.232ZM798.414 257.832H794.51V269H798.414C801.982 269 804.302 266.808 804.302 263.432C804.302 260.04 801.982 257.832 798.414 257.832ZM796.75 267.096V259.72H798.334C800.686 259.72 802.014 261.112 802.014 263.432C802.014 265.752 800.686 267.096 798.334 267.096H796.75ZM812.459 257.816H805.979V269H812.459V267.176H808.219V264.216H811.979V262.44H808.219V259.64H812.459V257.816ZM819.087 266.712L816.015 257.832H813.615L817.711 269H820.431L824.527 257.832H822.143L819.087 266.712ZM825.87 269H828.11V257.832H825.87V269ZM829.779 263.4C829.779 266.744 832.227 269.096 835.443 269.096C837.923 269.096 839.939 267.784 840.691 265.48H838.115C837.587 266.568 836.627 267.096 835.427 267.096C833.475 267.096 832.083 265.656 832.083 263.4C832.083 261.128 833.475 259.704 835.427 259.704C836.627 259.704 837.587 260.232 838.115 261.304H840.691C839.939 259.016 837.923 257.688 835.443 257.688C832.227 257.688 829.779 260.056 829.779 263.4ZM849.084 257.816H842.604V269H849.084V267.176H844.844V264.216H848.604V262.44H844.844V259.64H849.084V257.816ZM862.42 260.424C862.5 258.888 861.412 257.592 859.316 257.592C857.268 257.592 856.036 258.776 856.036 260.296C856.036 261.032 856.26 261.64 856.852 262.36C855.204 263.096 854.388 264.328 854.388 265.768C854.388 267.848 856.02 269.192 858.516 269.192C860.036 269.192 861.268 268.728 862.308 267.8L863.524 269H866.276L863.572 266.328C863.812 265.96 864.036 265.576 864.26 265.144L865.38 263.176H863.044L862.132 264.696C862.1 264.744 862.084 264.792 862.052 264.824L859.236 262.04C858.532 261.304 858.212 260.824 858.212 260.28C858.212 259.736 858.644 259.336 859.252 259.336C859.844 259.336 860.276 259.704 860.244 260.424H862.42ZM858.58 267.336C857.364 267.336 856.596 266.584 856.596 265.64C856.596 264.824 857.092 264.152 858.148 263.688L860.9 266.408C860.244 267.016 859.492 267.336 858.58 267.336ZM738.06 287.4C738.06 290.744 740.508 293.096 743.724 293.096C746.204 293.096 748.22 291.784 748.972 289.48H746.396C745.868 290.568 744.908 291.096 743.708 291.096C741.756 291.096 740.364 289.656 740.364 287.4C740.364 285.128 741.756 283.704 743.708 283.704C744.908 283.704 745.868 284.232 746.396 285.304H748.972C748.22 283.016 746.204 281.688 743.724 281.688C740.508 281.688 738.06 284.056 738.06 287.4ZM756.805 285.304C756.805 286.312 756.245 286.968 754.997 286.968H753.125V283.688H754.997C756.245 283.688 756.805 284.312 756.805 285.304ZM750.885 281.832V293H753.125V288.648H754.181L756.645 293H759.237L756.565 288.472C758.357 287.992 759.109 286.616 759.109 285.256C759.109 283.384 757.765 281.832 755.077 281.832H750.885ZM772.031 287.384C772.031 284.04 769.503 281.672 766.319 281.672C763.167 281.672 760.591 284.04 760.591 287.384C760.591 290.744 763.167 293.112 766.319 293.112C769.487 293.112 772.031 290.744 772.031 287.384ZM762.895 287.384C762.895 285.112 764.287 283.688 766.319 283.688C768.335 283.688 769.727 285.112 769.727 287.384C769.727 289.656 768.335 291.112 766.319 291.112C764.287 291.112 762.895 289.656 762.895 287.384ZM781.506 289.768C781.506 285.832 775.778 287.08 775.778 284.84C775.778 283.928 776.434 283.496 777.314 283.528C778.274 283.544 778.866 284.12 778.914 284.856H781.378C781.234 282.84 779.666 281.672 777.378 281.672C775.074 281.672 773.442 282.888 773.442 284.904C773.426 288.952 779.186 287.496 779.186 289.912C779.186 290.712 778.562 291.272 777.506 291.272C776.466 291.272 775.874 290.68 775.81 289.784H773.41C773.442 291.896 775.234 293.112 777.554 293.112C780.098 293.112 781.506 291.528 781.506 289.768ZM791.256 289.768C791.256 285.832 785.528 287.08 785.528 284.84C785.528 283.928 786.184 283.496 787.064 283.528C788.024 283.544 788.616 284.12 788.664 284.856H791.128C790.984 282.84 789.416 281.672 787.128 281.672C784.824 281.672 783.192 282.888 783.192 284.904C783.176 288.952 788.936 287.496 788.936 289.912C788.936 290.712 788.312 291.272 787.256 291.272C786.216 291.272 785.624 290.68 785.56 289.784H783.16C783.192 291.896 784.984 293.112 787.304 293.112C789.848 293.112 791.256 291.528 791.256 289.768ZM799.25 286.904V283.656H801.026C802.29 283.656 802.85 284.264 802.85 285.288C802.85 286.28 802.29 286.904 801.026 286.904H799.25ZM805.154 285.288C805.154 283.352 803.81 281.832 801.122 281.832H797.01V293H799.25V288.712H801.122C804.002 288.712 805.154 286.984 805.154 285.288ZM806.745 281.832V293H812.665V291.224H808.985V281.832H806.745ZM821.672 293H824.04L820.024 281.816H817.416L813.4 293H815.752L816.488 290.872H820.936L821.672 293ZM820.328 289.08H817.096L818.712 284.408L820.328 289.08ZM824.95 283.64H827.926V293H830.166V283.64H833.142V281.832H824.95V283.64ZM834.776 293H837.016V288.28H840.584V286.504H837.016V283.64H841.672V281.832H834.776V293ZM854.156 287.384C854.156 284.04 851.628 281.672 848.444 281.672C845.292 281.672 842.716 284.04 842.716 287.384C842.716 290.744 845.292 293.112 848.444 293.112C851.612 293.112 854.156 290.744 854.156 287.384ZM845.02 287.384C845.02 285.112 846.412 283.688 848.444 283.688C850.46 283.688 851.852 285.112 851.852 287.384C851.852 289.656 850.46 291.112 848.444 291.112C846.412 291.112 845.02 289.656 845.02 287.384ZM861.743 285.304C861.743 286.312 861.183 286.968 859.935 286.968H858.063V283.688H859.935C861.183 283.688 861.743 284.312 861.743 285.304ZM855.823 281.832V293H858.063V288.648H859.119L861.583 293H864.175L861.503 288.472C863.295 287.992 864.047 286.616 864.047 285.256C864.047 283.384 862.703 281.832 860.015 281.832H855.823ZM866.073 293H868.313V285.736L871.321 293H873.017L876.009 285.736V293H878.249V281.832H875.721L872.169 290.136L868.617 281.832H866.073V293ZM888.271 289.768C888.271 285.832 882.543 287.08 882.543 284.84C882.543 283.928 883.199 283.496 884.079 283.528C885.039 283.544 885.631 284.12 885.679 284.856H888.143C887.999 282.84 886.431 281.672 884.143 281.672C881.839 281.672 880.207 282.888 880.207 284.904C880.191 288.952 885.951 287.496 885.951 289.912C885.951 290.712 885.327 291.272 884.271 291.272C883.231 291.272 882.639 290.68 882.575 289.784H880.175C880.207 291.896 881.999 293.112 884.319 293.112C886.863 293.112 888.271 291.528 888.271 289.768Z" fill="black" stroke-dasharray="0,0,0,1364.3858642578125"><animate attributeType="XML" attributeName="stroke-dasharray" repeatCount="1" dur="6.25s" values="0,0,0,1364.3858642578125; 
          0,409.31575927734383,955.0701049804687,0; 
          1364.3858642578125,0,0,0" keyTimes="0; 0.30000000000000004; 1" fill="freeze"></animate></path>
<path d="M400.377 780H402.617V775.28H406.185V773.504H402.617V770.64H407.273V768.832H400.377V780ZM408.829 775.728C408.829 778.672 410.845 780.112 413.293 780.112C415.741 780.112 417.853 778.672 417.853 775.728V768.832H415.597V775.744C415.597 777.28 414.765 778.08 413.325 778.08C411.901 778.08 411.069 777.28 411.069 775.744V768.832H408.829V775.728ZM420.018 768.832V780H425.938V778.224H422.258V768.832H420.018ZM427.361 768.832V780H433.281V778.224H429.601V768.832H427.361ZM446.326 776.768C446.326 772.832 440.598 774.08 440.598 771.84C440.598 770.928 441.254 770.496 442.134 770.528C443.094 770.544 443.686 771.12 443.734 771.856H446.198C446.054 769.84 444.486 768.672 442.198 768.672C439.894 768.672 438.262 769.888 438.262 771.904C438.246 775.952 444.006 774.496 444.006 776.912C444.006 777.712 443.382 778.272 442.326 778.272C441.286 778.272 440.694 777.68 440.63 776.784H438.23C438.262 778.896 440.054 780.112 442.374 780.112C444.918 780.112 446.326 778.528 446.326 776.768ZM447.676 770.64H450.652V780H452.892V770.64H455.868V768.832H447.676V770.64ZM465.086 780H467.454L463.438 768.816H460.83L456.814 780H459.166L459.902 777.872H464.35L465.086 780ZM463.742 776.08H460.51L462.126 771.408L463.742 776.08ZM468.411 774.4C468.411 777.744 470.859 780.096 474.075 780.096C476.555 780.096 478.571 778.784 479.323 776.48H476.747C476.219 777.568 475.259 778.096 474.059 778.096C472.107 778.096 470.715 776.656 470.715 774.4C470.715 772.128 472.107 770.704 474.059 770.704C475.259 770.704 476.219 771.232 476.747 772.304H479.323C478.571 770.016 476.555 768.688 474.075 768.688C470.859 768.688 468.411 771.056 468.411 774.4ZM487.54 780H490.372L485.636 774.368L490.244 768.832H487.54L483.476 773.84V768.832H481.236V780H483.476V775.024L487.54 780Z" fill="black" stroke-dasharray="0,0,0,424.6531066894531"><animate attributeType="XML" attributeName="stroke-dasharray" repeatCount="1" dur="6.25s" values="0,0,0,424.6531066894531; 
          0,127.39593200683596,297.2571746826172,0; 
          424.6531066894531,0,0,0" keyTimes="0; 0.30000000000000004; 1" fill="freeze"></animate></path>
<defs>
<clipPath id="clip0_570_1856">
<rect width="800" height="749.53" fill="white" transform="translate(45)" stroke-dasharray="0,0,0,3099.06005859375"><animate attributeType="XML" attributeName="stroke-dasharray" repeatCount="1" dur="6.25s" values="0,0,0,3099.06005859375; 
          0,929.7180175781251,2169.342041015625,0; 
          3099.06005859375,0,0,0" keyTimes="0; 0.30000000000000004; 1" fill="freeze"></animate></rect>
</clipPath>
</defs>
<setting>{"type":"direct","speed":8,"random":1,"shift":1,"size":1,"rupture":70}</setting></svg>